<svg height="480pt" viewBox="0 0 480 480" width="480pt" xmlns="http://www.w3.org/2000/svg"><path d="m240 0c-132.546875 0-240 107.453125-240 240s107.453125 240 240 240 240-107.453125 240-240c-.148438-132.484375-107.515625-239.851562-240-240zm0 464c-123.710938 0-224-100.289062-224-224s100.289062-224 224-224 224 100.289062 224 224c-.140625 123.652344-100.347656 223.859375-224 224zm0 0"/><path d="m291.441406 128.800781c-2.792968-1.316406-6.089844-.921875-8.488281 1.015625l-128 104c-1.871094 1.519532-2.957031 3.800782-2.957031 6.207032 0 2.410156 1.085937 4.6875 2.957031 6.207031l128 104c2.398437 1.953125 5.703125 2.347656 8.496094 1.015625 2.789062-1.332032 4.5625-4.15625 4.550781-7.246094v-208c-.007812-3.078125-1.78125-5.875-4.558594-7.199219zm-11.441406 198.398438-107.3125-87.199219 107.3125-87.199219zm0 0"/></svg>