<svg height="480pt" viewBox="0 0 480 480" width="480pt" xmlns="http://www.w3.org/2000/svg"><path d="m240 0c-132.546875 0-240 107.453125-240 240s107.453125 240 240 240 240-107.453125 240-240c-.148438-132.484375-107.515625-239.851562-240-240zm0 464c-123.710938 0-224-100.289062-224-224s100.289062-224 224-224 224 100.289062 224 224c-.140625 123.652344-100.347656 223.859375-224 224zm0 0"/><path d="m312 184c0-2.609375-1.277344-5.054688-3.414062-6.550781l-80-56c-.238282-.125-.480469-.230469-.730469-.320313-.941407-.535156-1.984375-.867187-3.0625-.96875-.261719-.070312-.527344-.121094-.792969-.160156-.222656.035156-.445312.078125-.664062.136719-.542969.050781-1.078126.15625-1.601563.320312-.960937.253907-1.851563.71875-2.613281 1.359375-.4375.335938-.839844.714844-1.191406 1.136719-.144532.175781-.355469.269531-.480469.460937-.121094.238282-.230469.480469-.320313.730469-.535156.941407-.867187 1.984375-.96875 3.0625-.070312.261719-.121094.527344-.160156.792969v97.054688l-35.558594-23.710938c-3.675781-2.453125-8.644531-1.460938-11.097656 2.214844-2.453125 3.675781-1.460938 8.644531 2.214844 11.097656l38.042968 25.34375-38.015624 25.34375c-3.679688 2.453125-4.671876 7.421875-2.21875 11.097656 2.453124 3.675782 7.421874 4.667969 11.097656 2.214844l35.535156-23.710938v97.054688c.035156.269531.089844.535156.160156.800781.101563 1.078125.433594 2.121094.96875 3.0625.089844.25.199219.492188.320313.730469.109375.160156.292969.214844.414062.367188.550781.671874 1.210938 1.246093 1.953125 1.703124.28125.167969.503906.390626.800782.527344 1.050781.519532 2.207031.796875 3.382812.808594.953125-.019531 1.894531-.210938 2.785156-.558594.285156-.125.566406-.261718.839844-.417968.328125-.132813.644531-.289063.949219-.472657l80-56c2.140625-1.496093 3.410156-3.941406 3.410156-6.550781s-1.269531-5.054688-3.410156-6.550781l-70.621094-49.449219 70.632813-49.449219c2.136718-1.496093 3.414062-3.941406 3.414062-6.550781zm-80 152.632812v-81.265624l58.046875 40.632812zm0-112v-81.265624l58.046875 40.632812zm0 0"/></svg>