<svg height="480pt" viewBox="0 0 480 480" width="480pt" xmlns="http://www.w3.org/2000/svg"><path d="m240 0c-132.546875 0-240 107.453125-240 240s107.453125 240 240 240 240-107.453125 240-240c-.148438-132.484375-107.515625-239.851562-240-240zm0 464c-123.710938 0-224-100.289062-224-224s100.289062-224 224-224 224 100.289062 224 224c-.140625 123.652344-100.347656 223.859375-224 224zm0 0"/><path d="m296 120c-4.417969 0-8 3.582031-8 8v85.65625l-98.550781-91.511719c-2.332031-2.167969-5.726563-2.746093-8.644531-1.476562-2.917969 1.269531-4.804688 4.148437-4.804688 7.332031v208c0 3.183594 1.886719 6.0625 4.804688 7.332031 2.917968 1.269531 6.3125.691407 8.644531-1.476562l98.550781-91.511719v85.65625c0 4.417969 3.582031 8 8 8s8-3.582031 8-8v-208c0-4.417969-3.582031-8-8-8zm-104 197.65625v-171.3125l92.238281 85.65625zm0 0"/></svg>