<svg height="480pt" viewBox="0 0 480 480" width="480pt" xmlns="http://www.w3.org/2000/svg"><path d="m240 0c-132.546875 0-240 107.453125-240 240s107.453125 240 240 240 240-107.453125 240-240c-.148438-132.484375-107.515625-239.851562-240-240zm0 464c-123.710938 0-224-100.289062-224-224s100.289062-224 224-224 224 100.289062 224 224c-.140625 123.652344-100.347656 223.859375-224 224zm0 0"/><path d="m331.199219 128.664062c-2.917969-1.273437-6.316407-.691406-8.648438 1.480469l-98.550781 91.511719v-85.65625c0-3.183594-1.886719-6.0625-4.804688-7.332031-2.917968-1.269531-6.3125-.691407-8.644531 1.476562l-112 104c-1.625 1.511719-2.546875 3.632813-2.546875 5.855469s.921875 4.34375 2.546875 5.855469l112 104c2.332031 2.167969 5.726563 2.746093 8.644531 1.476562 2.917969-1.269531 4.804688-4.148437 4.804688-7.332031v-85.65625l98.550781 91.511719c2.332031 2.167969 5.726563 2.746093 8.644531 1.476562 2.917969-1.269531 4.804688-4.148437 4.804688-7.332031v-208c0-3.183594-1.882812-6.0625-4.800781-7.335938zm-123.199219 196.992188-92.238281-85.65625 92.238281-85.65625zm112 0-92.238281-85.65625 92.238281-85.65625zm0 0"/></svg>