<svg height="480pt" viewBox="0 0 480 480" width="480pt" xmlns="http://www.w3.org/2000/svg"><path d="m240 0c-132.546875 0-240 107.453125-240 240s107.453125 240 240 240 240-107.453125 240-240c-.148438-132.484375-107.515625-239.851562-240-240zm0 464c-123.710938 0-224-100.289062-224-224s100.289062-224 224-224 224 100.289062 224 224c-.140625 123.652344-100.347656 223.859375-224 224zm0 0"/><path d="m272 240c0-17.671875-14.328125-32-32-32s-32 14.328125-32 32 14.328125 32 32 32 32-14.328125 32-32zm-32 16c-8.835938 0-16-7.164062-16-16s7.164062-16 16-16 16 7.164062 16 16-7.164062 16-16 16zm0 0"/><path d="m217.703125 341.601562c-39.628906-8.726562-70.578125-39.675781-79.304687-79.304687-.976563-4.277344-5.214844-6.96875-9.5-6.035156-4.289063.933593-7.023438 5.148437-6.128907 9.441406 10.066407 45.742187 45.789063 81.464844 91.527344 91.535156.5625.121094 1.136719.183594 1.710937.1875 4.085938-.007812 7.507813-3.085937 7.945313-7.148437.433594-4.0625-2.257813-7.796875-6.25-8.667969zm0 0"/><path d="m351.128906 256.183594c-4.316406-.941406-8.578125 1.796875-9.519531 6.113281-8.726563 39.628906-39.683594 70.582031-79.3125 79.304687-4.011719.855469-6.726563 4.601563-6.285156 8.679688.4375 4.074219 3.886719 7.160156 7.988281 7.144531.574219-.003906 1.148438-.066406 1.710938-.1875 45.738281-10.070312 81.460937-45.792969 91.527343-91.535156.941407-4.316406-1.792969-8.578125-6.109375-9.519531zm0 0"/><path d="m265.703125 122.761719c-2.804687-.644531-5.738281.273437-7.679687 2.394531-1.945313 2.121094-2.597657 5.121094-1.714844 7.859375.882812 2.738281 3.171875 4.792969 5.988281 5.375 39.628906 8.726563 70.582031 39.683594 79.304687 79.3125.800782 3.671875 4.046876 6.292969 7.804688 6.296875.578125 0 1.152344-.058594 1.714844-.183594 4.316406-.941406 7.050781-5.203125 6.109375-9.519531-10.066407-45.742187-45.789063-81.464844-91.527344-91.535156zm0 0"/><path d="m128.871094 223.816406c.5625.125 1.136718.183594 1.714844.183594 3.757812-.003906 7.003906-2.625 7.804687-6.296875 8.726563-39.628906 39.683594-70.582031 79.3125-79.304687 2.816406-.582032 5.105469-2.636719 5.988281-5.375.882813-2.738282.230469-5.738282-1.714844-7.859376-1.941406-2.121093-4.875-3.039062-7.679687-2.394531-45.742187 10.066407-81.464844 45.789063-91.535156 91.527344-.941407 4.316406 1.792969 8.578125 6.109375 9.519531zm0 0"/></svg>