<svg height="480pt" viewBox="0 0 480 480" width="480pt" xmlns="http://www.w3.org/2000/svg"><path d="m240 0c-132.546875 0-240 107.453125-240 240s107.453125 240 240 240 240-107.453125 240-240c-.148438-132.484375-107.515625-239.851562-240-240zm0 464c-123.710938 0-224-100.289062-224-224s100.289062-224 224-224 224 100.289062 224 224c-.140625 123.652344-100.347656 223.859375-224 224zm0 0"/><path d="m344 304h-208c-4.417969 0-8 3.582031-8 8s3.582031 8 8 8h208c4.417969 0 8-3.582031 8-8s-3.582031-8-8-8zm0 0"/><path d="m136 240h208c3.183594 0 6.0625-1.886719 7.332031-4.804688 1.269531-2.917968.691407-6.3125-1.476562-8.644531l-104-112c-1.550781-1.558593-3.65625-2.433593-5.855469-2.433593s-4.304688.875-5.855469 2.433593l-104 112c-2.167969 2.332031-2.746093 5.726563-1.476562 8.644531 1.269531 2.917969 4.148437 4.804688 7.332031 4.804688zm104-108.238281 85.65625 92.238281h-171.3125zm0 0"/></svg>