<svg height="480pt" viewBox="0 0 480 480" width="480pt" xmlns="http://www.w3.org/2000/svg"><path d="m240 0c-132.546875 0-240 107.453125-240 240s107.453125 240 240 240 240-107.453125 240-240c-.148438-132.484375-107.515625-239.851562-240-240zm0 464c-123.710938 0-224-100.289062-224-224s100.289062-224 224-224 224 100.289062 224 224c-.140625 123.652344-100.347656 223.859375-224 224zm0 0"/><path d="m332 113.078125c-2.476562-1.425781-5.523438-1.425781-8 0l-110.128906 62.921875h-61.871094c-4.417969 0-8 3.582031-8 8v112c0 4.417969 3.582031 8 8 8h61.871094l110.128906 62.945312c2.476562 1.429688 5.53125 1.425782 8.007812-.003906 2.476563-1.433594 3.996094-4.082031 3.992188-6.941406v-240c-.003906-2.855469-1.527344-5.492188-4-6.921875zm-12 233.128906-100-57.152343c-1.21875-.695313-2.597656-1.058594-4-1.054688h-56v-96h56c1.402344.003906 2.78125-.359375 4-1.054688l100-57.152343zm0 0"/></svg>