<svg height="480pt" viewBox="0 0 480 480" width="480pt" xmlns="http://www.w3.org/2000/svg"><path d="m240 0c-132.546875 0-240 107.453125-240 240s107.453125 240 240 240 240-107.453125 240-240c-.148438-132.484375-107.515625-239.851562-240-240zm0 464c-123.710938 0-224-100.289062-224-224s100.289062-224 224-224 224 100.289062 224 224c-.140625 123.652344-100.347656 223.859375-224 224zm0 0"/><path d="m240 112c-66.242188.074219-119.925781 53.757812-120 120v80c0 13.253906 10.746094 24 24 24s24-10.746094 24-24v-32c0-13.253906-10.746094-24-24-24-2.730469.027344-5.4375.523438-8 1.472656v-25.472656c0-57.4375 46.5625-104 104-104s104 46.5625 104 104v25.472656c-2.5625-.949218-5.269531-1.445312-8-1.472656-13.253906 0-24 10.746094-24 24v32c0 13.253906 10.746094 24 24 24s24-10.746094 24-24v-80c-.074219-66.242188-53.757812-119.925781-120-120zm-96 160c4.417969 0 8 3.582031 8 8v32c0 4.417969-3.582031 8-8 8s-8-3.582031-8-8v-32c0-4.417969 3.582031-8 8-8zm192 48c-4.417969 0-8-3.582031-8-8v-32c0-4.417969 3.582031-8 8-8s8 3.582031 8 8v32c0 4.417969-3.582031 8-8 8zm0 0"/></svg>