<svg height="480pt" viewBox="0 0 480 480" width="480pt" xmlns="http://www.w3.org/2000/svg"><path d="m240 0c-132.546875 0-240 107.453125-240 240s107.453125 240 240 240 240-107.453125 240-240c-.148438-132.484375-107.515625-239.851562-240-240zm0 464c-123.710938 0-224-100.289062-224-224s100.289062-224 224-224 224 100.289062 224 224c-.140625 123.652344-100.347656 223.859375-224 224zm0 0"/><path d="m330.34375 138.34375-50.34375 50.34375v-36.6875c0-22.089844-17.910156-40-40-40s-40 17.910156-40 40v96c.03125 5.816406 1.34375 11.550781 3.847656 16.800781l-23.472656 23.472657c-8.070312-11.878907-12.382812-25.910157-12.375-40.273438v-16c0-4.417969-3.582031-8-8-8s-8 3.582031-8 8v16c.003906 18.609375 5.945312 36.730469 16.960938 51.726562l-30.617188 30.617188c-2.078125 2.007812-2.914062 4.984375-2.179688 7.78125.730469 2.796875 2.914063 4.980469 5.710938 5.710938 2.796875.734374 5.773438-.101563 7.78125-2.179688l29.878906-29.878906c14.304688 13.621094 32.792969 22.015625 52.464844 23.816406v32.40625h-24c-4.417969 0-8 3.582031-8 8s3.582031 8 8 8h64c4.417969 0 8-3.582031 8-8s-3.582031-8-8-8h-24v-32.40625c45.277344-4.171875 79.941406-42.125 80-87.59375v-16c0-4.417969-3.582031-8-8-8s-8 3.582031-8 8v16c.042969 28.699219-16.984375 54.675781-43.320312 66.078125-26.335938 11.40625-56.929688 6.054687-77.832032-13.613281l22.695313-22.695313c11.710937 10.550781 28.539062 13.199219 42.921875 6.753907 14.382812-6.441407 23.613281-20.761719 23.535156-36.523438v-36.6875l61.65625-61.65625c3.03125-3.140625 2.988281-8.128906-.097656-11.214844-3.085938-3.085937-8.074219-3.128906-11.214844-.097656zm-114.34375 109.65625v-96c0-13.253906 10.746094-24 24-24s24 10.746094 24 24v52.6875l-47.566406 47.570312c-.273438-1.40625-.417969-2.828124-.433594-4.257812zm48 0c0 13.253906-10.746094 24-24 24-5.542969-.023438-10.902344-1.980469-15.152344-5.535156l39.152344-39.152344zm0 0"/></svg>