<svg height="480pt" viewBox="0 0 480 480" width="480pt" xmlns="http://www.w3.org/2000/svg"><path d="m240 0c-132.546875 0-240 107.453125-240 240s107.453125 240 240 240 240-107.453125 240-240c-.148438-132.484375-107.515625-239.851562-240-240zm0 464c-123.710938 0-224-100.289062-224-224s100.289062-224 224-224 224 100.289062 224 224c-.140625 123.652344-100.347656 223.859375-224 224zm0 0"/><path d="m315.296875 206.472656c3.574219 2.597656 8.578125 1.804688 11.175781-1.769531s1.804688-8.578125-1.769531-11.175781l-88-64c-.085937-.0625-.199219-.070313-.296875-.128906-.253906-.167969-.523438-.320313-.796875-.453126-.371094-.183593-.753906-.332031-1.144531-.449218-.300782-.121094-.609375-.222656-.921875-.304688-.308594-.039062-.617188-.0625-.925781-.070312-.210938 0-.386719-.121094-.59375-.121094-.207032 0-.375.105469-.582032.121094-.320312.003906-.636718.03125-.953125.078125-.304687.078125-.605469.171875-.894531.289062-.390625.121094-.769531.269531-1.136719.449219-.292969.132812-.578125.289062-.847656.460938-.089844.058593-.203125.066406-.289063.128906l-88 64c-3.574218 2.597656-4.367187 7.601562-1.769531 11.175781 2.597657 3.574219 7.601563 4.367187 11.175781 1.769531l75.273438-54.769531v208.59375l-75.296875-54.769531c-3.574219-2.597656-8.578125-1.804688-11.175781 1.769531s-1.804688 8.578125 1.769531 11.175781l88 64c.257813.144532.523437.277344.800781.390625.199219.113281.367188.257813.566406.351563l.542969.21875c.890625.355468 1.835938.546875 2.792969.566406.960938-.019531 1.910156-.210938 2.800781-.566406l.542969-.21875c.199219-.09375.367188-.238282.566406-.351563.277344-.113281.542969-.246093.800782-.390625l88-64c3.574218-2.597656 4.367187-7.601562 1.769531-11.175781-2.597657-3.574219-7.601563-4.367187-11.175781-1.769531l-75.304688 54.769531v-208.59375zm0 0"/></svg>