<svg height="480pt" viewBox="0 0 480 480" width="480pt" xmlns="http://www.w3.org/2000/svg"><path d="m240 0c-132.546875 0-240 107.453125-240 240s107.453125 240 240 240 240-107.453125 240-240c-.148438-132.484375-107.515625-239.851562-240-240zm0 464c-123.710938 0-224-100.289062-224-224s100.289062-224 224-224 224 100.289062 224 224c-.140625 123.652344-100.347656 223.859375-224 224zm0 0"/><path d="m232 200v48c0 4.417969 3.582031 8 8 8s8-3.582031 8-8v-48c0-4.417969-3.582031-8-8-8s-8 3.582031-8 8zm0 0"/><path d="m247.199219 116.425781c-1.503907-2.523437-4.222657-4.070312-7.160157-4.070312-2.933593 0-5.65625 1.546875-7.160156 4.070312l-104 208c-1.234375 2.472657-1.105468 5.410157.34375 7.765625 1.449219 2.355469 4.011719 3.796875 6.777344 3.808594h208c2.78125.015625 5.367188-1.414062 6.835938-3.773438 1.46875-2.363281 1.605468-5.316406.363281-7.800781zm-98.253907 203.574219 91.054688-182.113281 91.054688 182.113281zm0 0"/><path d="m248 280c0 4.417969-3.582031 8-8 8s-8-3.582031-8-8 3.582031-8 8-8 8 3.582031 8 8zm0 0"/></svg>