<svg xmlns="http://www.w3.org/2000/svg" xmlns:xlink="http://www.w3.org/1999/xlink" viewBox="0 0 200 88"><defs><clipPath id="clip-path"><path d="M172.75,30.58H173" fill="none"/></clipPath><clipPath id="clip-path-2"><path d="M172.49,30.58h0" fill="none"/></clipPath><clipPath id="clip-path-3"><path d="M172.51,30.58h.07" fill="none"/></clipPath><clipPath id="clip-path-4"><path d="M172.58,30.58h.16" fill="none"/></clipPath><clipPath id="clip-path-5"><path d="M172.74,30.58h0" fill="none"/></clipPath><clipPath id="clip-path-6"><path d="M178.76,36.05h0l-8.68,16.66h0Z" fill="none"/></clipPath><clipPath id="clip-path-7"><path d="M178.85,36.06l-8.68,16.66h-.06q4.33-8.34,8.68-16.66Z" fill="#6f6f6f"/></clipPath><clipPath id="clip-path-8"><path d="M163.83,47.24h0" fill="none" clip-path="url(#clip-path-2)"/></clipPath><clipPath id="clip-path-9"><path d="M163.9,47.24h-.07" fill="none" clip-path="url(#clip-path-3)"/></clipPath><clipPath id="clip-path-10"><path d="M164.06,47.24h-.16" fill="none" clip-path="url(#clip-path-4)"/></clipPath><clipPath id="clip-path-11"><polyline points="164.07 47.24 164.06 47.24 164.06 47.24" fill="none" clip-path="url(#clip-path-5)"/></clipPath><clipPath id="clip-path-12"><path d="M164.29,47.25h-.22" fill="none" clip-path="url(#clip-path)"/></clipPath></defs><title>adim-logo</title><g style="isolation:isolate"><g id="Calque_1" data-name="Calque 1"><path d="M66.47,30.27C63.64,27.7,59.79,26.39,55,26.39H37.57V54.47H55.85a15.19,15.19,0,0,0,10.37-3.71,12.86,12.86,0,0,0,4.56-10A13.5,13.5,0,0,0,66.47,30.27ZM61.72,46.19a7.38,7.38,0,0,1-5.52,2.15H44.13V32.53H55.38a8.58,8.58,0,0,1,6.18,2.22,7.66,7.66,0,0,1,2.3,5.86A7.51,7.51,0,0,1,61.72,46.19Z" fill="#004a9c"/><rect x="75.87" y="26.39" width="6.56" height="28.08" fill="#004a9c"/><polygon points="6.9 54.43 0 54.42 10.97 31.11 16 34.58 6.9 54.43" fill="#004a9c"/><path d="M9.41,41.84H25.35v-10H20.72A5,5,0,0,0,16,34.6c-.23.53-.86.36-.86.87H10v0a8.71,8.71,0,0,1,2.63-6.6,9.82,9.82,0,0,1,7-2.47H31.3V54.51H25.35V47.35H9.41Z" fill="#004a9c"/><path d="M126.3,26.39h-7l-10,12.6-1.84,2.3L105.58,39l-10-12.58h-7V54.47h6.56V35.39l8.44,10.68.26.33h0A4.74,4.74,0,0,0,107.4,48,4.69,4.69,0,0,0,111,46.36h0l.12-.16,8.62-10.83v19.1h6.56V26.39Z" fill="#004a9c"/><path d="M29,63.23a5.66,5.66,0,0,1,1.83.29,3.64,3.64,0,0,1,1.44.92,4.54,4.54,0,0,1,.94,1.61,7.21,7.21,0,0,1,.34,2.31,7.34,7.34,0,0,1-.34,2.35,4.28,4.28,0,0,1-.94,1.59,3.59,3.59,0,0,1-1.44.9,5.66,5.66,0,0,1-1.83.28H25.49V63.23Zm-1.65,8.69h1.46a3.62,3.62,0,0,0,1.1-.17,2.09,2.09,0,0,0,.9-.58,2.77,2.77,0,0,0,.6-1.09,5.5,5.5,0,0,0,.23-1.72,5.66,5.66,0,0,0-.23-1.73,2.89,2.89,0,0,0-.6-1.1,2.16,2.16,0,0,0-.9-.57,3.62,3.62,0,0,0-1.1-.17H27.37Z" fill="#004a9c"/><path d="M36.43,70.64a1.52,1.52,0,0,0,.62,1.12,2.14,2.14,0,0,0,1.18.31,1.57,1.57,0,0,0,1-.29,2,2,0,0,0,.64-.8l1.34.62a4.07,4.07,0,0,1-.47.77,2.94,2.94,0,0,1-1.46,1.06,3.23,3.23,0,0,1-1.06.16,4.26,4.26,0,0,1-1.46-.24,3.2,3.2,0,0,1-1.16-.74,3.38,3.38,0,0,1-.76-1.19,4.78,4.78,0,0,1-.26-1.64,4.54,4.54,0,0,1,.25-1.55,3.43,3.43,0,0,1,.72-1.2,3.16,3.16,0,0,1,1.12-.77A3.77,3.77,0,0,1,38.08,66a3.1,3.1,0,0,1,2.49,1,4.19,4.19,0,0,1,.88,2.83Zm3.08-1.8a1.72,1.72,0,0,0-.46-1.07,1.4,1.4,0,0,0-1-.36,1.5,1.5,0,0,0-1.21.51,2.07,2.07,0,0,0-.44,1.39Zm.39-5.37-2.43,1.94-.82-.89,2.24-2.21Z" fill="#004a9c"/><path d="M48.91,66.1l-2.33,7.38H44.23L41.91,66.1l1.89,0,1.63,6,1.61-6Z" fill="#004a9c"/><path d="M51.32,70.64A1.53,1.53,0,0,0,52,71.76a2.13,2.13,0,0,0,1.17.31,1.55,1.55,0,0,0,1-.29,1.9,1.9,0,0,0,.64-.8l1.35.62a4.07,4.07,0,0,1-.47.77A3,3,0,0,1,55,73a2.82,2.82,0,0,1-.83.42,3.13,3.13,0,0,1-1,.16,4.28,4.28,0,0,1-1.47-.24,3.25,3.25,0,0,1-1.91-1.93,4.55,4.55,0,0,1-.27-1.64,4.8,4.8,0,0,1,.25-1.55,3.43,3.43,0,0,1,.72-1.2,3.2,3.2,0,0,1,1.13-.77A3.7,3.7,0,0,1,53,66a3.11,3.11,0,0,1,2.49,1,4.24,4.24,0,0,1,.88,2.83Zm3.08-1.8a1.61,1.61,0,0,0-.46-1.07,1.4,1.4,0,0,0-1-.36,1.51,1.51,0,0,0-1.21.51,2.12,2.12,0,0,0-.43,1.39Z" fill="#004a9c"/><path d="M59.65,62.85V73.48H57.8V62.91Z" fill="#004a9c"/><path d="M64.66,66a3.46,3.46,0,0,1,1.48.3,3.26,3.26,0,0,1,1.1.79,3.54,3.54,0,0,1,.68,1.2,4.7,4.7,0,0,1,.23,1.49,4.81,4.81,0,0,1-.23,1.5,3.58,3.58,0,0,1-.68,1.21,3.31,3.31,0,0,1-1.1.81,3.8,3.8,0,0,1-3,0,3.27,3.27,0,0,1-1.09-.81,3.42,3.42,0,0,1-.68-1.21,4.81,4.81,0,0,1-.23-1.5,4.7,4.7,0,0,1,.23-1.49,3.38,3.38,0,0,1,.68-1.2,3.22,3.22,0,0,1,1.09-.79A3.49,3.49,0,0,1,64.66,66Zm0,1.52a1.45,1.45,0,0,0-.7.17,1.52,1.52,0,0,0-.52.49,2.19,2.19,0,0,0-.31.71,3.62,3.62,0,0,0-.1.89,3.68,3.68,0,0,0,.1.89,2.36,2.36,0,0,0,.31.74,1.52,1.52,0,0,0,.52.49,1.35,1.35,0,0,0,.7.18,1.39,1.39,0,0,0,.71-.18,1.41,1.41,0,0,0,.51-.49,2.14,2.14,0,0,0,.31-.74,3.68,3.68,0,0,0,.11-.89,3.62,3.62,0,0,0-.11-.89,2,2,0,0,0-.31-.71,1.41,1.41,0,0,0-.51-.49A1.49,1.49,0,0,0,64.66,67.51Z" fill="#004a9c"/><path d="M71.34,66.06v1.12A2.6,2.6,0,0,1,73.63,66a2.73,2.73,0,0,1,1.24.27,2.35,2.35,0,0,1,.87.76,3.85,3.85,0,0,1,.51,1.16,5.73,5.73,0,0,1,.17,1.48,7.32,7.32,0,0,1-.16,1.61,3.5,3.5,0,0,1-.53,1.24,2.49,2.49,0,0,1-.93.8,3.06,3.06,0,0,1-1.38.28,2.65,2.65,0,0,1-1.1-.19,2.4,2.4,0,0,1-.78-.57v4l-1.85.06V66.1Zm.2,5.18a1.52,1.52,0,0,0,1.41.83,1.35,1.35,0,0,0,1.22-.67,2.39,2.39,0,0,0,.29-.75,5.58,5.58,0,0,0,.08-.94,3.09,3.09,0,0,0-.35-1.6,1.25,1.25,0,0,0-1.16-.6,1.44,1.44,0,0,0-.86.29,2,2,0,0,0-.63.77Z" fill="#004a9c"/><path d="M79.61,66.06v1.12A2.63,2.63,0,0,1,81.9,66a2.74,2.74,0,0,1,1.25.27A2.25,2.25,0,0,1,84,67a3.63,3.63,0,0,1,.52,1.16,6.2,6.2,0,0,1,.17,1.48,7.32,7.32,0,0,1-.16,1.61A3.69,3.69,0,0,1,84,72.51a2.6,2.6,0,0,1-.94.8,3,3,0,0,1-1.37.28,2.65,2.65,0,0,1-1.1-.19,2.3,2.3,0,0,1-.78-.57v4L78,76.91V66.1Zm.21,5.18a1.51,1.51,0,0,0,1.41.83,1.37,1.37,0,0,0,.72-.18,1.46,1.46,0,0,0,.5-.49,2.16,2.16,0,0,0,.28-.75,4.69,4.69,0,0,0,.09-.94,3.19,3.19,0,0,0-.35-1.6,1.26,1.26,0,0,0-1.17-.6,1.48,1.48,0,0,0-.86.29,2.05,2.05,0,0,0-.62.77Z" fill="#004a9c"/><path d="M87.51,70.64a1.56,1.56,0,0,0,.63,1.12,2.13,2.13,0,0,0,1.17.31,1.6,1.6,0,0,0,1-.29,2.07,2.07,0,0,0,.64-.8l1.34.62a4.07,4.07,0,0,1-.47.77,3,3,0,0,1-.64.64,2.82,2.82,0,0,1-.83.42,3.13,3.13,0,0,1-1,.16,4.36,4.36,0,0,1-1.47-.24,3.25,3.25,0,0,1-1.91-1.93,4.93,4.93,0,0,1,0-3.19,3.18,3.18,0,0,1,1.84-2A3.7,3.7,0,0,1,89.17,66a3.1,3.1,0,0,1,2.49,1,4.24,4.24,0,0,1,.88,2.83Zm3.08-1.8a1.66,1.66,0,0,0-.45-1.07,1.43,1.43,0,0,0-1-.36,1.49,1.49,0,0,0-1.2.51,2.07,2.07,0,0,0-.44,1.39Z" fill="#004a9c"/><path d="M95.63,66.06v1.23a2.46,2.46,0,0,1,.89-.9A2.61,2.61,0,0,1,98,66a2,2,0,0,1,2.08,1.35,2.72,2.72,0,0,1,.93-1,2.61,2.61,0,0,1,1.47-.4,2.2,2.2,0,0,1,1.73.68,3,3,0,0,1,.61,2.07v4.74H103v-4.8a1,1,0,0,0-1.13-1.17,1.48,1.48,0,0,0-.87.28,1.93,1.93,0,0,0-.64.78v4.91H98.48v-4.8a1,1,0,0,0-1.14-1.17,1.48,1.48,0,0,0-.87.28,1.88,1.88,0,0,0-.63.78v4.91H94V66.1Z" fill="#004a9c"/><path d="M108.06,70.64a1.56,1.56,0,0,0,.63,1.12,2.14,2.14,0,0,0,1.18.31,1.59,1.59,0,0,0,1-.29,2,2,0,0,0,.64-.8l1.34.62a4.07,4.07,0,0,1-.47.77,2.78,2.78,0,0,1-.64.64,2.82,2.82,0,0,1-.83.42,3.13,3.13,0,0,1-1,.16,4.26,4.26,0,0,1-1.46-.24,3.2,3.2,0,0,1-1.16-.74,3.38,3.38,0,0,1-.76-1.19,5.11,5.11,0,0,1,0-3.19,3.43,3.43,0,0,1,.72-1.2,3.16,3.16,0,0,1,1.12-.77,3.73,3.73,0,0,1,1.44-.27,3.1,3.1,0,0,1,2.49,1,4.19,4.19,0,0,1,.88,2.83Zm3.09-1.8a1.72,1.72,0,0,0-.46-1.07,1.42,1.42,0,0,0-1-.36,1.5,1.5,0,0,0-1.21.51,2.07,2.07,0,0,0-.44,1.39Z" fill="#004a9c"/><path d="M116.18,67.29a2.54,2.54,0,0,1,1-1,3,3,0,0,1,1.38-.34,2.36,2.36,0,0,1,1.75.65,2.79,2.79,0,0,1,.64,2v4.8h-1.85V68.66a1.12,1.12,0,0,0-.32-.86,1.3,1.3,0,0,0-.88-.29,1.5,1.5,0,0,0-.88.29,2.05,2.05,0,0,0-.62.77v4.91h-1.85V66.1l1.64,0Z" fill="#004a9c"/><path d="M125,64.22V66.1h1.77l-.06,1.47H125v3.54a1,1,0,0,0,.24.76.89.89,0,0,0,.62.2,3.39,3.39,0,0,0,.83-.12l.27,1.37a4.25,4.25,0,0,1-.72.2,4.4,4.4,0,0,1-.86.07,2.22,2.22,0,0,1-1.67-.58,2.59,2.59,0,0,1-.56-1.85V67.57H122V66.1h1.09V64.44Z" fill="#004a9c"/><path d="M57.2,78.32a.85.85,0,0,1,.31-.71,1.19,1.19,0,0,1,1.43,0,.87.87,0,0,1,.3.71.85.85,0,0,1-.3.7,1.19,1.19,0,0,1-1.43,0A.83.83,0,0,1,57.2,78.32Zm1.94,2.13v7.44H57.29V80.51Z" fill="#004a9c"/><path d="M62.93,80.46V81.7a2.46,2.46,0,0,1,.89-.9,2.61,2.61,0,0,1,1.47-.4,2,2,0,0,1,2.08,1.34,2.78,2.78,0,0,1,.93-.94,2.66,2.66,0,0,1,1.47-.4,2.2,2.2,0,0,1,1.73.68,3,3,0,0,1,.61,2.07v4.74H70.26v-4.8a1,1,0,0,0-1.13-1.17,1.49,1.49,0,0,0-.86.27,1.87,1.87,0,0,0-.64.79v4.91H65.78v-4.8a1,1,0,0,0-1.14-1.17,1.48,1.48,0,0,0-.87.28,1.88,1.88,0,0,0-.63.78v4.91H61.29V80.51Z" fill="#004a9c"/><path d="M75.74,80.46V81.7a2.46,2.46,0,0,1,.89-.9,2.61,2.61,0,0,1,1.47-.4,2,2,0,0,1,2.08,1.34,2.81,2.81,0,0,1,.94-.94,2.61,2.61,0,0,1,1.47-.4,2.23,2.23,0,0,1,1.73.68,3,3,0,0,1,.6,2.07v4.74H83.08v-4.8a1,1,0,0,0-1.14-1.17,1.51,1.51,0,0,0-.86.27,1.87,1.87,0,0,0-.64.79v4.91H78.59v-4.8a1,1,0,0,0-1.14-1.17,1.52,1.52,0,0,0-.87.28A1.88,1.88,0,0,0,76,83v4.91H74.1V80.51Z" fill="#004a9c"/><path d="M89.78,80.4a3.62,3.62,0,0,1,1.48.29,3.29,3.29,0,0,1,1.1.8A3.59,3.59,0,0,1,93,82.68a4.81,4.81,0,0,1,.22,1.5,4.9,4.9,0,0,1-.22,1.5,3.68,3.68,0,0,1-.68,1.21,3.31,3.31,0,0,1-1.1.81,3.8,3.8,0,0,1-3,0,3.31,3.31,0,0,1-1.1-.81,3.49,3.49,0,0,1-.67-1.21,4.62,4.62,0,0,1-.23-1.5,4.54,4.54,0,0,1,.23-1.5,3.4,3.4,0,0,1,.67-1.19,3.29,3.29,0,0,1,1.1-.8A3.62,3.62,0,0,1,89.78,80.4Zm0,1.52a1.52,1.52,0,0,0-.71.17,1.66,1.66,0,0,0-.51.48,2.34,2.34,0,0,0-.31.72,3.62,3.62,0,0,0-.1.89,3.68,3.68,0,0,0,.1.89,2.3,2.3,0,0,0,.31.73,1.62,1.62,0,0,0,.51.5,1.41,1.41,0,0,0,.71.18,1.39,1.39,0,0,0,.71-.18,1.52,1.52,0,0,0,.51-.5,2.3,2.3,0,0,0,.31-.73,3.68,3.68,0,0,0,.11-.89,3.62,3.62,0,0,0-.11-.89,2.34,2.34,0,0,0-.31-.72,1.56,1.56,0,0,0-.51-.48A1.49,1.49,0,0,0,89.78,81.92Z" fill="#004a9c"/><path d="M96.66,77.26v4.2a2.16,2.16,0,0,1,.92-.8,2.84,2.84,0,0,1,1.17-.26,2.65,2.65,0,0,1,1.23.27,2.51,2.51,0,0,1,.87.75,3.57,3.57,0,0,1,.52,1.15,6.31,6.31,0,0,1,.17,1.5,7.26,7.26,0,0,1-.17,1.62,3.44,3.44,0,0,1-.55,1.24,2.32,2.32,0,0,1-.94.79,2.94,2.94,0,0,1-1.34.28,2.89,2.89,0,0,1-1.3-.29,2.47,2.47,0,0,1-.9-.74c0,.21-.07.39-.1.54a2.67,2.67,0,0,1-.12.49l-1.58-.11a3.67,3.67,0,0,0,.11-.54c0-.2.06-.4.08-.6s0-.39.06-.57,0-.33,0-.45V77.32Zm0,8.37a1.5,1.5,0,0,0,1.41.85,1.33,1.33,0,0,0,1.21-.68,2.3,2.3,0,0,0,.28-.75,4.62,4.62,0,0,0,.09-.94,3.18,3.18,0,0,0-.35-1.59,1.23,1.23,0,0,0-1.15-.6,1.54,1.54,0,0,0-.87.27,2,2,0,0,0-.62.71Z" fill="#004a9c"/><path d="M103,78.32a.87.87,0,0,1,.3-.71,1.16,1.16,0,0,1,.72-.24,1.09,1.09,0,0,1,.71.24.87.87,0,0,1,.3.71.85.85,0,0,1-.3.7,1.09,1.09,0,0,1-.71.24,1.16,1.16,0,0,1-.72-.24A.85.85,0,0,1,103,78.32Zm1.94,2.13v7.44h-1.85V80.51Z" fill="#004a9c"/><path d="M108.93,77.26V87.89h-1.84V77.32Z" fill="#004a9c"/><path d="M111,78.32a.85.85,0,0,1,.31-.71,1.19,1.19,0,0,1,1.43,0,.87.87,0,0,1,.3.71.85.85,0,0,1-.3.7,1.19,1.19,0,0,1-1.43,0A.83.83,0,0,1,111,78.32Zm1.94,2.13v7.44h-1.85V80.51Z" fill="#004a9c"/><path d="M116.34,85.05a1.56,1.56,0,0,0,.63,1.12,2.13,2.13,0,0,0,1.17.31,1.6,1.6,0,0,0,1-.29,2.07,2.07,0,0,0,.64-.8l1.34.62a4.07,4.07,0,0,1-.47.77,3,3,0,0,1-.64.64,2.82,2.82,0,0,1-.83.42,3.13,3.13,0,0,1-1,.16,4.36,4.36,0,0,1-1.47-.24,3.25,3.25,0,0,1-1.15-.74,3.33,3.33,0,0,1-.76-1.19,4.58,4.58,0,0,1-.27-1.64,4.5,4.5,0,0,1,.26-1.55,3.16,3.16,0,0,1,.72-1.2,3,3,0,0,1,1.12-.77A3.73,3.73,0,0,1,118,80.4a3.07,3.07,0,0,1,2.49,1,4.24,4.24,0,0,1,.88,2.83Zm3.08-1.8a1.66,1.66,0,0,0-.45-1.07,1.43,1.43,0,0,0-1-.36,1.49,1.49,0,0,0-1.2.51,2.07,2.07,0,0,0-.44,1.39Z" fill="#004a9c"/><path d="M124.46,80.46V81.7a2.57,2.57,0,0,1,1-1A3,3,0,0,1,127,80.4l0,.3c0,.19,0,.4-.07.62s0,.42-.06.61,0,.28,0,.29a3.15,3.15,0,0,0-1.18.16,2.07,2.07,0,0,0-1,.75v4.76h-1.85V80.51Z" fill="#004a9c"/><polygon points="172.7 60.23 154.08 66.29 162.75 49.63 181.38 43.57 172.7 60.23" fill="#6f6f6f"/><g style="isolation:isolate"><g style="isolation:isolate"><path d="M160.8,48.16a.52.52,0,0,1,.1-.11" fill="#00498c"/><path d="M169.58,31.39a.94.94,0,0,0-.1.1" fill="#00498c"/><path d="M160.64,48.39l0,0" fill="#00488a"/><path d="M169.35,31.69l0,0" fill="#00488a"/></g></g><g style="isolation:isolate"><g clip-path="url(#clip-path-6)"><g style="isolation:isolate"><path d="M169.77,52.81l8.67-16.66a.47.47,0,0,1,.15-.06.5.5,0,0,1,.19,0l-8.67,16.66a.51.51,0,0,0-.2,0,.35.35,0,0,0-.14.06" fill="#004a8d"/><polyline points="170.11 52.71 178.78 36.05 178.79 36.05 170.12 52.71 170.11 52.71" fill="#00498d"/></g></g></g><polygon points="170.12 52.71 178.79 36.05 181.38 43.57 172.7 60.23 170.12 52.71" fill="#8f809b"/><g style="isolation:isolate"><path d="M178.85,36.06l-8.68,16.66h-.06q4.33-8.34,8.68-16.66Z" fill="#6f6f6f"/><g clip-path="url(#clip-path-7)"><g style="isolation:isolate"><path d="M170.17,52.72l8.68-16.66h-.09l-8.68,16.66h.09" fill="#6f6f6f"/></g></g></g><g style="isolation:isolate"><g clip-path="url(#clip-path-8)"><g style="isolation:isolate"><path d="M163.7,47.24a9.82,9.82,0,0,1,1.42.08" fill="#00498d"/><path d="M173.8,30.66a9.82,9.82,0,0,0-1.42-.08" fill="#00498d"/></g></g></g><g style="isolation:isolate"><g clip-path="url(#clip-path-9)"><g style="isolation:isolate"><path d="M163.7,47.24a9.82,9.82,0,0,1,1.42.08" fill="#00498d"/><path d="M173.8,30.66a9.82,9.82,0,0,0-1.42-.08" fill="#00498d"/></g></g></g><g style="isolation:isolate"><g clip-path="url(#clip-path-10)"><g style="isolation:isolate"><path d="M163.7,47.24a9.82,9.82,0,0,1,1.42.08" fill="#00498d"/><path d="M173.8,30.66a9.82,9.82,0,0,0-1.42-.08" fill="#00498d"/></g></g></g><g style="isolation:isolate"><g clip-path="url(#clip-path-11)"><g style="isolation:isolate"><path d="M163.7,47.24a9.82,9.82,0,0,1,1.42.08" fill="#00498d"/><path d="M173.8,30.66a9.82,9.82,0,0,0-1.42-.08" fill="#00498d"/></g></g></g><g style="isolation:isolate"><g clip-path="url(#clip-path-12)"><g style="isolation:isolate"><path d="M163.7,47.24a9.82,9.82,0,0,1,1.42.08" fill="#00498d"/><path d="M173.8,30.66a9.82,9.82,0,0,0-1.42-.08" fill="#00498d"/></g></g></g><g opacity="0.82"><polyline points="166.45 41.67 157.31 44.64 165.99 27.98 175.13 25" fill="#004a8e"/></g><g opacity="0.8"><polyline points="166.45 41.67 157.31 44.64 165.99 27.98 175.13 25 173.78 34.72 166.45 41.68" fill="#b4cbd8"/></g><polygon points="191.32 54.19 172.7 60.24 181.38 43.58 200 37.52 191.32 54.19" fill="#b6bfc6" opacity="0.85"/><g style="mix-blend-mode:multiply"><polygon points="185.08 35.62 193.75 18.96 200 37.52 191.32 54.19 185.08 35.62" fill="#d7d9db"/></g><g opacity="0.28"><polygon points="185.08 35.62 193.75 18.96 200 37.52 191.32 54.19 185.08 35.62" fill="#d7d9db"/></g><g style="isolation:isolate"><path d="M162.31,57.66l-.12-.09" fill="#8e8e8e"/><path d="M171.16,41l.12.09" fill="#8e8e8e"/></g><path d="M168.89,6.44l2.42,7.21.09,0a1.09,1.09,0,0,0,.56-.56c.06-.09.12-.2.2-.31a10.27,10.27,0,0,1,4-3.52l.15-.05a2,2,0,0,1,2.66,1.2l.08.16a38.57,38.57,0,0,1,1.52,3.65,5.42,5.42,0,0,1,.23,3.55,1.8,1.8,0,0,1-1.28,1.11l-.26.08a9.45,9.45,0,0,1-4.93-.33l-.32-.12-.15-.07-.18-.07a1.91,1.91,0,0,0-.8-.2l2.3,6.86L166,28a1.76,1.76,0,0,1,.24-1.13,8.92,8.92,0,0,0,.39-5.61,1.84,1.84,0,0,0-1.13-1.3,5.46,5.46,0,0,0-3.55.2l-.57.19-1,.38-.12.05-.53.22-1.13.49-.31.14c-1.49.66-1.74,1.68-1.38,2.74.61,1.79,3,3.72,3.94,4.3a1.12,1.12,0,0,1,.57.56.53.53,0,0,1,0,.25l-4.94,1.6L150.26,12.5Z" fill="#e4eaee" opacity="0.85"/><g opacity="0.8"><polygon points="152.77 46.12 147.83 47.72 156.51 31.06 161.45 29.45 152.77 46.12" fill="#a2bdcd"/></g><polygon points="147.83 47.72 141.59 29.16 150.26 12.5 156.51 31.06 147.83 47.72" fill="#d0d7db" opacity="0.85"/><path d="M166.62,21.24a2.91,2.91,0,0,0-.3-.64l-.15-.2-.12-.13-.1-.09-.1-.07-.1-.06-.09-.05-.11,0-.06,0-.2-.05h-.11l-.1,0h-.22l-.18,0h0l-.25,0h-.87l-.14,0h-.1l-.14,0H163l-.16,0-.09,0-.26.06-.05,0-.22.06-.1,0-.15,0,0,0h-.09l-.23.08h-.11l0,0-.13,0,0,0h0l-.93.36-.12.05-.53.22-1.13.49-.17.08h0l-.11.05-.23.11-.07,0-.1,0,0,0-.09.06-.11.07-.07.05-.06,0-.06.05,0,0-.11.1,0,0-.07.08-.05.06h0a.21.21,0,0,1,0,.06l0,.06v0l0,.07a.09.09,0,0,0,0,.05l0,.06-8.68,16.66.07-.12,0,0,.06-.09,0-.06.06-.07.07-.08.13-.12,0,0,.11-.09.09-.06.1-.07.09-.06.13-.07.08,0,.22-.11.28-.12h0l1.15-.5.53-.22.12-.05,1-.37.16-.06h0l.09,0,0,0,.24-.08.28-.08.09,0,.19-.06.11,0,.17,0,.11,0,.15,0,.11,0,.15,0,.1,0h.14l.1,0h.81l.27,0h0l.23,0,.08,0,.17,0,.09,0,.23.06.07,0,.1,0,.1.05.09.06.1.07.1.09.12.13a1,1,0,0,1,.15.2,2.91,2.91,0,0,1,.3.64,8.85,8.85,0,0,1-.39,5.61,1.76,1.76,0,0,0-.24,1.13L166,28a1.76,1.76,0,0,1,.24-1.13A8.92,8.92,0,0,0,166.62,21.24Z" fill="#9ebccd"/><path d="M191.91,24.78h0a7.78,7.78,0,0,0-.62-.83L182.61,40.6a7,7,0,0,1,.62.84,2.64,2.64,0,0,1,.47,2.66l8.68-16.66A2.66,2.66,0,0,0,191.91,24.78Z" fill="#8f809b"/><path d="M190.45,23.06c-.32-.31-.65-.59-.95-.84a8.16,8.16,0,0,0-.73-.53l-.28-.18-.12-.07-.13-.1-.1-.08-.08-.09a.24.24,0,0,1-.06-.08.61.61,0,0,1-.09-.23l-8.68,16.66a.55.55,0,0,0,.09.23l.06.09.08.08.1.08.13.1.12.07.29.18c.21.14.46.32.72.53s.63.53,1,.84a11.62,11.62,0,0,1,.83.88l8.68-16.66A11.73,11.73,0,0,0,190.45,23.06Z" fill="#8f809b"/><polygon points="178.83 17.05 187.51 0.38 193.75 18.95 185.07 35.61 178.83 17.05" fill="#b20013"/><path d="M160.64,48.39a1.17,1.17,0,0,0-.09.24,5.15,5.15,0,0,0-.18.92,5.75,5.75,0,0,0,.56,3.09c.08.2.18.41.27.64.29.7.65,1.52,1.09,2.5a4,4,0,0,0,.28.51l.15.21-.57,1a2.26,2.26,0,0,0,.37.26h0l.09,0,0,0,.08,0h.05l0,0h.34l.32-.6h.1l0,0a2.62,2.62,0,0,0,1-.06,9.46,9.46,0,0,0,4.25-3.14c.27-.32,1-1,1.17-1.28l7.84-15.21c-.11.18-.75.48-1,.72l-.17.19.42-.82q-.16.21-.36.42l-.07.07-.19.21,0,0-.17.17-.09.09-.11.1L176,39a.86.86,0,0,1-.14.13l-.06.06-.14.12-.08.07-.11.09-.11.09h0l-.18.14-.07.05-.14.09,0,0-.15.1h0a4.24,4.24,0,0,1-.82.42.79.79,0,0,1-.22.06,2.63,2.63,0,0,1-.39.06H173l-.17,0-.14,0-.12,0-.11,0-.08.15h-.05l-.08,0,0,0-.07,0-.06,0-.07,0-.06,0-.11-.09h0l-.15-.13h0l-.07-.06,0,0s-8,2.81-8,2.81l-2.89,5.55" fill="#90aabf"/><path d="M153.19,36.82a5.64,5.64,0,0,1,3.62-.22,1.84,1.84,0,0,1,1.13,1.3,8.85,8.85,0,0,1-.39,5.61,1.76,1.76,0,0,0-.24,1.13l9.14-3,2.19,6.5a1.43,1.43,0,0,1-.64,0l-.37-.14a7,7,0,0,0-1.14-.41,8.94,8.94,0,0,0-4.61-.09,2.49,2.49,0,0,0-.9.48,1.29,1.29,0,0,0-.43.65,5.7,5.7,0,0,0,.36,3.87c.31.87.77,1.93,1.38,3.28s1.7,1.75,2.77,1.4a9.55,9.55,0,0,0,3.88-3.27c.2-.28.37-.53.48-.72a1.45,1.45,0,0,1,.34-.38l.15-.06a.51.51,0,0,1,.2,0l2.59,7.52-18.62,6.06-6.25-18.57,4.94-1.6a.54.54,0,0,0,0-.25,1.12,1.12,0,0,0-.57-.56c-1-.58-3.33-2.5-3.94-4.3-.36-1.06-.11-2.08,1.38-2.74l.28-.12,1.16-.51.53-.22.12-.05.93-.36Z" fill="#004a9c"/><g opacity="0.22"><polygon points="185.08 35.62 193.75 18.96 200 37.52 191.32 54.19 185.08 35.62" fill="#d7d9db"/></g><path d="M164.15,34.82l5.53-11s3.76,6.74,3.95,8.42.09,4.79-1.63,5a14.15,14.15,0,0,1-4.65,0A25.62,25.62,0,0,1,164.15,34.82Z" fill="#d68686"/><g opacity="0.35" style="mix-blend-mode:multiply"><path d="M160.21,23.1l2.42,7.21.09,0a1.1,1.1,0,0,0,.56-.55c.06-.1.12-.21.2-.32a10.27,10.27,0,0,1,4-3.52l.15,0a2,2,0,0,1,2.66,1.2,1.19,1.19,0,0,1,.08.16,38.57,38.57,0,0,1,1.52,3.65,5.36,5.36,0,0,1,.23,3.55,1.76,1.76,0,0,1-1.28,1.11l-.26.08a9.45,9.45,0,0,1-4.93-.33l-.32-.12-.15-.07L165,35a2.08,2.08,0,0,0-.8-.2l2.3,6.86-9.14,3a1.76,1.76,0,0,1,.24-1.13,8.85,8.85,0,0,0,.39-5.61,1.84,1.84,0,0,0-1.13-1.3,5.53,5.53,0,0,0-3.55.2c-.23.07-.4.13-.57.2l-1,.37-.12.05-.53.22-1.13.5-.31.13c-1.49.66-1.74,1.68-1.38,2.74.61,1.8,3,3.72,3.94,4.3a1.12,1.12,0,0,1,.57.56.54.54,0,0,1,0,.25l-4.94,1.6-6.24-18.56Z" fill="#acb6bd"/></g><polygon points="166.45 41.67 170.1 40.08 173.93 38.04 168.64 48.17 166.45 41.67" fill="#8f809b"/><g opacity="0.6"><path d="M185.08,35.62l6.24,18.56L172.7,60.24l-2.53-7.52a.5.5,0,0,0-.26,0l-.15.06a1,1,0,0,0-.33.36c-.12.21-.29.46-.49.74a9.55,9.55,0,0,1-3.89,3.27,2.07,2.07,0,0,1-2.74-1.38c-.63-1.37-1.09-2.42-1.4-3.3a5.7,5.7,0,0,1-.36-3.87A1.29,1.29,0,0,1,161,48a2.65,2.65,0,0,1,.9-.48,8.87,8.87,0,0,1,4.54.07,7.4,7.4,0,0,1,1.19.42,3,3,0,0,0,.39.15,1.43,1.43,0,0,0,.64,0l-2.19-6.49L174.71,39a2.28,2.28,0,0,1-.26,1c-1,2.12-1.08,6.39.73,6.91a5.55,5.55,0,0,0,3.58-.2c.93-.31,2.08-.79,3.61-1.47a2.7,2.7,0,0,0,1.27-1c1.27-2.06-2.5-5.27-3.83-6-.39-.23-.55-.45-.58-.65Z" fill="#bcbcc3" opacity="0.91" style="mix-blend-mode:multiply"/></g><path d="M157.31,44.64a1.83,1.83,0,0,1,.24-1.13,8.92,8.92,0,0,0,.4-5.61,1.88,1.88,0,0,0-1.13-1.3l8.68-16.66a1.88,1.88,0,0,1,1.13,1.3,8.92,8.92,0,0,1-.4,5.61A1.76,1.76,0,0,0,166,28Z" fill="#a1b8c6" opacity="0.48" style="mix-blend-mode:multiply"/><polygon points="160.21 23.1 168.88 6.44 187.51 0.38 178.83 17.05 160.21 23.1" fill="#e84d44"/><path d="M178.83,17l6.24,18.57-5.84,1.9c0,.21.19.43.58.66,1.33.77,5.1,4,3.83,6a2.7,2.7,0,0,1-1.27,1c-1.53.68-2.68,1.16-3.61,1.46a5.55,5.55,0,0,1-3.58.2c-1.81-.51-1.69-4.79-.73-6.91a2.28,2.28,0,0,0,.26-1l-8.26,2.69-2.3-6.85a1.86,1.86,0,0,1,.8.19l.18.07.15.07.26.1a9.51,9.51,0,0,0,5,.35l.23-.07a1.79,1.79,0,0,0,1.31-1.12,5.36,5.36,0,0,0-.23-3.55,38.52,38.52,0,0,0-1.5-3.61,1.83,1.83,0,0,0-.1-.2,2,2,0,0,0-2.64-1.21l-.17.06a10.27,10.27,0,0,0-4,3.52c-.08.11-.14.22-.2.32a1.1,1.1,0,0,1-.56.55l-.09,0-2.42-7.21Z" fill="#e50004"/></g></g></svg>