<?xml version="1.0" encoding="UTF-8" standalone="no"?>
<!-- Created with Inkscape (http://www.inkscape.org/) -->

<svg
   xmlns:dc="http://purl.org/dc/elements/1.1/"
   xmlns:cc="http://creativecommons.org/ns#"
   xmlns:rdf="http://www.w3.org/1999/02/22-rdf-syntax-ns#"
   xmlns:svg="http://www.w3.org/2000/svg"
   xmlns="http://www.w3.org/2000/svg"
   xmlns:xlink="http://www.w3.org/1999/xlink"
   xmlns:sodipodi="http://sodipodi.sourceforge.net/DTD/sodipodi-0.dtd"
   xmlns:inkscape="http://www.inkscape.org/namespaces/inkscape"
   id="svg2"
   version="1.1"
   inkscape:version="0.91 r13725"
   xml:space="preserve"
   width="533"
   height="800"
   viewBox="0 0 533 800"
   sodipodi:docname="Logo Melun 77.svg"><metadata
     id="metadata8"><rdf:RDF><cc:Work
         rdf:about=""><dc:format>image/svg+xml</dc:format><dc:type
           rdf:resource="http://purl.org/dc/dcmitype/StillImage" /><dc:title></dc:title></cc:Work></rdf:RDF></metadata><defs
     id="defs6"><linearGradient
       inkscape:collect="always"
       id="linearGradient38603"><stop
         style="stop-color:#c9a747;stop-opacity:1"
         offset="0"
         id="stop38605" /><stop
         id="stop38611"
         offset="0.12482635"
         style="stop-color:#f2d772;stop-opacity:1" /><stop
         style="stop-color:#fff08a;stop-opacity:1"
         offset="0.27375367"
         id="stop38613" /><stop
         id="stop38615"
         offset="0.37411797"
         style="stop-color:#fbeb82;stop-opacity:1" /><stop
         style="stop-color:#edcd65;stop-opacity:1"
         offset="0.55460745"
         id="stop38617" /><stop
         id="stop38619"
         offset="0.7234019"
         style="stop-color:#e8c75f;stop-opacity:1" /><stop
         style="stop-color:#caa83a;stop-opacity:1"
         offset="0.90461344"
         id="stop38621" /><stop
         style="stop-color:#c09c2e;stop-opacity:1"
         offset="1"
         id="stop38607" /></linearGradient><linearGradient
       inkscape:collect="always"
       xlink:href="#linearGradient38603"
       id="linearGradient38623"
       gradientUnits="userSpaceOnUse"
       x1="117.856"
       y1="487.64273"
       x2="328.69931"
       y2="-37.843674" /><linearGradient
       inkscape:collect="always"
       xlink:href="#linearGradient38603"
       id="linearGradient38625"
       gradientUnits="userSpaceOnUse"
       x1="117.856"
       y1="487.64273"
       x2="328.69931"
       y2="-37.843674" /><linearGradient
       inkscape:collect="always"
       xlink:href="#linearGradient38603"
       id="linearGradient38627"
       gradientUnits="userSpaceOnUse"
       x1="117.856"
       y1="487.64273"
       x2="328.69931"
       y2="-37.843674"
       gradientTransform="matrix(1.25,0,0,-1.25,0,956.6925)" /><linearGradient
       inkscape:collect="always"
       xlink:href="#linearGradient38603"
       id="linearGradient38629"
       gradientUnits="userSpaceOnUse"
       x1="117.856"
       y1="487.64273"
       x2="328.69931"
       y2="-37.843674" /><linearGradient
       inkscape:collect="always"
       xlink:href="#linearGradient38603"
       id="linearGradient38631"
       gradientUnits="userSpaceOnUse"
       x1="117.856"
       y1="487.64273"
       x2="328.69931"
       y2="-37.843674" /><linearGradient
       inkscape:collect="always"
       xlink:href="#linearGradient38603"
       id="linearGradient38635"
       gradientUnits="userSpaceOnUse"
       x1="117.856"
       y1="487.64273"
       x2="328.69931"
       y2="-37.843674"
       gradientTransform="matrix(1.25,0,0,-1.25,0,956.6925)" /><linearGradient
       inkscape:collect="always"
       xlink:href="#linearGradient38603"
       id="linearGradient38643"
       gradientUnits="userSpaceOnUse"
       x1="117.856"
       y1="487.64273"
       x2="328.69931"
       y2="-37.843674"
       gradientTransform="matrix(1.25,0,0,-1.25,0,956.6925)" /><linearGradient
       inkscape:collect="always"
       xlink:href="#linearGradient38603"
       id="linearGradient38647"
       gradientUnits="userSpaceOnUse"
       x1="117.856"
       y1="487.64273"
       x2="328.69931"
       y2="-37.843674" /><linearGradient
       inkscape:collect="always"
       xlink:href="#linearGradient38603"
       id="linearGradient38649"
       gradientUnits="userSpaceOnUse"
       x1="117.856"
       y1="487.64273"
       x2="328.69931"
       y2="-37.843674" /><linearGradient
       inkscape:collect="always"
       xlink:href="#linearGradient38603"
       id="linearGradient38651"
       gradientUnits="userSpaceOnUse"
       x1="117.856"
       y1="487.64273"
       x2="328.69931"
       y2="-37.843674" /><linearGradient
       inkscape:collect="always"
       xlink:href="#linearGradient38603"
       id="linearGradient38653"
       gradientUnits="userSpaceOnUse"
       x1="117.856"
       y1="487.64273"
       x2="328.69931"
       y2="-37.843674" /><linearGradient
       inkscape:collect="always"
       xlink:href="#linearGradient38603"
       id="linearGradient38655"
       gradientUnits="userSpaceOnUse"
       x1="117.856"
       y1="487.64273"
       x2="328.69931"
       y2="-37.843674" /><linearGradient
       inkscape:collect="always"
       xlink:href="#linearGradient38603"
       id="linearGradient38657"
       gradientUnits="userSpaceOnUse"
       x1="117.856"
       y1="487.64273"
       x2="328.69931"
       y2="-37.843674" /><linearGradient
       inkscape:collect="always"
       xlink:href="#linearGradient38603"
       id="linearGradient38659"
       gradientUnits="userSpaceOnUse"
       x1="117.856"
       y1="487.64273"
       x2="328.69931"
       y2="-37.843674" /><linearGradient
       inkscape:collect="always"
       xlink:href="#linearGradient38603"
       id="linearGradient38661"
       gradientUnits="userSpaceOnUse"
       x1="117.856"
       y1="487.64273"
       x2="328.69931"
       y2="-37.843674" /><linearGradient
       inkscape:collect="always"
       xlink:href="#linearGradient38603"
       id="linearGradient38663"
       gradientUnits="userSpaceOnUse"
       x1="117.856"
       y1="487.64273"
       x2="328.69931"
       y2="-37.843674" /><linearGradient
       inkscape:collect="always"
       xlink:href="#linearGradient38603"
       id="linearGradient38665"
       gradientUnits="userSpaceOnUse"
       x1="117.856"
       y1="487.64273"
       x2="328.69931"
       y2="-37.843674" /><linearGradient
       inkscape:collect="always"
       xlink:href="#linearGradient38603"
       id="linearGradient38667"
       gradientUnits="userSpaceOnUse"
       x1="117.856"
       y1="487.64273"
       x2="328.69931"
       y2="-37.843674" /><linearGradient
       inkscape:collect="always"
       xlink:href="#linearGradient38603"
       id="linearGradient38669"
       gradientUnits="userSpaceOnUse"
       x1="117.856"
       y1="487.64273"
       x2="328.69931"
       y2="-37.843674" /><linearGradient
       inkscape:collect="always"
       xlink:href="#linearGradient38603"
       id="linearGradient38675"
       gradientUnits="userSpaceOnUse"
       x1="117.856"
       y1="487.64273"
       x2="328.69931"
       y2="-37.843674"
       gradientTransform="matrix(1.25,0,0,-1.25,0,956.6925)" /><linearGradient
       inkscape:collect="always"
       xlink:href="#linearGradient38603"
       id="linearGradient38679"
       gradientUnits="userSpaceOnUse"
       x1="117.856"
       y1="487.64273"
       x2="328.69931"
       y2="-37.843674"
       gradientTransform="matrix(1.25,0,0,-1.25,0,956.6925)" /><linearGradient
       inkscape:collect="always"
       xlink:href="#linearGradient38603"
       id="linearGradient38683"
       gradientUnits="userSpaceOnUse"
       x1="117.856"
       y1="487.64273"
       x2="328.69931"
       y2="-37.843674" /><linearGradient
       inkscape:collect="always"
       xlink:href="#linearGradient38603"
       id="linearGradient38685"
       gradientUnits="userSpaceOnUse"
       x1="117.856"
       y1="487.64273"
       x2="328.69931"
       y2="-37.843674" /><linearGradient
       inkscape:collect="always"
       xlink:href="#linearGradient38603"
       id="linearGradient38687"
       gradientUnits="userSpaceOnUse"
       x1="117.856"
       y1="487.64273"
       x2="328.69931"
       y2="-37.843674" /><linearGradient
       inkscape:collect="always"
       xlink:href="#linearGradient38603"
       id="linearGradient38689"
       gradientUnits="userSpaceOnUse"
       x1="117.856"
       y1="487.64273"
       x2="328.69931"
       y2="-37.843674" /><linearGradient
       inkscape:collect="always"
       xlink:href="#linearGradient38603"
       id="linearGradient38691"
       gradientUnits="userSpaceOnUse"
       x1="117.856"
       y1="487.64273"
       x2="328.69931"
       y2="-37.843674" /><linearGradient
       inkscape:collect="always"
       xlink:href="#linearGradient38603"
       id="linearGradient38693"
       gradientUnits="userSpaceOnUse"
       x1="117.856"
       y1="487.64273"
       x2="328.69931"
       y2="-37.843674" /><linearGradient
       inkscape:collect="always"
       xlink:href="#linearGradient38603"
       id="linearGradient38695"
       gradientUnits="userSpaceOnUse"
       x1="117.856"
       y1="487.64273"
       x2="328.69931"
       y2="-37.843674"
       gradientTransform="matrix(1.25,0,0,-1.25,0,956.6925)" /><linearGradient
       inkscape:collect="always"
       xlink:href="#linearGradient38603"
       id="linearGradient38697"
       gradientUnits="userSpaceOnUse"
       x1="117.856"
       y1="487.64273"
       x2="328.69931"
       y2="-37.843674"
       gradientTransform="matrix(1.25,0,0,-1.25,0,956.6925)" /><linearGradient
       inkscape:collect="always"
       xlink:href="#linearGradient38603"
       id="linearGradient38699"
       gradientUnits="userSpaceOnUse"
       x1="117.856"
       y1="487.64273"
       x2="328.69931"
       y2="-37.843674" /><linearGradient
       inkscape:collect="always"
       xlink:href="#linearGradient38603"
       id="linearGradient38701"
       gradientUnits="userSpaceOnUse"
       x1="117.856"
       y1="487.64273"
       x2="328.69931"
       y2="-37.843674" /><linearGradient
       inkscape:collect="always"
       xlink:href="#linearGradient38603"
       id="linearGradient38703"
       gradientUnits="userSpaceOnUse"
       x1="117.856"
       y1="487.64273"
       x2="328.69931"
       y2="-37.843674" /></defs><sodipodi:namedview
     pagecolor="#ffffff"
     bordercolor="#666666"
     borderopacity="1"
     objecttolerance="10"
     gridtolerance="10"
     guidetolerance="10"
     inkscape:pageopacity="0"
     inkscape:pageshadow="2"
     inkscape:window-width="1440"
     inkscape:window-height="788"
     id="namedview4"
     showgrid="false"
     inkscape:zoom="0.52317838"
     inkscape:cx="296.79569"
     inkscape:cy="487.2484"
     inkscape:window-x="0"
     inkscape:window-y="1"
     inkscape:window-maximized="1"
     inkscape:current-layer="g10" /><g
     id="g10"
     inkscape:groupmode="layer"
     inkscape:label="MelunMag_96-web (glisseÌ(e)s)"
     transform="matrix(1.25,0,0,-1.25,0,800)"><g
       id="g38931"><g
         id="g38868"><path
           inkscape:connector-curvature="0"
           id="path76"
           d="m 33.722507,469.61735 c -3.24219,0 -5.900786,-2.51038 -6.039737,-5.75257 l 0,0 C 26.589689,436.30616 22.773168,316.19691 36.232889,243.50701 l 0,0 C 54.917167,142.6471 174.47061,15.627357 217.40647,0.67622902 l 0,0 c 0,0 1.90826,-0.6762282291999 2.51039,-0.6762282291999 l 0,0 c 0.60212,0 2.50111,0.6762282291999 2.50111,0.6762282291999 l 0,0 C 265.34457,15.627357 384.90728,142.6471 403.57303,243.50701 l 0,0 c 13.80247,74.54258 9.45793,198.95005 8.49454,222.27529 l 0,0 c -0.0926,2.16764 -1.87121,3.83505 -4.02032,3.83505 l 0,0 -374.324743,0 z"
           style="fill:#2c3170;fill-opacity:1" /><g
           id="g38823"><g
             id="g38759"><path
               style="fill:url(#linearGradient38623);fill-opacity:1;fill-rule:nonzero;stroke:none"
               d="m 49.59627,256.87039 c -0.222322,0.0463 -0.648438,0.21306 -1.296876,0.75033 -0.352009,3.24219 0.51875,8.52233 3.084712,17.15582 2.195426,6.01195 8.133266,14.01553 12.8576,14.01553 6.252795,0 8.568645,-5.03929 9.281927,-7.19767 1.324667,-4.06663 0.741072,-8.55011 -1.296876,-10.76407 -0.917076,1.50994 -3.084712,4.27043 -6.465853,4.27043 -9.819205,0 -15.210504,-15.29387 -16.164634,-18.23037"
               id="path38482"
               inkscape:connector-curvature="0" /><path
               style="fill:url(#linearGradient38625);fill-opacity:1;fill-rule:nonzero;stroke:none"
               d="m 52.254866,241.19672 c -4.983709,1.66741 -7.79052,-9.11519 -7.79052,-9.11519 0,0 -0.796652,-1.13014 -1.648885,0 0,0 -2.80681,10.7826 -7.79052,9.11519 0,0 -2.816074,-1.05603 -2.334377,-0.39833 3.269981,4.57612 3.955472,9.51351 6.076791,9.51351 l 3.381141,-0.33348 c 0.87076,-0.12969 1.843417,-0.21306 2.992078,0 l 3.371878,0.33348 c 2.121319,0 2.80681,-4.93739 6.086054,-9.51351 0.472434,-0.6577 -2.34364,0.39833 -2.34364,0.39833"
               id="path38480"
               inkscape:connector-curvature="0" /><path
               style="fill:url(#linearGradient38627);fill-opacity:1;fill-rule:nonzero;stroke:none"
               d="m 38.537109,602.3418 c 0.659662,6.79236 1.389619,13.45724 2.199219,19.95703 3.58548,5.38137 5.705276,11.40775 6.322266,13.30664 0.277902,-0.0579 0.810546,-0.26787 1.621094,-0.93945 0.428431,-4.05274 -0.648017,-10.6515 -3.855469,-21.44336 -1.282156,-3.51106 -3.592946,-7.55715 -6.28711,-10.88086 z"
               transform="matrix(0.8,0,0,-0.8,0,765.354)"
               id="path38478"
               inkscape:connector-curvature="0" /><path
               style="fill:url(#linearGradient38629);fill-opacity:1;fill-rule:nonzero;stroke:none"
               d="m 51.411896,253.82273 c -0.07411,-0.38906 -1.176451,-1.59331 -7.679358,-1.59331 -5.104134,0 -7.253243,0.75034 -7.81831,1.3432 -0.453907,0.48169 2.667859,1.09308 7.81831,1.09308 3.844311,0 7.790519,-0.28717 7.679358,-0.84297"
               id="path38476"
               inkscape:connector-curvature="0" /><path
               style="fill:url(#linearGradient38631);fill-opacity:1;fill-rule:nonzero;stroke:none"
               d="m 43.065573,315.66519 c 0,0 0.51875,0.74107 1.157925,0 4.19632,-4.88181 10.6807,-11.96831 9.689517,-18.31374 -1.27835,-8.17958 -5.50246,-16.24801 -8.383378,-39.67515 -0.08337,-0.60212 -0.676228,-1.12087 -1.278349,-1.12087 l -1.213505,0 c -0.602121,0 -1.204243,0.51875 -1.287613,1.12087 -2.880918,23.42714 -7.105028,31.49557 -8.383377,39.67515 -0.981921,6.34543 5.493196,13.43193 9.69878,18.31374"
               id="path38474"
               inkscape:connector-curvature="0" /></g><g
             id="g38815"><path
               style="fill:url(#linearGradient38635);fill-opacity:1;fill-rule:nonzero;stroke:none"
               d="m 135.41992,765.45508 c -5.90541,0 -13.32798,10.00459 -16.07226,17.51953 -2.69673,9.04083 -3.8751,15.11041 -3.93946,19.23437 0.62295,0.89528 1.24213,1.79375 1.86914,2.68555 1.46025,-4.4169 8.11179,-22.31445 20.0293,-22.31445 4.238,0 6.93583,3.45033 8.09375,5.32617 2.53586,-2.76745 3.2652,-8.37179 1.60938,-13.45508 -0.88003,-2.69797 -3.77385,-8.99609 -11.58985,-8.99609 z"
               transform="matrix(0.8,0,0,-0.8,0,765.354)"
               id="path38488"
               inkscape:connector-curvature="0" /><path
               style="fill:url(#linearGradient38643);fill-opacity:1;fill-rule:nonzero;stroke:none"
               d="m 109.58398,731.46289 c -0.38842,0.0458 -0.64648,0.41211 -0.64648,0.41211 -5.2454,6.10226 -13.350307,14.94726 -12.111328,22.89062 1.202837,7.6877 4.484548,15.31236 7.570308,31.10352 2.75486,4.22937 5.56147,8.43152 8.41797,12.59766 3.54114,-24.80171 8.19637,-34.20831 9.68164,-43.70118 1.23898,-7.94336 -6.85421,-16.78836 -12.09961,-22.89062 -0.29961,-0.35172 -0.57944,-0.43959 -0.8125,-0.41211 z"
               transform="matrix(0.8,0,0,-0.8,0,765.354)"
               id="path38464"
               inkscape:connector-curvature="0" /></g><g
             style="fill:url(#linearGradient38657);fill-opacity:1"
             id="g38510"><path
               style="fill:url(#linearGradient38647);fill-opacity:1;fill-rule:nonzero;stroke:none"
               d="m 116.32054,405.80734 c -0.92634,1.50067 -3.08471,4.26116 -6.47511,4.26116 -9.81921,0 -15.210507,-15.28461 -16.155374,-18.2211 -0.222322,0.0463 -0.648438,0.21305 -1.30614,0.75959 -0.342745,3.23293 0.518751,8.51307 3.093976,17.15582 2.195426,6.00269 8.133268,13.997 12.857598,13.997 6.2528,0 8.56865,-5.03003 9.27267,-7.19766 1.32466,-4.05737 0.74107,-8.54086 -1.28762,-10.75481"
               id="path38490"
               inkscape:connector-curvature="0" /><path
               style="fill:url(#linearGradient38649);fill-opacity:1;fill-rule:nonzero;stroke:none"
               d="m 57.812906,416.56215 c 0.704019,2.16763 3.029132,7.19766 9.272664,7.19766 4.715071,0 10.662174,-7.99431 12.8576,-13.997 2.565962,-8.64275 3.436721,-13.92289 3.103239,-17.15582 -0.666965,-0.54654 -1.093081,-0.71328 -1.30614,-0.75959 -0.95413,2.93649 -6.354692,18.2211 -16.164633,18.2211 -3.390405,0 -5.548777,-2.76049 -6.475117,-4.26116 -2.028685,2.21395 -2.612279,6.69744 -1.287613,10.75481"
               id="path38472"
               inkscape:connector-curvature="0" /><path
               style="fill:url(#linearGradient38651);fill-opacity:1;fill-rule:nonzero;stroke:none"
               d="m 87.835587,387.20643 c -5.122661,0 -7.262506,0.75034 -7.836837,1.3432 -0.453906,0.47243 2.667859,1.09308 7.81831,1.09308 3.853575,0 7.79052,-0.28717 7.679359,-0.84297 -0.07411,-0.39833 -1.167188,-1.59331 -7.660832,-1.59331"
               id="path38470"
               inkscape:connector-curvature="0" /><path
               style="fill:url(#linearGradient38653);fill-opacity:1;fill-rule:nonzero;stroke:none"
               d="m 96.348652,376.17372 c -4.98371,1.65815 -7.79052,-9.11518 -7.79052,-9.11518 0,0 -0.787389,-1.1394 -1.658149,0 0,0 -2.80681,10.77333 -7.781256,9.11518 0,0 -2.816074,-1.06529 -2.34364,-0.39832 3.279244,4.57612 3.955472,9.51351 6.086054,9.51351 l 3.371878,-0.33348 c 0.870759,-0.13896 1.843416,-0.21306 3.001341,0 l 3.362615,0.33348 c 2.121318,0 2.816073,-4.93739 6.086054,-9.51351 0.472433,-0.66697 -2.334377,0.39832 -2.334377,0.39832"
               id="path38468"
               inkscape:connector-curvature="0" /><path
               style="fill:url(#linearGradient38655);fill-opacity:1;fill-rule:nonzero;stroke:none"
               d="m 87.150095,450.63293 c 0,0 0.528014,0.75034 1.167189,0 4.19632,-4.87254 10.671437,-11.95905 9.680253,-18.31374 -1.278349,-8.17032 -5.493196,-16.248 -8.374114,-39.66588 -0.08337,-0.60212 -0.685491,-1.12087 -1.278349,-1.12087 l -1.213506,0 c -0.611384,0 -1.213505,0.51875 -1.296876,1.12087 -2.880917,23.41788 -7.095764,31.49556 -8.374114,39.66588 -0.991183,6.35469 5.493197,13.4412 9.689517,18.31374"
               id="path38462"
               inkscape:connector-curvature="0" /></g><g
             id="g38538"
             style="fill:url(#linearGradient38669);fill-opacity:1"><path
               style="fill:url(#linearGradient38659);fill-opacity:1;fill-rule:nonzero;stroke:none"
               d="m 248.57411,53.094107 c -0.92634,1.509934 -3.08471,4.270427 -6.47512,4.270427 -9.8192,0 -15.20124,-15.293874 -16.15537,-18.230372 -0.23158,0.04632 -0.6577,0.222322 -1.3154,0.759599 -0.34275,3.232927 0.52801,8.522328 3.10324,17.155817 2.18616,6.002684 8.13327,14.006262 12.8576,14.006262 6.24353,0 8.55938,-5.030027 9.2634,-7.197662 1.33393,-4.066633 0.75034,-8.550119 -1.27835,-10.764071"
               id="path38496"
               inkscape:connector-curvature="0" /><path
               style="fill:url(#linearGradient38661);fill-opacity:1;fill-rule:nonzero;stroke:none"
               d="m 228.5559,23.460489 c -4.97444,1.667412 -7.79052,-9.115186 -7.79052,-9.115186 -0.85223,-1.130135 -1.64888,0 -1.64888,0 0,0 -2.81608,10.782598 -7.79052,9.115186 0,0 -2.80681,-1.056028 -2.34364,-0.389063 3.27924,4.57612 3.96473,9.504249 6.08605,9.504249 l 3.37188,-0.324219 c 1.14866,-0.222322 2.12132,-0.138951 3.00134,0 l 3.37188,0.324219 c 2.12132,0 2.80681,-4.928129 6.08605,-9.504249 0.46317,-0.666965 -2.34364,0.389063 -2.34364,0.389063"
               id="path38494"
               inkscape:connector-curvature="0" /><path
               style="fill:url(#linearGradient38663);fill-opacity:1;fill-rule:nonzero;stroke:none"
               d="m 197.8292,57.364534 c -3.3904,0 -5.55804,-2.760493 -6.47511,-4.270427 -2.03795,2.213952 -2.62155,6.697438 -1.29688,10.764071 0.71328,2.167635 3.0384,7.197662 9.28193,7.197662 4.72433,0 10.67143,-8.003578 12.8576,-14.006262 2.57522,-8.633489 3.43672,-13.92289 3.09397,-17.155817 -0.6577,-0.537277 -1.08381,-0.713282 -1.30614,-0.759599 -0.95413,2.936498 -6.34543,18.230372 -16.15537,18.230372"
               id="path38492"
               inkscape:connector-curvature="0" /><path
               style="fill:url(#linearGradient38665);fill-opacity:1;fill-rule:nonzero;stroke:none"
               d="m 227.66662,35.836392 c -0.55581,-0.592858 -2.71418,-1.33393 -7.82758,-1.33393 -6.49364,0 -7.58672,1.194979 -7.67009,1.593305 -0.11116,0.555804 3.82578,0.833706 7.67936,0.833706 5.15971,0 8.27221,-0.611385 7.81831,-1.093081"
               id="path38460"
               inkscape:connector-curvature="0" /><path
               style="fill:url(#linearGradient38667);fill-opacity:1;fill-rule:nonzero;stroke:none"
               d="m 219.35735,97.928964 c 0.63917,0.750336 1.16718,0 1.16718,0 4.19632,-4.881812 10.6807,-11.959049 9.68026,-18.313742 -1.26909,-8.170319 -5.4932,-16.248004 -8.36485,-39.675144 -0.0834,-0.592858 -0.69476,-1.120871 -1.28762,-1.120871 l -1.2135,0 c -0.60212,0 -1.21351,0.528013 -1.29688,1.120871 -2.87165,23.42714 -7.09576,31.504825 -8.36485,39.675144 -1.00044,6.354693 5.48394,13.43193 9.68026,18.313742"
               id="path38458"
               inkscape:connector-curvature="0" /></g><g
             id="g38819"><path
               style="fill:url(#linearGradient38675);fill-opacity:1;fill-rule:nonzero;stroke:none"
               d="m 414.32812,765.45508 c -7.816,0 -10.70981,6.29812 -11.58984,8.99609 -1.65582,5.08329 -0.92649,10.68763 1.60938,13.45508 1.15792,-1.87584 3.85575,-5.32617 8.09375,-5.32617 11.92253,0 18.58861,17.95027 20.03711,22.33594 0.62432,-0.88796 1.24103,-1.78243 1.86132,-2.67383 -0.061,-4.1244 -1.24542,-10.20319 -3.93945,-19.26758 -2.74429,-7.51494 -10.17843,-17.51953 -16.07227,-17.51953 z"
               transform="matrix(0.8,0,0,-0.8,0,765.354)"
               id="path38498"
               inkscape:connector-curvature="0" /><path
               style="fill:url(#linearGradient38679);fill-opacity:1;fill-rule:nonzero;stroke:none"
               d="m 440.16797,731.46289 c -0.23509,-0.0275 -0.5168,0.0604 -0.81641,0.41211 -5.23382,6.10226 -13.33858,14.94726 -12.09961,22.89062 1.48613,9.49826 6.14518,18.90889 9.67774,43.74219 2.85447,-4.16276 5.6591,-8.36195 8.41211,-12.58789 3.08853,-15.82434 6.376,-23.45867 7.58008,-31.1543 1.23897,-7.94336 -6.8658,-16.78836 -12.09961,-22.89062 0,0 -0.26248,-0.36631 -0.6543,-0.41211 z"
               transform="matrix(0.8,0,0,-0.8,0,765.354)"
               id="path38446"
               inkscape:connector-curvature="0" /></g><g
             id="g38517"
             style="fill:url(#linearGradient38693);fill-opacity:1"><path
               style="fill:url(#linearGradient38683);fill-opacity:1;fill-rule:nonzero;stroke:none"
               d="m 322.19035,416.56215 c 0.70402,2.16763 3.01987,7.19766 9.27267,7.19766 4.71507,0 10.66217,-7.99431 12.8576,-13.997 2.56596,-8.64275 3.43672,-13.92289 3.09397,-17.15582 -0.6577,-0.54654 -1.08381,-0.71328 -1.30614,-0.75959 -0.94486,2.93649 -6.34543,18.2211 -16.15537,18.2211 -3.3904,0 -5.54877,-2.76049 -6.47511,-4.26116 -2.02869,2.21395 -2.61228,6.69744 -1.28762,10.75481"
               id="path38456"
               inkscape:connector-curvature="0" /><path
               style="fill:url(#linearGradient38685);fill-opacity:1;fill-rule:nonzero;stroke:none"
               d="m 351.48123,450.63293 c 0.63917,0.75034 1.17645,0 1.17645,0 4.18705,-4.87254 10.67143,-11.95905 9.68025,-18.31374 -1.27835,-8.17032 -5.4932,-16.248 -8.37411,-39.66588 -0.0834,-0.60212 -0.69476,-1.12087 -1.28762,-1.12087 l -1.2135,0 c -0.60212,0 -1.20424,0.51875 -1.29688,1.12087 -2.87165,23.41788 -7.0865,31.49556 -8.36485,39.66588 -0.99118,6.35469 5.4932,13.4412 9.68026,18.31374"
               id="path38454"
               inkscape:connector-curvature="0" /><path
               style="fill:url(#linearGradient38687);fill-opacity:1;fill-rule:nonzero;stroke:none"
               d="m 344.30209,388.79974 c -0.12042,0.5558 3.82578,0.84297 7.6701,0.84297 5.15971,0 8.27221,-0.62065 7.81831,-1.09308 -0.56507,-0.59286 -2.71418,-1.3432 -7.82758,-1.3432 -6.5029,0 -7.58672,1.19498 -7.66083,1.59331"
               id="path38452"
               inkscape:connector-curvature="0" /><path
               style="fill:url(#linearGradient38689);fill-opacity:1;fill-rule:nonzero;stroke:none"
               d="m 360.68905,376.17372 c -4.98371,1.65815 -7.79052,-9.11518 -7.79052,-9.11518 -0.8615,-1.1394 -1.65815,0 -1.65815,0 0,0 -2.81608,10.77333 -7.79052,9.11518 0,0 -2.80681,-1.06529 -2.33438,-0.39832 3.27924,4.57612 3.95547,9.51351 6.08605,9.51351 l 3.37188,-0.33348 c 1.1394,-0.21306 2.12132,-0.13896 2.99208,0 l 3.37188,0.33348 c 2.12132,0 2.81607,-4.93739 6.07679,-9.51351 0.4817,-0.66697 -2.32511,0.39832 -2.32511,0.39832"
               id="path38450"
               inkscape:connector-curvature="0" /><path
               style="fill:url(#linearGradient38691);fill-opacity:1;fill-rule:nonzero;stroke:none"
               d="m 372.71294,423.75981 c 6.24353,0 8.55938,-5.03003 9.27266,-7.19766 1.32467,-4.05737 0.74108,-8.54086 -1.28761,-10.75481 -0.92634,1.50067 -3.09398,4.26116 -6.47512,4.26116 -9.8192,0 -15.2105,-15.28461 -16.16463,-18.2211 -0.22232,0.0463 -0.63917,0.21305 -1.29688,0.75959 -0.34274,3.23293 0.52802,8.51307 3.08472,17.15582 2.19542,6.00269 8.14253,13.997 12.86686,13.997"
               id="path38444"
               inkscape:connector-curvature="0" /></g><g
             id="g38784"><path
               style="fill:url(#linearGradient38695);fill-opacity:1;fill-rule:nonzero;stroke:none"
               d="m 511.22656,602.32422 c -2.70052,3.32711 -5.01627,7.38095 -6.30078,10.89844 -3.20745,10.79186 -4.29758,17.39062 -3.86914,21.44336 0.8337,0.67158 1.3549,0.88157 1.63281,0.93945 0.61282,-1.90456 2.73562,-7.96198 6.33789,-13.35547 0.80817,-6.49024 1.54034,-13.14409 2.19922,-19.92578 z"
               transform="matrix(0.8,0,0,-0.8,0,765.354)"
               id="path38508"
               inkscape:connector-curvature="0" /><path
               style="fill:url(#linearGradient38697);fill-opacity:1;fill-rule:nonzero;stroke:none"
               d="m 489.10742,643.80273 c -2.65165,0 -3.50823,6.17243 -7.5957,11.89258 -0.60213,0.82213 2.91797,-0.49804 2.91797,-0.49804 6.21806,-2.08427 9.72656,11.39257 9.72656,11.39257 0,0 0.99539,1.41268 2.07227,0 0,0 2.74518,-10.53087 7.6875,-11.52929 0.18225,-0.91707 0.38168,-1.83826 0.55078,-2.75196 0.21434,-1.15761 0.40979,-2.36647 0.61718,-3.54297 -1.31238,-2.86059 -2.26178,-4.96289 -3.80664,-4.96289 l -4.20312,0.41602 c -1.08845,0.16211 -2.31612,0.26633 -3.75195,0 l -4.21485,-0.41602 z"
               transform="matrix(0.8,0,0,-0.8,0,765.354)"
               id="path38506"
               inkscape:connector-curvature="0" /><path
               style="fill:url(#linearGradient38699);fill-opacity:1;fill-rule:nonzero;stroke:none"
               d="m 374.03761,275.10076 c -3.38115,0 -5.54878,-2.76049 -6.47512,-4.27043 -2.02869,2.21396 -2.61228,6.69744 -1.27835,10.76407 0.69475,2.15838 3.0106,7.19767 9.2634,7.19767 4.72433,0 10.66217,-8.00358 12.8576,-14.01553 2.56596,-8.63349 3.44598,-13.91363 3.09398,-17.15582 -0.65771,-0.53727 -1.08382,-0.70401 -1.29688,-0.75033 -0.95413,2.9365 -6.34543,18.23037 -16.16463,18.23037"
               id="path38504"
               inkscape:connector-curvature="0" /><path
               style="fill:url(#linearGradient38701);fill-opacity:1;fill-rule:nonzero;stroke:none"
               d="m 403.89355,253.57262 c -0.57434,-0.59286 -2.71418,-1.3432 -7.83684,-1.3432 -6.50291,0 -7.58673,1.20425 -7.6701,1.59331 -0.11116,0.5558 3.82579,0.84297 7.6701,0.84297 5.16898,0 8.28148,-0.61139 7.83684,-1.09308"
               id="path38442"
               inkscape:connector-curvature="0" /><path
               style="fill:url(#linearGradient38703);fill-opacity:1;fill-rule:nonzero;stroke:none"
               d="m 395.57501,315.66519 c 0.63918,0.74107 1.16719,0 1.16719,0 4.19632,-4.88181 10.6807,-11.96831 9.68025,-18.31374 -1.27835,-8.17958 -5.48393,-16.24801 -8.37411,-39.67515 -0.0741,-0.60212 -0.68549,-1.12087 -1.28761,-1.12087 l -1.21351,0 c -0.59286,0 -1.19498,0.51875 -1.28761,1.12087 -2.87166,23.42714 -7.09577,31.49557 -8.37412,39.67515 -0.98192,6.34543 5.4932,13.43193 9.68952,18.31374"
               id="path38440"
               inkscape:connector-curvature="0" /></g></g><g
           id="g9394"
           style="fill:#ffffff"><path
             inkscape:connector-curvature="0"
             id="path10768"
             style="fill:#ffffff;fill-opacity:1;fill-rule:nonzero;stroke:none"
             d="m 311.77364,365.47727 0,18.70281 c 0,0.31496 -0.0926,1.3154 -1.27835,1.3154 l -4.62244,0 c -1.14866,0 -1.27835,-0.86149 -1.27835,-1.22277 l 0,-7.71641 -10.73628,0 0,7.6701 c 0,0.52801 -0.40759,1.26908 -1.16719,1.26908 l -7.23471,0 c -1.14867,0 -1.18572,-1.02823 -1.18572,-1.14866 l 0,-7.79052 -10.73628,0 0,7.47557 c 0,0.24084 -0.0741,1.46361 -1.42656,1.46361 l -4.74286,0 c -0.99119,0 -1.33393,-0.77812 -1.33393,-1.44509 l 0,-18.57312 45.74267,0 z" /><path
             inkscape:connector-curvature="0"
             id="path10770"
             style="fill:#ffffff;fill-opacity:1;fill-rule:nonzero;stroke:none"
             d="m 293.54141,317.61421 -8.10547,0 0,14.69175 c 0,1.899 0.48169,5.71552 4.05737,5.71552 3.57567,0 4.0481,-4.15 4.0481,-5.71552 l 0,-14.69175 z m -27.5123,44.57548 0,-25.92825 4.08516,0.009 c 2.22322,0.009 4.02958,-1.78784 4.03885,-4.01105 l 0.0834,-28.29969 37.53529,0 0,58.22973 -45.74267,0 z" /><path
             inkscape:connector-curvature="0"
             id="path10772"
             style="fill:#ffffff;fill-opacity:1;fill-rule:nonzero;stroke:none"
             d="m 155.01004,317.39282 -8.10548,0 0,14.69175 c 0,1.899 0.4817,5.71552 4.05737,5.71552 3.57567,0 4.04811,-4.15001 4.04811,-5.71552 l 0,-14.69175 z m 10.80112,14.52501 c 0,2.22321 1.78784,4.02958 4.02032,4.03884 l 3.73315,0.009 0,26.00237 -45.74267,0 0,-58.00741 38.08184,0 -0.0926,27.95694 z" /><path
             inkscape:connector-curvature="0"
             id="path10774"
             style="fill:#ffffff;fill-opacity:1;fill-rule:nonzero;stroke:none"
             d="m 173.56833,365.25495 0,18.57312 c 0,0.66697 -0.352,1.44509 -1.33393,1.44509 l -4.74286,0 c -1.35245,0 -1.42656,-1.22277 -1.42656,-1.46362 l 0,-7.47556 -10.73628,0 0,7.79052 c 0,0.12042 -0.0371,1.14866 -1.18572,1.14866 l -7.24398,0 c -0.75033,0 -1.15792,-0.74107 -1.15792,-1.26908 l 0,-7.6701 -10.74555,0 0,7.71641 c 0,0.36128 -0.12042,1.22277 -1.26908,1.22277 l -4.6317,0 c -1.18572,0 -1.26909,-1.00045 -1.26909,-1.3154 l 0,-18.70281 45.74267,0 z" /><path
             inkscape:connector-curvature="0"
             id="path10776"
             style="fill:#ffffff;fill-opacity:1;fill-rule:nonzero;stroke:none"
             d="m 215.8678,372.85187 c 0,1.90826 0.47243,5.71552 4.04811,5.71552 3.57567,0 4.05737,-4.15001 4.05737,-5.71552 l 0,-14.69176 -8.10548,0 0,14.69176 z m 36.59969,-33.68173 c -0.009,2.03795 -0.0371,4.03885 -0.0463,5.96563 l -9.55983,57.2015 -46.36332,0 -8.31853,-57.25708 0,-6.11384 64.28799,0.20379 z" /><path
             inkscape:connector-curvature="0"
             id="path10778"
             style="fill:#ffffff;fill-opacity:1;fill-rule:nonzero;stroke:none"
             d="m 192.51569,410.95687 3.798,-4.98371 46.71533,0 3.75167,4.98371 -54.265,0 z" /><path
             inkscape:connector-curvature="0"
             id="path10780"
             style="fill:#ffffff;fill-opacity:1;fill-rule:nonzero;stroke:none"
             d="m 247.91917,415.25138 c 0.63917,0 1.14866,0.50949 1.14866,1.14866 l 0,22.15805 c 0,0.63918 -0.50949,1.14867 -1.14866,1.14867 l -9.81921,0 c -0.63917,0 -1.14866,-0.50949 -1.14866,-1.14867 l 0,-9.52277 -11.35693,0 0,9.52277 c 0,0.63918 -0.51875,1.14867 -1.15792,1.14867 l -9.86553,0 c -0.63917,0 -1.14866,-0.50949 -1.14866,-1.14867 l 0,-9.52277 -11.35693,0 0,9.52277 c 0,0.63918 -0.51875,1.14867 -1.15792,1.14867 l -10.06005,0 c -0.63918,0 -1.14867,-0.50949 -1.14867,-1.14867 l 0,-22.15805 c 0,-0.63917 0.50949,-1.14866 1.14867,-1.14866 l 57.07181,0 z" /><path
             inkscape:connector-curvature="0"
             id="path10782"
             style="fill:#ffffff;fill-opacity:1;fill-rule:nonzero;stroke:none"
             d="m 229.33308,243.16241 0,-26.03942 -8.48528,0 0,42.08363 0.63918,-0.79665 c 2.88092,-3.64978 5.8452,-10.23606 7.81831,-15.10861 l 0.0278,-0.13895 z m 1.50993,-3.73315 0.67623,-1.38025 c 0.36127,-0.73181 3.4923,-7.21619 3.4923,-9.37456 l 0,-11.55146 -4.16853,0 0,22.30627 z m -11.79231,-22.30627 -8.63349,0 0,26.63228 c 0.27791,1.40803 5.58584,11.94978 8.00358,14.87702 l 0.62991,0.7596 0,-42.2689 z m -9.82846,0 -4.31675,0 0,11.55146 c 0,1.67668 1.26909,4.79844 2.61228,8.10548 0.34275,0.84297 0.68549,1.70446 1.01897,2.5289 l 0.6855,1.76005 0,-23.94589 z m 10.68996,46.2429 c -4.33527,0 -17.82278,-26.26174 -17.82278,-34.69144 l 0,-13.62646 6.01194,0 1.35246,-2.80681 1.36172,2.80681 7.73494,0 1.35246,-2.80681 1.36172,2.80681 7.5404,0 1.35246,-2.80681 1.35246,2.80681 6.34543,0 0,13.62646 c 0,7.25324 -13.33004,34.69144 -17.94321,34.69144" /><path
             inkscape:connector-curvature="0"
             id="path10784"
             style="fill:#ffffff;fill-opacity:1;fill-rule:nonzero;stroke:none"
             d="m 241.68304,282.35308 -8.10547,0 0,14.69175 c 0,1.899 0.4817,5.71552 4.05737,5.71552 3.57567,0 4.0481,-4.15 4.0481,-5.71552 l 0,-14.69175 z m -35.4325,0 -8.10548,0 0,14.69175 c 0,1.899 0.47244,5.71552 4.04811,5.71552 3.56641,0 4.05737,-4.15 4.05737,-5.71552 l 0,-14.69175 z m -36.38664,29.23529 0,-11.32914 10.06932,0 c 2.22321,0 4.02958,-1.80636 4.02958,-4.02958 l 0,-39.14713 16.37769,-25.38172 0.28716,-0.44464 0,0 c 1.94532,10.32869 13.50604,33.89478 19.2864,33.89478 5.71552,0 17.17435,-24.02926 19.32346,-33.82067 l 0.25937,0.3798 16.33138,24.73328 0,39.7863 c 0,2.22322 1.80636,4.02958 4.03884,4.02958 l 10.20827,0 0,11.32914 -100.21147,0 z" /><path
             inkscape:connector-curvature="0"
             id="path10786"
             style="fill:#ffffff;fill-opacity:1;fill-rule:nonzero;stroke:none"
             d="m 268.05224,332.30504 -8.80949,0 c -1.44509,0 -2.3807,-1.01898 -2.3807,-2.14911 0,-0.94487 0.0926,-6.94755 0.0926,-6.94755 l -8.31854,0 0,6.92902 c 0,1.13014 -0.94486,2.16764 -2.09353,2.16764 l -10.11563,0 c -1.15792,0 -1.899,-0.95413 -1.899,-1.95458 l 0,-7.14208 -8.32779,0 0,7.16061 c 0,1.00971 -0.85224,1.93605 -2.03795,1.93605 l -9.69878,0 c -0.55581,0 -1.05603,-0.18527 -1.42657,-0.52802 -0.37053,-0.34274 -0.59285,-0.82444 -0.59285,-1.44509 l 0,-7.12355 -8.33706,0 0,7.22545 c 0,0.8615 -0.72255,1.87121 -2.09353,1.87121 l -9.4672,0 c -0.94486,0 -1.83415,-0.84297 -1.83415,-1.90826 l 0,-7.1884 -8.31853,0 0,7.10503 c 0,1.08381 -0.88003,1.99163 -2.01016,1.99163 l -8.51307,0 c -1.11161,0 -2.01015,-0.89855 -2.01015,-2.01942 l 0,-15.4143 100.21146,0 0,15.4143 c 0,1.12087 -0.90781,2.01942 -2.01942,2.01942" /><path
             inkscape:connector-curvature="0"
             id="path10788"
             style="fill:#ffffff;fill-opacity:1;fill-rule:nonzero;stroke:none"
             d="m 293.89527,245.64963 -8.10547,0 0,14.69176 c 0,1.89899 0.4817,5.71551 4.05737,5.71551 3.57567,0 4.0481,-4.15 4.0481,-5.71551 l 0,-14.69176 z m 24.6036,-1.72299 c -0.12043,0.32422 -0.17601,0.64844 -0.17601,0.97266 l -0.21306,30.66185 -59.00786,0 0,-17.65604 0.33348,-0.51875 16.57223,-25.68741 0.28716,-0.44464 0,-0.52802 0,-37.78541 0.009,0 43.67693,46.87281 -1.48214,4.11295 z" /><path
             inkscape:connector-curvature="0"
             id="path10790"
             style="fill:#ffffff;fill-opacity:1;fill-rule:nonzero;stroke:none"
             d="m 318.08757,278.84595 -0.12042,16.85939 c 0,0.81518 -0.72255,1.76931 -1.66742,1.76931 l -12.43148,0 c -1.13013,0 -1.73225,-1.13013 -1.73225,-1.94531 l 0,-6.20648 -8.52233,0 0,6.2528 c 0,0.78738 -0.53728,1.89899 -1.75079,1.89899 l -6.63259,0 c -0.7596,0 -1.54699,-0.98192 -1.54699,-1.94531 l 0,-6.20648 -8.86507,0 0,6.20648 c 0,1.05603 -0.72255,1.94531 -1.58404,1.94531 l -12.37591,0 c -0.88928,0 -1.76004,-0.88002 -1.76004,-1.78783 l 0,-16.84087 58.98933,0 z" /><path
             inkscape:connector-curvature="0"
             id="path10792"
             style="fill:#ffffff;fill-opacity:1;fill-rule:nonzero;stroke:none"
             d="m 146.90734,245.64963 0,14.69176 c 0,1.89899 0.47243,5.71551 4.04811,5.71551 3.57567,0 4.05737,-4.15 4.05737,-5.71551 l 0,-14.69176 -8.10548,0 z m 16.62781,-14.92334 0,0.54654 0.29642,0.44465 16.88718,25.56698 0,18.27669 -59.00786,0 -0.20379,-30.66185 c 0,-0.32422 -0.0649,-0.64844 -0.17601,-0.97266 l -1.81562,-5.05782 44.01968,-45.71488 0,37.57235 z" /><path
             inkscape:connector-curvature="0"
             id="path10794"
             style="fill:#ffffff;fill-opacity:1;fill-rule:nonzero;stroke:none"
             d="m 180.71505,278.84595 0,16.84087 c 0,0.90781 -0.87076,1.78783 -1.75079,1.78783 l -12.36663,0 c -0.8615,0 -1.59331,-0.88928 -1.59331,-1.94531 l 0,-6.20648 -8.86507,0 0,6.20648 c 0,0.96339 -0.77813,1.94531 -1.55625,1.94531 l -6.61407,0 c -1.21351,0 -1.75079,-1.11161 -1.75079,-1.89899 l 0,-6.2528 -8.54085,0 0,6.20648 c 0,0.81518 -0.60212,1.94531 -1.72299,1.94531 l -12.43149,0 c -0.94486,0 -1.67667,-0.95413 -1.67667,-1.76931 l 0,-0.009 -0.12043,-16.85013 58.98934,0 z" /><path
             inkscape:connector-curvature="0"
             id="path10796"
             style="fill:#ffffff;fill-opacity:1;fill-rule:nonzero;stroke:none"
             d="m 197.07329,216.64315 -29.98563,0 0,-27.26219 29.98563,0 0,27.26219 z" /><path
             inkscape:connector-curvature="0"
             id="path10798"
             style="fill:#ffffff;fill-opacity:1;fill-rule:nonzero;stroke:none"
             d="m 197.07329,219.92146 0,8.4297 c 0,0.15748 -0.25012,0.54654 -0.73181,0.54654 l -3.38114,0 c -0.44465,0 -0.67623,-0.45391 -0.68549,-0.57433 l 0,-4.43717 -7.0124,0 0,4.4279 c 0,0.5836 -0.47243,0.5836 -0.62065,0.5836 l -4.37232,0 c -0.21306,0 -0.62991,0 -0.62991,-0.75034 l 0,-4.26116 -7.00313,0 0,4.08516 c 0,0.32422 -0.34275,0.92634 -0.99119,0.92634 l -3.83505,0 c -0.59285,0 -0.72254,-0.47243 -0.72254,-0.8615 l 0,-8.11474 29.98563,0 z" /><path
             inkscape:connector-curvature="0"
             id="path10800"
             style="fill:#ffffff;fill-opacity:1;fill-rule:nonzero;stroke:none"
             d="m 182.25462,253.17337 -14.78438,-22.38964 29.22603,0 -14.44165,22.38964 z" /><path
             inkscape:connector-curvature="0"
             id="path10802"
             style="fill:#ffffff;fill-opacity:1;fill-rule:nonzero;stroke:none"
             d="m 272.746,216.64315 -29.98562,0 0,-27.26219 29.98562,0 0,27.26219 z" /><path
             inkscape:connector-curvature="0"
             id="path10804"
             style="fill:#ffffff;fill-opacity:1;fill-rule:nonzero;stroke:none"
             d="m 272.74323,219.92146 0,8.4297 c 0,0.15748 -0.25012,0.54654 -0.73181,0.54654 l -3.38114,0 c -0.44465,0 -0.67623,-0.45391 -0.6855,-0.57433 l 0,-4.43717 -7.01239,0 0,4.4279 c 0,0.5836 -0.47243,0.5836 -0.62065,0.5836 l -4.37232,0 c -0.21306,0 -0.62991,0 -0.62991,-0.75034 l 0,-4.26116 -7.00313,0 0,4.08516 c 0,0.26864 -0.28717,0.92634 -0.99119,0.92634 l -3.82578,0 c -0.60212,0 -0.73181,-0.47243 -0.73181,-0.8615 l 0,-8.11474 29.98563,0 z" /><path
             inkscape:connector-curvature="0"
             id="path10806"
             style="fill:#ffffff;fill-opacity:1;fill-rule:nonzero;stroke:none"
             d="m 257.93105,253.17337 -14.79365,-22.38964 29.22603,0 -14.43238,22.38964 z" /><path
             inkscape:connector-curvature="0"
             id="path10808"
             style="fill:#ffffff;fill-opacity:1;fill-rule:nonzero;stroke:none"
             d="m 330.39492,214.39492 -45.86309,-53.43129 -129.85435,0.44464 -46.84501,53.6073 -3.798,-22.51933 51.07839,-67.41903 128.35368,0 51.20808,65.09392 -4.2797,24.22379 z" /><path
             inkscape:connector-curvature="0"
             id="path10810"
             style="fill:#ffffff;fill-opacity:1;fill-rule:nonzero;stroke:none"
             d="m 156.30136,164.95708 126.60289,-0.44465 46.6968,54.40395 -3.01987,17.07245 -2.15837,-2.34364 0,-7.5682 -7.01239,-8.81875 0,8.79096 -3.55715,-3.84431 0,-9.04108 -7.01239,-8.81875 0,10.26384 -4.28896,-4.65022 0,-9.41162 -7.01239,-8.81876 0,10.64365 -5.30793,-5.75257 0,-10.27311 -7.02166,-8.81876 0,11.49588 -4.68728,-5.07634 -10.21753,0 0,-8.57791 -12.97802,0 0,8.57791 -8.28148,0 0,-8.57791 -12.97803,0 0,8.57791 -8.45748,0 0,-8.17958 -12.96876,0 0,8.17958 -8.2259,0 0,-8.17958 -12.97803,0 0,8.17958 -8.83728,0 0,-8.17958 -12.96876,0 0,8.17958 -9.80068,0 -4.8077,5.23382 0,-11.65336 -7.0124,8.81876 0,10.46764 -5.29866,5.7711 0,-10.85671 -7.0124,8.81876 0,9.68026 -4.29821,4.66875 0,-10.55101 -7.0124,8.81875 0,9.3653 -3.55714,3.88137 0,-9.15224 -7.0124,8.81875 0,7.95726 -2.3529,2.5567 -2.87166,-17.04465 47.70652,-54.58922 z" /></g></g><g
         style="fill:#666666"
         id="g38861"><path
           d="m 34.52469,494.19871 -17.73014,70.86501 c -1.25983,5.0115 -3.22367,7.948 -5.91005,8.81876 -2.69565,0.87076 -6.03974,1.0375 -10.023,0.50022 L 0,577.81942 l 24.63138,10.9864 5.76184,-23.00103 0.32422,0.0834 c 0.10189,2.84387 0.80591,6.39175 2.13984,10.63439 1.3154,4.24264 3.32556,8.11474 6.03048,11.6163 2.69564,3.4923 6.13237,5.7711 10.29163,6.8086 7.54967,1.88974 13.27446,1.21351 17.16508,-2.01942 3.88137,-3.22366 6.76229,-8.55012 8.6057,-15.9701 l 0.34275,0.0834 c 2.1769,16.8316 8.43896,26.55817 18.78617,29.14266 6.23427,1.55625 11.14388,1.3154 14.74734,-0.75034 3.5942,-2.04721 6.23427,-5.02076 7.90168,-8.90213 1.66741,-3.89989 3.34409,-9.20782 5.03929,-15.94231 l 15.20124,-60.75864 -12.97802,-3.24219 -14.45091,57.78509 c -1.50067,5.99342 -2.82534,10.51396 -3.95547,13.54309 -1.1394,3.0384 -2.78829,5.29867 -4.93739,6.79934 -2.13985,1.50067 -5.00224,1.80636 -8.55012,0.91707 -2.90871,-0.72254 -5.52099,-3.23292 -7.8461,-7.53114 -2.32512,-4.29822 -3.85358,-9.50425 -4.58539,-15.63662 -0.74107,-6.13237 -0.41685,-11.94979 0.95413,-17.44298 l 11.61631,-46.39111 -12.97803,-3.23293 -15.50693,61.95362 c -1.12087,4.52054 -2.19542,8.05916 -3.22366,10.62512 -1.01898,2.57523 -2.53817,4.52054 -4.55759,5.85447 -2.01943,1.33393 -4.77992,1.56552 -8.28148,0.68549 -3.45525,-0.85223 -6.29912,-3.57567 -8.56865,-8.15179 -2.25101,-4.57612 -3.65904,-9.93036 -4.20558,-16.08126 -0.55581,-6.1509 -0.16674,-11.88495 1.15792,-17.2114 l 11.42177,-45.63151 -12.96876,-3.24219 z"
           style="fill:#666666;fill-opacity:1;fill-rule:nonzero;stroke:none"
           id="path10812"
           inkscape:connector-curvature="0" /><path
           d="m 193.73661,576.07976 -0.11116,1.45435 c -0.38906,5.00224 -2.12132,9.11519 -5.19677,12.33885 -3.06618,3.23293 -6.99387,4.65949 -11.78304,4.27969 -6.57702,-0.50948 -10.9864,-2.9365 -13.24667,-7.25324 -2.26027,-4.31675 -3.39966,-8.80949 -3.41819,-13.46898 l 33.75583,2.64933 z m 16.04421,-46.02984 0.42612,-5.48393 c -1.36172,-0.71328 -3.96474,-1.56552 -7.8461,-2.56596 -3.87211,-1.00971 -8.02211,-1.68594 -12.43149,-2.02869 -5.97489,-0.47243 -11.43103,0.0371 -16.36843,1.5192 -4.92813,1.48214 -9.19855,3.91842 -12.80202,7.32735 -3.58493,3.3904 -6.47511,7.73494 -8.65201,13.00581 -2.1769,5.27088 -3.52009,11.31988 -4.06663,18.16553 -0.4817,6.14164 -0.27791,11.65336 0.61138,16.53517 0.88929,4.89108 2.51964,9.05034 4.87255,12.48706 2.36217,3.43673 5.61362,6.16017 9.75436,8.20738 4.15,2.01942 9.1615,3.26998 15.02523,3.72388 5.22456,0.41686 10.04153,-0.29642 14.46017,-2.11205 4.41864,-1.82489 8.00358,-4.84476 10.74555,-9.06887 2.74196,-4.22411 4.3538,-9.45793 4.84476,-15.71073 l 0.20379,-2.50111 -48.29011,-3.77947 0.26864,-3.47378 c 0.33348,-4.20558 1.42657,-8.56864 3.30704,-13.09845 1.8712,-4.54833 4.41864,-8.70759 7.63304,-12.48706 3.22366,-3.77947 7.11429,-6.77155 11.67188,-8.95771 4.5576,-2.18616 9.57836,-3.06618 15.08082,-2.64007 2.74197,0.21306 6.58628,1.19498 11.55146,2.9365"
           style="fill:#666666;fill-opacity:1;fill-rule:nonzero;stroke:none"
           id="path10814"
           inkscape:connector-curvature="0" /><path
           d="m 228.50123,522.9662 1.73225,99.68345 c 0.0834,4.58538 -1.06529,7.54041 -3.44598,8.84655 -2.3807,1.30614 -5.4932,2.13058 -9.30972,2.47333 l 0.0463,2.8346 25.81709,3.19587 -2.04721,-117.25612 -12.79275,0.22232 z"
           style="fill:#666666;fill-opacity:1;fill-rule:nonzero;stroke:none"
           id="path10816"
           inkscape:connector-curvature="0" /><path
           d="m 314.69531,515.73982 2.20469,18.33227 -0.31495,0.0371 c -2.23248,-4.48348 -5.67847,-8.66128 -10.33796,-12.5519 -4.66875,-3.89063 -10.28237,-5.43762 -16.8316,-4.64097 -4.50201,0.53728 -8.124,1.70447 -10.84744,3.50157 -2.72344,1.7971 -4.77065,4.23337 -6.14163,7.30882 -1.38025,3.07545 -2.16764,6.46585 -2.37143,10.15269 -0.2038,3.70536 -0.009,8.06842 0.59285,13.10771 l 3.85358,31.92168 c 0.52801,4.34453 -0.2779,7.27177 -2.39922,8.81875 -2.13058,1.52846 -5.02076,2.70492 -8.67981,3.52936 l 0.36127,2.97355 25.56699,0.91708 -6.24353,-51.8102 c -1.70447,-14.02479 2.06574,-21.59299 11.29208,-22.71386 3.42746,-0.40759 6.97534,0.97266 10.65291,4.14074 3.66831,3.17735 6.83639,7.16061 9.51352,11.97758 2.67712,4.8077 4.23337,9.00402 4.65949,12.58896 l 2.88091,23.86252 c 0.51875,4.33527 -0.25937,7.2625 -2.32511,8.79097 -2.075,1.52846 -4.96518,2.70491 -8.67054,3.52935 l 0.36127,2.97355 25.47435,0.92634 -9.55056,-79.21133 -12.70013,1.53772 z"
           style="fill:#666666;fill-opacity:1;fill-rule:nonzero;stroke:none"
           id="path10818"
           inkscape:connector-curvature="0" /><path
           d="m 350.5141,511.16463 16.35917,59.66556 c 1.15792,4.22411 0.79665,7.25324 -1.08382,9.07813 -1.88047,1.82489 -4.61317,3.43672 -8.21663,4.81697 l 0.79665,2.89018 25.57625,-2.89944 -5.91005,-21.55594 0.31495,-0.0834 c 3.36262,4.50202 7.89242,8.47601 13.59867,11.922 5.70626,3.45525 12.04243,4.22411 19.01777,2.31585 5.00223,-1.37098 8.6798,-3.24219 11.03271,-5.59509 2.34364,-2.35291 3.6683,-5.06708 3.96473,-8.17959 0.29643,-3.10324 -0.12042,-6.71596 -1.25056,-10.82891 l -15.77557,-57.56277 -12.33885,3.38114 14.30269,52.18073 c 1.0375,3.798 1.67668,6.86418 1.92679,9.20782 0.25937,2.33438 -0.22232,4.4557 -1.43583,6.3547 -1.22277,1.89899 -3.56641,3.33482 -7.05871,4.28895 -2.76049,0.75034 -5.75257,0.50022 -8.97623,-0.76886 -3.24219,-1.26909 -6.38249,-3.22367 -9.43015,-5.85447 -3.03839,-2.64007 -5.71551,-5.60436 -8.0221,-8.89287 -2.29732,-3.2885 -3.80726,-6.23426 -4.52054,-8.83728 l -10.53249,-38.43385 -12.33885,3.39041 z"
           style="fill:#666666;fill-opacity:1;fill-rule:nonzero;stroke:none"
           id="path10820"
           inkscape:connector-curvature="0" /></g></g></g></svg>