<?xml version="1.0" encoding="utf-8"?>
<!-- Generator: Adobe Illustrator 23.0.4, SVG Export Plug-In . SVG Version: 6.00 Build 0)  -->
<svg version="1.1" id="Calque_1" xmlns="http://www.w3.org/2000/svg" xmlns:xlink="http://www.w3.org/1999/xlink" x="0px" y="0px"
	 viewBox="0 0 463.29 93.68" style="enable-background:new 0 0 463.29 93.68;" xml:space="preserve">
<style type="text/css">
	.st0{clip-path:url(#SVGID_2_);fill:#2B2A3B;}
	.st1{clip-path:url(#SVGID_4_);fill:#2B2A3B;}
	.st2{clip-path:url(#SVGID_6_);fill:#2B2A3B;}
	.st3{clip-path:url(#SVGID_8_);fill:#2B2A3B;}
	.st4{clip-path:url(#SVGID_10_);fill:#2B2A3B;}
	.st5{clip-path:url(#SVGID_12_);fill:#2B2A3B;}
	.st6{clip-path:url(#SVGID_14_);fill:#2B2A3B;}
	.st7{clip-path:url(#SVGID_16_);fill:#2B2A3B;}
	.st8{clip-path:url(#SVGID_18_);fill:#FF362F;}
	.st9{clip-path:url(#SVGID_20_);fill:#2B2A3B;}
	.st10{clip-path:url(#SVGID_22_);fill:#FF362F;}
	.st11{clip-path:url(#SVGID_24_);fill:#2B2A3B;}
</style>
<g>
	<g>
		<defs>
			<rect id="SVGID_1_" x="6.59" y="6.18" width="449.56" height="81.41"/>
		</defs>
		<clipPath id="SVGID_2_">
			<use xlink:href="#SVGID_1_"  style="overflow:visible;"/>
		</clipPath>
		<path class="st0" d="M218.53,76.93c-2.4,0.41-5.33,1.15-14.26,1.15c-9.76,0-17.34-2.88-17.34-16.85V32.54
			c0-13.97,7.58-16.85,17.34-16.85c8.93,0,11.86,0.74,14.26,1.15c1.13,0.17,1.5,0.58,1.5,1.72v5.26c0,0.91-0.68,1.64-1.5,1.64
			h-15.31c-4.35,0-5.93,1.65-5.93,7.07v9.73h20.34c0.82,0,1.5,0.74,1.5,1.64v5.92c0,0.9-0.68,1.64-1.5,1.64h-20.34v9.75
			c0,5.42,1.57,7.07,5.93,7.07h15.31c0.83,0,1.5,0.74,1.5,1.64v5.26C220.03,76.35,219.65,76.76,218.53,76.93"/>
	</g>
	<g>
		<defs>
			<rect id="SVGID_3_" x="6.59" y="6.18" width="449.56" height="81.41"/>
		</defs>
		<clipPath id="SVGID_4_">
			<use xlink:href="#SVGID_3_"  style="overflow:visible;"/>
		</clipPath>
		<path class="st1" d="M324.81,77.42h-7.43c-0.83,0-1.5-0.74-1.5-1.64V17.91c0-0.9,0.67-1.56,1.5-1.56h7.43
			c0.83,0,1.5,0.66,1.5,1.56v57.86C326.31,76.68,325.63,77.42,324.81,77.42"/>
	</g>
	<g>
		<defs>
			<rect id="SVGID_5_" x="6.59" y="6.18" width="449.56" height="81.41"/>
		</defs>
		<clipPath id="SVGID_6_">
			<use xlink:href="#SVGID_5_"  style="overflow:visible;"/>
		</clipPath>
		<path class="st2" d="M372.02,25.89h-13.14v49.89c0,0.9-0.68,1.64-1.5,1.64h-7.43c-0.83,0-1.5-0.74-1.5-1.64V25.89h-13.14
			c-0.83,0-1.5-0.58-1.5-1.48v-6.49c0-0.9,0.67-1.56,1.5-1.56h36.7c0.83,0,1.5,0.66,1.5,1.56v6.49
			C373.52,25.31,372.84,25.89,372.02,25.89"/>
	</g>
	<g>
		<defs>
			<rect id="SVGID_7_" x="6.59" y="6.18" width="449.56" height="81.41"/>
		</defs>
		<clipPath id="SVGID_8_">
			<use xlink:href="#SVGID_7_"  style="overflow:visible;"/>
		</clipPath>
		<path class="st3" d="M179.43,77.75h-9.16c-0.83,0-1.12-0.82-1.5-1.64l-10.81-24.3h-1.05c-1.95,0-4.96-0.25-6.68-0.33v24.63
			c0,0.9-0.6,1.64-1.43,1.64h-7.51c-0.82,0-1.5-0.74-1.5-1.64V19.56c0-1.64,0.9-2.22,2.4-2.47c3.9-0.66,9.23-1.07,14.71-1.07
			c11.56,0,21.62,4.52,21.62,18.58v0.74c0,8.71-4.08,13.84-10.23,16.47l11.88,24.3c0.15,0.25,0.15,0.49,0.15,0.66
			C180.34,77.34,180.04,77.75,179.43,77.75 M168.18,34.6c0-6.16-3.75-8.79-11.26-8.79c-1.58,0-5.33,0.17-6.68,0.33v16.38
			c1.2,0.08,5.4,0.25,6.68,0.25c7.73,0,11.26-2.81,11.26-7.42V34.6z"/>
	</g>
	<g>
		<defs>
			<rect id="SVGID_9_" x="6.59" y="6.18" width="449.56" height="81.41"/>
		</defs>
		<clipPath id="SVGID_10_">
			<use xlink:href="#SVGID_9_"  style="overflow:visible;"/>
		</clipPath>
		<path class="st4" d="M307.25,76.6c-2.25,0.57-8.78,1.15-12.76,1.15c-9.76,0-17.34-2.88-17.34-16.85V17.67
			c0-0.9,0.67-1.64,1.5-1.64h7.43c0.83,0,1.5,0.74,1.5,1.64V60.9c0,5.42,1.5,7.07,5.85,7.07h13.81c0.82,0,1.5,0.74,1.5,1.64v5.26
			C308.74,76.03,308.37,76.35,307.25,76.6"/>
	</g>
	<g>
		<defs>
			<rect id="SVGID_11_" x="6.59" y="6.18" width="449.56" height="81.41"/>
		</defs>
		<clipPath id="SVGID_12_">
			<use xlink:href="#SVGID_11_"  style="overflow:visible;"/>
		</clipPath>
		<path class="st5" d="M410.73,76.93c-2.4,0.41-5.33,1.15-14.26,1.15c-9.76,0-17.34-2.88-17.34-16.85V32.54
			c0-13.97,7.58-16.85,17.34-16.85c8.93,0,11.86,0.74,14.26,1.15c1.12,0.17,1.5,0.58,1.5,1.72v5.26c0,0.91-0.67,1.64-1.5,1.64
			h-15.31c-4.35,0-5.93,1.65-5.93,7.07v9.73h20.34c0.83,0,1.5,0.74,1.5,1.64v5.92c0,0.9-0.68,1.64-1.5,1.64h-20.34v9.75
			c0,5.42,1.58,7.07,5.93,7.07h15.31c0.83,0,1.5,0.74,1.5,1.64v5.26C412.23,76.35,411.86,76.76,410.73,76.93"/>
	</g>
	<g>
		<defs>
			<rect id="SVGID_13_" x="6.59" y="6.18" width="449.56" height="81.41"/>
		</defs>
		<clipPath id="SVGID_14_">
			<use xlink:href="#SVGID_13_"  style="overflow:visible;"/>
		</clipPath>
		<path class="st6" d="M436.4,78.08c-5.63,0-9.68-0.58-13.29-1.48c-0.75-0.17-1.42-0.74-1.42-1.64v-5.92c0-0.9,0.67-1.56,1.42-1.56
			h0.15c3,0.41,10.51,0.82,13.29,0.82c6.68,0,8.71-2.63,8.71-7.4c0-3.2-1.42-4.85-6.38-8.06l-9.91-6.49
			c-6.98-4.52-8.86-9.29-8.86-15.04c0-9.04,4.8-15.62,18.77-15.62c4.95,0,11.86,0.82,14.41,1.48c0.75,0.17,1.35,0.74,1.35,1.56v6.08
			c0,0.82-0.52,1.48-1.27,1.48h-0.15c-4.95-0.49-9.91-0.82-14.79-0.82c-5.55,0-7.88,2.14-7.88,5.84c0,2.71,1.27,4.36,6.15,7.32
			l9.01,5.51c8.26,5.01,10.43,10.27,10.43,16.77C456.14,69.2,451.42,78.08,436.4,78.08"/>
	</g>
	<g>
		<defs>
			<rect id="SVGID_15_" x="6.59" y="6.18" width="449.56" height="81.41"/>
		</defs>
		<clipPath id="SVGID_16_">
			<use xlink:href="#SVGID_15_"  style="overflow:visible;"/>
		</clipPath>
		<path class="st7" d="M271.52,75.94l-12.31-51.53c-1.8-7.64-7.21-8.38-10.43-8.38c-3.23,0-8.63,0.74-10.43,8.38l-12.31,51.53
			c0,0.17-0.07,0.33-0.07,0.41c0,0.82,0.6,1.4,1.35,1.4h7.96c0.68,0,1.27-0.66,1.43-1.4l3.46-15.6l3.96-18.12h-0.03l3.49-15.68
			c0.22-0.99,0.45-1.32,1.2-1.32c0.75,0,0.98,0.33,1.2,1.32l2.25,10.12l0,0.01l1.23,5.55h-0.02l3.97,18.12l3.44,15.6
			c0.15,0.74,0.75,1.4,1.43,1.4h7.95c0.75,0,1.35-0.57,1.35-1.4C271.59,76.27,271.52,76.11,271.52,75.94"/>
	</g>
	<g>
		<defs>
			<rect id="SVGID_17_" x="6.59" y="6.18" width="449.56" height="81.41"/>
		</defs>
		<clipPath id="SVGID_18_">
			<use xlink:href="#SVGID_17_"  style="overflow:visible;"/>
		</clipPath>
		<path class="st8" d="M44.19,57.05c-0.01,0-0.01,0-0.02,0c-0.28,1.67-0.41,3.04-0.47,3.91c-0.02,0.51-0.04,1.02-0.04,1.54
			c0,0.05,0,0.09,0,0.09v16.65v5.9v0.35c0,1.21,0.9,2.1,2.01,2.1h9.96c1.11,0,2.01-0.88,2.01-2.1v-0.35h0V38.3v-0.06v-0.06
			C48.34,41.6,45.23,51.13,44.19,57.05"/>
	</g>
	<g>
		<defs>
			<rect id="SVGID_19_" x="6.59" y="6.18" width="449.56" height="81.41"/>
		</defs>
		<clipPath id="SVGID_20_">
			<use xlink:href="#SVGID_19_"  style="overflow:visible;"/>
		</clipPath>
		<path class="st9" d="M6.59,87.44c0,0.08,0.07,0.15,0.15,0.15c0.07,0,0.12-0.05,0.13-0.11l0.01,0.01
			c2.02-7.25,7.14-16.53,20.09-16.64h21.64c22.86,0,40.09-15.19,42.68-34.15c-0.06,0.01-0.11,0.01-0.17,0.02
			C89.82,44,85.41,56.73,70.23,56.86H48.59c-21.38,0-37.84,13.32-42.01,30.56h0.01C6.59,87.43,6.59,87.43,6.59,87.44"/>
	</g>
	<g>
		<defs>
			<rect id="SVGID_21_" x="6.59" y="6.18" width="449.56" height="81.41"/>
		</defs>
		<clipPath id="SVGID_22_">
			<use xlink:href="#SVGID_21_"  style="overflow:visible;"/>
		</clipPath>
		<path class="st10" d="M91.1,36.72c0.01,0,0.01,0,0.02,0c0.28-1.67,0.41-3.05,0.46-3.91c0.02-0.51,0.04-1.02,0.04-1.54
			c0-0.05,0-0.09,0-0.09V14.53v-5.9V8.28c0-1.21-0.91-2.1-2.01-2.1h-9.96c-1.11,0-2.01,0.88-2.01,2.1v0.35h0v46.85v0.06v0.06
			C86.95,52.17,90.06,42.64,91.1,36.72"/>
	</g>
	<g>
		<defs>
			<rect id="SVGID_23_" x="6.59" y="6.18" width="449.56" height="81.41"/>
		</defs>
		<clipPath id="SVGID_24_">
			<use xlink:href="#SVGID_23_"  style="overflow:visible;"/>
		</clipPath>
		<path class="st11" d="M128.71,6.33c0-0.08-0.07-0.15-0.15-0.15c-0.07,0-0.12,0.05-0.13,0.11l-0.01-0.01
			c-2.02,7.25-7.14,16.53-20.09,16.64H86.7c-22.86,0-40.09,15.18-42.68,34.15c0.06-0.01,0.11-0.01,0.17-0.02
			c1.28-7.28,5.69-20.01,20.88-20.14H86.7c21.38,0,37.84-13.32,42.01-30.56l-0.01,0C128.7,6.34,128.71,6.34,128.71,6.33"/>
	</g>
</g>
</svg>
