<?xml version="1.0" encoding="utf-8"?>
<!-- Generator: Adobe Illustrator 23.0.4, SVG Export Plug-In . SVG Version: 6.00 Build 0)  -->
<svg version="1.1" id="Calque_1" xmlns="http://www.w3.org/2000/svg" xmlns:xlink="http://www.w3.org/1999/xlink" x="0px" y="0px"
	 viewBox="0 0 292.79 213.38" style="enable-background:new 0 0 292.79 213.38;" xml:space="preserve">
<style type="text/css">
	.st0{fill:none;stroke:#FFFFFF;stroke-width:0.75;stroke-linecap:round;stroke-linejoin:round;}
</style>
<title>illu_accueil3</title>
<g id="LINE">
	<line class="st0" x1="62.56" y1="129.97" x2="62.56" y2="90.01"/>
</g>
<g id="LINE-2">
	<line class="st0" x1="91.98" y1="129.97" x2="91.98" y2="68.2"/>
</g>
<g id="LINE-3">
	<line class="st0" x1="94.92" y1="65.26" x2="118.45" y2="65.26"/>
</g>
<g id="ARC">
	<path class="st0" d="M94.92,65.26C93.3,65.27,92,66.58,92,68.2"/>
</g>
<g id="LINE-4">
	<line class="st0" x1="121.39" y1="68.2" x2="121.39" y2="129.97"/>
</g>
<g id="ARC-2">
	<path class="st0" d="M121.39,68.2c0-1.62-1.32-2.94-2.94-2.94c0,0,0,0,0,0"/>
</g>
<g id="LWPOLYLINE">
	<rect x="109.63" y="71.15" class="st0" width="5.88" height="5.88"/>
</g>
<g id="LWPOLYLINE-2">
	<rect x="97.86" y="82.91" class="st0" width="5.88" height="5.88"/>
</g>
<g id="LWPOLYLINE-3">
	<rect x="109.63" y="82.91" class="st0" width="5.88" height="5.88"/>
</g>
<g id="LWPOLYLINE-4">
	<rect x="97.86" y="94.68" class="st0" width="5.88" height="5.88"/>
</g>
<g id="LWPOLYLINE-5">
	<rect x="97.86" y="106.44" class="st0" width="5.88" height="5.88"/>
</g>
<g id="LWPOLYLINE-6">
	<rect x="109.63" y="106.44" class="st0" width="5.88" height="5.88"/>
</g>
<g id="LWPOLYLINE-7">
	<rect x="97.86" y="118.21" class="st0" width="5.88" height="5.88"/>
</g>
<g id="LINE-5">
	<line class="st0" x1="91.98" y1="129.97" x2="121.39" y2="129.97"/>
</g>
<g id="LINE-6">
	<line class="st0" x1="121.39" y1="78.25" x2="121.39" y2="129.97"/>
</g>
<g id="LWPOLYLINE-8">
	<rect x="127.28" y="94.68" class="st0" width="5.88" height="5.88"/>
</g>
<g id="LWPOLYLINE-9">
	<rect x="139.04" y="94.68" class="st0" width="5.88" height="5.88"/>
</g>
<g id="LINE-7">
	<line class="st0" x1="122.25" y1="76.17" x2="134.02" y2="64.4"/>
</g>
<g id="ARC-3">
	<path class="st0" d="M122.25,76.17c-0.55,0.55-0.86,1.3-0.86,2.08"/>
</g>
<g id="LINE-8">
	<line class="st0" x1="138.18" y1="64.4" x2="149.94" y2="76.17"/>
</g>
<g id="ARC-4">
	<path class="st0" d="M150.81,78.25c0-0.78-0.31-1.53-0.87-2.08"/>
</g>
<g id="ARC-5">
	<path class="st0" d="M138.18,64.4c-1.15-1.15-3.01-1.15-4.16,0c0,0,0,0,0,0"/>
</g>
<g id="LWPOLYLINE-10">
	<rect x="127.28" y="118.21" class="st0" width="5.88" height="5.88"/>
</g>
<g id="LWPOLYLINE-11">
	<rect x="139.04" y="118.21" class="st0" width="5.88" height="5.88"/>
</g>
<g id="LINE-9">
	<line class="st0" x1="121.39" y1="129.97" x2="150.81" y2="129.97"/>
</g>
<g id="LINE-10">
	<line class="st0" x1="150.81" y1="78.25" x2="150.81" y2="129.97"/>
</g>
<g id="LINE-11">
	<line class="st0" x1="150.81" y1="129.97" x2="150.81" y2="68.2"/>
</g>
<g id="LINE-12">
	<line class="st0" x1="153.75" y1="65.26" x2="177.28" y2="65.26"/>
</g>
<g id="ARC-6">
	<path class="st0" d="M153.75,65.26c-1.62,0-2.94,1.32-2.94,2.94c0,0,0,0,0,0"/>
</g>
<g id="LINE-13">
	<line class="st0" x1="180.22" y1="68.2" x2="180.22" y2="129.97"/>
</g>
<g id="ARC-7">
	<path class="st0" d="M180.22,68.2c0-1.62-1.32-2.94-2.94-2.94l0,0"/>
</g>
<g id="LWPOLYLINE-12">
	<rect x="156.69" y="71.15" class="st0" width="5.88" height="5.88"/>
</g>
<g id="LWPOLYLINE-13">
	<rect x="168.45" y="82.91" class="st0" width="5.88" height="5.88"/>
</g>
<g id="LWPOLYLINE-14">
	<rect x="156.69" y="94.68" class="st0" width="5.88" height="5.88"/>
</g>
<g id="LWPOLYLINE-15">
	<rect x="168.47" y="106.44" class="st0" width="5.88" height="5.88"/>
</g>
<g id="LWPOLYLINE-16">
	<rect x="156.69" y="118.21" class="st0" width="5.88" height="5.88"/>
</g>
<g id="LINE-14">
	<line class="st0" x1="150.81" y1="129.97" x2="180.22" y2="129.97"/>
</g>
<g id="LWPOLYLINE-17">
	<rect x="68.45" y="94.68" class="st0" width="5.88" height="5.88"/>
</g>
<g id="LWPOLYLINE-18">
	<rect x="80.21" y="106.44" class="st0" width="5.88" height="5.88"/>
</g>
<g id="LINE-15">
	<line class="st0" x1="63.43" y1="87.93" x2="75.19" y2="76.17"/>
</g>
<g id="ARC-8">
	<path class="st0" d="M63.43,87.93c-0.56,0.55-0.87,1.3-0.87,2.08"/>
</g>
<g id="LINE-16">
	<line class="st0" x1="79.35" y1="76.17" x2="91.12" y2="87.93"/>
</g>
<g id="ARC-9">
	<path class="st0" d="M92,90.01c0-0.78-0.31-1.53-0.86-2.08"/>
</g>
<g id="ARC-10">
	<path class="st0" d="M79.35,76.17c-1.15-1.15-3.01-1.15-4.16,0c0,0,0,0,0,0"/>
</g>
<g id="LWPOLYLINE-19">
	<rect x="68.45" y="118.21" class="st0" width="5.88" height="5.88"/>
</g>
<g id="LINE-17">
	<line class="st0" x1="62.56" y1="129.97" x2="91.98" y2="129.97"/>
</g>
<g id="LINE-18">
	<line class="st0" x1="91.98" y1="90.01" x2="91.98" y2="129.97"/>
</g>
<g id="LINE-19">
	<line class="st0" x1="209.63" y1="129.97" x2="209.63" y2="79.97"/>
</g>
<g id="LINE-20">
	<line class="st0" x1="206.69" y1="77.03" x2="183.16" y2="77.03"/>
</g>
<g id="ARC-11">
	<path class="st0" d="M209.63,79.97c0.01-1.62-1.3-2.93-2.92-2.94c-0.01,0-0.01,0-0.02,0"/>
</g>
<g id="LINE-21">
	<line class="st0" x1="180.22" y1="79.97" x2="180.22" y2="129.97"/>
</g>
<g id="ARC-12">
	<path class="st0" d="M183.16,77.03c-1.62,0-2.94,1.32-2.94,2.94c0,0,0,0,0,0"/>
</g>
<g id="LWPOLYLINE-20">
	<rect x="197.87" y="82.91" class="st0" width="5.88" height="5.88"/>
</g>
<g id="LWPOLYLINE-21">
	<rect x="186.1" y="106.44" class="st0" width="5.88" height="5.88"/>
</g>
<g id="LWPOLYLINE-22">
	<rect x="186.1" y="94.68" class="st0" width="5.88" height="5.88"/>
</g>
<g id="LWPOLYLINE-23">
	<rect x="197.87" y="106.44" class="st0" width="5.88" height="5.88"/>
</g>
<g id="LWPOLYLINE-24">
	<rect x="197.87" y="118.21" class="st0" width="5.88" height="5.88"/>
</g>
<g id="LINE-22">
	<line class="st0" x1="180.22" y1="129.97" x2="209.63" y2="129.97"/>
</g>
<g id="LWPOLYLINE-25">
	<rect x="127.28" y="82.91" class="st0" width="5.88" height="5.88"/>
</g>
<g id="LWPOLYLINE-26">
	<rect x="139.04" y="106.44" class="st0" width="5.88" height="5.88"/>
</g>
<g id="LINE-23">
	<line class="st0" x1="209.63" y1="129.97" x2="209.63" y2="90.01"/>
</g>
<g id="LWPOLYLINE-27">
	<rect x="215.52" y="94.68" class="st0" width="5.88" height="5.88"/>
</g>
<g id="LWPOLYLINE-28">
	<rect x="227.28" y="94.68" class="st0" width="5.88" height="5.88"/>
</g>
<g id="LWPOLYLINE-29">
	<rect x="227.28" y="106.44" class="st0" width="5.88" height="5.88"/>
</g>
<g id="LINE-24">
	<line class="st0" x1="210.5" y1="87.93" x2="222.26" y2="76.17"/>
</g>
<g id="ARC-13">
	<path class="st0" d="M210.5,87.93c-0.56,0.55-0.87,1.3-0.87,2.08"/>
</g>
<g id="LINE-25">
	<line class="st0" x1="226.42" y1="76.17" x2="238.19" y2="87.93"/>
</g>
<g id="ARC-14">
	<path class="st0" d="M239.05,90.01c0-0.78-0.31-1.53-0.86-2.08"/>
</g>
<g id="ARC-15">
	<path class="st0" d="M226.42,76.17c-1.15-1.15-3.01-1.15-4.16,0c0,0,0,0,0,0"/>
</g>
<g id="LWPOLYLINE-30">
	<rect x="215.52" y="118.21" class="st0" width="5.88" height="5.88"/>
</g>
<g id="LINE-26">
	<line class="st0" x1="209.63" y1="129.97" x2="239.05" y2="129.97"/>
</g>
<g id="LINE-27">
	<line class="st0" x1="239.05" y1="90.01" x2="239.05" y2="129.97"/>
</g>
<g id="LWPOLYLINE-31">
	<rect x="156.69" y="82.91" class="st0" width="5.88" height="5.88"/>
</g>
<g id="LWPOLYLINE-32">
	<rect x="168.47" y="118.21" class="st0" width="5.88" height="5.88"/>
</g>
<g id="CIRCLE">
	<path class="st0" d="M19.59,51.22c0-8.12,6.59-14.71,14.71-14.71c8.12,0,14.71,6.59,14.71,14.71c0,8.12-6.59,14.71-14.71,14.71
		C26.18,65.92,19.6,59.34,19.59,51.22z"/>
</g>
<g id="CIRCLE-2">
	<path class="st0" d="M246.81,51.56c0-8.12,6.59-14.71,14.71-14.71c8.12,0,14.71,6.59,14.71,14.71s-6.59,14.71-14.71,14.71l0,0
		C253.4,66.27,246.81,59.68,246.81,51.56C246.81,51.56,246.81,51.56,246.81,51.56L246.81,51.56z"/>
</g>
<g id="LINE-28">
	<line class="st0" x1="22.63" y1="71.73" x2="46.16" y2="71.73"/>
</g>
<g id="LINE-29">
	<line class="st0" x1="51.81" y1="142.33" x2="28.28" y2="142.33"/>
</g>
<g id="LINE-30">
	<line class="st0" x1="249.42" y1="71.52" x2="272.95" y2="71.52"/>
</g>
<g id="LINE-31">
	<line class="st0" x1="270.73" y1="142.12" x2="247.2" y2="142.12"/>
</g>
<g id="SPLINE">
	<path class="st0" d="M22.63,71.7c0.38,10.1,0.76,20.2,1.49,30.27c1,13.47,2.57,26.9,4.16,40.33"/>
</g>
<g id="SPLINE-2">
	<path class="st0" d="M46.16,71.7c0.34,10.89,0.68,21.79,1.49,32.64c1,12.69,2.56,25.32,4.16,38"/>
</g>
<g id="SPLINE-3">
	<path class="st0" d="M249.42,71.52c-1,23.52-2,47.05-2.22,70.6"/>
</g>
<g id="SPLINE-4">
	<path class="st0" d="M273,71.52c0.51,23.54,1.06,47.28-2.22,70.6"/>
</g>
<g id="LINE-32">
	<line class="st0" x1="34.76" y1="79.73" x2="65.36" y2="129.97"/>
</g>
<g id="LINE-33">
	<line class="st0" x1="261.11" y1="78.45" x2="233.37" y2="130.32"/>
</g>
<g id="LINE-34">
	<line class="st0" x1="28.28" y1="142.33" x2="21.7" y2="177"/>
</g>
<g id="LINE-35">
	<line class="st0" x1="21.7" y1="177" x2="0" y2="204.84"/>
</g>
<g id="LINE-36">
	<line class="st0" x1="0" y1="204.84" x2="8.08" y2="213.39"/>
</g>
<g id="LINE-37">
	<line class="st0" x1="270.73" y1="142.12" x2="292.79" y2="209.18"/>
</g>
<g id="LINE-38">
	<line class="st0" x1="51.81" y1="142.33" x2="65.26" y2="211.62"/>
</g>
<g id="LINE-39">
	<line class="st0" x1="65.26" y1="211.62" x2="75.06" y2="205.12"/>
</g>
<g id="LINE-40">
	<line class="st0" x1="247.2" y1="142.12" x2="221.8" y2="207.98"/>
</g>
<g id="LINE-41">
	<line class="st0" x1="221.8" y1="207.98" x2="213.2" y2="199.95"/>
</g>
<g id="LINE-42">
	<line class="st0" x1="213.79" y1="30.97" x2="196.39" y2="30.97"/>
</g>
<g id="ARC-16">
	<path class="st0" d="M225.49,42.7c0-6.46-5.24-11.7-11.7-11.7"/>
</g>
<g id="LINE-43">
	<line class="st0" x1="184.68" y1="42.67" x2="184.68" y2="48.41"/>
</g>
<g id="ARC-17">
	<path class="st0" d="M196.39,30.97c-6.46-0.01-11.7,5.23-11.71,11.69c0,0.01,0,0.03,0,0.04"/>
</g>
<g id="ARC-18">
	<path class="st0" d="M184.68,48.41c0,6.47,5.24,11.71,11.71,11.71l0,0"/>
</g>
<g id="LINE-44">
	<line class="st0" x1="210.85" y1="60.12" x2="213.79" y2="60.12"/>
</g>
<g id="ARC-19">
	<path class="st0" d="M213.79,60.12c6.46-0.01,11.7-5.25,11.7-11.71"/>
</g>
<g id="ARC-20">
	<path class="st0" d="M205.11,64.79c2.58,0.53,5.1-1.12,5.64-3.7c0,0,0,0,0-0.01c0.07-0.33,0.1-0.66,0.1-1"/>
</g>
<g id="ARC-21">
	<path class="st0" d="M205.11,64.79c0.88-1.39,1.23-3.04,1-4.67"/>
</g>
<g id="LINE-45">
	<line class="st0" x1="225.49" y1="48.41" x2="225.49" y2="42.67"/>
</g>
<g id="LINE-46">
	<line class="st0" x1="206.08" y1="60.12" x2="196.39" y2="60.12"/>
</g>
<g id="LINE-47">
	<line class="st0" x1="149.99" y1="6.72" x2="168.91" y2="6.72"/>
</g>
<g id="ARC-22">
	<path class="st0" d="M150,6.7c-7.03,0-12.73,5.7-12.73,12.73"/>
</g>
<g id="LINE-48">
	<line class="st0" x1="181.64" y1="19.45" x2="181.64" y2="25.69"/>
</g>
<g id="ARC-23">
	<path class="st0" d="M181.64,19.45c0.01-7.03-5.68-12.74-12.71-12.75c-0.01,0-0.01,0-0.02,0"/>
</g>
<g id="ARC-24">
	<path class="st0" d="M168.91,38.42c7.03,0,12.72-5.69,12.73-12.72"/>
</g>
<g id="LINE-49">
	<line class="st0" x1="153.18" y1="38.42" x2="149.99" y2="38.42"/>
</g>
<g id="ARC-25">
	<path class="st0" d="M137.26,25.7c0.01,7.03,5.71,12.73,12.74,12.72h0"/>
</g>
<g id="ARC-26">
	<path class="st0" d="M153.18,38.42c0,2.87,2.32,5.19,5.19,5.19l0,0c0.34,0,0.67-0.04,1-0.11"/>
</g>
<g id="ARC-27">
	<path class="st0" d="M158.37,38.42c-0.28,1.76,0.07,3.56,1,5.08"/>
</g>
<g id="LINE-50">
	<line class="st0" x1="137.26" y1="25.69" x2="137.26" y2="19.45"/>
</g>
<g id="LINE-51">
	<line class="st0" x1="158.37" y1="38.42" x2="168.91" y2="38.42"/>
</g>
<g id="LINE-52">
	<line class="st0" x1="80.14" y1="28.03" x2="94.9" y2="28.03"/>
</g>
<g id="ARC-28">
	<path class="st0" d="M80.14,28.03c-5.48,0.01-9.92,4.45-9.92,9.93"/>
</g>
<g id="LINE-53">
	<line class="st0" x1="104.82" y1="37.96" x2="104.82" y2="42.83"/>
</g>
<g id="ARC-29">
	<path class="st0" d="M104.82,37.96c0-5.48-4.44-9.92-9.92-9.93"/>
</g>
<g id="ARC-30">
	<path class="st0" d="M94.9,52.75c5.48,0,9.92-4.44,9.92-9.92"/>
</g>
<g id="LINE-54">
	<line class="st0" x1="82.63" y1="52.75" x2="80.14" y2="52.75"/>
</g>
<g id="ARC-31">
	<path class="st0" d="M70.22,42.83c0,5.48,4.44,9.92,9.92,9.92"/>
</g>
<g id="ARC-32">
	<path class="st0" d="M82.63,52.75c-0.03,2.21,1.74,4.02,3.95,4.05c0.03,0,0.07,0,0.1,0c0.28-0.01,0.55-0.04,0.82-0.1"/>
</g>
<g id="ARC-33">
	<path class="st0" d="M86.68,52.75c-0.22,1.39,0.07,2.81,0.82,4"/>
</g>
<g id="LINE-55">
	<line class="st0" x1="70.22" y1="42.83" x2="70.22" y2="37.96"/>
</g>
<g id="LINE-56">
	<line class="st0" x1="86.68" y1="52.75" x2="94.9" y2="52.75"/>
</g>
<g id="LINE-57">
	<line class="st0" x1="116.75" y1="0.74" x2="104.15" y2="0.74"/>
</g>
<g id="ARC-34">
	<path class="st0" d="M125.23,9.22c0.02-4.68-3.76-8.5-8.44-8.52c-0.01,0-0.03,0-0.04,0"/>
</g>
<g id="LINE-58">
	<line class="st0" x1="95.67" y1="9.22" x2="95.67" y2="13.37"/>
</g>
<g id="ARC-35">
	<path class="st0" d="M104.15,0.7c-4.68,0-8.48,3.8-8.48,8.48c0,0,0,0,0,0"/>
</g>
<g id="ARC-36">
	<path class="st0" d="M95.67,13.37c0,4.68,3.8,8.48,8.48,8.48"/>
</g>
<g id="LINE-59">
	<line class="st0" x1="114.62" y1="21.85" x2="116.75" y2="21.85"/>
</g>
<g id="ARC-37">
	<path class="st0" d="M116.75,21.85c4.68,0,8.48-3.8,8.48-8.48"/>
</g>
<g id="ARC-38">
	<path class="st0" d="M110.47,25.24c1.87,0.38,3.69-0.82,4.08-2.69c0.05-0.23,0.07-0.46,0.07-0.7"/>
</g>
<g id="ARC-39">
	<path class="st0" d="M110.47,25.24c0.63-1.01,0.88-2.21,0.7-3.39"/>
</g>
<g id="LINE-60">
	<line class="st0" x1="125.23" y1="13.37" x2="125.23" y2="9.22"/>
</g>
<g id="LINE-61">
	<line class="st0" x1="111.17" y1="21.85" x2="104.15" y2="21.85"/>
</g>
<g id="LINE-62">
	<line class="st0" x1="128.9" y1="43.63" x2="120.37" y2="43.63"/>
</g>
<g id="ARC-40">
	<path class="st0" d="M134.64,49.37c0-3.17-2.57-5.74-5.74-5.74l0,0"/>
</g>
<g id="LINE-63">
	<line class="st0" x1="114.62" y1="49.37" x2="114.62" y2="52.19"/>
</g>
<g id="ARC-41">
	<path class="st0" d="M120.37,43.63c-3.17-0.01-5.74,2.56-5.75,5.73c0,0,0,0.01,0,0.01"/>
</g>
<g id="ARC-42">
	<path class="st0" d="M114.62,52.19c0,3.17,2.57,5.74,5.74,5.74c0,0,0.01,0,0.01,0"/>
</g>
<g id="LINE-64">
	<line class="st0" x1="127.46" y1="57.93" x2="128.9" y2="57.93"/>
</g>
<g id="ARC-43">
	<path class="st0" d="M128.9,57.93c3.17,0,5.74-2.57,5.74-5.74c0,0,0,0,0,0"/>
</g>
<g id="ARC-44">
	<path class="st0" d="M124.65,60.22c1.26,0.26,2.5-0.56,2.76-1.82c0.02-0.16,0.02-0.31,0-0.47"/>
</g>
<g id="ARC-45">
	<path class="st0" d="M124.65,60.22c0.42-0.68,0.59-1.5,0.47-2.29"/>
</g>
<g id="LINE-65">
	<line class="st0" x1="134.64" y1="52.19" x2="134.64" y2="49.37"/>
</g>
<g id="LINE-66">
	<line class="st0" x1="125.12" y1="57.93" x2="120.37" y2="57.93"/>
</g>
<g id="LINE-67">
	<line class="st0" x1="202.47" y1="5.8" x2="193.93" y2="5.8"/>
</g>
<g id="ARC-46">
	<path class="st0" d="M208.21,11.55c0.01-3.17-2.56-5.74-5.73-5.75c0,0-0.01,0-0.01,0"/>
</g>
<g id="LINE-68">
	<line class="st0" x1="188.19" y1="11.55" x2="188.19" y2="14.36"/>
</g>
<g id="ARC-47">
	<path class="st0" d="M193.93,5.8c-3.17,0-5.74,2.57-5.74,5.74c0,0,0,0.01,0,0.01"/>
</g>
<g id="ARC-48">
	<path class="st0" d="M188.19,14.36c0,3.17,2.57,5.74,5.74,5.74l0,0"/>
</g>
<g id="LINE-69">
	<line class="st0" x1="201.03" y1="20.1" x2="202.47" y2="20.1"/>
</g>
<g id="ARC-49">
	<path class="st0" d="M202.47,20.1c3.17,0,5.74-2.57,5.74-5.74c0,0,0,0,0,0"/>
</g>
<g id="ARC-50">
	<path class="st0" d="M198.21,22.39c1.26,0.28,2.5-0.51,2.78-1.77c0-0.01,0.01-0.03,0.01-0.04c0.03-0.16,0.05-0.32,0.05-0.48"/>
</g>
<g id="ARC-51">
	<path class="st0" d="M198.21,22.39c0.43-0.68,0.6-1.49,0.48-2.29"/>
</g>
<g id="LINE-70">
	<line class="st0" x1="208.21" y1="14.36" x2="208.21" y2="11.55"/>
</g>
<g id="LINE-71">
	<line class="st0" x1="198.69" y1="20.1" x2="193.93" y2="20.1"/>
</g>
</svg>
