<?xml version="1.0" encoding="utf-8"?>
<!-- Generator: Adobe Illustrator 23.0.4, SVG Export Plug-In . SVG Version: 6.00 Build 0)  -->
<svg version="1.1" id="Calque_1" xmlns="http://www.w3.org/2000/svg" xmlns:xlink="http://www.w3.org/1999/xlink" x="0px" y="0px"
	 viewBox="0 0 231.03 213.77" style="enable-background:new 0 0 231.03 213.77;" xml:space="preserve">
<style type="text/css">
	.st0{fill:none;stroke:#FFFFFF;stroke-width:0.75;stroke-linecap:round;stroke-linejoin:round;}
</style>
<title>illu_accueil2</title>
<g id="CIRCLE">
	<path class="st0" d="M23.42,18.66c0-9.71,7.87-17.58,17.58-17.58s17.58,7.87,17.58,17.58S50.71,36.24,41,36.24
		S23.42,28.36,23.42,18.66L23.42,18.66z"/>
</g>
<g id="CIRCLE-2">
	<path class="st0" d="M148.57,19.08c0-9.71,7.87-17.58,17.58-17.58s17.58,7.87,17.58,17.58s-7.87,17.58-17.58,17.58
		S148.57,28.78,148.57,19.08C148.57,19.08,148.57,19.08,148.57,19.08z"/>
</g>
<g id="LINE">
	<line class="st0" x1="27.05" y1="43.18" x2="55.18" y2="43.18"/>
</g>
<g id="LINE-2">
	<line class="st0" x1="61.93" y1="127.57" x2="33.8" y2="127.57"/>
</g>
<g id="LINE-3">
	<line class="st0" x1="151.68" y1="42.93" x2="179.81" y2="42.93"/>
</g>
<g id="LINE-4">
	<line class="st0" x1="177.16" y1="127.32" x2="149.03" y2="127.32"/>
</g>
<g id="SPLINE">
	<path class="st0" d="M27.05,43.18c0.46,12.07,0.91,24.14,1.78,36.18c1.17,16.11,3.07,32.16,5,48.21"/>
</g>
<g id="SPLINE-2">
	<path class="st0" d="M55.18,43.18c0.4,13,0.81,26,1.78,39c1.14,15.16,3.06,30.27,5,45.37"/>
</g>
<g id="SPLINE-3">
	<path class="st0" d="M151.68,42.93c-1.21,28.15-2.43,56.25-2.68,84.39"/>
</g>
<g id="SPLINE-4">
	<path class="st0" d="M179.81,42.93c0.61,28.14,1.27,56.52-2.65,84.39"/>
</g>
<g id="LINE-5">
	<line class="st0" x1="69.78" y1="112.68" x2="140.11" y2="112.68"/>
</g>
<g id="LINE-6">
	<line class="st0" x1="90.88" y1="95.09" x2="119.01" y2="95.09"/>
</g>
<g id="LINE-7">
	<line class="st0" x1="90.88" y1="81.03" x2="119.01" y2="81.03"/>
</g>
<g id="LINE-8">
	<line class="st0" x1="90.88" y1="66.97" x2="119.01" y2="66.97"/>
</g>
<g id="LINE-9">
	<line class="st0" x1="140.11" y1="112.68" x2="140.11" y2="63.45"/>
</g>
<g id="LINE-10">
	<line class="st0" x1="104.95" y1="95.09" x2="104.95" y2="66.97"/>
</g>
<g id="LINE-11">
	<line class="st0" x1="119.01" y1="95.09" x2="119.01" y2="66.97"/>
</g>
<g id="LINE-12">
	<line class="st0" x1="90.88" y1="95.09" x2="90.88" y2="66.97"/>
</g>
<g id="LINE-13">
	<line class="st0" x1="69.78" y1="63.45" x2="69.78" y2="112.68"/>
</g>
<g id="LINE-14">
	<line class="st0" x1="69.78" y1="63.45" x2="62.75" y2="63.45"/>
</g>
<g id="LINE-15">
	<line class="st0" x1="62.75" y1="63.45" x2="104.95" y2="28.29"/>
</g>
<g id="LINE-16">
	<line class="st0" x1="140.11" y1="63.45" x2="147.14" y2="63.45"/>
</g>
<g id="LINE-17">
	<line class="st0" x1="147.14" y1="63.45" x2="129.56" y2="48.8"/>
</g>
<g id="LINE-18">
	<line class="st0" x1="119.01" y1="40.01" x2="104.95" y2="28.29"/>
</g>
<g id="LINE-19">
	<line class="st0" x1="119.01" y1="40.01" x2="119.01" y2="32.97"/>
</g>
<g id="LINE-20">
	<line class="st0" x1="119.01" y1="32.97" x2="129.56" y2="32.97"/>
</g>
<g id="LINE-21">
	<line class="st0" x1="129.56" y1="32.97" x2="129.56" y2="48.8"/>
</g>
<g id="LINE-22">
	<line class="st0" x1="41.56" y1="52.74" x2="78.13" y2="112.81"/>
</g>
<g id="LINE-23">
	<line class="st0" x1="165.66" y1="51.21" x2="132.5" y2="113.22"/>
</g>
<g id="LINE-24">
	<line class="st0" x1="33.8" y1="127.57" x2="25.94" y2="169.03"/>
</g>
<g id="LINE-25">
	<line class="st0" x1="25.94" y1="169.03" x2="0" y2="202.31"/>
</g>
<g id="LINE-26">
	<line class="st0" x1="0" y1="202.31" x2="9.66" y2="212.53"/>
</g>
<g id="LINE-27">
	<line class="st0" x1="61.93" y1="127.57" x2="78.01" y2="210.42"/>
</g>
<g id="LINE-28">
	<line class="st0" x1="78.01" y1="210.42" x2="89.73" y2="202.63"/>
</g>
<g id="LINE-29">
	<line class="st0" x1="177.16" y1="127.32" x2="185.11" y2="168.76"/>
</g>
<g id="LINE-30">
	<line class="st0" x1="185.11" y1="168.76" x2="225.12" y2="182.16"/>
</g>
<g id="LINE-31">
	<line class="st0" x1="225.12" y1="182.16" x2="231.03" y2="194.92"/>
</g>
<g id="LINE-32">
	<line class="st0" x1="149.03" y1="127.32" x2="141.28" y2="211.36"/>
</g>
<g id="LINE-33">
	<line class="st0" x1="141.28" y1="211.36" x2="127.43" y2="213.77"/>
</g>
</svg>
