<svg xmlns="http://www.w3.org/2000/svg" viewBox="0 0 170.08 70.87"><defs><style>.cls-1,.cls-11,.cls-19{fill:#f7941e;}.cls-1,.cls-10{opacity:0.7;}.cls-17,.cls-19,.cls-2,.cls-4,.cls-8{opacity:0.6;}.cls-3{fill:#0072bc;}.cls-4{fill:#662d91;}.cls-5{opacity:0.65;}.cls-6{fill:#006536;}.cls-7{fill:#ed1c24;}.cls-8{fill:#00a651;}.cls-9{fill:#ec008c;}.cls-12{fill:#00aeef;}.cls-13{fill:#fd0;opacity:0.77;}.cls-14,.cls-17{fill:#a3238e;}.cls-15{fill:#ee2651;}.cls-16{fill:#2790a5;}.cls-18{fill:#8dc63f;}.cls-20{fill:#231f20;}</style></defs><title>Bordeaux_Metropole</title><g id="logos"><rect class="cls-1" x="39.54" y="38.28" width="30.01" height="1.93" transform="translate(-11.04 53.87) rotate(-48.31)"/><g class="cls-2"><rect class="cls-3" x="40.52" y="41.54" width="19.68" height="1.93" transform="translate(-13.66 58.13) rotate(-53.88)"/></g><rect class="cls-4" x="39.86" y="37.21" width="1.93" height="14.3" transform="translate(-17.16 27.88) rotate(-31.51)"/><rect class="cls-4" x="42.48" y="43.17" width="21.29" height="1.93" transform="translate(-15.82 40.15) rotate(-36.41)"/><g class="cls-5"><rect class="cls-6" x="46.62" y="49.54" width="1.93" height="11" transform="translate(-22.42 35.2) rotate(-33.33)"/></g><g class="cls-2"><rect class="cls-7" x="35.72" y="40.96" width="1.93" height="16.02" transform="translate(-18.21 76.01) rotate(-79.38)"/></g><rect class="cls-8" x="39.73" y="28.7" width="1.93" height="22.43" transform="matrix(0.94, -0.34, 0.34, 0.94, -11.27, 16.47)"/><g class="cls-5"><rect class="cls-9" x="25.45" y="25.8" width="48.46" height="1.93" transform="translate(13.03 69.67) rotate(-77.8)"/></g><g class="cls-10"><rect class="cls-11" x="43.7" y="50.45" width="1.93" height="15.92" transform="translate(-0.74 0.57) rotate(-0.73)"/></g><g class="cls-2"><rect class="cls-12" x="34.82" y="27.4" width="1.93" height="26.39" transform="translate(-17.94 34.07) rotate(-41.68)"/></g><rect class="cls-13" x="41.35" y="20.71" width="1.93" height="29.91" transform="translate(-4.87 6.75) rotate(-8.63)"/><g class="cls-2"><rect class="cls-12" x="34.5" y="32.47" width="38.84" height="1.93" transform="translate(-1.36 64.56) rotate(-61.19)"/></g><rect class="cls-13" x="44.36" y="47.59" width="17.79" height="1.93" transform="matrix(0.98, -0.21, 0.21, 0.98, -9.11, 12.44)"/><g class="cls-2"><rect class="cls-14" x="48.55" y="46.88" width="1.93" height="10.43" transform="translate(-15.55 82.63) rotate(-71.6)"/></g><g class="cls-2"><rect class="cls-7" x="50.42" y="46.82" width="1.93" height="16.45" transform="translate(-22.98 66.89) rotate(-56.02)"/></g><g class="cls-2"><line class="cls-15" x1="44.56" y1="50.45" x2="44.55" y2="50.44"/><polygon class="cls-14" points="44.08 51.29 44.07 51.28 45.02 49.6 44.08 51.29"/></g><g class="cls-5"><rect class="cls-16" x="29.18" y="26.25" width="1.93" height="32.77" transform="translate(-21.7 48.82) rotate(-61.54)"/></g><g class="cls-2"><line class="cls-15" x1="44.56" y1="50.45" x2="44.55" y2="50.45"/><polygon class="cls-14" points="44.08 51.29 44.08 51.28 45.03 49.61 44.08 51.29"/></g><rect class="cls-1" x="30" y="20.87" width="1.93" height="35.83" transform="translate(-18.64 37.04) rotate(-49.38)"/><rect class="cls-17" x="23.6" y="29.81" width="1.93" height="40.01" transform="matrix(0.03, -1, 1, 0.03, -26.01, 72.78)"/><g class="cls-2"><polygon class="cls-14" points="44.56 51.41 44.56 49.48 44.56 49.48 44.56 51.41"/></g><g class="cls-2"><rect class="cls-3" x="33.6" y="53.57" width="12.48" height="1.93" transform="translate(-25.98 39.41) rotate(-40.91)"/></g><rect class="cls-13" x="31.27" y="58.09" width="18.86" height="1.93" transform="translate(-29.85 71.96) rotate(-65.8)"/><g class="cls-2"><rect class="cls-9" x="42.4" y="44.06" width="15.82" height="1.93" transform="translate(-17.18 46.78) rotate(-43.32)"/></g><g class="cls-2"><rect class="cls-12" x="38.71" y="53.88" width="9.15" height="1.93" transform="translate(-21.48 81.06) rotate(-73.76)"/></g><g class="cls-2"><rect class="cls-14" x="36.12" y="36.29" width="1.93" height="18.08" transform="translate(-21.27 50.32) rotate(-55.6)"/></g><g class="cls-5"><rect class="cls-16" x="44.11" y="47.42" width="10.03" height="1.93" transform="translate(-15.56 24.51) rotate(-24.31)"/></g><g class="cls-5"><rect class="cls-18" x="32.42" y="34" width="1.93" height="24.05" transform="translate(-21.7 60.1) rotate(-68.38)"/></g><g class="cls-10"><rect class="cls-18" x="33.65" y="34.45" width="31.62" height="1.93" transform="translate(0.45 71.46) rotate(-71.93)"/></g><rect class="cls-19" x="41.73" y="42.27" width="1.93" height="8.6" transform="translate(-15.97 23.1) rotate(-25.68)"/></g><g id="points_typo" data-name="points+typo"><path class="cls-20" d="M56.14,3.08a1.34,1.34,0,1,1-1.33-1.33A1.34,1.34,0,0,1,56.14,3.08Z"/><path class="cls-20" d="M64.61,16.42a1.33,1.33,0,1,1-1.33-1.33A1.34,1.34,0,0,1,64.61,16.42Z"/><circle class="cls-20" cx="64.52" cy="28.04" r="1.33"/><path class="cls-20" d="M57.49,34.55a1.33,1.33,0,1,1-1.33-1.33A1.33,1.33,0,0,1,57.49,34.55Z"/><path class="cls-20" d="M63,37.81a1.33,1.33,0,1,1-1.33-1.33A1.33,1.33,0,0,1,63,37.81Z"/><path class="cls-20" d="M63.28,46.66A1.34,1.34,0,1,1,62,45.33,1.34,1.34,0,0,1,63.28,46.66Z"/><path class="cls-20" d="M55.79,53.74a1.33,1.33,0,1,1-1.33-1.33A1.33,1.33,0,0,1,55.79,53.74Z"/><path class="cls-20" d="M59.53,59.64a1.33,1.33,0,1,1-1.33-1.33A1.33,1.33,0,0,1,59.53,59.64Z"/><path class="cls-20" d="M51.94,59.64a1.34,1.34,0,1,1-1.33-1.33A1.33,1.33,0,0,1,51.94,59.64Z"/><path class="cls-20" d="M46.09,66.37a1.33,1.33,0,1,1-2.66,0,1.33,1.33,0,1,1,2.66,0Z"/><path class="cls-20" d="M38.16,67.65a1.33,1.33,0,1,1-1.33-1.33A1.33,1.33,0,0,1,38.16,67.65Z"/><path class="cls-20" d="M36.46,58.62a1.34,1.34,0,1,1-1.33-1.32A1.34,1.34,0,0,1,36.46,58.62Z"/><path class="cls-20" d="M5.9,49.18a1.34,1.34,0,1,1-1.33-1.34A1.34,1.34,0,0,1,5.9,49.18Z"/><path class="cls-20" d="M30.15,47.5a1.34,1.34,0,1,1-1.34-1.33A1.33,1.33,0,0,1,30.15,47.5Z"/><path class="cls-20" d="M38.42,38.26a1.34,1.34,0,1,1-1.33-1.33A1.33,1.33,0,0,1,38.42,38.26Z"/><path class="cls-20" d="M42.17,42.7a1.34,1.34,0,1,1-1.34-1.33A1.33,1.33,0,0,1,42.17,42.7Z"/><path class="cls-20" d="M28.35,30.76A1.33,1.33,0,1,1,27,29.42,1.33,1.33,0,0,1,28.35,30.76Z"/><path class="cls-20" d="M17.07,34.83a1.33,1.33,0,1,1-1.33-1.34A1.34,1.34,0,0,1,17.07,34.83Z"/><path class="cls-20" d="M18.7,27.12a1.33,1.33,0,1,1-1.33-1.33A1.33,1.33,0,0,1,18.7,27.12Z"/><path class="cls-20" d="M38.16,29.39a1.33,1.33,0,1,1-1.33-1.33A1.33,1.33,0,0,1,38.16,29.39Z"/><path class="cls-20" d="M41.4,20.88a1.33,1.33,0,1,1-1.33-1.33A1.33,1.33,0,0,1,41.4,20.88Z"/><path class="cls-20" d="M57.4,39.59a1.33,1.33,0,1,1-1.33-1.33A1.33,1.33,0,0,1,57.4,39.59Z"/><path class="cls-20" d="M43.33,59.24A1.33,1.33,0,1,1,42,57.9,1.33,1.33,0,0,1,43.33,59.24Z"/><path class="cls-20" d="M31,40.22a1.34,1.34,0,1,1-1.33-1.33A1.33,1.33,0,0,1,31,40.22Z"/><path class="cls-20" d="M55,46.32A1.34,1.34,0,1,1,53.71,45,1.34,1.34,0,0,1,55,46.32Z"/><path class="cls-20" d="M23.53,41.59a1.33,1.33,0,1,1-2.66,0,1.33,1.33,0,1,1,2.66,0Z"/><path class="cls-20" d="M55.7,20.39a1.33,1.33,0,1,1-1.33-1.33A1.33,1.33,0,0,1,55.7,20.39Z"/><path class="cls-20" d="M45.9,50.47a1.34,1.34,0,1,1-1.33-1.34A1.34,1.34,0,0,1,45.9,50.47Z"/><path class="cls-20" d="M78.92,32.8a4,4,0,0,1-.84,1.26,4,4,0,0,1-1.25.85,3.85,3.85,0,0,1-1.56.31h-3a.94.94,0,0,1-.69-.29,1,1,0,0,1-.29-.68V22.17a.94.94,0,0,1,.29-.68.92.92,0,0,1,.69-.3h3a4.06,4.06,0,0,1,1.54.29,3.49,3.49,0,0,1,1.19.79,3.63,3.63,0,0,1,.79,1.2,3.89,3.89,0,0,1,.28,1.5,3.84,3.84,0,0,1-.37,1.69A3.26,3.26,0,0,1,77.63,28a4.09,4.09,0,0,1,1.16,1.37,3.79,3.79,0,0,1,.44,1.76v.18A3.82,3.82,0,0,1,78.92,32.8ZM77.12,25a1.79,1.79,0,0,0-.5-1.35,1.83,1.83,0,0,0-1.35-.5h-2V27h2a1.69,1.69,0,0,0,1.32-.58A2.09,2.09,0,0,0,77.12,25Zm.16,6.11a2,2,0,0,0-.16-.81,2.1,2.1,0,0,0-.44-.68A1.85,1.85,0,0,0,75.27,29h-2v4.32h2a1.94,1.94,0,0,0,.8-.16,2.15,2.15,0,0,0,.64-.44,1.92,1.92,0,0,0,.42-.65,2.08,2.08,0,0,0,.15-.78Z"/><path class="cls-20" d="M90.37,33a4,4,0,0,1-2.09,2,4.2,4.2,0,0,1-1.56.29h-.2A4.12,4.12,0,0,1,85,35a4,4,0,0,1-1.26-.82,3.82,3.82,0,0,1-1.17-2.77V25a3.64,3.64,0,0,1,.32-1.53,3.92,3.92,0,0,1,.85-1.23A3.76,3.76,0,0,1,85,21.37a4,4,0,0,1,1.54-.3h.18a4,4,0,0,1,1.56.3,3.63,3.63,0,0,1,1.24.82,3.92,3.92,0,0,1,.85,1.23A3.64,3.64,0,0,1,90.68,25v6.49A3.8,3.8,0,0,1,90.37,33Zm-1.64-8a2,2,0,0,0-.15-.78,1.74,1.74,0,0,0-.43-.61,1.85,1.85,0,0,0-.64-.41,2.22,2.22,0,0,0-.79-.14h-.2a2,2,0,0,0-1.43.55,1.81,1.81,0,0,0-.58,1.39v6.49a2.09,2.09,0,0,0,.15.79,1.82,1.82,0,0,0,.43.62,2.17,2.17,0,0,0,.64.4,2.06,2.06,0,0,0,.79.15h.2a2,2,0,0,0,.79-.15,2.17,2.17,0,0,0,.64-.4,1.69,1.69,0,0,0,.43-.62,2.09,2.09,0,0,0,.15-.79Z"/><path class="cls-20" d="M101.66,27.67a3.74,3.74,0,0,1-1.86,1.42l2.31,4.85a.94.94,0,0,1,.1.43.91.91,0,0,1-.28.68,1,1,0,0,1-.75.27,1,1,0,0,1-.47-.12.93.93,0,0,1-.37-.41l-2.61-5.52H96.08v5.1a.89.89,0,0,1-.29.72,1.08,1.08,0,0,1-.66.23,1.12,1.12,0,0,1-.69-.23.85.85,0,0,1-.31-.72V22.17a1,1,0,0,1,1-1h3.31a3.84,3.84,0,0,1,1.55.32,4.16,4.16,0,0,1,1.25.84,4,4,0,0,1,.84,1.25,3.83,3.83,0,0,1,.31,1.55v.18A4,4,0,0,1,101.66,27.67Zm-1.23-2.52a2.15,2.15,0,0,0-.16-.8,1.88,1.88,0,0,0-1-1.08,2,2,0,0,0-.78-.15h-2.4v4.22H98.5a1.81,1.81,0,0,0,1.39-.58,2,2,0,0,0,.54-1.43Z"/><path class="cls-20" d="M113.18,32.88a3.82,3.82,0,0,1-.84,1.25,3.65,3.65,0,0,1-1.25.81,4.4,4.4,0,0,1-1.55.28h-3.19a1,1,0,0,1-1-1V22.17a1,1,0,0,1,1-1h3.19a4.19,4.19,0,0,1,1.55.29,3.62,3.62,0,0,1,1.25.8,3.82,3.82,0,0,1,.84,1.25,4,4,0,0,1,.32,1.62v6.11A4,4,0,0,1,113.18,32.88Zm-1.63-7.73a2.06,2.06,0,0,0-.16-.79,2.13,2.13,0,0,0-1.08-1.08,1.83,1.83,0,0,0-.77-.16h-2.21V33.29h2.21a1.83,1.83,0,0,0,.77-.16,2,2,0,0,0,.64-.44,2.13,2.13,0,0,0,.44-.65,2.09,2.09,0,0,0,.16-.78Z"/><path class="cls-20" d="M124.66,34.27a1,1,0,0,1-.24.65.89.89,0,0,1-.73.3h-6.17a1,1,0,0,1-1-1V22.17a1,1,0,0,1,1-1h6.17a.86.86,0,0,1,.73.31,1,1,0,0,1,0,1.32.89.89,0,0,1-.73.3h-5.2V27H122a.93.93,0,0,1,.74.29,1,1,0,0,1,0,1.33A.88.88,0,0,1,122,29h-3.53v4.32h5.2a.86.86,0,0,1,.73.31A1,1,0,0,1,124.66,34.27Z"/><path class="cls-20" d="M136.74,34.41a.87.87,0,0,1-.27.66,1,1,0,0,1-.72.25,1,1,0,0,1-.55-.16.91.91,0,0,1-.39-.53L134,32h-4.51l-.81,2.68a.82.82,0,0,1-.38.53,1.12,1.12,0,0,1-.57.16,1,1,0,0,1-.72-.25.81.81,0,0,1-.28-.64s0-.09,0-.14l0-.19,3.86-12.26a1,1,0,0,1,.45-.58,1.26,1.26,0,0,1,.67-.19,1.36,1.36,0,0,1,.68.18,1,1,0,0,1,.43.59L136.7,34.1l0,.19A.57.57,0,0,1,136.74,34.41Zm-5-9.77L130.08,30h3.29Z"/><path class="cls-20" d="M146.41,32.92a4,4,0,0,1-.84,1.25,3.9,3.9,0,0,1-1.25.85,4,4,0,0,1-1.55.3h-.2A4,4,0,0,1,141,35a4.11,4.11,0,0,1-2.11-2.1,3.82,3.82,0,0,1-.31-1.54V22a.9.9,0,0,1,.3-.73,1.08,1.08,0,0,1,.67-.24,1,1,0,0,1,.67.24.88.88,0,0,1,.31.73v9.34a1.83,1.83,0,0,0,.16.77,2.13,2.13,0,0,0,1.08,1.08,1.86,1.86,0,0,0,.79.16h.18a1.83,1.83,0,0,0,.77-.16,1.92,1.92,0,0,0,.64-.44,2.08,2.08,0,0,0,.44-.64,1.83,1.83,0,0,0,.16-.77V22a.9.9,0,0,1,.3-.73,1.08,1.08,0,0,1,.67-.24,1,1,0,0,1,.67.24.88.88,0,0,1,.31.73v9.34A3.83,3.83,0,0,1,146.41,32.92Z"/><path class="cls-20" d="M158.06,34.39a.91.91,0,0,1-.29.66,1,1,0,0,1-.73.27,1.12,1.12,0,0,1-.47-.11.93.93,0,0,1-.38-.42l-2.3-4.6-2.29,4.6a.88.88,0,0,1-.37.41,1.07,1.07,0,0,1-.48.12,1,1,0,0,1-.73-.27.91.91,0,0,1-.29-.66,1.06,1.06,0,0,1,.12-.47l3-5.93-2.72-5.5A1.06,1.06,0,0,1,150,22a.92.92,0,0,1,.28-.67,1,1,0,0,1,.73-.28.92.92,0,0,1,.85.55l2.07,4.16L156,21.62a1,1,0,0,1,.38-.43,1,1,0,0,1,.47-.12,1,1,0,0,1,.73.28.92.92,0,0,1,.28.67,1.06,1.06,0,0,1-.12.47L155,28l2.94,5.93A1,1,0,0,1,158.06,34.39Z"/><path class="cls-20" d="M81.36,54.78a1.09,1.09,0,0,1-.67.23,1.13,1.13,0,0,1-.67-.23.87.87,0,0,1-.3-.72V45.45l-2.19,5.08a1,1,0,0,1-.43.45,1.18,1.18,0,0,1-.61.16,1.13,1.13,0,0,1-.58-.16,1,1,0,0,1-.41-.45l-2.28-5.08v8.61a.87.87,0,0,1-.3.72,1.09,1.09,0,0,1-1.34,0,.87.87,0,0,1-.31-.72V41.74a.91.91,0,0,1,.3-.68.93.93,0,0,1,.68-.3h.24a1,1,0,0,1,1,.57l3,6.7,3-6.7a.84.84,0,0,1,.36-.45,1.36,1.36,0,0,1,.63-.12h.24a1,1,0,0,1,1,1V54.06A.85.85,0,0,1,81.36,54.78Z"/><path class="cls-20" d="M93.08,54a1,1,0,0,1-.25.65.87.87,0,0,1-.73.3H85.93a1,1,0,0,1-.68-.29.93.93,0,0,1-.29-.68V41.86a.92.92,0,0,1,.29-.68.93.93,0,0,1,.68-.3H92.1a.88.88,0,0,1,.73.31,1,1,0,0,1,0,1.32.87.87,0,0,1-.73.3H86.91v3.92h3.53a.91.91,0,0,1,.73.29,1,1,0,0,1,0,1.33.86.86,0,0,1-.73.31H86.91V53H92.1a.85.85,0,0,1,.73.31A1,1,0,0,1,93.08,54ZM91.39,37.72a.84.84,0,0,1-.13.46,1,1,0,0,1-.42.37l-3.26,1.54a1,1,0,0,1-.45.1.85.85,0,0,1-.67-.3,1,1,0,0,1-.26-.69.88.88,0,0,1,.14-.48,1,1,0,0,1,.42-.37L90,36.8a1.14,1.14,0,0,1,.45-.1.85.85,0,0,1,.67.32A1.08,1.08,0,0,1,91.39,37.72Z"/><path class="cls-20" d="M102.64,41.86a1,1,0,0,1-.25.65.87.87,0,0,1-.73.3H99.73V54.06a.87.87,0,0,1-.3.72,1.09,1.09,0,0,1-1.34,0,.87.87,0,0,1-.3-.72V42.81H95.86a.87.87,0,0,1-.73-.3,1,1,0,0,1,0-1.32.88.88,0,0,1,.73-.31h5.8a.88.88,0,0,1,.73.31A1,1,0,0,1,102.64,41.86Z"/><path class="cls-20" d="M112.56,47.36a3.69,3.69,0,0,1-1.86,1.42L113,53.63a.94.94,0,0,1,.1.43.9.9,0,0,1-.28.68,1,1,0,0,1-.75.27,1,1,0,0,1-.47-.12.86.86,0,0,1-.36-.41L108.63,49H107v5.1a.89.89,0,0,1-.29.72A1.08,1.08,0,0,1,106,55a1.12,1.12,0,0,1-.69-.23.87.87,0,0,1-.31-.72V41.86a.93.93,0,0,1,.3-.68.91.91,0,0,1,.68-.3h3.31a3.84,3.84,0,0,1,1.55.32A3.91,3.91,0,0,1,113,43.29a3.84,3.84,0,0,1,.32,1.55V45A3.93,3.93,0,0,1,112.56,47.36Zm-1.23-2.52a2,2,0,0,0-.16-.8,2,2,0,0,0-.4-.65,1.92,1.92,0,0,0-.61-.43,2,2,0,0,0-.78-.15H107V47h2.42a1.83,1.83,0,0,0,1.39-.58,2,2,0,0,0,.54-1.43Z"/><path class="cls-20" d="M123.82,52.68a4.07,4.07,0,0,1-.84,1.23,4,4,0,0,1-1.25.81,4.19,4.19,0,0,1-1.55.29H120a4,4,0,0,1-2.79-1.1,3.92,3.92,0,0,1-.85-1.23,3.78,3.78,0,0,1-.31-1.54v-6.5a3.67,3.67,0,0,1,.31-1.53,3.92,3.92,0,0,1,.85-1.23,3.76,3.76,0,0,1,1.27-.82,4,4,0,0,1,1.54-.3h.19a4,4,0,0,1,1.55.3,3.67,3.67,0,0,1,1.25.82,4.07,4.07,0,0,1,.84,1.23,3.67,3.67,0,0,1,.31,1.53v6.5A3.78,3.78,0,0,1,123.82,52.68Zm-1.63-8a2,2,0,0,0-.58-1.4,2,2,0,0,0-.64-.41,2.3,2.3,0,0,0-.79-.14H120a2,2,0,0,0-1.43.55,1.85,1.85,0,0,0-.58,1.4v6.48a2.06,2.06,0,0,0,.16.79,1.79,1.79,0,0,0,.42.62,2.23,2.23,0,0,0,.64.4,2.09,2.09,0,0,0,.79.15h.21a2.11,2.11,0,0,0,1.43-.55,1.79,1.79,0,0,0,.42-.62,1.89,1.89,0,0,0,.16-.79Z"/><path class="cls-20" d="M135.26,44.82a4.48,4.48,0,0,1-.28,1.55,3.65,3.65,0,0,1-.81,1.25,3.79,3.79,0,0,1-1.2.85,3.64,3.64,0,0,1-1.53.31h-2.31v5.28a.85.85,0,0,1-.31.72,1.09,1.09,0,0,1-.67.23,1.13,1.13,0,0,1-.67-.23.87.87,0,0,1-.3-.72V41.86a.94.94,0,0,1,.28-.68.92.92,0,0,1,.69-.3h3.29a3.8,3.8,0,0,1,1.53.31,3.62,3.62,0,0,1,1.2.84,3.85,3.85,0,0,1,.81,1.25A4.3,4.3,0,0,1,135.26,44.82Zm-1.95,0a2.09,2.09,0,0,0-.51-1.43,1.71,1.71,0,0,0-1.36-.58h-2.31v4h2.31a1.68,1.68,0,0,0,1.36-.59A2.11,2.11,0,0,0,133.31,44.82Z"/><path class="cls-20" d="M145.38,52.68a4.07,4.07,0,0,1-.84,1.23,4,4,0,0,1-1.25.81,4.19,4.19,0,0,1-1.55.29h-.21a4,4,0,0,1-2.79-1.1,3.92,3.92,0,0,1-.85-1.23,3.79,3.79,0,0,1-.32-1.54v-6.5a3.68,3.68,0,0,1,.32-1.53,3.92,3.92,0,0,1,.85-1.23,3.76,3.76,0,0,1,1.27-.82,4,4,0,0,1,1.54-.3h.19a4,4,0,0,1,1.55.3,3.67,3.67,0,0,1,1.25.82,4.07,4.07,0,0,1,.84,1.23,3.67,3.67,0,0,1,.31,1.53v6.5A3.78,3.78,0,0,1,145.38,52.68Zm-1.63-8a1.94,1.94,0,0,0-.16-.78,1.79,1.79,0,0,0-.42-.62,2.06,2.06,0,0,0-.64-.41,2.3,2.3,0,0,0-.79-.14h-.21a2,2,0,0,0-1.43.55,1.85,1.85,0,0,0-.58,1.4v6.48a1.89,1.89,0,0,0,.16.79,1.79,1.79,0,0,0,.42.62,2.1,2.1,0,0,0,.64.4,2.06,2.06,0,0,0,.79.15h.21a2.09,2.09,0,0,0,.79-.15,2.23,2.23,0,0,0,.64-.4,1.79,1.79,0,0,0,.42-.62,2.06,2.06,0,0,0,.16-.79Z"/><path class="cls-20" d="M156.56,54a1.06,1.06,0,0,1-.25.65.87.87,0,0,1-.73.3h-5.45a1,1,0,0,1-1-1V41.74a.87.87,0,0,1,.3-.73,1,1,0,0,1,.68-.25,1,1,0,0,1,.67.25.87.87,0,0,1,.29.73V53h4.49a.85.85,0,0,1,.73.31A1,1,0,0,1,156.56,54Z"/><path class="cls-20" d="M167.33,54a1,1,0,0,1-.24.65.89.89,0,0,1-.73.3h-6.17a1,1,0,0,1-1-1V41.86a.93.93,0,0,1,.3-.68.91.91,0,0,1,.68-.3h6.17a.89.89,0,0,1,.73.31,1,1,0,0,1,0,1.32.89.89,0,0,1-.73.3h-5.2v3.92h3.53a.93.93,0,0,1,.74.29,1,1,0,0,1,0,1.33.88.88,0,0,1-.74.31h-3.53V53h5.2a.86.86,0,0,1,.73.31A1,1,0,0,1,167.33,54Z"/></g></svg>