<svg id="Calque_1" data-name="Calque 1" xmlns="http://www.w3.org/2000/svg" viewBox="0 0 151.95 41.09"><defs><style>.cls-1{fill:#1d1d1b;}</style></defs><title>logo court</title><path class="cls-1" d="M131.41,26.12c0-4.09,2.45-7,6-7s6,2.9,6,7-2.38,7-6,7-6-2.95-6-7M151.8,12h-8.46v2.15a9,9,0,0,0-7-2.78c-7.22,0-13.46,5.57-13.46,14.88,0,9.14,6,14.65,13,14.65a9.16,9.16,0,0,0,7.55-3.35h.8l.85,2.84h6.7ZM117.5,40.37V.62H103.7L97.62,24.47h-.51L90.47.62H76.61V40.37H85.3V14.19H86L91.6,32.93h11.65l4.82-18.74h.74V40.37ZM49.24,33.22c-3.3,0-5.4-1.76-5.4-4.6,0-3.47,2.73-6.19,8.92-6.19h4.66v1.41c0,6.65-3.64,9.38-8.18,9.38m-1.08,7.44c3.69,0,7.27-1.42,8.8-3.7h.51v3.41h7.9V22.43h7.1v-7h-7.1V10.67h-8v2a2.55,2.55,0,0,1-1.25,2.44,3.89,3.89,0,0,1-1.88.34H52c-4.71,0-7-1.48-7-4.09,0-2.78,2.44-4,5.56-4h6.88v-7H49.69c-8.4,0-12.95,4.09-12.95,10.4,0,3.91,1.71,6.47,5.17,8.4v.57a10.78,10.78,0,0,0-6.7,9.77c0,7,5.62,11.19,12.95,11.19M17.89,19.07H8.69V8.68H18c3.75,0,5.51,2.33,5.51,5.17,0,3-1.7,5.22-5.62,5.22M18.57.62H0V40.37H8.69V27.14h9.77C27.6,27.14,32.6,22,32.6,13.85c0-7.72-4.94-13.23-14-13.23"/></svg>