<?xml version="1.0" encoding="UTF-8"?>
<svg width="169px" height="80px" viewBox="0 0 169 80" version="1.1" xmlns="http://www.w3.org/2000/svg" xmlns:xlink="http://www.w3.org/1999/xlink">
    <!-- Generator: Sketch 49.3 (51167) - http://www.bohemiancoding.com/sketch -->
    <title>inli/logo/80px</title>
    <desc>Created with Sketch.</desc>
    <defs>
        <polygon id="path-1" points="0 61.2587206 168.860543 61.2587206 168.860543 0 0 0"></polygon>
    </defs>
    <g id="inli/logo/80px" stroke="none" stroke-width="1" fill="none" fill-rule="evenodd">
        <g id="inlifr" transform="translate(0.000000, 9.000000)">
            <path d="M0,20.6977902 L7.85310919,20.6977902 L7.85310919,13.7631116 L0,13.7631116 L0,20.6977902 Z M0.301047038,57.4300505 L7.61054581,57.4300505 L7.61054581,25.5831732 L0.301047038,25.5831732 L0.301047038,57.4300505 Z" id="Fill-1" fill="#EA295E"></path>
            <g id="Group-12">
                <path d="M17.1562297,25.5838432 L24.4657284,25.5838432 L24.4657284,30.5304849 C26.5193678,27.5134929 29.4799832,24.9214833 34.4328781,24.9214833 C41.6225333,24.9214833 45.7930894,29.7465647 45.7930894,37.1655701 L45.7930894,57.4297634 L38.4816732,57.4297634 L38.4816732,39.336426 C38.4816732,34.3907414 36.004267,31.5556113 31.6553836,31.5556113 C27.4263439,31.5556113 24.4657284,34.5094302 24.4657284,39.4570291 L24.4657284,57.4297634 L17.1562297,57.4297634 L17.1562297,25.5838432 Z" id="Fill-2" fill="#EA295E"></path>
                <path d="M52.3743228,29.143262 C56.0597522,28.4789878 57.8113857,26.6105968 57.5112974,23.4730017 L54.4270034,23.4730017 L54.4270034,15.2097746 L62.4632336,15.2097746 L62.4632336,22.2669706 C62.4632336,28.9614002 59.262931,31.7955732 53.1576204,32.2789428 L52.3743228,29.143262 Z" id="Fill-4" fill="#EA295E"></path>
                <mask id="mask-2" fill="white">
                    <use xlink:href="#path-1"></use>
                </mask>
                <g id="Clip-7"></g>
                <polygon id="Fill-6" fill="#EA295E" mask="url(#mask-2)" points="71.2810356 57.4300505 78.5943693 57.4300505 78.5943693 13.4003451 71.2810356 13.4003451"></polygon>
                <path d="M88.557684,57.4300505 L95.8681416,57.4300505 L95.8681416,25.5841303 L88.557684,25.5841303 L88.557684,57.4300505 Z M88.2585545,20.6977902 L96.1135812,20.6977902 L96.1135812,13.7631116 L88.2585545,13.7631116 L88.2585545,20.6977902 Z" id="Fill-8" fill="#EA295E" mask="url(#mask-2)"></path>
                <path d="M152.523277,28.1356518 L148.035375,28.1356518 L148.035375,22.7812567 L152.523277,22.7812567 C154.302714,22.7812567 155.453212,23.8389268 155.453212,25.4737689 C155.453212,27.0904249 154.302714,28.1356518 152.523277,28.1356518 M166.196948,36.6745431 L159.18562,36.6745431 L156.549062,31.7633166 C158.94785,30.5381422 160.362005,28.2246684 160.362005,25.4737689 C160.362005,21.2852039 157.120476,18.2442827 152.655584,18.2442827 L145.366219,18.2442827 C144.006713,18.2442827 143.093985,19.1555062 143.093985,20.5118126 L143.093985,39.3680125 C143.093985,40.8784228 144.109299,41.9332214 145.563721,41.9332214 C147.019101,41.9332214 148.035375,40.8784228 148.035375,39.3680125 L148.035375,32.6726258 L151.60863,32.6726258 L155.542376,40.4275969 C155.979565,41.2986194 156.686163,41.7829461 157.57684,41.8882345 L157.567253,41.9351358 L163.558472,41.9322642 L163.558472,43.1526528 L163.446299,43.2129544 L141.90993,55.5948733 L141.796798,55.5278715 L120.313161,43.1047944 L120.313161,18.1399515 L120.426293,18.0815643 L141.944445,5.66423017 L142.061413,5.73218906 L164.894968,18.9018568 C165.510484,19.2617518 166.223793,19.3536399 166.896834,19.1669922 C167.583298,18.9937449 168.149919,18.5524907 168.503697,17.9418178 C168.859393,17.3206161 168.948556,16.6209266 168.774064,15.9355947 C168.583273,15.2540914 168.149919,14.6951056 167.537279,14.342868 L143.26656,0.353864828 C142.861968,0.115530118 142.40848,-0.000287150253 141.944445,-0.000287150253 C141.493834,-0.000287150253 141.034593,0.115530118 140.633836,0.353864828 L116.357365,14.3361678 C115.539552,14.8090085 115.032374,15.6829025 115.032374,16.6209266 L115.03525,44.2256376 C115.03525,44.8181243 115.179063,45.5972586 115.477233,46.0834997 C115.724591,46.4979533 116.251902,46.8310476 116.251902,46.8310476 L140.581105,60.9119388 C141.375907,61.3752079 142.420943,61.3752079 143.218622,60.9119388 L167.50564,46.9583508 C168.331122,46.4912531 168.8383,45.6192735 168.8383,44.6764635 L168.8383,39.3067538 C168.8383,37.8470733 167.65137,36.6745431 166.196948,36.6745431" id="Fill-9" fill="#EA295E" mask="url(#mask-2)"></path>
                <path d="M139.078267,22.7814482 C140.551863,22.7814482 141.581559,21.8472527 141.581559,20.512004 C141.581559,19.1757982 140.551863,18.2444742 139.078267,18.2444742 L127.84461,18.2444742 C126.486063,18.2444742 125.572376,19.1556976 125.572376,20.512004 L125.572376,39.3682039 C125.572376,40.8776571 126.58865,41.9334128 128.043071,41.9334128 C129.498451,41.9334128 130.514725,40.8776571 130.514725,39.3682039 L130.514725,32.4067246 L137.421549,32.4067246 C138.895146,32.4067246 139.924842,31.4725291 139.924842,30.1372805 C139.924842,28.8020318 138.895146,27.8707078 137.421549,27.8707078 L130.514725,27.8707078 L130.514725,22.7814482 L139.078267,22.7814482 Z" id="Fill-10" fill="#EA295E" mask="url(#mask-2)"></path>
                <polygon id="Fill-11" fill="#003D7C" mask="url(#mask-2)" points="103.527584 57.4300505 111.197572 57.4300505 111.197572 49.7727105 103.527584 49.7727105"></polygon>
            </g>
        </g>
    </g>
</svg>