<?xml version="1.0" encoding="utf-8"?>
<!-- Generator: Adobe Illustrator 24.0.1, SVG Export Plug-In . SVG Version: 6.00 Build 0)  -->
<svg version="1.1" id="Calque_1" xmlns="http://www.w3.org/2000/svg" xmlns:xlink="http://www.w3.org/1999/xlink" x="0px" y="0px"
	 viewBox="0 0 295 213.8" style="enable-background:new 0 0 295 213.8;" xml:space="preserve">
<style type="text/css">
	.st0{fill:none;stroke:#FFFFFF;stroke-width:0.75;stroke-linecap:round;stroke-linejoin:round;}
</style>
<title>illu_accueil2</title>
<g>
	<g id="LINE-5">
		<line class="st0" x1="112.1" y1="112.7" x2="182.4" y2="112.7"/>
	</g>
	<g id="LINE-6">
		<line class="st0" x1="133.2" y1="95.1" x2="161.3" y2="95.1"/>
	</g>
	<g id="LINE-7">
		<line class="st0" x1="133.2" y1="81" x2="161.3" y2="81"/>
	</g>
	<g id="LINE-8">
		<line class="st0" x1="133.2" y1="67" x2="161.3" y2="67"/>
	</g>
	<g id="LINE-9">
		<line class="st0" x1="182.4" y1="112.7" x2="182.4" y2="63.5"/>
	</g>
	<g id="LINE-10">
		<line class="st0" x1="147.2" y1="95.1" x2="147.2" y2="67"/>
	</g>
	<g id="LINE-11">
		<line class="st0" x1="161.3" y1="95.1" x2="161.3" y2="67"/>
	</g>
	<g id="LINE-12">
		<line class="st0" x1="133.2" y1="95.1" x2="133.2" y2="67"/>
	</g>
	<g id="LINE-13">
		<line class="st0" x1="112.1" y1="63.5" x2="112.1" y2="112.7"/>
	</g>
	<g id="LINE-14">
		<line class="st0" x1="112.1" y1="63.5" x2="105" y2="63.5"/>
	</g>
	<g id="LINE-15">
		<line class="st0" x1="105" y1="63.5" x2="147.2" y2="28.3"/>
	</g>
	<g id="LINE-16">
		<line class="st0" x1="182.4" y1="63.5" x2="189.4" y2="63.5"/>
	</g>
	<g id="LINE-17">
		<line class="st0" x1="189.4" y1="63.5" x2="171.9" y2="48.8"/>
	</g>
	<g id="LINE-18">
		<line class="st0" x1="161.3" y1="40" x2="147.2" y2="28.3"/>
	</g>
	<g id="LINE-19">
		<line class="st0" x1="161.3" y1="40" x2="161.3" y2="33"/>
	</g>
	<g id="LINE-20">
		<line class="st0" x1="161.3" y1="33" x2="171.9" y2="33"/>
	</g>
	<g id="LINE-21">
		<line class="st0" x1="171.9" y1="33" x2="171.9" y2="48.8"/>
	</g>
	<g>
		<g id="CIRCLE-2">
			<path class="st0" d="M210.9,19.1c0-9.7,7.9-17.6,17.6-17.6S246,9.4,246,19.1s-7.9,17.6-17.6,17.6S210.9,28.8,210.9,19.1
				L210.9,19.1z"/>
		</g>
		<g id="LINE-3">
			<line class="st0" x1="214" y1="42.9" x2="242.1" y2="42.9"/>
		</g>
		<g id="LINE-4">
			<line class="st0" x1="239.5" y1="127.3" x2="211.3" y2="127.3"/>
		</g>
		<g id="SPLINE-3">
			<path class="st0" d="M214,42.9c-1.2,28.2-2.4,56.2-2.7,84.4"/>
		</g>
		<g id="SPLINE-4">
			<path class="st0" d="M242.1,42.9c0.6,28.1,1.3,56.5-2.6,84.4"/>
		</g>
		<g id="LINE-23">
			<line class="st0" x1="228" y1="51.2" x2="173.3" y2="112.7"/>
		</g>
		<g id="LINE-29">
			<line class="st0" x1="239.5" y1="127.3" x2="247.4" y2="168.8"/>
		</g>
		<g id="LINE-30">
			<line class="st0" x1="247.4" y1="168.8" x2="287.4" y2="182.2"/>
		</g>
		<g id="LINE-31">
			<line class="st0" x1="287.4" y1="182.2" x2="293.3" y2="194.9"/>
		</g>
		<g id="LINE-32">
			<line class="st0" x1="211.3" y1="127.3" x2="203.6" y2="211.4"/>
		</g>
		<g id="LINE-33">
			<line class="st0" x1="203.6" y1="211.4" x2="189.7" y2="213.8"/>
		</g>
	</g>
	<g>
		<g id="CIRCLE-2_1_">
			<path class="st0" d="M84.1,19.1c0,9.7-7.9,17.6-17.6,17.6s-17.6-7.9-17.6-17.6S56.8,1.5,66.5,1.5S84.1,9.4,84.1,19.1L84.1,19.1z"
				/>
		</g>
		<g id="LINE-3_1_">
			<line class="st0" x1="52.9" y1="42.9" x2="81" y2="42.9"/>
		</g>
		<g id="LINE-4_1_">
			<line class="st0" x1="83.6" y1="127.3" x2="55.5" y2="127.3"/>
		</g>
		<g id="SPLINE-3_1_">
			<path class="st0" d="M83.7,127.3c-0.2-28.1-1.5-56.2-2.7-84.4"/>
		</g>
		<g id="SPLINE-4_1_">
			<path class="st0" d="M55.5,127.3c-3.9-27.9-3.3-56.2-2.6-84.4"/>
		</g>
		<g id="LINE-23_1_">
			<line class="st0" x1="121.6" y1="112.7" x2="67" y2="51.2"/>
		</g>
		<g id="LINE-29_1_">
			<line class="st0" x1="47.6" y1="168.8" x2="55.5" y2="127.3"/>
		</g>
		<g id="LINE-30_1_">
			<line class="st0" x1="7.5" y1="182.2" x2="47.6" y2="168.8"/>
		</g>
		<g id="LINE-31_1_">
			<line class="st0" x1="1.6" y1="194.9" x2="7.5" y2="182.2"/>
		</g>
		<g id="LINE-32_1_">
			<line class="st0" x1="91.4" y1="211.4" x2="83.6" y2="127.3"/>
		</g>
		<g id="LINE-33_1_">
			<line class="st0" x1="105.2" y1="213.8" x2="91.4" y2="211.4"/>
		</g>
	</g>
</g>
</svg>
