<?xml version="1.0" encoding="utf-8"?>
<!-- Generator: Adobe Illustrator 24.0.1, SVG Export Plug-In . SVG Version: 6.00 Build 0)  -->
<svg version="1.1" id="Capa_1" xmlns="http://www.w3.org/2000/svg" xmlns:xlink="http://www.w3.org/1999/xlink" x="0px" y="0px"
	 viewBox="0 0 246 246" style="enable-background:new 0 0 246 246;" xml:space="preserve">
<style type="text/css">
	.st0{fill:#24B99E;}
</style>
<path class="st0" d="M242.8,196.5L143.9,25.4c-4.4-7.6-12.2-12.1-20.9-12.1s-16.6,4.5-20.9,12.1L3.3,196.5c-4.4,7.6-4.4,16.6,0,24.2
	s12.2,12.1,20.9,12.1h197.6c8.7,0,16.6-4.5,20.9-12.1C247.1,213.1,247.1,204.1,242.8,196.5z M123,204.9c-8.7,0-15.7-7.1-15.7-15.7
	c0-8.7,7.1-15.7,15.7-15.7s15.7,7.1,15.7,15.7C138.7,197.9,131.7,204.9,123,204.9z M138.8,137.7c0,8.7-7.1,15.8-15.8,15.8
	s-15.8-7.1-15.8-15.8V65c0-4.1,3.4-7.5,7.5-7.5h16.7c4.1,0,7.5,3.4,7.5,7.5L138.8,137.7L138.8,137.7z"/>
</svg>
