<?xml version="1.0" encoding="utf-8"?>
<!-- Generator: Adobe Illustrator 24.0.1, SVG Export Plug-In . SVG Version: 6.00 Build 0)  -->
<svg version="1.1" id="Calque_1" xmlns="http://www.w3.org/2000/svg" xmlns:xlink="http://www.w3.org/1999/xlink" x="0px" y="0px"
	 viewBox="0 0 512 512" style="enable-background:new 0 0 512 512;" xml:space="preserve">
<style type="text/css">
	.st0{fill:#D9326F;}
</style>
<path class="st0" d="M368.1,513c-5.2,0-10.4-1-15.4-3.1c-15-6.2-24.7-20.7-24.7-37V381c-87.6,0-170-34.1-231.9-96.1S0,140.6,0,53V21
	C0,10,9,1,20,1s20,9,20,20v32c0,158.8,129.2,288,288,288c22.1,0,40,17.9,40,40v91.9v0c0,0,0.1,0,0.1,0c0,0,0,0,0,0l98-97.8
	c3.8-3.8,5.9-8.8,5.9-14.2c0-5.4-2.1-10.4-5.9-14.2l-98-97.8c0,0,0,0,0,0c0,0-0.1,0-0.1,0v0V271c0,11-9,20-20,20c-11,0-20-9-20-20
	v-21.9c0-16.2,9.7-30.8,24.7-37c15-6.2,32.2-2.8,43.7,8.7l98,97.8c11.4,11.3,17.6,26.4,17.6,42.5s-6.3,31.1-17.6,42.5l-98,97.8
	C388.7,508.9,378.5,513,368.1,513z"/>
</svg>
