<svg id="Calque_1" data-name="Calque 1" xmlns="http://www.w3.org/2000/svg" viewBox="0 0 356.31 212.69"><defs><style>.cls-1{fill:none;stroke:#fff;stroke-linecap:round;stroke-linejoin:round;stroke-width:0.75px;}</style></defs><title>habitat_particpatif</title><g id="LINE"><line class="cls-1" x1="139.93" y1="29.03" x2="129.74" y2="107.28"/></g><g id="LINE-2" data-name="LINE"><line class="cls-1" x1="139.93" y1="29.03" x2="150.22" y2="80.98"/></g><g id="LINE-3" data-name="LINE"><line class="cls-1" x1="181.1" y1="82.18" x2="181.1" y2="94.28"/></g><g id="LINE-4" data-name="LINE"><line class="cls-1" x1="181.1" y1="99.08" x2="181.1" y2="130.17"/></g><g id="LINE-5" data-name="LINE"><line class="cls-1" x1="190.02" y1="82.18" x2="190.02" y2="84.71"/></g><g id="LINE-6" data-name="LINE"><line class="cls-1" x1="190.02" y1="100.84" x2="190.02" y2="130.17"/></g><g id="LWPOLYLINE"><rect class="cls-1" x="138.55" y="130.17" width="61.35" height="4.31"/></g><g id="LINE-7" data-name="LINE"><line class="cls-1" x1="138.55" y1="134.56" x2="138.55" y2="150.65"/></g><g id="LINE-8" data-name="LINE"><line class="cls-1" x1="199.9" y1="134.48" x2="199.9" y2="151.86"/></g><g id="LINE-9" data-name="LINE"><line class="cls-1" x1="88.95" y1="184.1" x2="87.77" y2="198.76"/></g><g id="LINE-10" data-name="LINE"><line class="cls-1" x1="94.42" y1="184.98" x2="94.9" y2="199.17"/></g><g id="LINE-11" data-name="LINE"><line class="cls-1" x1="95.13" y1="199.17" x2="96.32" y2="196.09"/></g><g id="LINE-12" data-name="LINE"><line class="cls-1" x1="246.56" y1="79.78" x2="253.13" y2="46.48"/></g><g id="LINE-13" data-name="LINE"><line class="cls-1" x1="253.13" y1="46.48" x2="275.89" y2="84.37"/></g><g id="LINE-14" data-name="LINE"><line class="cls-1" x1="356.31" y1="62.88" x2="336.22" y2="55.64"/></g><g id="LINE-15" data-name="LINE"><line class="cls-1" x1="308.91" y1="45.8" x2="248.62" y2="24.07"/></g><g id="LINE-16" data-name="LINE"><line class="cls-1" x1="248.62" y1="24.07" x2="236.73" y2="28.66"/></g><g id="LINE-17" data-name="LINE"><line class="cls-1" x1="236.73" y1="28.66" x2="308.91" y2="54.67"/></g><g id="LINE-18" data-name="LINE"><line class="cls-1" x1="336.22" y1="64.51" x2="344.43" y2="67.47"/></g><g id="LINE-19" data-name="LINE"><line class="cls-1" x1="197.37" y1="189.66" x2="221.5" y2="206.87"/></g><g id="ARC"><path class="cls-1" d="M249.24,207.3a2.56,2.56,0,1,0,3.34,1.38,2.59,2.59,0,0,0-1.38-1.38"/></g><g id="CIRCLE"><path class="cls-1" d="M175.77,177.47a3.46,3.46,0,1,1,3.46,3.46,3.46,3.46,0,0,1-3.46-3.46Z"/></g><g id="ARC-2" data-name="ARC"><path class="cls-1" d="M330.89,153.35a4.78,4.78,0,1,0,9.52,1,5,5,0,0,0,0-1"/></g><g id="LINE-20" data-name="LINE"><line class="cls-1" x1="356.31" y1="62.88" x2="344.43" y2="67.47"/></g><g id="LINE-21" data-name="LINE"><line class="cls-1" x1="248.62" y1="24.07" x2="256.83" y2="35.9"/></g><g id="LINE-22" data-name="LINE"><line class="cls-1" x1="256.83" y1="35.9" x2="268.72" y2="31.31"/></g><g id="LINE-23" data-name="LINE"><line class="cls-1" x1="268.72" y1="31.31" x2="276.93" y2="43.14"/></g><g id="LINE-24" data-name="LINE"><line class="cls-1" x1="276.93" y1="43.14" x2="288.81" y2="38.56"/></g><g id="LINE-25" data-name="LINE"><line class="cls-1" x1="288.81" y1="38.56" x2="297.02" y2="50.39"/></g><g id="LINE-26" data-name="LINE"><line class="cls-1" x1="297.02" y1="50.39" x2="308.91" y2="45.8"/></g><g id="LINE-27" data-name="LINE"><line class="cls-1" x1="336.22" y1="55.64" x2="344.43" y2="67.47"/></g><g id="LINE-28" data-name="LINE"><line class="cls-1" x1="308.43" y1="144.24" x2="345.08" y2="144.25"/></g><g id="LINE-29" data-name="LINE"><line class="cls-1" x1="345.08" y1="144.25" x2="345.08" y2="153.35"/></g><g id="LINE-30" data-name="LINE"><line class="cls-1" x1="345.08" y1="153.35" x2="321.55" y2="153.35"/></g><g id="LINE-31" data-name="LINE"><line class="cls-1" x1="308.91" y1="40.48" x2="336.22" y2="40.48"/></g><g id="LINE-32" data-name="LINE"><line class="cls-1" x1="312.55" y1="44.12" x2="332.58" y2="44.12"/></g><g id="LINE-33" data-name="LINE"><line class="cls-1" x1="336.22" y1="40.48" x2="336.22" y2="67.79"/></g><g id="LINE-34" data-name="LINE"><line class="cls-1" x1="332.58" y1="44.12" x2="332.58" y2="60.5"/></g><g id="LINE-35" data-name="LINE"><line class="cls-1" x1="336.22" y1="67.79" x2="308.91" y2="67.79"/></g><g id="LINE-36" data-name="LINE"><line class="cls-1" x1="332.58" y1="60.5" x2="312.55" y2="60.5"/></g><g id="LINE-37" data-name="LINE"><line class="cls-1" x1="308.91" y1="67.79" x2="308.91" y2="40.48"/></g><g id="LINE-38" data-name="LINE"><line class="cls-1" x1="312.55" y1="60.5" x2="312.55" y2="44.12"/></g><g id="LINE-39" data-name="LINE"><line class="cls-1" x1="315.28" y1="67.79" x2="315.28" y2="144.25"/></g><g id="LINE-40" data-name="LINE"><line class="cls-1" x1="329.84" y1="67.79" x2="329.84" y2="103.6"/></g><g id="LINE-41" data-name="LINE"><line class="cls-1" x1="329.84" y1="109.58" x2="329.84" y2="111.13"/></g><g id="LINE-42" data-name="LINE"><line class="cls-1" x1="329.84" y1="127.74" x2="329.84" y2="144.25"/></g><g id="LINE-43" data-name="LINE"><line class="cls-1" x1="315.28" y1="67.79" x2="329.84" y2="80.53"/></g><g id="LINE-44" data-name="LINE"><line class="cls-1" x1="329.84" y1="80.53" x2="315.28" y2="93.27"/></g><g id="LINE-45" data-name="LINE"><line class="cls-1" x1="315.28" y1="93.27" x2="328.57" y2="104.9"/></g><g id="LINE-46" data-name="LINE"><line class="cls-1" x1="328.23" y1="107.42" x2="315.28" y2="118.76"/></g><g id="LINE-47" data-name="LINE"><line class="cls-1" x1="329.84" y1="131.5" x2="315.28" y2="118.76"/></g><g id="LINE-48" data-name="LINE"><line class="cls-1" x1="329.84" y1="131.5" x2="315.28" y2="144.25"/></g><g id="ARC-3" data-name="ARC"><path class="cls-1" d="M163.72,58.47a5.46,5.46,0,1,0,0,9.2"/></g><g id="ARC-4" data-name="ARC"><path class="cls-1" d="M163.72,58.47A1.65,1.65,0,0,0,166,58a1.62,1.62,0,0,0,.26-.88"/></g><g id="ARC-5" data-name="ARC"><path class="cls-1" d="M166.24,69.05a1.64,1.64,0,0,0-1.64-1.64,1.62,1.62,0,0,0-.88.26"/></g><g id="ARC-6" data-name="ARC"><path class="cls-1" d="M196.07,67.67a5.46,5.46,0,1,0,0-9.2"/></g><g id="ARC-7" data-name="ARC"><path class="cls-1" d="M196.07,67.67a1.65,1.65,0,0,0-2.27.5,1.7,1.7,0,0,0-.25.88"/></g><g id="ARC-8" data-name="ARC"><path class="cls-1" d="M193.55,57.09a1.65,1.65,0,0,0,2.52,1.38"/></g><g id="LINE-49" data-name="LINE"><line class="cls-1" x1="166.24" y1="49.42" x2="193.55" y2="49.42"/></g><g id="LINE-50" data-name="LINE"><line class="cls-1" x1="193.55" y1="69.05" x2="193.55" y2="76.72"/></g><g id="LINE-51" data-name="LINE"><line class="cls-1" x1="166.24" y1="76.72" x2="166.24" y2="69.05"/></g><g id="LINE-52" data-name="LINE"><line class="cls-1" x1="200.83" y1="76.72" x2="166.24" y2="76.72"/></g><g id="LINE-53" data-name="LINE"><line class="cls-1" x1="166.24" y1="76.72" x2="166.24" y2="82.18"/></g><g id="LINE-54" data-name="LINE"><line class="cls-1" x1="166.24" y1="82.18" x2="200.83" y2="82.18"/></g><g id="LINE-55" data-name="LINE"><line class="cls-1" x1="193.55" y1="49.42" x2="193.55" y2="57.09"/></g><g id="LINE-56" data-name="LINE"><line class="cls-1" x1="166.24" y1="49.42" x2="166.24" y2="57.09"/></g><g id="LINE-57" data-name="LINE"><line class="cls-1" x1="200.83" y1="82.18" x2="200.83" y2="76.72"/></g><g id="ARC-9" data-name="ARC"><path class="cls-1" d="M226.65,94.9a6.67,6.67,0,1,0-3.9-10.54"/></g><g id="ARC-10" data-name="ARC"><path class="cls-1" d="M226.65,94.9a2,2,0,0,0-2.37,1.53,2,2,0,0,0,.08,1.12"/></g><g id="ARC-11" data-name="ARC"><path class="cls-1" d="M219.28,83.85A2,2,0,0,0,221.85,85a1.93,1.93,0,0,0,.9-.67"/></g><g id="ARC-12" data-name="ARC"><path class="cls-1" d="M215.8,103.25a6.67,6.67,0,1,0-10.15,7.94"/></g><g id="ARC-13" data-name="ARC"><path class="cls-1" d="M205.14,114.66a2,2,0,0,0,1.18-2.57,2.08,2.08,0,0,0-.67-.9"/></g><g id="LINE-58" data-name="LINE"><line class="cls-1" x1="184.76" y1="86.66" x2="196.36" y2="117.92"/></g><g id="LINE-59" data-name="LINE"><line class="cls-1" x1="205.14" y1="114.66" x2="196.36" y2="117.92"/></g><g id="LINE-60" data-name="LINE"><line class="cls-1" x1="216.02" y1="75.07" x2="219.28" y2="83.85"/></g><g id="LINE-61" data-name="LINE"><line class="cls-1" x1="227.61" y1="106.33" x2="224.14" y2="107.61"/></g><g id="LINE-62" data-name="LINE"><line class="cls-1" x1="227.61" y1="106.33" x2="224.36" y2="97.55"/></g><g id="ARC-14" data-name="ARC"><path class="cls-1" d="M257.24,103.86a6.67,6.67,0,1,0,10.84-3"/></g><g id="ARC-15" data-name="ARC"><path class="cls-1" d="M257.24,103.86a2,2,0,0,0-1.32-2.5,1.94,1.94,0,0,0-1.12,0"/></g><g id="ARC-16" data-name="ARC"><path class="cls-1" d="M268.89,97.47a2,2,0,0,0-1.4,2.46,1.9,1.9,0,0,0,.59.95"/></g><g id="ARC-17" data-name="ARC"><path class="cls-1" d="M245.81,92.35a6.67,6.67,0,1,0-3-10.84"/></g><g id="ARC-18" data-name="ARC"><path class="cls-1" d="M239.42,80.7a2,2,0,0,0,2.46,1.4,2,2,0,0,0,1-.59"/></g><g id="ARC-19" data-name="ARC"><path class="cls-1" d="M245.81,92.35a2,2,0,0,0-2.5,1.32,2,2,0,0,0,0,1.12"/></g><g id="LINE-63" data-name="LINE"><line class="cls-1" x1="239.42" y1="80.7" x2="236.94" y2="71.67"/></g><g id="LINE-64" data-name="LINE"><line class="cls-1" x1="277.92" y1="94.99" x2="268.89" y2="97.47"/></g><g id="LINE-65" data-name="LINE"><line class="cls-1" x1="245.77" y1="103.82" x2="243.29" y2="94.79"/></g><g id="LINE-66" data-name="LINE"><line class="cls-1" x1="245.77" y1="103.82" x2="254.8" y2="101.34"/></g><g id="ARC-20" data-name="ARC"><path class="cls-1" d="M231.37,127.33a6.67,6.67,0,1,0,0,11.24"/></g><g id="ARC-21" data-name="ARC"><path class="cls-1" d="M234.45,140.26a2,2,0,0,0-2-2,2.05,2.05,0,0,0-1.08.31"/></g><g id="ARC-22" data-name="ARC"><path class="cls-1" d="M231.37,127.33a2,2,0,0,0,3.08-1.68"/></g><g id="LINE-67" data-name="LINE"><line class="cls-1" x1="234.45" y1="140.26" x2="234.45" y2="149.62"/></g><g id="LINE-68" data-name="LINE"><line class="cls-1" x1="234.45" y1="116.28" x2="234.45" y2="125.65"/></g><g id="LINE-69" data-name="LINE"><line class="cls-1" x1="202.75" y1="149.62" x2="234.45" y2="149.62"/></g><g id="ARC-23" data-name="ARC"><path class="cls-1" d="M201.11,148a1.64,1.64,0,0,0,1.64,1.64"/></g><g id="LINE-70" data-name="LINE"><line class="cls-1" x1="201.11" y1="116.28" x2="201.11" y2="147.98"/></g><g id="ARC-24" data-name="ARC"><path class="cls-1" d="M245.5,119.36a6.67,6.67,0,1,0,11.24,0"/></g><g id="ARC-25" data-name="ARC"><path class="cls-1" d="M258.42,116.28a2,2,0,0,0-2,2,2,2,0,0,0,.32,1.08"/></g><g id="ARC-26" data-name="ARC"><path class="cls-1" d="M245.5,119.36a2,2,0,0,0-.61-2.76,2,2,0,0,0-1.08-.32"/></g><g id="LINE-71" data-name="LINE"><line class="cls-1" x1="258.42" y1="116.28" x2="267.79" y2="116.28"/></g><g id="LINE-72" data-name="LINE"><line class="cls-1" x1="234.45" y1="116.28" x2="243.81" y2="116.28"/></g><g id="LINE-73" data-name="LINE"><line class="cls-1" x1="234.45" y1="149.62" x2="264.54" y2="149.62"/></g><g id="ARC-27" data-name="ARC"><path class="cls-1" d="M270.86,138.57l.1.06"/></g><g id="ARC-28" data-name="ARC"><path class="cls-1" d="M278.34,138.37a6.67,6.67,0,0,0-7.48-11"/></g><g id="ARC-29" data-name="ARC"><path class="cls-1" d="M270.86,138.57a2,2,0,0,0-2.76.61,2,2,0,0,0-.31,1.08"/></g><g id="ARC-30" data-name="ARC"><path class="cls-1" d="M267.79,125.65a2,2,0,0,0,2,2,1.94,1.94,0,0,0,1.07-.32"/></g><g id="LINE-74" data-name="LINE"><line class="cls-1" x1="267.79" y1="140.26" x2="267.79" y2="148.4"/></g><g id="LINE-75" data-name="LINE"><line class="cls-1" x1="267.79" y1="116.28" x2="267.79" y2="125.65"/></g><g id="ARC-31" data-name="ARC"><path class="cls-1" d="M272,149.42a6.67,6.67,0,1,0,0,11.24"/></g><g id="ARC-32" data-name="ARC"><path class="cls-1" d="M272,149.42a2,2,0,0,0,2.76-.61,2,2,0,0,0,.32-1.08"/></g><g id="ARC-33" data-name="ARC"><path class="cls-1" d="M275.1,162.34a2,2,0,0,0-2-2,2,2,0,0,0-1.08.32"/></g><g id="ARC-34" data-name="ARC"><path class="cls-1" d="M311.51,160.66a6.67,6.67,0,1,0,0-11.24"/></g><g id="ARC-35" data-name="ARC"><path class="cls-1" d="M311.51,160.66a2,2,0,0,0-3.08,1.68"/></g><g id="ARC-36" data-name="ARC"><path class="cls-1" d="M308.43,147.73a2,2,0,0,0,2,2,2,2,0,0,0,1.08-.31"/></g><g id="LINE-76" data-name="LINE"><line class="cls-1" x1="308.43" y1="162.34" x2="308.43" y2="171.71"/></g><g id="LINE-77" data-name="LINE"><line class="cls-1" x1="275.1" y1="171.71" x2="275.1" y2="162.34"/></g><g id="LINE-78" data-name="LINE"><line class="cls-1" x1="308.43" y1="138.37" x2="308.43" y2="147.73"/></g><g id="LINE-79" data-name="LINE"><line class="cls-1" x1="275.1" y1="138.37" x2="275.1" y2="147.73"/></g><g id="LINE-80" data-name="LINE"><line class="cls-1" x1="275.1" y1="171.71" x2="308.43" y2="171.71"/></g><g id="ARC-37" data-name="ARC"><path class="cls-1" d="M297.38,135.29a6.66,6.66,0,1,0-11.23,0"/></g><g id="ARC-38" data-name="ARC"><path class="cls-1" d="M297.38,135.29a2,2,0,0,0,.61,2.76,2,2,0,0,0,1.08.32"/></g><g id="ARC-39" data-name="ARC"><path class="cls-1" d="M284.46,138.37a2,2,0,0,0,2-2,2.05,2.05,0,0,0-.31-1.08"/></g><g id="LINE-81" data-name="LINE"><line class="cls-1" x1="299.07" y1="138.37" x2="308.43" y2="138.37"/></g><g id="LINE-82" data-name="LINE"><line class="cls-1" x1="275.1" y1="138.37" x2="284.46" y2="138.37"/></g><g id="ARC-40" data-name="ARC"><path class="cls-1" d="M257.91,195.34a6.67,6.67,0,1,0,0-11.24"/></g><g id="ARC-41" data-name="ARC"><path class="cls-1" d="M254.84,182.42a2,2,0,0,0,2,2,1.94,1.94,0,0,0,1.07-.32"/></g><g id="ARC-42" data-name="ARC"><path class="cls-1" d="M257.91,195.34a2,2,0,0,0-2.76.61,2,2,0,0,0-.31,1.08"/></g><g id="ARC-43" data-name="ARC"><path class="cls-1" d="M232.55,176.13a6.67,6.67,0,1,0,11.24,0"/></g><g id="ARC-44" data-name="ARC"><path class="cls-1" d="M232.55,176.13a2,2,0,0,0-.61-2.76,1.94,1.94,0,0,0-1.07-.32"/></g><g id="ARC-45" data-name="ARC"><path class="cls-1" d="M245.47,173.05a2,2,0,0,0-2,2,2,2,0,0,0,.32,1.08"/></g><g id="LINE-83" data-name="LINE"><line class="cls-1" x1="221.5" y1="207.3" x2="221.5" y2="173.05"/></g><g id="LINE-84" data-name="LINE"><line class="cls-1" x1="230.87" y1="173.05" x2="221.5" y2="173.05"/></g><g id="LINE-85" data-name="LINE"><line class="cls-1" x1="254.84" y1="207.3" x2="254.84" y2="197.03"/></g><g id="LINE-86" data-name="LINE"><line class="cls-1" x1="254.84" y1="173.05" x2="245.47" y2="173.05"/></g><g id="LINE-87" data-name="LINE"><line class="cls-1" x1="254.84" y1="173.05" x2="254.84" y2="182.42"/></g><g id="LINE-88" data-name="LINE"><line class="cls-1" x1="254.84" y1="206.39" x2="221.5" y2="206.39"/></g><g id="LINE-89" data-name="LINE"><line class="cls-1" x1="254.84" y1="207.3" x2="221.5" y2="207.3"/></g><g id="ARC-46" data-name="ARC"><path class="cls-1" d="M225.14,207.3a2.57,2.57,0,1,0,2,0"/></g><g id="ARC-47" data-name="ARC"><path class="cls-1" d="M278,83.52a6.67,6.67,0,1,0-3-10.84"/></g><g id="ARC-48" data-name="ARC"><path class="cls-1" d="M271.57,71.87a2,2,0,0,0,2.46,1.4,1.9,1.9,0,0,0,1-.59"/></g><g id="ARC-49" data-name="ARC"><path class="cls-1" d="M278,83.52a2,2,0,0,0-2.5,1.32,1.94,1.94,0,0,0,0,1.12"/></g><g id="LINE-90" data-name="LINE"><line class="cls-1" x1="271.57" y1="71.87" x2="269.09" y2="62.84"/></g><g id="LINE-91" data-name="LINE"><line class="cls-1" x1="277.92" y1="94.99" x2="275.44" y2="85.96"/></g><g id="LINE-92" data-name="LINE"><line class="cls-1" x1="166.24" y1="79.74" x2="166.24" y2="76.72"/></g><g id="LINE-93" data-name="LINE"><line class="cls-1" x1="166.24" y1="49.42" x2="166.24" y2="46.4"/></g><g id="LINE-94" data-name="LINE"><line class="cls-1" x1="164.23" y1="45.36" x2="140.85" y2="61.73"/></g><g id="ARC-50" data-name="ARC"><path class="cls-1" d="M166.24,46.4A1.27,1.27,0,0,0,165,45.13a1.29,1.29,0,0,0-.73.23"/></g><g id="LINE-95" data-name="LINE"><line class="cls-1" x1="164.23" y1="80.78" x2="152.02" y2="72.23"/></g><g id="LINE-96" data-name="LINE"><line class="cls-1" x1="149.12" y1="70.2" x2="140.85" y2="64.41"/></g><g id="ARC-51" data-name="ARC"><path class="cls-1" d="M164.23,80.78a1.27,1.27,0,0,0,2-1"/></g><g id="ARC-52" data-name="ARC"><path class="cls-1" d="M140.85,61.73a1.64,1.64,0,0,0-.4,2.28,1.52,1.52,0,0,0,.4.4"/></g><g id="ARC-53" data-name="ARC"><path class="cls-1" d="M223.4,113.21a6.67,6.67,0,1,0-11.24,0"/></g><g id="ARC-54" data-name="ARC"><path class="cls-1" d="M223.4,113.21A2,2,0,0,0,224,116a1.94,1.94,0,0,0,1.07.31"/></g><g id="ARC-55" data-name="ARC"><path class="cls-1" d="M210.48,116.28a2,2,0,0,0,2-2,1.94,1.94,0,0,0-.32-1.07"/></g><g id="LINE-97" data-name="LINE"><line class="cls-1" x1="225.08" y1="116.28" x2="234.45" y2="116.28"/></g><g id="LINE-98" data-name="LINE"><line class="cls-1" x1="201.11" y1="116.28" x2="210.48" y2="116.28"/></g><g id="ARC-56" data-name="ARC"><path class="cls-1" d="M196.19,85.71a6.67,6.67,0,1,0,10.54-3.91"/></g><g id="ARC-57" data-name="ARC"><path class="cls-1" d="M196.19,85.71a2,2,0,0,0-1.53-2.38,2,2,0,0,0-1.12.08"/></g><g id="ARC-58" data-name="ARC"><path class="cls-1" d="M207.24,78.33a2,2,0,0,0-.51,3.47"/></g><g id="LINE-99" data-name="LINE"><line class="cls-1" x1="216.02" y1="75.07" x2="207.24" y2="78.33"/></g><g id="LINE-100" data-name="LINE"><line class="cls-1" x1="184.76" y1="86.66" x2="193.54" y2="83.41"/></g><g id="ARC-59" data-name="ARC"><path class="cls-1" d="M257.62,62.8a6.67,6.67,0,1,0-10.84,3"/></g><g id="ARC-60" data-name="ARC"><path class="cls-1" d="M246,69.19a2,2,0,0,0,1.4-2.46,1.94,1.94,0,0,0-.59-1"/></g><g id="ARC-61" data-name="ARC"><path class="cls-1" d="M257.62,62.8a2,2,0,0,0,1.32,2.51,1.94,1.94,0,0,0,1.12,0"/></g><g id="LINE-101" data-name="LINE"><line class="cls-1" x1="269.09" y1="62.84" x2="260.06" y2="65.32"/></g><g id="LINE-102" data-name="LINE"><line class="cls-1" x1="236.94" y1="71.67" x2="245.97" y2="69.19"/></g><g id="ARC-62" data-name="ARC"><path class="cls-1" d="M139.53,70.7a6.67,6.67,0,1,0-10.45,4.15"/></g><g id="ARC-63" data-name="ARC"><path class="cls-1" d="M139.53,70.7a2,2,0,0,0,1.58,2.35,2,2,0,0,0,1.12-.11"/></g><g id="ARC-64" data-name="ARC"><path class="cls-1" d="M128.65,78.33a2,2,0,0,0,1.12-2.59,2,2,0,0,0-.69-.89"/></g><g id="ARC-65" data-name="ARC"><path class="cls-1" d="M152.15,80.89a6.67,6.67,0,0,0-3.89,12.68"/></g><g id="ARC-66" data-name="ARC"><path class="cls-1" d="M154.46,93.07a6.78,6.78,0,0,0,1.84-1.74"/></g><g id="ARC-67" data-name="ARC"><path class="cls-1" d="M159.78,91.76a2,2,0,0,0-2.6-1.12,2.06,2.06,0,0,0-.88.69"/></g><g id="ARC-68" data-name="ARC"><path class="cls-1" d="M152.15,80.89a2,2,0,0,0,2.34-1.58,2,2,0,0,0-.1-1.12"/></g><g id="LINE-103" data-name="LINE"><line class="cls-1" x1="132.25" y1="112.77" x2="149.8" y2="105.8"/></g><g id="LINE-104" data-name="LINE"><line class="cls-1" x1="155.03" y1="103.73" x2="163.23" y2="100.47"/></g><g id="LINE-105" data-name="LINE"><line class="cls-1" x1="159.78" y1="91.76" x2="163.23" y2="100.47"/></g><g id="LINE-106" data-name="LINE"><line class="cls-1" x1="119.95" y1="81.79" x2="128.65" y2="78.33"/></g><g id="LINE-107" data-name="LINE"><line class="cls-1" x1="150.93" y1="69.49" x2="154.39" y2="78.19"/></g><g id="LINE-108" data-name="LINE"><line class="cls-1" x1="150.93" y1="69.49" x2="142.23" y2="72.94"/></g><g id="LINE-109" data-name="LINE"><line class="cls-1" x1="119.95" y1="81.79" x2="132.25" y2="112.77"/></g><g id="LINE-110" data-name="LINE"><line class="cls-1" x1="139.43" y1="17.12" x2="139.31" y2="19.55"/></g><g id="LINE-111" data-name="LINE"><line class="cls-1" x1="53.49" y1="39.23" x2="73.58" y2="31.98"/></g><g id="LINE-112" data-name="LINE"><line class="cls-1" x1="100.89" y1="22.14" x2="161.18" y2="0.42"/></g><g id="LINE-113" data-name="LINE"><line class="cls-1" x1="161.18" y1="0.42" x2="173.07" y2="5"/></g><g id="LINE-114" data-name="LINE"><line class="cls-1" x1="173.07" y1="5" x2="100.89" y2="31.01"/></g><g id="LINE-115" data-name="LINE"><line class="cls-1" x1="73.58" y1="40.85" x2="65.37" y2="43.81"/></g><g id="ARC-69" data-name="ARC"><path class="cls-1" d="M69.39,129.69a4.8,4.8,0,0,0,1.24,3.71"/></g><g id="ARC-70" data-name="ARC"><path class="cls-1" d="M78.94,130.12c0-.14,0-.28,0-.43"/></g><g id="LINE-116" data-name="LINE"><line class="cls-1" x1="53.49" y1="39.23" x2="65.37" y2="43.81"/></g><g id="LINE-117" data-name="LINE"><line class="cls-1" x1="161.18" y1="0.42" x2="152.97" y2="12.24"/></g><g id="LINE-118" data-name="LINE"><line class="cls-1" x1="152.97" y1="12.24" x2="141.09" y2="7.66"/></g><g id="LINE-119" data-name="LINE"><line class="cls-1" x1="141.09" y1="7.66" x2="132.88" y2="19.49"/></g><g id="LINE-120" data-name="LINE"><line class="cls-1" x1="132.88" y1="19.49" x2="120.99" y2="14.9"/></g><g id="LINE-121" data-name="LINE"><line class="cls-1" x1="120.99" y1="14.9" x2="112.78" y2="26.73"/></g><g id="LINE-122" data-name="LINE"><line class="cls-1" x1="112.78" y1="26.73" x2="100.89" y2="22.14"/></g><g id="LINE-123" data-name="LINE"><line class="cls-1" x1="73.58" y1="31.98" x2="65.37" y2="43.81"/></g><g id="LINE-124" data-name="LINE"><line class="cls-1" x1="97.82" y1="120.59" x2="64.72" y2="120.59"/></g><g id="LINE-125" data-name="LINE"><line class="cls-1" x1="64.72" y1="120.59" x2="64.72" y2="129.69"/></g><g id="LINE-126" data-name="LINE"><line class="cls-1" x1="64.72" y1="129.69" x2="80.03" y2="129.69"/></g><g id="LINE-127" data-name="LINE"><line class="cls-1" x1="100.89" y1="16.82" x2="73.58" y2="16.82"/></g><g id="LINE-128" data-name="LINE"><line class="cls-1" x1="96.34" y1="21.37" x2="78.14" y2="21.37"/></g><g id="LINE-129" data-name="LINE"><line class="cls-1" x1="73.58" y1="16.82" x2="73.58" y2="44.13"/></g><g id="LINE-130" data-name="LINE"><line class="cls-1" x1="78.14" y1="21.37" x2="78.14" y2="35.94"/></g><g id="LINE-131" data-name="LINE"><line class="cls-1" x1="73.58" y1="44.13" x2="100.89" y2="44.13"/></g><g id="LINE-132" data-name="LINE"><line class="cls-1" x1="78.14" y1="35.94" x2="96.34" y2="35.94"/></g><g id="LINE-133" data-name="LINE"><line class="cls-1" x1="100.89" y1="44.13" x2="100.89" y2="16.82"/></g><g id="LINE-134" data-name="LINE"><line class="cls-1" x1="96.34" y1="35.94" x2="96.34" y2="21.37"/></g><g id="LINE-135" data-name="LINE"><line class="cls-1" x1="94.52" y1="44.13" x2="94.52" y2="120.59"/></g><g id="LINE-136" data-name="LINE"><line class="cls-1" x1="79.96" y1="44.13" x2="79.96" y2="120.59"/></g><g id="LINE-137" data-name="LINE"><line class="cls-1" x1="94.52" y1="44.13" x2="79.96" y2="56.87"/></g><g id="LINE-138" data-name="LINE"><line class="cls-1" x1="79.96" y1="56.87" x2="94.52" y2="69.62"/></g><g id="LINE-139" data-name="LINE"><line class="cls-1" x1="94.52" y1="69.62" x2="79.96" y2="82.36"/></g><g id="LINE-140" data-name="LINE"><line class="cls-1" x1="79.96" y1="82.36" x2="94.52" y2="95.1"/></g><g id="LINE-141" data-name="LINE"><line class="cls-1" x1="79.96" y1="107.85" x2="94.52" y2="95.1"/></g><g id="LINE-142" data-name="LINE"><line class="cls-1" x1="79.96" y1="107.85" x2="94.52" y2="120.59"/></g><g id="ARC-71" data-name="ARC"><path class="cls-1" d="M109.59,142a6.67,6.67,0,1,0-4.13-10.46"/></g><g id="ARC-72" data-name="ARC"><path class="cls-1" d="M109.59,142a2,2,0,0,0-2.35,1.58,2,2,0,0,0,.1,1.12"/></g><g id="ARC-73" data-name="ARC"><path class="cls-1" d="M102,131.1a2,2,0,0,0,3.49.44"/></g><g id="ARC-74" data-name="ARC"><path class="cls-1" d="M78.56,154.25a6.67,6.67,0,1,0-4.13-10.46"/></g><g id="ARC-75" data-name="ARC"><path class="cls-1" d="M71,143.35a2,2,0,0,0,2.59,1.13,2,2,0,0,0,.89-.69"/></g><g id="ARC-76" data-name="ARC"><path class="cls-1" d="M78.56,154.25a2,2,0,0,0-2.35,1.58,2,2,0,0,0,.11,1.12"/></g><g id="LINE-143" data-name="LINE"><line class="cls-1" x1="110.78" y1="153.41" x2="79.76" y2="165.66"/></g><g id="LINE-144" data-name="LINE"><line class="cls-1" x1="70.95" y1="143.35" x2="67.51" y2="134.64"/></g><g id="LINE-145" data-name="LINE"><line class="cls-1" x1="97.18" y1="118.96" x2="101.97" y2="131.1"/></g><g id="LINE-146" data-name="LINE"><line class="cls-1" x1="67.51" y1="134.64" x2="98.53" y2="122.39"/></g><g id="LINE-147" data-name="LINE"><line class="cls-1" x1="79.76" y1="165.66" x2="76.32" y2="156.95"/></g><g id="LINE-148" data-name="LINE"><line class="cls-1" x1="110.78" y1="153.41" x2="107.34" y2="144.7"/></g><g id="LINE-149" data-name="LINE"><line class="cls-1" x1="110.78" y1="153.41" x2="112.14" y2="156.84"/></g><g id="LINE-150" data-name="LINE"><line class="cls-1" x1="115.74" y1="155.82" x2="134.11" y2="128.03"/></g><g id="ARC-77" data-name="ARC"><path class="cls-1" d="M112.14,156.84a1.56,1.56,0,0,0,.86.87"/></g><g id="LINE-151" data-name="LINE"><line class="cls-1" x1="98.99" y1="116.88" x2="132.9" y2="124.98"/></g><g id="ARC-78" data-name="ARC"><path class="cls-1" d="M99,116.88A1.55,1.55,0,0,0,97.18,119"/></g><g id="ARC-79" data-name="ARC"><path class="cls-1" d="M134.11,128a2,2,0,0,0-.57-2.77,2,2,0,0,0-.64-.28"/></g><g id="ARC-80" data-name="ARC"><path class="cls-1" d="M16.49,165.24a6.67,6.67,0,1,0,6.22,9.36"/></g><g id="ARC-81" data-name="ARC"><path class="cls-1" d="M16.49,165.24a2,2,0,0,0,2-2,2,2,0,0,0-.33-1.08"/></g><g id="ARC-82" data-name="ARC"><path class="cls-1" d="M26.21,174.3a2,2,0,0,0-2.77-.56,2,2,0,0,0-.73.86"/></g><g id="ARC-83" data-name="ARC"><path class="cls-1" d="M55.59,152.72a6.67,6.67,0,1,0-6.23-9.36"/></g><g id="ARC-84" data-name="ARC"><path class="cls-1" d="M55.59,152.72a2,2,0,0,0-2,2,1.91,1.91,0,0,0,.33,1.07"/></g><g id="ARC-85" data-name="ARC"><path class="cls-1" d="M45.87,143.66a2,2,0,0,0,2.77.56,2,2,0,0,0,.72-.86"/></g><g id="LINE-152" data-name="LINE"><line class="cls-1" x1="53.96" y1="155.82" x2="59.15" y2="163.62"/></g><g id="LINE-153" data-name="LINE"><line class="cls-1" x1="31.4" y1="182.09" x2="26.21" y2="174.3"/></g><g id="LINE-154" data-name="LINE"><line class="cls-1" x1="40.68" y1="135.87" x2="45.87" y2="143.66"/></g><g id="LINE-155" data-name="LINE"><line class="cls-1" x1="12.93" y1="154.34" x2="18.12" y2="162.13"/></g><g id="ARC-86" data-name="ARC"><path class="cls-1" d="M48.25,167.18a6.67,6.67,0,1,0-9.36,6.23"/></g><g id="ARC-87" data-name="ARC"><path class="cls-1" d="M39.19,176.9a2,2,0,0,0,.56-2.77,2,2,0,0,0-.86-.72"/></g><g id="ARC-88" data-name="ARC"><path class="cls-1" d="M48.25,167.18a2,2,0,0,0,2,2,1.93,1.93,0,0,0,1.07-.33"/></g><g id="LINE-156" data-name="LINE"><line class="cls-1" x1="39.19" y1="176.9" x2="31.4" y2="182.09"/></g><g id="LINE-157" data-name="LINE"><line class="cls-1" x1="59.15" y1="163.62" x2="51.35" y2="168.81"/></g><g id="ARC-89" data-name="ARC"><path class="cls-1" d="M23.83,150.78a6.67,6.67,0,1,0,9.35-6.23"/></g><g id="ARC-90" data-name="ARC"><path class="cls-1" d="M23.83,150.78a2,2,0,0,0-2-2,2,2,0,0,0-1.07.33"/></g><g id="ARC-91" data-name="ARC"><path class="cls-1" d="M32.88,141.06a2,2,0,0,0,.3,3.49"/></g><g id="LINE-158" data-name="LINE"><line class="cls-1" x1="20.72" y1="149.15" x2="12.93" y2="154.34"/></g><g id="LINE-159" data-name="LINE"><line class="cls-1" x1="40.68" y1="135.87" x2="32.88" y2="141.06"/></g><g id="LINE-160" data-name="LINE"><line class="cls-1" x1="184.78" y1="179.88" x2="179.75" y2="182.22"/></g><g id="LINE-161" data-name="LINE"><line class="cls-1" x1="192.41" y1="194.67" x2="187.39" y2="197"/></g><g id="ARC-92" data-name="ARC"><path class="cls-1" d="M187.39,197a121.47,121.47,0,0,0-7.64-14.78"/></g><g id="ARC-93" data-name="ARC"><path class="cls-1" d="M192.41,194.67a120.86,120.86,0,0,0-7.63-14.79"/></g><g id="LINE-162" data-name="LINE"><line class="cls-1" x1="187.39" y1="197" x2="182.83" y2="203.96"/></g><g id="LINE-163" data-name="LINE"><line class="cls-1" x1="182.83" y1="203.96" x2="183.16" y2="212.26"/></g><g id="LINE-164" data-name="LINE"><line class="cls-1" x1="183.16" y1="212.26" x2="180.39" y2="212.26"/></g><g id="LINE-165" data-name="LINE"><line class="cls-1" x1="192.41" y1="194.67" x2="192.41" y2="202.98"/></g><g id="LINE-166" data-name="LINE"><line class="cls-1" x1="192.41" y1="202.98" x2="198.77" y2="208.33"/></g><g id="LINE-167" data-name="LINE"><line class="cls-1" x1="198.77" y1="208.33" x2="197.98" y2="210.99"/></g><g id="LINE-168" data-name="LINE"><line class="cls-1" x1="181.91" y1="183.23" x2="196.41" y2="189.14"/></g><g id="CIRCLE-2" data-name="CIRCLE"><path class="cls-1" d="M196.37,189.35a.55.55,0,1,1,1.1,0,.55.55,0,0,1-1.1,0Z"/></g><g id="LINE-169" data-name="LINE"><line class="cls-1" x1="328.94" y1="111.13" x2="334.48" y2="111.13"/></g><g id="LINE-170" data-name="LINE"><line class="cls-1" x1="335.18" y1="127.74" x2="328.94" y2="127.74"/></g><g id="ARC-94" data-name="ARC"><path class="cls-1" d="M328.94,111.13a131.51,131.51,0,0,0,0,16.61"/></g><g id="ARC-95" data-name="ARC"><path class="cls-1" d="M335.18,127.74a148.54,148.54,0,0,0-.7-16.61"/></g><g id="LINE-171" data-name="LINE"><line class="cls-1" x1="328.94" y1="127.74" x2="329.73" y2="144.24"/></g><g id="LINE-172" data-name="LINE"><line class="cls-1" x1="335.18" y1="127.74" x2="339.68" y2="143.74"/></g><g id="LINE-173" data-name="LINE"><line class="cls-1" x1="339.68" y1="143.74" x2="342.45" y2="143.74"/></g><g id="LINE-174" data-name="LINE"><line class="cls-1" x1="334.63" y1="112.75" x2="339.47" y2="117.43"/></g><g id="LINE-175" data-name="LINE"><line class="cls-1" x1="339.47" y1="117.43" x2="335.13" y2="121.74"/></g><g id="LINE-176" data-name="LINE"><line class="cls-1" x1="335.13" y1="121.74" x2="336.98" y2="123.81"/></g><g id="CIRCLE-3" data-name="CIRCLE"><path class="cls-1" d="M328.13,106.59a3.47,3.47,0,1,1,3.47,3.47,3.46,3.46,0,0,1-3.47-3.47Z"/></g><g id="LINE-177" data-name="LINE"><line class="cls-1" x1="321.52" y1="114.74" x2="323.59" y2="108.79"/></g><g id="LINE-178" data-name="LINE"><line class="cls-1" x1="321.52" y1="114.74" x2="328.83" y2="113.08"/></g><g id="LINE-179" data-name="LINE"><line class="cls-1" x1="323.59" y1="108.79" x2="324.25" y2="106.1"/></g><g id="CIRCLE-4" data-name="CIRCLE"><path class="cls-1" d="M266.4,134.3a3.47,3.47,0,1,1,3.47,3.46,3.47,3.47,0,0,1-3.47-3.46Z"/></g><g id="LINE-180" data-name="LINE"><line class="cls-1" x1="268.94" y1="139.15" x2="274.31" y2="137.78"/></g><g id="SPLINE"><path class="cls-1" d="M268.94,139.15c1.07,3.53,2.14,7.06,3.46,10.46"/></g><g id="SPLINE-2" data-name="SPLINE"><path class="cls-1" d="M274.31,137.78c.26.77.52,1.54.79,2.31"/></g><g id="LINE-181" data-name="LINE"><line class="cls-1" x1="274.35" y1="160.78" x2="273.7" y2="171.42"/></g><g id="LINE-182" data-name="LINE"><line class="cls-1" x1="273.7" y1="171.42" x2="270.93" y2="171.42"/></g><g id="LINE-183" data-name="LINE"><line class="cls-1" x1="274.31" y1="137.78" x2="282.62" y2="138.16"/></g><g id="LINE-184" data-name="LINE"><line class="cls-1" x1="282.62" y1="138.16" x2="284.85" y2="143.98"/></g><g id="LINE-185" data-name="LINE"><line class="cls-1" x1="284.85" y1="143.98" x2="284.91" y2="146.75"/></g><g id="LINE-186" data-name="LINE"><line class="cls-1" x1="268.94" y1="139.15" x2="266.39" y2="147.06"/></g><g id="LINE-187" data-name="LINE"><line class="cls-1" x1="266.39" y1="147.06" x2="268.83" y2="152.8"/></g><g id="LINE-188" data-name="LINE"><line class="cls-1" x1="268.83" y1="152.8" x2="269.71" y2="155.43"/></g><g id="CIRCLE-5" data-name="CIRCLE"><path class="cls-1" d="M175.14,96.68a3.47,3.47,0,1,1,3.46,3.46,3.46,3.46,0,0,1-3.46-3.46Z"/></g><g id="LINE-189" data-name="LINE"><line class="cls-1" x1="175.21" y1="101.01" x2="180.26" y2="103.28"/></g><g id="LINE-190" data-name="LINE"><line class="cls-1" x1="171.95" y1="117.78" x2="166.9" y2="115.5"/></g><g id="SPLINE-3" data-name="SPLINE"><path class="cls-1" d="M180.26,103.28c-2.62,4.92-5.24,9.85-8.31,14.5"/></g><g id="SPLINE-4" data-name="SPLINE"><path class="cls-1" d="M175.21,101c-2.62,4.91-5.25,9.84-8.31,14.49"/></g><g id="LINE-191" data-name="LINE"><line class="cls-1" x1="171.95" y1="117.78" x2="177.54" y2="123.93"/></g><g id="LINE-192" data-name="LINE"><line class="cls-1" x1="177.54" y1="123.93" x2="172.16" y2="130.17"/></g><g id="LINE-193" data-name="LINE"><line class="cls-1" x1="166.9" y1="115.5" x2="158.95" y2="130.17"/></g><g id="LINE-194" data-name="LINE"><line class="cls-1" x1="176.15" y1="103.28" x2="188.04" y2="96.16"/></g><g id="CIRCLE-6" data-name="CIRCLE"><path class="cls-1" d="M147.77,91.8a3.47,3.47,0,1,1,3.47,3.46,3.47,3.47,0,0,1-3.47-3.46Z"/></g><g id="LINE-195" data-name="LINE"><line class="cls-1" x1="148.45" y1="97.01" x2="153.97" y2="96.45"/></g><g id="LINE-196" data-name="LINE"><line class="cls-1" x1="155.64" y1="112.99" x2="150.13" y2="113.55"/></g><g id="SPLINE-5" data-name="SPLINE"><path class="cls-1" d="M148.45,97c1,5.46,1.93,11,1.68,16.54"/></g><g id="SPLINE-6" data-name="SPLINE"><path class="cls-1" d="M154,96.45A101.24,101.24,0,0,1,155.64,113"/></g><g id="LINE-197" data-name="LINE"><line class="cls-1" x1="150.13" y1="113.55" x2="150.13" y2="130.17"/></g><g id="LINE-198" data-name="LINE"><line class="cls-1" x1="150.13" y1="130.17" x2="147.36" y2="130.17"/></g><g id="LINE-199" data-name="LINE"><line class="cls-1" x1="155.64" y1="112.99" x2="158.79" y2="130.17"/></g><g id="LINE-200" data-name="LINE"><line class="cls-1" x1="149.54" y1="99.59" x2="142.89" y2="94.61"/></g><g id="LINE-201" data-name="LINE"><line class="cls-1" x1="142.89" y1="94.61" x2="142.01" y2="88.44"/></g><g id="LINE-202" data-name="LINE"><line class="cls-1" x1="152.81" y1="96.52" x2="152.5" y2="95.02"/></g><g id="LINE-203" data-name="LINE"><line class="cls-1" x1="151.12" y1="88.33" x2="150.01" y2="82.95"/></g><g id="LINE-204" data-name="LINE"><line class="cls-1" x1="181.1" y1="84.72" x2="190.01" y2="84.72"/></g><g id="LINE-205" data-name="LINE"><line class="cls-1" x1="181.1" y1="92.71" x2="187.01" y2="92.71"/></g><g id="LINE-206" data-name="LINE"><line class="cls-1" x1="181.1" y1="100.7" x2="189.97" y2="100.7"/></g><g id="LINE-207" data-name="LINE"><line class="cls-1" x1="181.1" y1="108.7" x2="190.02" y2="108.7"/></g><g id="LINE-208" data-name="LINE"><line class="cls-1" x1="181.1" y1="116.69" x2="190.02" y2="116.69"/></g><g id="LINE-209" data-name="LINE"><line class="cls-1" x1="172.18" y1="134.48" x2="172.18" y2="151.86"/></g><g id="LINE-210" data-name="LINE"><line class="cls-1" x1="181.1" y1="134.48" x2="181.1" y2="151.86"/></g><g id="LINE-211" data-name="LINE"><line class="cls-1" x1="181.1" y1="124.71" x2="190.02" y2="124.71"/></g><g id="LINE-212" data-name="LINE"><line class="cls-1" x1="172.18" y1="138.17" x2="181.1" y2="138.17"/></g><g id="LINE-213" data-name="LINE"><line class="cls-1" x1="172.18" y1="146.16" x2="181.1" y2="146.16"/></g><g id="LINE-214" data-name="LINE"><line class="cls-1" x1="166.24" y1="82.18" x2="166.24" y2="130.17"/></g><g id="LINE-215" data-name="LINE"><line class="cls-1" x1="200.83" y1="82.18" x2="200.83" y2="93.51"/></g><g id="CIRCLE-7" data-name="CIRCLE"><path class="cls-1" d="M322,51.36a3.47,3.47,0,1,1,3.46,3.46A3.47,3.47,0,0,1,322,51.36Z"/></g><g id="CIRCLE-8" data-name="CIRCLE"><path class="cls-1" d="M112.63,159.27a3.47,3.47,0,1,1,3.46,3.46,3.46,3.46,0,0,1-3.46-3.46Z"/></g><g id="LINE-216" data-name="LINE"><line class="cls-1" x1="115.81" y1="180.76" x2="121.35" y2="180.45"/></g><g id="SPLINE-7" data-name="SPLINE"><path class="cls-1" d="M119.37,163.91l2,16.54"/></g><g id="SPLINE-8" data-name="SPLINE"><path class="cls-1" d="M113.83,164.22l2,16.54"/></g><g id="LINE-217" data-name="LINE"><line class="cls-1" x1="115.81" y1="180.76" x2="114.4" y2="197.33"/></g><g id="LINE-218" data-name="LINE"><line class="cls-1" x1="114.4" y1="197.33" x2="111.7" y2="196.73"/></g><g id="LINE-219" data-name="LINE"><line class="cls-1" x1="121.35" y1="180.45" x2="122.27" y2="197.05"/></g><g id="LINE-220" data-name="LINE"><line class="cls-1" x1="122.27" y1="197.05" x2="124.99" y2="196.52"/></g><g id="LINE-221" data-name="LINE"><line class="cls-1" x1="119.37" y1="163.91" x2="113.83" y2="164.22"/></g><g id="CIRCLE-9" data-name="CIRCLE"><path class="cls-1" d="M92.27,163.93a3.47,3.47,0,1,1,3.47,3.46,3.47,3.47,0,0,1-3.47-3.46Z"/></g><g id="LINE-222" data-name="LINE"><line class="cls-1" x1="97.06" y1="168.56" x2="103.11" y2="162.86"/></g><g id="LINE-223" data-name="LINE"><line class="cls-1" x1="103.11" y1="162.86" x2="102.7" y2="156.64"/></g><g id="LINE-224" data-name="LINE"><line class="cls-1" x1="94.42" y1="184.98" x2="88.95" y2="184.1"/></g><g id="LINE-225" data-name="LINE"><line class="cls-1" x1="97.06" y1="168.56" x2="91.59" y2="167.68"/></g><g id="LINE-226" data-name="LINE"><line class="cls-1" x1="97.06" y1="168.56" x2="94.42" y2="184.98"/></g><g id="LINE-227" data-name="LINE"><line class="cls-1" x1="91.59" y1="167.68" x2="88.95" y2="184.1"/></g><g id="LINE-228" data-name="LINE"><line class="cls-1" x1="91.59" y1="167.68" x2="83.73" y2="170.38"/></g><g id="LINE-229" data-name="LINE"><line class="cls-1" x1="83.73" y1="170.38" x2="83.46" y2="164.16"/></g><g id="LINE-230" data-name="LINE"><line class="cls-1" x1="119.37" y1="163.91" x2="120.81" y2="148.16"/></g><g id="LINE-231" data-name="LINE"><line class="cls-1" x1="105.02" y1="155.64" x2="105.88" y2="161.81"/></g><g id="LINE-232" data-name="LINE"><line class="cls-1" x1="105.88" y1="161.81" x2="113.83" y2="164.22"/></g><g id="CIRCLE-10" data-name="CIRCLE"><path class="cls-1" d="M.66,164.84a3.47,3.47,0,1,1,3.46,3.46,3.46,3.46,0,0,1-3.46-3.46Z"/></g><g id="LINE-233" data-name="LINE"><line class="cls-1" x1="6.64" y1="185.87" x2="5.11" y2="194.07"/></g><g id="LINE-234" data-name="LINE"><line class="cls-1" x1="5.11" y1="194.07" y2="200.62"/></g><g id="LINE-235" data-name="LINE"><line class="cls-1" y1="200.62" x2="1.9" y2="202.64"/></g><g id="LINE-236" data-name="LINE"><line class="cls-1" x1="12.2" y1="185.9" x2="15.37" y2="202.22"/></g><g id="LINE-237" data-name="LINE"><line class="cls-1" x1="15.37" y1="202.22" x2="17.67" y2="200.69"/></g><g id="CIRCLE-11" data-name="CIRCLE"><path class="cls-1" d="M62.51,164.85A3.46,3.46,0,1,1,66,168.31a3.46,3.46,0,0,1-3.46-3.46Z"/></g><g id="LINE-238" data-name="LINE"><line class="cls-1" x1="66.11" y1="169.6" x2="60.66" y2="168.59"/></g><g id="LINE-239" data-name="LINE"><line class="cls-1" x1="57.63" y1="184.93" x2="63.08" y2="185.94"/></g><g id="ARC-96" data-name="ARC"><path class="cls-1" d="M66.11,169.6a46.91,46.91,0,0,0,0,33.25"/></g><g id="ARC-97" data-name="ARC"><path class="cls-1" d="M60.66,168.59a46.88,46.88,0,0,0,0,33.24"/></g><g id="LINE-240" data-name="LINE"><line class="cls-1" x1="66.11" y1="202.85" x2="63.34" y2="202.85"/></g><g id="LINE-241" data-name="LINE"><line class="cls-1" x1="60.66" y1="201.83" x2="57.89" y2="201.83"/></g><g id="LINE-242" data-name="LINE"><line class="cls-1" x1="64.42" y1="170.38" x2="56.23" y2="171.82"/></g><g id="LINE-243" data-name="LINE"><line class="cls-1" x1="56.23" y1="171.82" x2="56.18" y2="165.59"/></g><g id="SPLINE-9" data-name="SPLINE"><path class="cls-1" d="M3.49,169.88a97.62,97.62,0,0,1,3.15,16"/></g><g id="SPLINE-10" data-name="SPLINE"><path class="cls-1" d="M9,169.38A98.1,98.1,0,0,1,12.2,185.9"/></g><g id="LINE-244" data-name="LINE"><line class="cls-1" x1="8.95" y1="169.38" x2="3.49" y2="169.88"/></g><g id="LINE-245" data-name="LINE"><line class="cls-1" x1="12.2" y1="185.9" x2="6.64" y2="185.87"/></g><g id="LINE-246" data-name="LINE"><line class="cls-1" x1="5.94" y1="171.39" x2="17.72" y2="178.67"/></g><g id="ARC-98" data-name="ARC"><path class="cls-1" d="M138.32,25.58a2.13,2.13,0,1,0,3-.21,1.66,1.66,0,0,0-.21-.16"/></g><g id="ARC-99" data-name="ARC"><path class="cls-1" d="M137.09,23.81a4.25,4.25,0,1,0,6,.33,4.53,4.53,0,0,0-.81-.7"/></g><g id="ARC-100" data-name="ARC"><path class="cls-1" d="M140.41,19.62a4.26,4.26,0,0,0,1.88,3.82"/></g><g id="ARC-101" data-name="ARC"><path class="cls-1" d="M138.29,19.49a6.37,6.37,0,0,0,2.82,5.72"/></g><g id="ARC-102" data-name="ARC"><path class="cls-1" d="M137.09,23.81a8.75,8.75,0,0,0,1.23,1.77"/></g><g id="LINE-247" data-name="LINE"><line class="cls-1" x1="138.29" y1="19.49" x2="140.41" y2="19.62"/></g><g id="LINE-248" data-name="LINE"><line class="cls-1" x1="253.81" y1="34.79" x2="253.94" y2="37.21"/></g><g id="ARC-103" data-name="ARC"><path class="cls-1" d="M252.14,42.87a2.13,2.13,0,1,0,3,.59,1.16,1.16,0,0,0-.16-.21"/></g><g id="ARC-104" data-name="ARC"><path class="cls-1" d="M251,41.1a4.25,4.25,0,1,0,5.9,1.18,4.21,4.21,0,0,0-.71-.81"/></g><g id="ARC-105" data-name="ARC"><path class="cls-1" d="M251,41.1a4.25,4.25,0,0,0,1.88-3.81"/></g><g id="ARC-106" data-name="ARC"><path class="cls-1" d="M252.14,42.87A6.39,6.39,0,0,0,255,37.15"/></g><g id="ARC-107" data-name="ARC"><path class="cls-1" d="M254.93,43.25a8.64,8.64,0,0,0,1.22-1.78"/></g><g id="LINE-249" data-name="LINE"><line class="cls-1" x1="254.96" y1="37.15" x2="252.84" y2="37.29"/></g><g id="LINE-250" data-name="LINE"><line class="cls-1" x1="323.53" y1="55.78" x2="329.04" y2="55.22"/></g><g id="SPLINE-11" data-name="SPLINE"><path class="cls-1" d="M323.53,55.78c.27,1.57.55,3.15.79,4.72"/></g><g id="SPLINE-12" data-name="SPLINE"><path class="cls-1" d="M329,55.22q.42,2.64.8,5.28"/></g><g id="LINE-251" data-name="LINE"><line class="cls-1" x1="326.43" y1="57.17" x2="317.99" y2="60.5"/></g><g id="CIRCLE-12" data-name="CIRCLE"><path class="cls-1" d="M83.94,26.79a3.47,3.47,0,1,1,3.47,3.47,3.46,3.46,0,0,1-3.47-3.47Z"/></g><g id="LINE-252" data-name="LINE"><line class="cls-1" x1="88.4" y1="31.21" x2="82.88" y2="30.65"/></g><g id="SPLINE-13" data-name="SPLINE"><path class="cls-1" d="M88.4,31.21c-.28,1.58-.55,3.15-.79,4.73"/></g><g id="SPLINE-14" data-name="SPLINE"><path class="cls-1" d="M82.88,30.65c-.27,1.77-.55,3.53-.79,5.29"/></g><g id="LINE-253" data-name="LINE"><line class="cls-1" x1="85.24" y1="32.61" x2="86.91" y2="38.76"/></g><g id="LINE-254" data-name="LINE"><line class="cls-1" x1="86.91" y1="38.76" x2="92.97" y2="40.21"/></g><g id="ARC-108" data-name="ARC"><path class="cls-1" d="M235.52,67.71A4.4,4.4,0,0,0,233.37,73"/></g><g id="ARC-109" data-name="ARC"><path class="cls-1" d="M272.68,108.78a5.5,5.5,0,0,0,.19-4.8"/></g><g id="ARC-110" data-name="ARC"><path class="cls-1" d="M219.26,74.22a4,4,0,0,0-5-1.85"/></g><g id="ARC-111" data-name="ARC"><path class="cls-1" d="M228.45,108.82a2.5,2.5,0,0,0,1.52-3.19,2.12,2.12,0,0,0-.23-.48"/></g><g id="ARC-112" data-name="ARC"><path class="cls-1" d="M118.13,78.71a3.44,3.44,0,0,0-.93,4.77c0,.08.11.15.17.23"/></g><g id="ARC-113" data-name="ARC"><path class="cls-1" d="M130.25,114a2.39,2.39,0,0,0,3.29.67"/></g><g id="ARC-114" data-name="ARC"><path class="cls-1" d="M146.38,27.58A5,5,0,0,0,144.65,23"/></g><g id="LINE-255" data-name="LINE"><line class="cls-1" x1="64.1" y1="169.22" x2="63.59" y2="167.36"/></g><g id="LINE-256" data-name="LINE"><line class="cls-1" x1="62.64" y1="163.9" x2="60.02" y2="154.35"/></g></svg>