<svg id="Calque_1" data-name="Calque 1" xmlns="http://www.w3.org/2000/svg" viewBox="0 0 64 64"><defs><style>.cls-1{fill:#009ee2;}.cls-2{fill:#e5007e;}.cls-3{fill:#342a83;}.cls-4{fill:#ffec00;}.cls-5{fill:#009642;}</style></defs><title>loader</title><polygon class="cls-1" points="32 12.51 24 20.75 32 28.98 32 51.49 16 51.49 48 51.49 32 51.49 32 28.98 40 20.75 32 12.51"/><polygon class="cls-2" points="16 12.51 0 28.98 0 51.49 16 51.49 16 28.98 24 20.75 16 12.51"/><polygon class="cls-3" points="24 20.75 16 28.98 16 51.49 32 51.49 32 28.98 24 20.75"/><polygon class="cls-4" points="48 12.51 40 20.75 48 28.98 48 51.49 64 51.49 64 28.98 48 12.51"/><polygon class="cls-5" points="40 20.75 32 28.98 32 51.49 48 51.49 48 28.98 40 20.75"/></svg>