<?xml version="1.0" encoding="utf-8"?>
<!-- Generator: Adobe Illustrator 23.0.4, SVG Export Plug-In . SVG Version: 6.00 Build 0)  -->
<svg version="1.1" id="Calque_1" xmlns="http://www.w3.org/2000/svg" xmlns:xlink="http://www.w3.org/1999/xlink" x="0px" y="0px"
	 viewBox="0 0 739.9 205.4" style="enable-background:new 0 0 739.9 205.4;" xml:space="preserve">
<style type="text/css">
	.st0{fill:#3F3D56;}
	.st1{fill:#F76464;}
</style>
<title>logo_vintage</title>
<path class="st0" d="M47.1,146.2h1l7-26.1l16-51.3c0.1-0.8,0.7-1.5,1.4-1.9c0.8-0.3,1.7-0.4,2.6-0.4h18.2c1,0,1.6,0.3,1.7,0.9
	c0.2,0.5,0.1,1.1-0.1,1.6l-32.1,94.1c-0.4,1.5-1.1,2.9-1.9,4.2c-0.6,0.9-1.3,1.7-2.2,2.3c-0.9,0.6-1.9,0.9-2.9,1.1
	c-1.2,0.2-2.5,0.3-3.7,0.3h-9.3c-1.3,0-2.6-0.1-3.9-0.3c-1-0.2-2-0.6-2.9-1.2c-0.9-0.7-1.7-1.5-2.3-2.5c-0.8-1.3-1.5-2.7-1.9-4.1
	L0.1,69.1c-0.2-0.6-0.2-1.2,0.1-1.8c0.2-0.5,0.8-0.7,1.7-0.7h17.9c1-0.1,2,0.1,2.8,0.7c0.6,0.5,1,1.2,1.2,2l15.7,50.6L47.1,146.2z"
	/>
<path class="st0" d="M130.2,72.3c0.1,3.3-1.3,6.5-3.7,8.7c-2.4,2.3-5.6,3.6-8.9,3.5c-3.3,0-6.4-1.2-8.7-3.5
	c-2.4-2.3-3.7-5.4-3.7-8.7c0-1.7,0.3-3.4,1-4.9c0.6-1.5,1.5-2.8,2.7-3.9c1.2-1.1,2.5-2,4-2.6c1.5-0.7,3.1-1,4.8-1
	c1.7,0,3.3,0.3,4.8,1c1.5,0.6,2.8,1.5,4,2.6c1.1,1.1,2.1,2.4,2.7,3.9C129.9,69,130.2,70.7,130.2,72.3z M128.2,168.3
	c0.1,0.8-0.1,1.6-0.6,2.2c-0.8,0.4-1.8,0.6-2.7,0.5h-15.2c-0.8,0.1-1.7-0.1-2.4-0.5c-0.6-0.6-0.9-1.4-0.7-2.2V95.4
	c-0.1-0.8,0.2-1.6,0.7-2.2c0.7-0.4,1.6-0.6,2.4-0.5H125c0.9-0.1,1.9,0.1,2.7,0.5c0.5,0.6,0.7,1.4,0.6,2.2L128.2,168.3z"/>
<path class="st0" d="M182.1,108.7c-1,0-2.4,0-4.2,0.1c-2,0.1-3.9,0.3-5.9,0.7v58.9c0.1,0.8-0.1,1.5-0.5,2.2
	c-0.8,0.5-1.7,0.6-2.6,0.5h-15.4c-0.8,0.1-1.7-0.1-2.4-0.5c-0.6-0.6-0.9-1.4-0.7-2.2v-64c-0.1-2.8,0.5-5.5,1.8-8
	c1.2-1.9,3.7-3.3,7.4-4.1c1.4-0.2,2.8-0.4,4.2-0.5l5.9-0.4c2.1-0.1,4.1-0.3,6.2-0.4c2-0.1,3.8-0.2,5.3-0.2c6.1-0.1,12.1,0.6,18,2.1
	c4.7,1.2,9,3.5,12.6,6.6c3.5,3.3,6,7.4,7.4,11.9c1.8,5.8,2.6,11.9,2.5,18v38.9c0.1,0.8-0.1,1.5-0.5,2.2c-0.8,0.5-1.7,0.6-2.6,0.5
	h-15.4c-0.8,0.1-1.6-0.1-2.4-0.5c-0.6-0.6-0.9-1.4-0.7-2.2v-40.3c0-2.9-0.2-5.7-0.8-8.5c-0.5-2.2-1.4-4.2-2.8-6
	c-1.5-1.7-3.4-3-5.5-3.7C188,109.1,185,108.7,182.1,108.7z"/>
<path class="st0" d="M292.6,168.9c0,0.4-0.5,0.9-1.6,1.3c-3.6,1.1-7.3,1.8-11,2.1c-3.7,0.3-6.8,0.4-9.4,0.4
	c-8.6,0-14.7-1.8-18.3-5.4c-3.7-3.6-5.5-9-5.5-16v-42.5h-10.5c-1.1,0-1.8-0.3-2.1-0.8c-0.3-0.6-0.5-1.3-0.4-2v-8
	c-0.1-0.7,0.1-1.4,0.4-2c0.6-0.5,1.2-0.9,2-1l11-2.5l1-14c0-0.9,0.4-1.8,1-2.5c0.7-0.6,1.6-1,2.5-1.2l13.7-4.5
	c0.7-0.2,1.5-0.1,2.2,0.3c0.6,0.6,0.9,1.5,0.8,2.4v20h16.4c1.1,0,1.8,0.2,2,0.7c0.3,0.6,0.4,1.2,0.4,1.9V106c0,0.7-0.1,1.5-0.3,2.2
	c-0.2,0.4-0.9,0.7-2.1,0.7h-16.3v38c0,2.9,0.7,4.9,2.2,6c1.4,1.1,3.6,1.6,6.5,1.6c0.7,0,1.5-0.1,2.5-0.1l3-0.3l3.1-0.3
	c1-0.1,1.8-0.2,2.5-0.3c1.6-0.3,2.4,0.2,2.5,1.5l1.8,12.4C292.5,167.9,292.5,168.4,292.6,168.9z"/>
<path class="st0" d="M370.2,161.4c0,1.1-0.1,2.2-0.5,3.3c-0.6,1.1-1.5,2-2.6,2.5c-2.4,1.1-4.8,2-7.4,2.7c-2.6,0.7-5.3,1.2-8,1.6
	c-2.7,0.4-5.5,0.7-8.2,0.9s-5.4,0.3-7.9,0.3c-5.6,0.1-11.3-0.5-16.7-1.9c-3.9-1-7.5-2.8-10.6-5.3c-2.6-2.1-4.5-4.8-5.7-7.9
	c-2.3-6.6-2.2-13.9,0.3-20.4c1.3-3.2,3.3-6.1,5.8-8.4c2.8-2.5,6.2-4.4,9.8-5.6c4.5-1.4,9.2-2.1,13.9-2h16.4v-2.4
	c0-1.3-0.1-2.7-0.5-4c-0.3-1.3-0.9-2.4-1.9-3.3c-1.1-1.1-2.5-1.9-4-2.3c-2.2-0.7-4.4-1-6.7-0.9c-1.5,0-3.2,0.1-5.1,0.2
	s-3.8,0.3-5.7,0.6s-3.7,0.6-5.5,0.9s-3.4,0.7-4.8,1.1c-0.9,0.3-1.8,0.3-2.7,0c-0.6-0.5-0.9-1.2-1-1.9l-2.4-10.4
	c-0.3-0.7-0.3-1.6-0.1-2.3c0.4-0.5,0.9-0.9,1.6-1.1c4.6-1.6,9.3-2.8,14.1-3.4c4.9-0.7,9.8-1,14.7-1c10.8,0,18.7,2.3,23.8,6.9
	c5,4.6,7.6,11.5,7.5,20.5L370.2,161.4z M348.6,135.6h-11.8c-1.5,0-3,0.1-4.5,0.3c-1.5,0.2-3,0.7-4.4,1.4c-1.4,0.8-2.5,1.9-3.4,3.2
	c-1,1.7-1.4,3.7-1.3,5.7c0,3.5,1.2,5.9,3.5,7.3s5.5,2.1,9.5,2.1c0.6,0,1.4,0,2.4-0.1s2.1-0.1,3.2-0.3s2.3-0.4,3.5-0.6
	c1.1-0.2,2.2-0.6,3.3-1L348.6,135.6z"/>
<path class="st0" d="M460.3,163c0.2,6.1-0.8,12.2-2.7,18c-1.7,4.7-4.4,8.9-8,12.3c-3.8,3.4-8.2,6.1-13,7.8c-5.7,2-11.7,3.4-17.7,4.2
	c-0.7,0.2-1.5,0.2-2.2-0.1c-0.5-0.5-0.8-1.2-0.9-1.9l-1.9-14.3c-0.2-1.1-0.1-1.8,0.2-2c0.5-0.3,1.1-0.6,1.7-0.7
	c2.8-0.5,5.5-1.1,8.3-1.8c2.6-0.6,5-1.6,7.3-2.9c2.1-1.2,3.9-2.8,5.2-4.8c1.4-2.1,2.1-4.7,2-7.2l-0.1-0.9c-2.7,0.8-5.6,1.4-8.4,1.7
	c-3,0.3-6,0.5-9,0.5c-5.3,0.1-10.5-0.8-15.4-2.8c-4.1-1.8-7.8-4.5-10.6-8c-2.9-3.6-5-7.8-6.2-12.3c-1.4-5.2-2.1-10.6-2-16
	c0-5.4,0.7-10.8,2.3-16c1.4-4.8,3.8-9.2,7.1-13c3.3-3.8,7.5-6.7,12.1-8.7c5.6-2.2,11.6-3.3,17.6-3.1c5.5,0,10.9,0.4,16.3,1.3
	c5.2,0.8,10.3,2.2,15.1,4.4c1,0.4,1.8,1.1,2.5,2c0.4,0.8,0.6,1.7,0.5,2.6L460.3,163z M409.3,131.4c0,7.7,1.5,13.1,4.4,16.3
	c2.9,3.2,7,4.8,12.1,4.8c1.2,0,3-0.1,5.5-0.4c2.5-0.3,4.9-0.8,7.3-1.6v-39.5c-2-0.6-4.1-1-6.2-1.3c-1.8-0.2-3.5-0.4-5.3-0.4
	c-2.5,0-5,0.4-7.4,1.2c-2.2,0.8-4.1,2-5.7,3.7c-1.7,2-2.9,4.3-3.6,6.7C409.7,124.5,409.2,128,409.3,131.4L409.3,131.4z"/>
<path class="st0" d="M513.8,90.8c11.6,0,20.4,2.9,26.2,8.7c5.8,5.8,8.7,14.2,8.7,25c0,5.2-1,8.7-3,10.6s-4.7,2.8-8.2,2.8h-38.2
	c0,2.7,0.5,5.4,1.6,7.9c1.7,4,5.2,6.9,9.4,7.8c2.3,0.5,4.6,0.8,6.9,0.8c3,0,5.9-0.4,8.8-1.1c2.9-0.7,5.6-1.6,8.3-2.7
	c0.8-0.3,1.6-0.5,2.5-0.4c0.6,0.3,1,0.8,1.3,1.4l4.8,10.7c0.4,0.6,0.5,1.4,0.2,2.1c-0.4,0.6-0.9,1.1-1.6,1.5
	c-3.9,2.5-8.3,4.2-12.8,5.1c-4.5,1-9,1.5-13.6,1.6c-13,0-22.7-3.2-28.9-9.7c-6.3-6.5-9.4-16.7-9.4-30.7c-0.1-5.9,0.8-11.9,2.6-17.5
	c1.6-4.8,4.1-9.2,7.5-13c3.2-3.6,7.2-6.3,11.6-8.1C503.4,91.7,508.6,90.8,513.8,90.8z M514.3,108.7c-3.8-0.1-7.5,1.5-10,4.3
	c-2.7,3.1-4.2,6.9-4.5,11h27.9c0-2.1-0.2-4.1-0.7-6.1c-0.4-1.7-1.1-3.4-2.2-4.8c-1-1.4-2.4-2.5-4-3.2
	C518.8,109,516.6,108.6,514.3,108.7z"/>
<path class="st1" d="M667.8,154.8c1.1,0,2.2,0,3.3-0.1c39.8-1.9,70.5-35.7,68.6-75.5c-0.2-5.1-1-10.1-2.3-15l0,0
	c-2.4-9.9-6.4-19.3-12-27.8c4.2,7.4,15.5,30.5,9.4,57.5c-1.7,8.2-4.9,15.9-9.6,22.8c-6.2,8.9-14.7,16-24.5,20.7
	c-3.4,1.6-28.5,13.2-51.3,1.5c-4-2.1-11.7-6.1-16.3-15.1c-2.6-4.8-3.9-10.3-3.8-15.8c0.3,4.3,1.5,8.5,3.5,12.4
	c4.4,8.5,11.7,12.4,15.5,14.3c21.7,11.2,45.7,0.1,48.9-1.4c9.3-4.5,17.4-11.3,23.3-19.7c4.5-6.6,7.6-13.9,9.2-21.7
	c6.6-29.2-8.2-53.6-10.2-56.8c-7.7-12-18.4-21.7-31.1-28.3C682.9,3.9,677,1.6,670.8,0c31.4,9.2,52.9,38.1,52.9,70.8
	c0,1.4,0,2.8-0.1,4.2c-0.6,10.1-3.2,20-7.8,29c-0.2,0.3-0.3,0.6-0.5,0.8c-1.2,1.8-2.5,3.6-4,5.2c-6,6.6-13.4,11.8-21.7,15.1
	c-0.5,0.2-1.1,0.4-1.6,0.6c-6.8,2.1-14,3-21.1,2.4c-1.7-0.2-3.4-0.4-5-0.8c-1.8-0.4-3.6-0.9-5.4-1.6c-3.1-1.3-6.1-3-8.8-5
	c-2.3-1.6-4.3-3.6-6.1-5.8c-0.5-0.7-1-1.5-1.5-2.3c-4.9-9.1-1.2-18.5-1-18.9c1.3-2.8,3.1-5.4,5.4-7.6c5.1-4.8,13.1-6.8,20.8-7.4l0,0
	c1.8-0.1,3.6-0.1,5.4,0c20.6,1.4,32,12.4,28.9,19.6c17.3-39.2-35.6-63-72.3-65.9h0c4.1,0.9,7.6,3.7,9.5,7.5
	c-1.8-0.1-3.6-0.1-5.7-0.2c-10-0.4-20-2-29.6-4.7c-1.3-0.4-2.7-0.8-4.1-1.3c-3.2-0.9-6.1-2.4-8.8-4.4c-1.1-0.8-2.1-1.7-3-2.7
	c-3.5-3.8-5.8-8.6-6.6-13.8l-0.2-1.4c-10.4,10.9-11.5,27.1-4.3,38.3c1,1.6,2.2,3.1,3.5,4.4c0,0-33.5,47.8,14.9,95.4
	c0,0-15.5-19.1-8-49.6l0.4,5.5c0.9,11.5,4.2,22.7,9.9,32.7c5.7,10.3,14,19,24.1,25.1c6.9,4.1,14.6,6.9,22.5,8.3
	c21.4,3.7,45-2.3,64.2-17.7c-13.5,5.7-28.2,8.1-42.8,7.1c-13.8-1-22.3-5-22.3-5l0,0c-5.2-2.2-10-5.2-14.2-9.1
	c-4.1-3.8-7.5-8.3-10.2-13.2c6.2,6.2,12.4,11.2,19.8,14.7C644.8,152.3,654.6,154.5,667.8,154.8z M676.5,60.2c7.2,2,8.4,7.8,8.4,7.8
	c-0.9-1.3-3.2,0.9-8.4-2.1c-3.6-2.1-4.7-7.5-4.7-7.5C672.7,59.5,674.6,59.6,676.5,60.2z M629.3,75.6c0,0-20,15.9-11.1,43.7
	c0,0-14.4-6.8-15.7-25.2c0,0-6.5,9.8-1.1,26.3l0,0c12.6,37.1,40.4,45.4,46.1,46.8l1,0.2c0,0-0.4-0.1-1-0.2
	C600,157.3,593,119.2,593.3,96c-0.2-6.1,0.4-12.2,1.8-18.1l0.1-0.4c0,0-14.2,2.1-16.9,19.8c-1.1-9,1.3-25.8,14.1-44
	c0,0-15-3.8-14.1-23.6c0,0,3.8,17.4,33.1,18.2s38,0.5,43.1,5.2c-0.6-3.6-2.3-6.9-4.9-9.5c0,0,10.8,1.6,12.5,11.4s5.3,14.7,9.7,15.7
	c0,0-32.5-8.4-43.9,25C628,95.6,625.2,84.8,629.3,75.6z"/>
</svg>
