<?xml version="1.0" encoding="utf-8"?>
<!-- Generator: Adobe Illustrator 24.0.1, SVG Export Plug-In . SVG Version: 6.00 Build 0)  -->
<svg version="1.1" id="Calque_1" xmlns="http://www.w3.org/2000/svg" xmlns:xlink="http://www.w3.org/1999/xlink" x="0px" y="0px"
	 viewBox="0 0 425.2 850.4" style="enable-background:new 0 0 425.2 850.4;" xml:space="preserve">
<style type="text/css">
	.st0{clip-path:url(#SVGID_2_);}
	.st1{clip-path:url(#SVGID_4_);}
	.st2{opacity:0.5;}
	.st3{clip-path:url(#SVGID_6_);}
	.st4{fill:#283583;}
	.st5{clip-path:url(#SVGID_8_);}
	.st6{clip-path:url(#SVGID_10_);}
	.st7{clip-path:url(#SVGID_12_);}
	.st8{clip-path:url(#SVGID_14_);}
	.st9{clip-path:url(#SVGID_16_);}
	.st10{clip-path:url(#SVGID_18_);}
	.st11{clip-path:url(#SVGID_20_);}
	.st12{fill:#00BFA6;}
	.st13{clip-path:url(#SVGID_22_);}
	.st14{opacity:0.7;}
	.st15{clip-path:url(#SVGID_24_);}
	.st16{fill:#FFED00;}
	.st17{clip-path:url(#SVGID_26_);}
	.st18{clip-path:url(#SVGID_28_);}
	.st19{fill:none;stroke:#1D1D1B;stroke-width:1.5;}
	.st20{clip-path:url(#SVGID_30_);}
	.st21{clip-path:url(#SVGID_32_);}
	.st22{fill:none;stroke:#1D1D1B;stroke-width:3;stroke-dasharray:10.57,7.57;}
	.st23{fill:none;stroke:#1D1D1B;stroke-width:3;stroke-dasharray:8.31,5.31;}
	.st24{fill:none;stroke:#1D1D1B;stroke-width:3;stroke-dasharray:8.88,5.88;}
	.st25{fill:none;stroke:#1D1D1B;stroke-width:3;}
	.st26{fill:none;stroke:#1D1D1B;stroke-width:3;stroke-dasharray:7.72,4.72;}
	.st27{fill:none;stroke:#1D1D1B;stroke-width:3;stroke-dasharray:9.03,6.03;}
	.st28{fill:none;stroke:#1D1D1B;stroke-width:3;stroke-dasharray:7.36,4.36;}
	.st29{fill:none;stroke:#1D1D1B;stroke-width:3;stroke-dasharray:8.25,5.25;}
	.st30{clip-path:url(#SVGID_34_);}
	.st31{fill:none;stroke:#1D1D1B;stroke-width:3;stroke-dasharray:7.47,4.47;}
	.st32{fill:none;stroke:#1D1D1B;stroke-width:3;stroke-dasharray:9.15,6.15;}
	.st33{fill:none;stroke:#1D1D1B;stroke-width:3;stroke-dasharray:7.34,4.34;}
	.st34{fill:none;stroke:#D9326F;stroke-width:3;}
	.st35{fill:none;stroke:#CD1719;stroke-width:3;}
	.st36{fill:#1D1D1B;}
	.st37{font-family:'Chalkduster';}
	.st38{font-size:21px;}
	.st39{letter-spacing:-1;}
	.st40{font-size:18px;}
	.st41{font-size:18.0144px;}
	.st42{font-size:18.0728px;}
	.st43{font-size:17.9504px;}
	.st44{font-size:18.0405px;}
	.st45{font-size:18.0324px;}
	.st46{clip-path:url(#SVGID_36_);}
	.st47{clip-path:url(#SVGID_38_);}
	.st48{letter-spacing:3;}
	.st49{letter-spacing:2;}
	.st50{clip-path:url(#SVGID_40_);}
	.st51{clip-path:url(#SVGID_42_);}
	.st52{font-size:17.9025px;}
	.st53{font-size:18.0009px;}
	.st54{font-size:17.9685px;}
	.st55{font-size:17.9324px;}
	.st56{font-size:17.9865px;}
	.st57{clip-path:url(#SVGID_44_);}
	.st58{clip-path:url(#SVGID_46_);}
</style>
<title>schema_st_ferjeux</title>
<g>
	<defs>
		<rect id="SVGID_1_" y="0" width="425.2" height="850.4"/>
	</defs>
	<clipPath id="SVGID_2_">
		<use xlink:href="#SVGID_1_"  style="overflow:visible;"/>
	</clipPath>
	<g class="st0">
		<g>
			<defs>
				<rect id="SVGID_3_" y="0" width="425.2" height="850.4"/>
			</defs>
			<clipPath id="SVGID_4_">
				<use xlink:href="#SVGID_3_"  style="overflow:visible;"/>
			</clipPath>
			<g class="st1">
				<g class="st2">
					<g>
						<defs>
							<rect id="SVGID_5_" x="110.9" y="593.6" width="20.9" height="11.2"/>
						</defs>
						<clipPath id="SVGID_6_">
							<use xlink:href="#SVGID_5_"  style="overflow:visible;"/>
						</clipPath>
						<g class="st3">
							<polygon class="st4" points="121.3,603.7 111.9,594.6 130.8,594.6 							"/>
						</g>
					</g>
				</g>
				<g class="st2">
					<g>
						<defs>
							<rect id="SVGID_7_" x="235.7" y="593.6" width="20.9" height="11.2"/>
						</defs>
						<clipPath id="SVGID_8_">
							<use xlink:href="#SVGID_7_"  style="overflow:visible;"/>
						</clipPath>
						<g class="st5">
							<polygon class="st4" points="246.1,603.7 236.7,594.6 255.5,594.6 							"/>
						</g>
					</g>
				</g>
				<g class="st2">
					<g>
						<defs>
							<rect id="SVGID_9_" x="173.2" y="593.4" width="20.9" height="11.2"/>
						</defs>
						<clipPath id="SVGID_10_">
							<use xlink:href="#SVGID_9_"  style="overflow:visible;"/>
						</clipPath>
						<g class="st6">
							<polygon class="st4" points="183.6,603.5 174.2,594.4 193,594.4 							"/>
						</g>
					</g>
				</g>
				<g class="st2">
					<g>
						<defs>
							<rect id="SVGID_11_" x="142" y="593.6" width="20.9" height="11.2"/>
						</defs>
						<clipPath id="SVGID_12_">
							<use xlink:href="#SVGID_11_"  style="overflow:visible;"/>
						</clipPath>
						<g class="st7">
							<polygon class="st4" points="152.5,603.7 143,594.6 161.9,594.6 							"/>
						</g>
					</g>
				</g>
				<g class="st2">
					<g>
						<defs>
							<rect id="SVGID_13_" x="204.3" y="593.4" width="20.9" height="11.2"/>
						</defs>
						<clipPath id="SVGID_14_">
							<use xlink:href="#SVGID_13_"  style="overflow:visible;"/>
						</clipPath>
						<g class="st8">
							<polygon class="st4" points="214.7,603.5 205.3,594.4 224.2,594.4 							"/>
						</g>
					</g>
				</g>
				<g class="st2">
					<g>
						<defs>
							<rect id="SVGID_15_" x="267.1" y="593.6" width="20.9" height="11.2"/>
						</defs>
						<clipPath id="SVGID_16_">
							<use xlink:href="#SVGID_15_"  style="overflow:visible;"/>
						</clipPath>
						<g class="st9">
							<polygon class="st4" points="277.5,603.7 268.1,594.6 286.9,594.6 							"/>
						</g>
					</g>
				</g>
				<g class="st2">
					<g>
						<defs>
							<rect id="SVGID_17_" x="298.2" y="593.6" width="20.9" height="11.2"/>
						</defs>
						<clipPath id="SVGID_18_">
							<use xlink:href="#SVGID_17_"  style="overflow:visible;"/>
						</clipPath>
						<g class="st10">
							<polygon class="st4" points="308.6,603.7 299.2,594.6 318,594.6 							"/>
						</g>
					</g>
				</g>
				<g class="st2">
					<g>
						<defs>
							<rect id="SVGID_19_" x="193.9" y="22" width="138.5" height="162.7"/>
						</defs>
						<clipPath id="SVGID_20_">
							<use xlink:href="#SVGID_19_"  style="overflow:visible;"/>
						</clipPath>
						<g class="st11">
							<path class="st12" d="M263.1,183.7c37.7,0,68.2-36,68.2-80.4S300.8,23,263.1,23s-68.2,36-68.2,80.4S225.5,183.7,263.1,183.7"
								/>
						</g>
					</g>
				</g>
				<g class="st2">
					<g>
						<defs>
							<rect id="SVGID_21_" x="85.9" y="610.4" width="248.6" height="218.1"/>
						</defs>
						<clipPath id="SVGID_22_">
							<use xlink:href="#SVGID_21_"  style="overflow:visible;"/>
						</clipPath>
						<g class="st13">
							<path class="st12" d="M210.2,827.4c68.1,0,123.3-48.4,123.3-108s-55.2-108-123.3-108s-123.3,48.3-123.3,108
								S142.1,827.4,210.2,827.4"/>
						</g>
					</g>
				</g>
				<g class="st14">
					<g>
						<defs>
							<rect id="SVGID_23_" x="75.2" y="244.2" width="99.4" height="138.5"/>
						</defs>
						<clipPath id="SVGID_24_">
							<use xlink:href="#SVGID_23_"  style="overflow:visible;"/>
						</clipPath>
						<g class="st15">
							<path class="st16" d="M90.7,362.4c0.2-2.4,1-4.7,2.3-6.8c0.5-0.6,0.8-1.3,1.1-2c0.3-1,0-1.9,0.5-2.7
								c-2.8,0.1-6.1-2.7-8.5-3.8c-1.4-0.7-3.1-0.8-4.7-1.4c-1.9-0.9-2.4-1.6-1.7-3.8c0.2-0.7,0.5-2.3,0.8-2.9
								c0.2-0.3,0.6-0.4,0.9-0.5c0.3-0.7,0.6-1.4,0.7-2.2c0.5-2.1,0.5-3.5,1.5-5.3s1.2-3.7,2-5.4c0.4,0,0.7-0.2,0.9-0.5
								c0.1-0.6,0.2-1.1,0.4-1.6c0.1-1.1,0.5-2.2,1.1-3.2c0.6-0.8,0.9-1.8,1-2.8c0-0.5,0.1-1,0.1-1.5c0.2-0.7,0.7-0.4,0.9-1
								c0.7-2.2-0.2-3.6,2.5-4.2c0.8-0.1,1.6,0.1,2.4,0.5c-0.1,0.3,0,0.7,0.3,0.9c0.7,0.1,1.4,0.2,2.1,0.2c1.7,0.1,3.2,0.6,4.9,0.9
								c0.9,0,1.8,0,2.7,0.2c0.3,0.1,0.4,0.3,0.4,0.6c0.4,0.2,1.2,0.8,1.6,1c2.7,1.7,2.8,0.5,3-2.3c0.1-0.8,0.4-1.5,0.8-2.2
								c0.3-1,0.3-2.1,0.7-3.2c0.7-1.8,1.9-3.1,2.4-5c0.6-2.3,0.8-3.5,2.2-5.6c-2.7-0.9-5.1-3.1-8-4c-1.3-0.3-2.6-0.6-3.8-1.1
								c-1-0.5-2.3-1.8-3.6-1.9c0-2.1,1.2-4,2-5.9c0.6-1.4,1-3,1.7-4.3c0.7-1.2,1.3-2.5,1.6-3.9c0.6-1.6,1.1-3.1,1.5-4.8
								c0.4-2.8,1.7-5.1,2.7-7.5c0.4-1,0.7-2.2,1.2-3.2c0.5-1.3,0.9-2.6,1.2-4c1.6,0,3.3,0.1,4.8,0.4c1.5,0,2.9,0.4,4.2,1.1
								c1.3,0.9,1.4,1.5,3.3,1.8c1.3,0.2,2.6,0.3,3.9,0.4c0.1-1.8,0.9-1.9,1.6-3.2c0.4-0.6,0.1-1.3,0.5-2c0.2-0.4,1-0.9,1.2-1.4
								c0.6-0.7,1.1-1.4,1.6-2.1s0-0.9,0.9-1.2s2.6,0.9,3.4,1.3c1.6,0.7,3.1,0.5,4.7,1c0.5,0.2,0.9,0.5,1.4,0.7
								c0.7,0.2,1.7,0,2.3,0.3s0.4,0.9,1,1.3c0.2,0.1,1.3,0.2,1.6,0.4c1.5,0.6,2.1,1.7,3.9,1.9c0.9,0,1.8,0.1,2.6,0.2
								c0.8,0.2,1.2,0.8,2,1c0.6,0.2,1.5-0.1,2,0.1s0.6,1,1.3,1.4c1.2,0.7,2.8,0.5,4.1,1.2c1.2,0.6,2.5,1.1,3.9,1.5
								c0.2,0,0.8,0.6,1.1,0.7c0.6,0.2,1-0.1,1.6,0.4c1,0.8,0.6,2.3,0.5,3.4c-0.3,2.7-0.2,5.8-1.4,8.3c-1,2.1-1.6,4.2-2.7,6.3
								c-0.7,1.2-0.9,2.5-1.5,3.6c-0.1,0.3-0.6,0.8-0.8,1.2c-0.3,0.7-0.6,1.5-0.8,2.3c-0.8,1.8-1.7,3.5-2.7,5.2
								c-0.1,0.2-0.1,1-0.2,1.3c-0.3,0.4-0.5,0.9-0.7,1.4c-0.1,0.6,0,1.2-0.1,1.8s-0.7,0.9-0.9,1.6c-0.4,1.3-0.1,2.8-0.4,4.2
								c-0.3,1.4-0.8,2.7-1.5,4c-1.1,2-2.4,3.8-3.2,5.9c-0.8,1.8-2.4,3.7-3.2,5.4c-1,2.2-1.8,4.5-2.4,6.9c-0.3,1-0.5,2.1-0.9,3.1
								c-0.6,1.5-0.6,3.2-1.2,4.8c-0.3,0.7-0.6,1.4-0.8,2.1c0,0.8-0.1,1.6-0.2,2.3c-0.5,1.4-1.7,1.8-1.8,3.7c-1.7,0.2-1.9,2.8-2.5,4
								c-0.3,0.7-0.5,1.4-0.9,2.2c-0.6,1-0.5,2.3-1,3.2c-0.3,0.6-1,0.7-1.3,1.3c-0.3,0.9-0.6,1.9-0.7,2.8c-0.5,1.8-1.7,3.2-2.3,4.8
								c-0.5,1.3-0.3,3.3-0.9,4.6c-0.5,0.9-1,0.9-1.3,2c-0.2,1.1-0.3,2.3-0.4,3.5c-0.3,1.8-0.9,3.4-1.9,4.9c-0.8,1.3-1.3,3.4-3.1,3
								c-0.7-0.1-1.3-0.8-2-1s-1.9,0.1-2.6-0.2s-1-0.8-2.1-1c-1.2-0.2-2.3-0.6-3.4-1.2c-1.5-0.8-3.1-0.5-4.6-1.3
								c-0.9-0.6-1.8-1-2.8-1.4c-0.9-0.2-1.8-0.6-2.7-1c-1.4-0.8-3.1-1.5-4.5-2.4c0.1-0.4-0.1-0.8-0.5-1c-0.6,0-1.1,0-1.7-0.1
								c-0.7-0.3-1.4-0.6-2-0.9c-1.5-0.8-3-1.5-4.6-2c-0.4-0.2-0.9-0.3-1.3-0.4c-0.3-0.2-0.5-0.5-0.3-0.9c-1-0.4-2-0.6-3-0.5"/>
						</g>
					</g>
				</g>
				<g class="st14">
					<g>
						<defs>
							<rect id="SVGID_25_" x="74.2" y="408.6" width="79.5" height="80.2"/>
						</defs>
						<clipPath id="SVGID_26_">
							<use xlink:href="#SVGID_25_"  style="overflow:visible;"/>
						</clipPath>
						<g class="st17">
							<path class="st16" d="M105.1,482.8c-0.1-0.8-0.3-1.7-0.7-2.4c-0.7-2.3-0.9-5-2-7.2c-1.4-2.5-4.1-1-6.5-0.6
								c-1.5,0.2-3,0.2-4.4,0.2c-2.2,0.1-3.6,1.1-6,0.9c0.7-0.4,0.3-1.1,0.2-2.2c0-2.6-0.4-5.2-1-7.7c-0.6-2.1-1.3-4.1-1.9-6.2
								s-0.2-3.3-0.4-5.3s-1.2-3.5-1.6-5.4c-0.4-1.8-0.6-3.6-0.8-5.4c0.1-0.5,0.2-1,0.3-1.5c0.1-0.4-0.1-0.8-0.5-1
								c-0.1-0.6-0.1-1.3,0.1-1.9c2.7-0.2,4.1,0.4,6.8-0.7c1.3-0.5,2.6-1,4-1.4c0.8-0.2,2.9-0.3,3.6-0.6c2.4-1.1,0.8-2.7,0.5-5.1
								c-0.3-1.9-1.2-4.9-0.7-6.9c2.8-0.8,5.7,0.1,8.5-0.5c2.4-0.5,4.8-1,7.3-1.5c3.5-0.7,7.1-1.1,10.6-1.7c2.5-0.4,4.4-1.5,6.7-2.2
								c1-0.3,2.5,0,3.6-0.2s1.9-1,3-1.1c3-0.3,2.4,3.6,2.8,5.7c0,0.7,0.2,1.4,0.6,2c0.2,1.3,0.4,2.6,0.4,3.8
								c0.3,1.2,0.6,2.3,1.1,3.3c0.5,1.9,0.1,3.7,0.6,5.6c0.6,2.4,0,4.5,0.5,6.9c0.6,3,1.3,5.9,1.8,8.9c0.4,2.7-0.3,5.7,0.4,8.4
								c0.4,0.6,0.7,1.2,0.9,1.9c0.4,1.4,0.5,3.2,0.8,4.6c0.5,2,1.1,3.8,1.6,5.8c0.3,1.3,1.5,3.3,0.9,4.5c-2.9-0.5-5.6,1.7-8.4,2.4
								c-1.7,0.5-3.5,0.8-5.2,1c-1.7,0.1-3.4,0-5.1,0.1c-1.2,0.1-2.4,0.4-3.6,0.7c-3.5,0.8-7.6,0.6-11.3,1.4
								c-1.2,0.3-2.4,0.6-3.6,0.8c-1.3,0.1-2.8-0.3-4,0l-0.1,0.6"/>
						</g>
					</g>
				</g>
				<g class="st14">
					<g>
						<defs>
							<rect id="SVGID_27_" x="72.7" y="234.7" width="13.2" height="354.2"/>
						</defs>
						<clipPath id="SVGID_28_">
							<use xlink:href="#SVGID_27_"  style="overflow:visible;"/>
						</clipPath>
						<g class="st18">
							<path class="st19" d="M78.7,587.9v-17.3c0-13.8,1.9-25.8,3.8-39.4c1.6-11.2,2.6-27.3-0.1-38.4c-6.1-25.9-3.8-54.1-3.8-81.2
								c0-18.1,1.8-37.3,0.1-55.3c-1.5-15.5-4.3-30.5-4.3-46.5c0-16.4,0-32.8,0-49.2c0-2.1-0.1-4.3,0-6.4c0.1-3,1.1-4.6,1.6-6.9
								c1.2-5.2-1.3-7-1.7-11.5c0,0.4,0,0.9,0,1.4"/>
						</g>
					</g>
				</g>
				<g class="st14">
					<g>
						<defs>
							<rect id="SVGID_29_" x="71.3" y="220.4" width="277" height="16.5"/>
						</defs>
						<clipPath id="SVGID_30_">
							<use xlink:href="#SVGID_29_"  style="overflow:visible;"/>
						</clipPath>
						<g class="st20">
							<path class="st19" d="M72.3,235c6.6,0.5,12.6-0.8,19.1-2.1c8.7-1.8,16.2-2.1,25.1-2.1c7.5,0,14.5-1.6,21.9-2.8
								c12.6-1.9,25.1-1.6,37.9-1.6c11.2,0.1,21.5-2.2,32.4-2.1c10.3,0.1,20.7,0,31,0c23,0,45.3-2.1,68.1-2.1
								c13.1,0,26.5-1,38.4,2.5l0.4,1.8"/>
						</g>
					</g>
				</g>
				<g class="st14">
					<g>
						<defs>
							<rect id="SVGID_31_" x="344.1" y="228.7" width="8.9" height="363.4"/>
						</defs>
						<clipPath id="SVGID_32_">
							<use xlink:href="#SVGID_31_"  style="overflow:visible;"/>
						</clipPath>
						<g class="st21">
							<path class="st19" d="M346.6,229.7c0,63.6,0.3,127.2,0,190.8c0,10.2,1.8,19.9,2.2,30c0.3,6.1,1.4,12.3,2.1,17.5
								c1.8,15.1-3.6,30-4.4,44.9c-1.5,25.8,0.1,52.3,0.1,78.2"/>
						</g>
					</g>
				</g>
				<path class="st22" d="M197.8,111.7c0,4.8,0.3,9.7,0.5,14.3"/>
				<path class="st23" d="M201.1,144.2c1.7,3.3,3.6,6.3,5.9,9.2"/>
				<path class="st24" d="M217.1,167.3c2.4,3.1,5.3,5.9,8.6,8.1"/>
				<path class="st25" d="M332.2,100.9c0.4-2,0.5-4.1,0.6-6.2 M323.6,130.2c0.3-1,0.7-2.1,1.1-3.1c0.6-1.6,2.7-2.8,3.4-4.7
					c0.9-2.3-0.1-4.2,0.4-6.5c0.4-2.1,1-4,1.5-6 M319.5,141.8c0.8-1.6,1.5-3.3,2.1-5.1c0.4-1,0.7-2.1,1-3.1 M309.7,157.9
					c1.2-1.3,2.4-2.7,3.3-4.2c1-1.6,1.9-3.2,2.8-4.8 M294.1,174.7c1.2-1,2.7-1.6,4.2-1.8c0.3-1.1,0.5-2.3,0.8-3.4l3.4-0.8
					c0.3-1.8,1-3.5,2.1-4.9 M275.1,185.5c1-0.3,2-0.6,2.9-1c2.4-0.9,6.1-1.6,8-2.6c1.3-0.8,2.5-1.8,3.6-2.9 M263.4,185.9
					c1.8,0.1,3.6,0.2,5.6,0.2c1.2,0,2.2,0,3-0.1 M245,183.2c1.7,0.1,3.3,0.4,4.9,0.7c1.9,0.4,3.7,0.8,5.5,1.1 M228.2,176.8
					c1.4,0.6,2.8,1,4.2,1.3c0.2,1.2,0.5,2.3,0.7,3.5c1.6,0.5,3.2,0.8,4.9,1 M208.6,155.5c0.8,1.1,1.6,2.2,2.4,3.4s1.6,2.4,2.5,3.7
					 M198.6,129.8c0.1,1.8,0.2,3.6,0.3,5.3c0.1,1.4,0.2,2.8,0.5,4.1 M199.9,94.5c-0.4,1.5-0.8,2.9-1.1,4.4c-0.3,1.7-0.5,3.5-0.7,5.2
					 M203.1,79.1c-0.1,1.7-0.2,3.3-0.5,5c-0.3,1.5-0.6,3-1,4.5 M203.1,67.1c0,1.7,0,3.3,0.1,5"/>
				<path class="st26" d="M81.5,723.4c-0.5-3.3-0.6-6.7-0.5-10.1"/>
				<path class="st27" d="M188.8,612.8c3.9-1.1,7.8-2,11.8-2.7"/>
				<path class="st28" d="M240,614c3,1,5.9,2.3,8.7,3.8"/>
				<path class="st29" d="M322.5,676.9c1.5,3.2,3.4,6.5,4.9,9.7"/>
				<path class="st25" d="M331,758.3c-0.5,2-1.4,4-2.5,5.8 M337.2,725c-0.1,1.4-0.2,2.7-0.2,4c0,2.2,0.1,4.5,0,6.8
					c-0.2,3.8-0.7,3.9-2.2,7.1c-0.9,1.9-1.5,3.9-1.9,6 M335.9,712.2c0.5,1.3,0.9,2.6,1.2,3.9c0.3,1.3,0.4,2.6,0.4,3.9 M331.9,700.1
					c0.3,1.1,0.6,2.2,0.9,3.4c0.3,1.3,0.7,2.6,1.2,3.9 M328.5,689c0.5,1.3,1,2.6,1.4,3.9l0.9,3.4 M317.2,666.4
					c0.7,0.7,1.6,1.3,2.6,1.6c0.2,1.4,0.4,2.7,0.9,4 M309.8,658.9c1.3,1.1,2.5,2.1,3.2,2.9c0.6,0.6,1.2,1.4,2,2.3 M299.1,649
					c1.5,1,3.2,1.7,5,1.9c0.1,1.5,0.6,2.9,1.6,4 M285,637.9c1.4,0.7,2.8,1.5,4.2,2.4c1.5,1,2.9,2.2,4.1,3.5 M270.8,630.9
					c1.1,0.8,2.4,1.5,3.6,2.1c1.5,0.7,3,1.4,4.5,2 M250.6,618.9l3.2,1.8c1.4,0.8,3.1,1.7,4.5,2.4c0.4,0.2,4.5,2,4.7,2.1
					c1.1,0.7,2.3,1.6,3.4,2.5 M216.6,609.2c1.3,0,2.6,0.1,3.9,0.3c2.1,0.5,2.9,1.8,4.5,2.3c2.5,0.7,4.5,0.3,7.1,0.6
					c1.3,0.1,2.5,0.3,3.6,0.6 M203.5,609.8c1.5-0.1,3-0.2,4.5-0.2c1.2,0,2.5-0.1,3.9-0.2 M174.6,617.1c1.3-0.6,2.6-1.1,4-1.5
					c1.4-0.4,2.9-0.8,4.4-1.2 M161.4,622.2c1.3-0.5,2.7-0.9,4.2-1.2c1.4-0.4,2.7-0.8,4-1.5 M145.9,627.1c1.8-0.8,3.8-1.5,5.8-1.9
					c1.4-0.3,2.8-0.7,4.2-1.1 M128.7,637.1c1.3-0.9,2.6-1.7,3.9-2.4c1.7-1,3.4-2.1,5.2-3.2 M111,654.6c1.1-1.7,2.3-3.3,3.6-4.8
					c1.1-1.2,2.4-2,3.5-3c0.8-0.8,1.8-2.6,2.3-3.2c1.1-1,2.2-2,3.4-3 M100.1,670.7c0.8-1.1,1.8-2.3,2.8-3.5c1.3-1.5,2.5-3.1,3.5-4.9
					 M94.6,683.1c0.4-0.9,0.8-1.9,1-3c0.4-1.5,0.8-2.9,1.4-4.2 M89.9,691.8c0.4-1.1,0.9-2.2,1.4-3.2c0.6-1.1,1.1-1.9,1.6-2.7
					 M81.2,711c0.2-1.3,0.5-2.5,0.9-3.7c0.3-0.8,2.5-2.9,3-3.8c0.8-1.5,1.5-3,2.1-4.6c0.5-1,0.9-2.2,1.3-3.3 M90.5,750.8
					c-0.5-1.7-1.1-3.3-1.9-4.8c-1.1-2.2-3-3.5-4-5.9s-1.1-5.7-1.7-8.2c-0.3-1.1-0.6-2.4-0.8-3.8 M97.4,767c-1-1.4-1.9-2.8-2.8-4.3
					c-0.8-1.5-1.5-3.2-2-4.8 M101.7,778.3c0.3-1.7,0-3.4-0.7-5"/>
				<g class="st2">
					<g>
						<defs>
							<rect id="SVGID_33_" x="138" y="274.2" width="117.5" height="242.3"/>
						</defs>
						<clipPath id="SVGID_34_">
							<use xlink:href="#SVGID_33_"  style="overflow:visible;"/>
						</clipPath>
						<g class="st30">
							<path class="st12" d="M193.6,514c30.1,0.8,56-51.7,57.7-117.3S230,277.4,199.8,276.6s-56,51.7-57.7,117.2
								S163.4,513.2,193.6,514"/>
						</g>
					</g>
				</g>
				<path class="st31" d="M229.3,297.8c1.9,2.6,3.6,5.4,5,8.3"/>
				<path class="st32" d="M246.7,373.5c-0.2,14.2,0,28.5,0.1,42.8"/>
				<path class="st33" d="M154.2,334.6c1.2-3,2.3-5.9,3.4-8.9"/>
				<path class="st25" d="M198.2,278.1c2.1-1.2,3.7-2.1,3.7-2 M178.9,293.8c0.7-0.9,1.4-1.8,2-2.6c1.1-1.5,1.8-4.1,3.2-5.3
					c1.2-1,4.3-2.1,5.7-3c0.6-0.3,2-1.2,3.7-2.1 M172,301.3c0.8-0.7,1.6-1.5,2.4-2.2c0.7-0.8,1.5-1.6,2.2-2.5 M164.6,310.1
					c0.9-1.4,1.8-2.8,2.6-4c0.6-0.9,1.3-1.7,2.1-2.5 M158.3,323.7c0.4-1.2,0.8-2.3,1.2-3.5c0.5-1.5,1.1-3,1.9-4.4 M149.9,346
					c0.5-1.4,1-2.7,1.4-3.9s0.9-2.3,1.3-3.4 M146.6,358.7c0.3-1.2,0.6-2.4,0.8-3.5c0.2-1.3,0.5-2.7,0.9-4 M142.8,372.3
					c0.4-2.1,0.9-4.2,1.4-6.1c0.4-1.3,0.7-2.4,1.1-3.5 M140.3,392.2c0-1.5,0.1-2.9,0.3-4.4c0.2-2,0.4-4.1,0.7-6.2 M140.2,407.2
					c0-1.6,0.1-3.2,0.1-4.8s0-2.9-0.1-4.4 M152.5,454.3c-0.2-1.3-0.4-2.7-0.6-4c-0.6-0.1-1.3-0.3-1.9-0.4c-0.1-2.5-1.9-3.2-2.4-5.2
					c-0.5-1.9,0-3.6-0.4-5.5c-0.5-1.9-1.2-3.7-2.1-5.5c-0.8-1.6-2.8-3.1-3.4-4.4c-0.7-1.7-0.2-4.5-0.4-6.3c-0.1-1-0.8-2.9-0.9-4.4
					s-0.2-3.2-0.2-4.8 M158.2,475.6c-0.6-1.8-1.1-3.5-1.5-4.7c-0.9-2.4-2.7-5-3-7.5c-0.2-1.3-0.4-2.7-0.5-4 M166.4,489.3
					c-1-1.3-1.6-3-1.4-4.7c-1.6-0.1-2.9-1.2-3.9-2.7 M190.2,512.5c-2.1,0.1-4.2-0.2-6.1-1c-2.4-1-4.6-4-6.1-6.2s-2.6-5.9-5.4-6.1
					c0.1-1.7-0.3-3.4-1.3-4.8 M210.3,506.1c-1.7,0.6-3.4,1.3-5.1,1.9s-3.8,1.5-5.8,2.2 M224.6,496.2c-1,1.1-2,2.1-2.9,3
					c-1.3,1.3-2.7,2.5-4.3,3.4 M237,476.9c-0.1,1.5-0.5,3-1,4.4c-0.6,1.6-2.5,2.8-3.4,4.1c-0.7,1.1-1.1,2.2-1.9,3.4
					s-1.6,2.2-2.5,3.3 M239.3,463c-0.4,1.1-0.8,2.3-1.1,3.4c-0.4,1.5-0.6,2.9-0.8,4.5 M242.6,451.7c-0.2,1.3-0.4,2.6-0.8,3.9
					c-0.3,1.2-0.7,2.3-1.1,3.4 M244.7,437.5c-0.4,1.7-0.8,3.5-1.1,5.4c-0.2,1.3-0.3,2.6-0.4,3.9 M246.8,419.5c0,1.5,0,3,0,4.6
					c0,1.9-0.1,3.7-0.4,5.5 M245.4,361.2c0,1.3,0.4,2.5,1.1,3.5c0.3-0.6,0.4-1.2,0.3-1.8c0,1.5-0.1,3-0.1,4.6 M244.6,348.7
					c0.2,1.4,0.5,2.8,0.7,4.1c0.1,1.3,0.1,2.5,0.1,3.8 M242.9,334.9c0.1,1.3,0.2,2.7,0.3,4.2s0.3,2.8,0.5,4.2 M239.2,321.4
					c0.5,1.3,1,2.6,1.6,4.1c0.5,1.3,0.9,2.7,1.2,4.1 M235.1,308.2c0.4,1.2,0.8,2.4,1.1,3.6c0.3,1.5,0.7,2.9,1.1,4.2 M222,288.1
					c0.9,1,1.7,2,2.4,3.1s1.5,2,2.2,3 M213,278.6c1.1,0.9,2.2,1.8,3.1,2.9c0.9,1,1.8,1.9,2.6,2.9 M204.3,274.7
					c1.4-0.1,2.9,0.2,4.1,0.9"/>
				<path class="st34" d="M195.2,651c-0.1,1,4,2.9,5.1,3.9s2.4,2.6,3.6,3.1c1-1.4,2.1-2.7,3.3-3.9c1.3-1.4,2.9-2.3,4-3.8"/>
				<path class="st34" d="M189.7,476.7c2.6-1.4,6.2-3.6,7.3-6.5c0.6,1,2.8,1.3,4.1,1.9s4,1.9,4.5,2.9"/>
				<path class="st34" d="M196.7,313.7c0.2-11.1,4.6-20.4,8-31.1c2.3-7.4,5.1-11,8.5-17.6c5.4-10.3,9.8-21.9,14.3-32.6
					c8.3-19.6,16-38.5,22.9-58.7c2.2-6.3,3.6-14.2,6.3-20.3c1.6-3.7,4.2-6.4,5.9-9.8"/>
				<path class="st34" d="M190.3,306.8c-0.2,2,0.7,2.7,2.1,3.7c1.3,0.9,3,3.2,4.6,3.6c1.1-1.9,4.6-5.9,7-5.8"/>
				<path class="st34" d="M252.5,145.2c0.9,0.1,1.3-0.3,2.1-0.4c1.2-0.1,2.4-0.2,3.7-0.1c1.4,0,3.7-0.1,4.8-1
					c0.3,0.8-0.1,1.7,0.2,2.5c0.2,0.6,1.1,1.2,1.4,1.8c0.8,1.7,1.6,3.4,2.3,5.2"/>
				<path class="st34" d="M233.6,415c7.2,2.3,16.7,2.2,24.7,2.9c13.1,1.1,26.2-0.6,39-1.5c19.8-1.4,39.7-1.4,59.6-1.4"/>
				<path class="st34" d="M237.1,422.1c0-1-1.6-3-2.3-4.1c-0.8-1.4-1.4-2.8-1.9-4.3c1.8-0.4,2,0.1,3.1-1c0.5-0.5,0.6-1.6,1.2-2.1
					s1.5-0.5,2-1.3"/>
				<path class="st34" d="M353,422.7c0-2.1,0.2-2.3,1.5-3.9c0.9-1.1,1.7-2.2,2.4-3.4c1.2-2,0.6-2-1.1-2.9c-0.1-0.3-0.3-0.6-0.6-0.9
					c-0.4-0.1-1.4,0.1-1.6,0c-0.6-0.6-1.2-1.4-1.6-2.2"/>
				<path class="st34" d="M71.3,396.6c25.6,0,50.9,1.4,76.5,1.4"/>
				<path class="st35" d="M74.5,402.5c0.3-2.2-3.3-4.4-4.2-6.3c2.5,0,3-3.6,5.3-4.4"/>
				<path class="st34" d="M144.6,392.4c0.2,0.6,0.8,0.7,0.9,1.2c0.3,0.8,0.2,1.4,0.5,2.1c0.2,0.5,0.6,0.9,0.8,1.3
					c0.2,0.6,0.4,1.2,0.7,1.7c-0.3,0.5-1.1,0.8-1.4,1.2c-0.5,0.7-0.5,1.4-0.9,2.1c-0.6,1-1.9,1.4-2.3,2.6V404"/>
			</g>
		</g>
		<text transform="matrix(1 0 0 1 138.7 712.47)" class="st36 st37 st38">P</text>
		<text transform="matrix(1 0 0 1 153.62 712.47)" class="st36 st37 st38">l</text>
		<text transform="matrix(1 0 0 1 163.0601 712.47)" class="st36 st37 st38">a</text>
		<text transform="matrix(1 0 0 1 176.91 712.47)" class="st36 st37 st38">c</text>
		<text transform="matrix(1 0 0 1 189.63 712.47)" class="st36 st37 st38">e de </text>
		<text transform="matrix(1 0 0 1 252.96 712.47)" class="st36 st37 st38">l</text>
		<text transform="matrix(1 0 0 1 262.3999 712.47)" class="st36 st37 st38">a</text>
		<text transform="matrix(1 0 0 1 162.92 737.67)" class="st36 st37 st38">B</text>
		<text transform="matrix(1 0 0 1 176.9399 737.67)" class="st36 st37 st38">a</text>
		<text transform="matrix(1 0 0 1 191.67 737.67)" class="st36 st37 st38">s</text>
		<text transform="matrix(1 0 0 1 202.71 737.67)" class="st36 st37 st38">c</text>
		<text transform="matrix(1 0 0 1 215.92 737.67)" class="st36 st37 st38">u</text>
		<text transform="matrix(1 0 0 1 230.89 737.67)" class="st36 st37 st38 st39">l</text>
		<text transform="matrix(1 0 0 1 239.6 737.67)" class="st36 st37 st38">e</text>
		<text transform="matrix(1 0 0 1 227.64 94.23)" class="st36 st37 st38">j</text>
		<text transform="matrix(1 0 0 1 237.48 94.23)" class="st36 st37 st38 st39">a</text>
		<text transform="matrix(1 0 0 1 250.8701 94.23)" class="st36 st37 st38">r</text>
		<text transform="matrix(1 0 0 1 262.0601 94.23)" class="st36 st37 st38">d</text>
		<text transform="matrix(1 0 0 1 279.3101 94.23)" class="st36 st37 st38">in</text>
		<text transform="matrix(1 0 0 1 221.0601 119.43)" class="st36 st37 st38">p</text>
		<text transform="matrix(1 0 0 1 234.03 119.43)" class="st36 st37 st38 st39">a</text>
		<text transform="matrix(1 0 0 1 247.4399 119.43)" class="st36 st37 st38">r</text>
		<text transform="matrix(1 0 0 1 258.53 119.43)" class="st36 st37 st38">t</text>
		<text transform="matrix(1 0 0 1 267.9199 119.43)" class="st36 st37 st38 st39">a</text>
		<text transform="matrix(1 0 0 1 281.3301 119.43)" class="st36 st37 st38">gé</text>
		<text transform="matrix(1 0 0 1 159.03 377.31)" class="st36 st37 st38">C</text>
		<text transform="matrix(1 0 0 1 176.0601 377.31)" class="st36 st37 st38">o</text>
		<text transform="matrix(1 0 0 1 191.27 377.31)" class="st36 st37 st38">e</text>
		<text transform="matrix(1 0 0 1 204.29 377.31)" class="st36 st37 st38">u</text>
		<text transform="matrix(1 0 0 1 219.04 377.31)" class="st36 st37 st38">r</text>
		<text transform="matrix(1 0 0 1 162.1799 402.51)" class="st36 st37 st38">d’î</text>
		<text transform="matrix(1 0 0 1 194.04 402.51)" class="st36 st37 st38">l</text>
		<text transform="matrix(1 0 0 1 203.1 402.51)" class="st36 st37 st38">o</text>
		<text transform="matrix(1 0 0 1 217.4299 402.51)" class="st36 st37 st38">t</text>
		<text transform="matrix(1 0 0 1 171.4 427.71)" class="st36 st37 st38">v</text>
		<text transform="matrix(1 0 0 1 184.3199 427.71)" class="st36 st37 st38">e</text>
		<text transform="matrix(1 0 0 1 197.15 427.71)" class="st36 st37 st38">r</text>
		<text transform="matrix(1 0 0 1 208.23 427.71)" class="st36 st37 st38">t</text>
		<text transform="matrix(0.9448 0.3277 -0.3277 0.9448 71.8797 203.5001)" class="st36 st37 st40">&lt;</text>
		<text transform="matrix(0.9728 0.2316 -0.2316 0.9728 82.69 207.1301)" class="st36 st37 st40">-</text>
		<text transform="matrix(0.9924 0.1229 -0.1229 0.9924 105.0799 211.69)" class="st36 st37 st40">N</text>
		<text transform="matrix(0.998 6.296471e-02 -6.296471e-02 0.998 128.3299 214.21)" class="st36 st37 st40">O</text>
		<text transform="matrix(0.9998 2.181488e-02 -2.181488e-02 0.9998 151.42 215.43)" class="st36 st37 st40">U</text>
		<text transform="matrix(0.9999 -1.099535e-02 1.099535e-02 0.9999 172.49 215.7401)" class="st36 st37 st40">V</text>
		<text transform="matrix(0.9992 -3.996804e-02 3.996804e-02 0.9992 195.6299 215.3494)" class="st36 st37 st41">E</text>
		<text transform="matrix(0.9979 -6.540313e-02 6.540313e-02 0.9979 218.52 214.28)" class="st36 st37 st40">L</text>
		<text transform="matrix(0.996 -8.963770e-02 8.963770e-02 0.996 239.4696 212.78)" class="st36 st37 st42">L</text>
		<text transform="matrix(0.9927 -0.1203 0.1203 0.9927 260.4496 210.7904)" class="st36 st37 st43">E</text>
		<text transform="matrix(0.985 -0.1723 0.1723 0.985 301.81 205.26)" class="st36 st37 st40">R</text>
		<text transform="matrix(0.9778 -0.2095 0.2095 0.9778 325.4592 200.93)" class="st36 st37 st44">U</text>
		<text transform="matrix(0.9634 -0.2679 0.2679 0.9634 348.25 195.7401)" class="st36 st37 st40">E</text>
		<text transform="matrix(0.9326 -0.361 0.361 0.9326 372.0896 188.56)" class="st36 st37 st43">-</text>
		<text transform="matrix(0.8984 -0.4392 0.4392 0.8984 384.4501 183.6393)" class="st36 st37 st45">&gt;</text>
		<g>
			<defs>
				<rect id="SVGID_35_" y="0" width="425.2" height="850.4"/>
			</defs>
			<clipPath id="SVGID_36_">
				<use xlink:href="#SVGID_35_"  style="overflow:visible;"/>
			</clipPath>
			<g class="st46">
				<g class="st14">
					<g>
						<defs>
							<rect id="SVGID_37_" x="78.5" y="584.5" width="269.8" height="12.2"/>
						</defs>
						<clipPath id="SVGID_38_">
							<use xlink:href="#SVGID_37_"  style="overflow:visible;"/>
						</clipPath>
						<g class="st47">
							<path class="st19" d="M80.2,590.2H80c20.9,0.4,40.9-0.3,61.6,0c22,0.4,44.1,3.4,65.9,1.1c11.1-1.2,23.2,0.5,34.4,0.7
								c10.8,0.2,21.8,0.8,32.4-0.3s22,0.8,32.2-0.8c9.4-1.4,20.4,0.4,29.9,0.5l10.8,0.2"/>
						</g>
					</g>
				</g>
			</g>
		</g>
		<text transform="matrix(6.123234e-17 -1 1 6.123234e-17 54.5 651.9699)" class="st36 st37 st40">&lt;-</text>
		<text transform="matrix(6.123234e-17 -1 1 6.123234e-17 54.5 632.4396)" class="st36 st37 st40">  </text>
		<text transform="matrix(6.123234e-17 -1 1 6.123234e-17 54.5 613.6701)" class="st36 st37 st40">R</text>
		<text transform="matrix(6.123234e-17 -1 1 6.123234e-17 54.5 599.2199)" class="st36 st37 st40"> </text>
		<text transform="matrix(6.123234e-17 -1 1 6.123234e-17 54.5 589.84)" class="st36 st37 st40">U</text>
		<text transform="matrix(6.123234e-17 -1 1 6.123234e-17 54.5 576.5598)" class="st36 st37 st40"> E   D E   L</text>
		<text transform="matrix(6.123234e-17 -1 1 6.123234e-17 54.5 449.1798)" class="st36 st37 st40"> </text>
		<text transform="matrix(6.123234e-17 -1 1 6.123234e-17 54.5 441.0002)" class="st36 st37 st40">A   P E L </text>
		<text transform="matrix(6.123234e-17 -1 1 6.123234e-17 54.5 332.1896)" class="st36 st37 st40">O</text>
		<text transform="matrix(6.123234e-17 -1 1 6.123234e-17 54.5 318.6896)" class="st36 st37 st40"> </text>
		<text transform="matrix(6.123234e-17 -1 1 6.123234e-17 54.5 309.3097)" class="st36 st37 st40">U</text>
		<text transform="matrix(6.123234e-17 -1 1 6.123234e-17 54.5 296.0304)" class="st36 st37 st40"> S E  </text>
		<text transform="matrix(6.123234e-17 -1 1 6.123234e-17 54.5 235.3801)" class="st36 st37 st40">-&gt;</text>
		<text transform="matrix(6.123234e-17 -1 1 6.123234e-17 384.8701 665.4201)" class="st36 st37 st40">&lt;-</text>
		<text transform="matrix(6.123234e-17 -1 1 6.123234e-17 384.8701 645.8898)" class="st36 st37 st40 st48">  C </text>
		<text transform="matrix(6.123234e-17 -1 1 6.123234e-17 384.8701 590.1105)" class="st36 st37 st40 st48">H</text>
		<text transform="matrix(6.123234e-17 -1 1 6.123234e-17 384.8701 575.4103)" class="st36 st37 st40 st48"> E </text>
		<text transform="matrix(6.123234e-17 -1 1 6.123234e-17 384.8701 533.4601)" class="st36 st37 st40 st48">M</text>
		<text transform="matrix(6.123234e-17 -1 1 6.123234e-17 384.8701 514.7297)" class="st36 st37 st40 st48"> </text>
		<text transform="matrix(6.123234e-17 -1 1 6.123234e-17 384.8701 502.1896)" class="st36 st37 st40 st48">I</text>
		<text transform="matrix(6.123234e-17 -1 1 6.123234e-17 384.8701 487.8703)" class="st36 st37 st40 st48"> N   P </text>
		<text transform="matrix(6.123234e-17 -1 1 6.123234e-17 384.8701 392.4699)" class="st36 st37 st40 st48">I</text>
		<text transform="matrix(6.123234e-17 -1 1 6.123234e-17 384.8701 378.1496)" class="st36 st37 st40 st48"> É</text>
		<text transform="matrix(6.123234e-17 -1 1 6.123234e-17 384.8701 348.3498)" class="st36 st37 st40 st49"> </text>
		<text transform="matrix(6.123234e-17 -1 1 6.123234e-17 384.8701 337.3205)" class="st36 st37 st40 st48">T</text>
		<text transform="matrix(6.123234e-17 -1 1 6.123234e-17 384.8701 319.9103)" class="st36 st37 st40 st48"> </text>
		<text transform="matrix(6.123234e-17 -1 1 6.123234e-17 384.8701 307.38)" class="st36 st37 st40 st48">O</text>
		<text transform="matrix(6.123234e-17 -1 1 6.123234e-17 384.8701 290.7296)" class="st36 st37 st40 st48"> N  </text>
		<text transform="matrix(6.123234e-17 -1 1 6.123234e-17 384.8701 236.7697)" class="st36 st37 st40">-&gt;</text>
		<g>
			<defs>
				<rect id="SVGID_39_" y="0" width="425.2" height="850.4"/>
			</defs>
			<clipPath id="SVGID_40_">
				<use xlink:href="#SVGID_39_"  style="overflow:visible;"/>
			</clipPath>
			<g class="st50">
				<g class="st14">
					<g>
						<defs>
							<rect id="SVGID_41_" x="255.2" y="282.1" width="78.8" height="211.1"/>
						</defs>
						<clipPath id="SVGID_42_">
							<use xlink:href="#SVGID_41_"  style="overflow:visible;"/>
						</clipPath>
						<g class="st51">
							<path class="st16" d="M271.9,487.8c0.1-1.4,0.1-2.7-0.1-4.1c-0.2-0.5-0.4-0.9-0.6-1.4c-0.1-0.7,0-1.3,0.1-2
								c-0.9,0.8-4.1,0.7-5.3,0.5c-1-0.3-2-0.6-3.1-0.7c-1-0.1-1.9-0.2-2.9-0.3c-0.7,0.1-1.4,0.1-2.1,0c-1.1-0.7-0.7-2-0.7-3.2
								c0-2.4,0-4.7,0-7v-7.8c0-2.5,0.4-5.3-0.2-7.6c-0.4-2.1-0.6-4.3-0.5-6.5c-0.1-1-0.1-2.1,0-3.1c0.1-1.1,0.7-2,0.9-3.1
								c1.3,1,4.3,0.9,6,0.5c0.8-0.4,1.7-0.7,2.6-0.9c1.3,0,2.7-0.1,4-0.3c3.1-0.9,2-4.3,2-7.1v-38.4c0-1.4,0-2.9,0-4.3
								c0-2.4-0.3-2.2-2.6-2.2s-4.9,0.2-7.3,0c-1-0.1-2.1-0.2-3.1-0.4c-1.8-0.3-1.7-0.7-1.7-2.5c-0.1-2.3,0-4.6,0-7
								c0-1.9-0.5-3.4-0.7-5.2c-0.4-3.8,0-7.9,0-11.8c0-2.6,0-5.2,0-7.7c0-1.1-0.4-2.3,0.7-2.8c0.3-0.2,1.4,0.1,1.8,0
								c0.8-0.1,1.7-0.3,2.5-0.5c2.2-0.5,4.5-0.8,6.8-1.3c0.7-0.1,3.1,0.1,3.6-0.4c0.8-0.8,0.1-5.4,0.1-6.4v-6.7
								c0-0.7,0.4-3-0.1-3.5s-2.6-0.1-3.3-0.1c-3.7,0-7.5,0.1-11.2,0c-0.6-1.2-0.1-3.8-0.1-5.1c0-1.9,0-3.9,0-5.8
								c0-3.6-0.7-7.1-0.7-10.7c0-5.2-0.2-10.4,0-15.6c0-1.1-0.4-1.4,0.7-1.8c0.3,0,0.6,0.1,0.9,0.3c1.3,0,2.6,0.2,3.9,0.1
								c2.1-0.2,4.2-0.5,6.4-0.9c0.4-0.1,1.9-0.4,2.3-0.5c1.6-0.6,1.4-1.3,1.4-2.9c0-2-0.4-4.4,0.1-6.2c4.1-0.8,9.2-0.1,13.5-0.1
								h36.2c3,0,6.9-0.6,9.9,0.1c0.2,0.9,0.2,1.8,0.1,2.7c0.2,1.4,0.4,2.8,0.9,4.1c0.5,2.8,0.7,5.6,0.6,8.4c0,5.3,0,10.6,0,15.9
								V443c0,3.7,0,7.5,0,11.2c0,2.8-0.1,5.6-0.3,8.4c-0.1,1.6-0.1,3.2,0,4.8c0,0.8-0.3,1.6-0.9,2.3c-1,4.1-0.2,9.1-0.2,13.4
								c0.1,1.6,0.1,3.2,0,4.8c-0.2,1,0.3,0.9-0.6,1.5s-3.8-0.2-5,0.1c-4.1,0.8-7.2,2-11.4,2c-5.1,0-10.1,1.2-15.3,0.7
								c-1.7-0.1-3.3-0.7-5-0.7c-2,0-4,0-6,0s-3.8,0-5.7,0c-2.2,0-4.1-0.6-6.2-0.7c-1.3,0-2.8,0.3-4-0.4h0.6"/>
						</g>
					</g>
				</g>
			</g>
		</g>
		<text transform="matrix(1 0 0 1 284.8201 331.19)" class="st36 st37 st40">H</text>
		<text transform="matrix(1 0 0 1 283.72 349.19)" class="st36 st37 st40">A</text>
		<text transform="matrix(1 0 0 1 284.3701 367.19)" class="st36 st37 st40">B</text>
		<text transform="matrix(1 0 0 1 285.02 385.19)" class="st36 st37 st40">I</text>
		<text transform="matrix(1 0 0 1 283.47 403.19)" class="st36 st37 st40">T</text>
		<text transform="matrix(1 0 0 1 283.72 421.19)" class="st36 st37 st40">A</text>
		<text transform="matrix(1 0 0 1 283.47 439.19)" class="st36 st37 st40">T</text>
		<text transform="matrix(1 0 0 1 307.98 295.19)" class="st36 st37 st40">P</text>
		<text transform="matrix(1 0 0 1 307.73 313.19)" class="st36 st37 st40">A</text>
		<text transform="matrix(1 0 0 1 307.3901 331.19)" class="st36 st37 st40">R</text>
		<text transform="matrix(1 0 0 1 307.5 349.19)" class="st36 st37 st40">T</text>
		<text transform="matrix(1 0 0 1 309.05 367.19)" class="st36 st37 st40">I</text>
		<text transform="matrix(1 0 0 1 307.1001 385.19)" class="st36 st37 st40">C</text>
		<text transform="matrix(1 0 0 1 309.05 403.19)" class="st36 st37 st40">I</text>
		<text transform="matrix(1 0 0 1 308.02 421.19)" class="st36 st37 st40">P</text>
		<text transform="matrix(1 0 0 1 307.77 439.19)" class="st36 st37 st40">A</text>
		<text transform="matrix(1 0 0 1 307.52 457.19)" class="st36 st37 st40">T</text>
		<text transform="matrix(1 0 0 1 309.0601 475.19)" class="st36 st37 st40">I</text>
		<text transform="matrix(1 0 0 1 307.71 493.19)" class="st36 st37 st40">F</text>
		<text transform="matrix(-0.3535 -0.9354 0.9354 -0.3535 132.66 476.6202)" class="st36 st37 st40">M</text>
		<text transform="matrix(-0.2614 -0.9652 0.9652 -0.2614 126.7503 460.7503)" class="st36 st37 st52">A</text>
		<text transform="matrix(-0.1843 -0.9829 0.9829 -0.1843 122.83 446.1505)" class="st36 st37 st40">I</text>
		<text transform="matrix(-0.134 -0.991 0.991 -0.134 120.52 433.8497)" class="st36 st37 st40">S</text>
		<text transform="matrix(-7.358634e-02 -0.9973 0.9973 -7.358634e-02 118.98 423.2001)" class="st36 st37 st40">O</text>
		<text transform="matrix(-9.999500e-03 -0.9999 0.9999 -9.999500e-03 117.8092 408.3896)" class="st36 st37 st53">N</text>
		<text transform="matrix(3.193413e-02 -0.9995 0.9995 3.193413e-02 117.5901 393.8005)" class="st36 st37 st40">S</text>
		<text transform="matrix(0.1257 -0.9921 0.9921 0.1257 118.56 372.3197)" class="st36 st37 st40">E</text>
		<text transform="matrix(0.1903 -0.9817 0.9817 0.1903 120.4101 357.3203)" class="st36 st37 st54">N</text>
		<text transform="matrix(0.3011 -0.9536 0.9536 0.3011 125.7096 332.539)" class="st36 st37 st55">B</text>
		<text transform="matrix(0.3903 -0.9207 0.9207 0.3903 129.8603 319.3401)" class="st36 st37 st56">A</text>
		<text transform="matrix(0.5008 -0.8656 0.8656 0.5008 135.6902 305.3698)" class="st36 st37 st40">N</text>
		<text transform="matrix(0.6554 -0.7553 0.7553 0.6554 143.2999 291.98)" class="st36 st37 st40">D</text>
		<text transform="matrix(0.8318 -0.5551 0.5551 0.8318 152.65 280.9102)" class="st36 st37 st40">E</text>
		<g>
			<defs>
				<rect id="SVGID_43_" y="0" width="425.2" height="850.4"/>
			</defs>
			<clipPath id="SVGID_44_">
				<use xlink:href="#SVGID_43_"  style="overflow:visible;"/>
			</clipPath>
			<g class="st57">
				<path class="st34" d="M198,471l4.9,112c1.1,25.3,0.1,49.8,1.1,75.1"/>
				<g class="st14">
					<g>
						<defs>
							<rect id="SVGID_45_" x="108.9" y="527.4" width="212.2" height="62.9"/>
						</defs>
						<clipPath id="SVGID_46_">
							<use xlink:href="#SVGID_45_"  style="overflow:visible;"/>
						</clipPath>
						<g class="st58">
							<rect x="109.9" y="528.4" class="st16" width="210.2" height="60.9"/>
						</g>
					</g>
				</g>
			</g>
		</g>
		<text transform="matrix(1 0 0 1 126.86 553.2101)" class="st36 st37 st40">L</text>
		<text transform="matrix(1 0 0 1 138.26 553.2101)" class="st36 st37 st40">og</text>
		<text transform="matrix(1 0 0 1 164 553.2101)" class="st36 st37 st40">e</text>
		<text transform="matrix(1 0 0 1 175.15 553.2101)" class="st36 st37 st40">m</text>
		<text transform="matrix(1 0 0 1 193.8101 553.2101)" class="st36 st37 st40">e</text>
		<text transform="matrix(1 0 0 1 205.16 553.2101)" class="st36 st37 st40">n</text>
		<text transform="matrix(1 0 0 1 217.7 553.2101)" class="st36 st37 st40">t </text>
		<text transform="matrix(1 0 0 1 234.87 553.2101)" class="st36 st37 st40">l</text>
		<text transform="matrix(1 0 0 1 242.6299 553.2101)" class="st36 st37 st40">o</text>
		<text transform="matrix(1 0 0 1 255.8501 553.2101)" class="st36 st37 st40">c</text>
		<text transform="matrix(1 0 0 1 266.5 553.2101)" class="st36 st37 st40 st39">a</text>
		<text transform="matrix(1 0 0 1 277.6899 553.2101)" class="st36 st37 st40">t</text>
		<text transform="matrix(1 0 0 1 285.99 553.2101)" class="st36 st37 st40">i</text>
		<text transform="matrix(1 0 0 1 292.25 553.2101)" class="st36 st37 st40">f</text>
		<text transform="matrix(1 0 0 1 88.8199 574.8101)" class="st36 st37 st40 st39">a</text>
		<text transform="matrix(1 0 0 1 99.9301 574.8101)" class="st36 st37 st40">v</text>
		<text transform="matrix(1 0 0 1 111.01 574.8101)" class="st36 st37 st40">e</text>
		<text transform="matrix(1 0 0 1 122.45 574.8101)" class="st36 st37 st40">c </text>
		<text transform="matrix(1 0 0 1 142.72 574.8101)" class="st36 st37 st40">c</text>
		<text transform="matrix(1 0 0 1 153.5 574.8101)" class="st36 st37 st40">om</text>
		<text transform="matrix(1 0 0 1 185.72 574.8101)" class="st36 st37 st40">m</text>
		<text transform="matrix(1 0 0 1 204.37 574.8101)" class="st36 st37 st40">e</text>
		<text transform="matrix(1 0 0 1 215.37 574.8101)" class="st36 st37 st40">r</text>
		<text transform="matrix(1 0 0 1 224.64 574.8101)" class="st36 st37 st40">c</text>
		<text transform="matrix(1 0 0 1 235.54 574.8101)" class="st36 st37 st40">e</text>
		<text transform="matrix(1 0 0 1 247.1201 574.8101)" class="st36 st37 st40">s </text>
		<text transform="matrix(1 0 0 1 265.1599 574.8101)" class="st36 st37 st40">e</text>
		<text transform="matrix(1 0 0 1 276.51 574.8101)" class="st36 st37 st40">n RDC</text>
	</g>
</g>
</svg>
