<svg height="480pt" viewBox="0 0 480 480" width="480pt" xmlns="http://www.w3.org/2000/svg"><path d="m240 0c-132.546875 0-240 107.453125-240 240s107.453125 240 240 240 240-107.453125 240-240c-.148438-132.484375-107.515625-239.851562-240-240zm0 464c-123.710938 0-224-100.289062-224-224s100.289062-224 224-224 224 100.289062 224 224c-.140625 123.652344-100.347656 223.859375-224 224zm0 0"/><path d="m320 208h-56v-88c0-3.527344-2.304688-6.636719-5.679688-7.65625-3.375-1.023438-7.019531.28125-8.976562 3.214844l-96 144c-1.636719 2.457031-1.789062 5.613281-.398438 8.214844 1.390626 2.601562 4.105469 4.226562 7.054688 4.226562h56v88c0 3.527344 2.304688 6.636719 5.679688 7.65625 3.375 1.023438 7.019531-.28125 8.976562-3.214844l96-144c1.636719-2.457031 1.789062-5.613281.398438-8.214844-1.390626-2.601562-4.105469-4.226562-7.054688-4.226562zm-88 125.601562v-69.601562c0-4.417969-3.582031-8-8-8h-49.046875l73.046875-109.601562v69.601562c0 4.417969 3.582031 8 8 8h49.046875zm0 0"/></svg>