<svg height="480pt" viewBox="0 0 480 480" width="480pt" xmlns="http://www.w3.org/2000/svg"><path d="m240 0c-132.546875 0-240 107.453125-240 240s107.453125 240 240 240 240-107.453125 240-240c-.148438-132.484375-107.515625-239.851562-240-240zm0 464c-123.710938 0-224-100.289062-224-224s100.289062-224 224-224 224 100.289062 224 224c-.140625 123.652344-100.347656 223.859375-224 224zm0 0"/><path d="m330.871094 265.855469-82.871094 69.066406v-206.921875c0-4.417969-3.582031-8-8-8s-8 3.582031-8 8v206.921875l-82.871094-69.066406c-3.394531-2.832031-8.441406-2.375-11.273437 1.015625-2.832031 3.394531-2.375 8.441406 1.015625 11.273437l96 80c.390625.269531.808594.507813 1.242187.703125.210938.164063.433594.3125.664063.449219.101562.046875.214844.078125.328125.117187.917969.378907 1.902343.574219 2.894531.585938.992188-.011719 1.96875-.210938 2.886719-.585938.113281-.046874.226562-.070312.328125-.117187.230468-.136719.453125-.285156.664062-.449219.433594-.195312.851563-.433594 1.242188-.703125l96-80c3.390625-2.832031 3.847656-7.878906 1.015625-11.273437-2.832031-3.390625-7.878907-3.847656-11.273438-1.015625zm0 0"/></svg>