<svg height="480pt" viewBox="0 0 480 480" width="480pt" xmlns="http://www.w3.org/2000/svg"><path d="m240 0c-132.546875 0-240 107.453125-240 240s107.453125 240 240 240 240-107.453125 240-240c-.148438-132.484375-107.515625-239.851562-240-240zm0 464c-123.710938 0-224-100.289062-224-224s100.289062-224 224-224 224 100.289062 224 224c-.140625 123.652344-100.347656 223.859375-224 224zm0 0"/><path d="m128.734375 224.800781c.542969.109375 1.097656.167969 1.648437.167969 3.78125-.007812 7.042969-2.660156 7.816407-6.359375 1.003906-4.742187 2.339843-9.402344 4-13.953125 1.011719-2.695312.496093-5.726562-1.347657-7.9375s-4.734374-3.257812-7.566406-2.746094c-2.835937.515625-5.171875 2.511719-6.125 5.226563-1.902344 5.261719-3.4375 10.652343-4.585937 16.128906-.90625 4.316406 1.847656 8.550781 6.160156 9.472656zm0 0"/><path d="m149.214844 182.398438c2.570312.003906 4.980468-1.222657 6.488281-3.300782 2.847656-3.925781 5.957031-7.648437 9.3125-11.144531 3.058594-3.1875 2.957031-8.253906-.230469-11.3125s-8.253906-2.957031-11.3125.230469c-3.867187 4.011718-7.449218 8.289062-10.71875 12.800781-1.765625 2.433594-2.019531 5.648437-.65625 8.324219 1.363282 2.679687 4.113282 4.367187 7.117188 4.371094zm0 0"/><path d="m183.742188 151.144531c1.40625-.003906 2.789062-.378906 4-1.089843 4.167968-2.441407 8.507812-4.582032 12.984374-6.398438 4.097657-1.664062 6.066407-6.335938 4.402344-10.433594-1.667968-4.09375-6.335937-6.0625-10.433594-4.398437-5.167968 2.109375-10.1875 4.578125-15.015624 7.382812-3.125 1.816407-4.648438 5.5-3.710938 8.992188.933594 3.492187 4.097656 5.921875 7.710938 5.929687zm0 0"/><path d="m355.304688 207.089844c-.046876-.210938 0-.410156-.058594-.617188-.140625-.511718-.34375-1.015625-.492188-1.527344-.152344-.511718-.386718-1.144531-.570312-1.722656-.96875-2.992187-2.054688-5.949218-3.253906-8.878906-.21875-.527344-.425782-1.0625-.648438-1.601562-.289062-.664063-.519531-1.34375-.800781-2-.140625-.21875-.292969-.429688-.457031-.628907-4.46875-9.796875-10.234376-18.945312-17.144532-27.203125-.09375-.125-.117187-.285156-.222656-.414062-3.605469-4.25-7.5-8.246094-11.65625-11.960938-.257812-.167968-.523438-.324218-.800781-.464844-7.9375-6.996093-16.765625-12.914062-26.253907-17.597656-.214843-.191406-.441406-.363281-.679687-.519531-1.539063-.746094-3.121094-1.394531-4.699219-2.074219-.453125-.199218-.902344-.414062-1.367187-.605468-3.128907-1.304688-6.277344-2.519532-9.488281-3.546876-.085938 0-.167969 0-.253907 0-10.34375-3.257812-21.082031-5.097656-31.921875-5.460937-.246094 0-.457031-.160156-.703125-.167969-.800781 0-1.65625 0-2.472656 0-.457031 0-.894531-.074218-1.351563-.074218-.128906 0-.230468.066406-.359374.074218-4.183594-.011718-8.367188.191406-12.527344.613282-4.210938.460937-7.332032 4.125-7.117188 8.355468.210938 4.226563 3.679688 7.558594 7.917969 7.597656.285156 0 .570313-.015624.855469-.046874 4.085937-.414063 8.195312-.59375 12.300781-.539063 13.410156.109375 26.664063 2.828125 39.035156 8l.871094.386719c11.15625 4.832031 21.382813 11.574218 30.214844 19.925781 2.160156 2.035156 4.207031 4.160156 6.175781 6.402344 7.574219 8.390625 13.730469 17.957031 18.226562 28.328125.175782.398437.328126.800781.496094 1.207031 1.066406 2.554687 2.019532 5.160156 2.863282 7.816406.160156.496094.335937.992188.488281 1.488281 3.015625 9.839844 4.550781 20.074219 4.550781 30.367188 0 3.199219-.199219 6.351562-.480469 9.472656-.070312.800782-.160156 1.597656-.246093 2.398438-3.058594 26.621094-16.289063 51.03125-36.921876 68.128906l-.421874.359375c-10.265626 8.445313-22.054688 14.839844-34.730469 18.839844-.359375.113281-.734375.207031-1.09375.3125-2.632813.800781-5.3125 1.480469-8 2.074219l-1.984375.421874c-55.527344 11.007813-109.628906-24.515624-121.601563-79.839843l17.90625 9.03125c3.953125 1.976562 8.757813.371093 10.734375-3.582031 1.976563-3.957032.371094-8.761719-3.585937-10.738282l-32-16c-1.085938-.53125-2.28125-.804687-3.496094-.800781-.113281-.035156-.230469-.0625-.351563-.078125-.230468.050781-.460937.117188-.6875.191406-.828124.085938-1.640624.304688-2.398437.648438-1.636719.71875-2.980469 1.96875-3.808594 3.550781l-16 32c-1.976562 3.957031-.371093 8.761719 3.582031 10.738281 3.957032 1.972656 8.761719.371094 10.738282-3.585937l5.464844-10.925781c2.269531 8.039062 5.390624 15.816406 9.3125 23.199218.054687.222656.121093.441406.199218.65625 2.628906 4.929688 5.601563 9.664063 8.894532 14.175782.199218.273437.511718.382812.738281.625 6.21875 8.3125 13.476562 15.796874 21.597656 22.261718.273437.386719.582031.746094.921875 1.074219 4.390625 3.453125 9.019531 6.589844 13.855469 9.390625.59375.347656 1.230469.617188 1.894531.800781 8.933594 4.976563 18.46875 8.792969 28.367188 11.351563.234374.128906.476562.242187.722656.34375 5.425781 1.339844 10.9375 2.300781 16.496094 2.871094h.796874c3.832032.386718 7.707032.601562 11.625.601562 6.519532-.042969 13.023438-.621094 19.449219-1.722656h.097657c.46875.003906.9375-.039063 1.398437-.125.695313-.121094 1.375-.304688 2.070313-.441406.890624-.167969 1.761718-.367188 2.640624-.558594 3.03125-.65625 6.019532-1.429688 8.96875-2.3125.464844-.136719.9375-.25 1.390626-.394532.457031-.140624.800781-.214843 1.167968-.335937.183594-.0625.304688-.199219.472656-.269531 10.324219-3.398438 20.136719-8.191406 29.167969-14.242188.113281-.070312.234375-.085937.34375-.160156 3.066407-2.070312 6.007813-4.351562 8.890625-6.710938.183594-.152343.359375-.3125.550782-.464843 1.246093-1.039063 2.519531-2.046875 3.71875-3.125.214843-.253907.410156-.519531.585937-.800781 7.695313-7.035157 14.445313-15.039063 20.085937-23.808594.292969-.308594.558594-.636719.800782-.984375 2.957031-4.734375 5.582031-9.667969 7.855468-14.769531.082032-.175782.058594-.359376.121094-.535157 4.308594-9.8125 7.269532-20.167969 8.800782-30.773437.101562-.261719.191406-.53125.261718-.800782.136719-.96875.199219-1.953124.3125-2.929687.113282-.976563.207032-1.917969.296875-2.878906.328125-3.617188.550781-7.25.550781-10.878907v-.464843c0-.046875 0-.097657 0-.152344-.101562-10.914063-1.691406-21.761719-4.734374-32.238281zm0 0"/><path d="m240 168c-4.417969 0-8 3.582031-8 8v64c0 2.121094.84375 4.15625 2.34375 5.65625l32 32c3.140625 3.03125 8.128906 2.988281 11.214844-.097656 3.085937-3.085938 3.128906-8.074219.097656-11.214844l-29.65625-29.65625v-60.6875c0-4.417969-3.582031-8-8-8zm0 0"/></svg>