<svg height="480pt" viewBox="0 0 480 480" width="480pt" xmlns="http://www.w3.org/2000/svg"><path d="m240 0c-132.546875 0-240 107.453125-240 240s107.453125 240 240 240 240-107.453125 240-240c-.148438-132.484375-107.515625-239.851562-240-240zm0 464c-123.710938 0-224-100.289062-224-224s100.289062-224 224-224 224 100.289062 224 224c-.140625 123.652344-100.347656 223.859375-224 224zm0 0"/><path d="m367.878906 239.40625c-.007812-.308594-.03125-.617188-.070312-.925781-.082032-.3125-.183594-.621094-.304688-.921875-.121094-.394532-.273437-.78125-.457031-1.152344-.128906-.273438-.273437-.539062-.429687-.796875-.074219-.097656-.082032-.21875-.144532-.3125l-64-88c-2.597656-3.574219-7.601562-4.367187-11.175781-1.769531s-4.367187 7.601562-1.769531 11.175781l54.761718 75.296875h-208.578124l54.761718-75.296875c2.597656-3.574219 1.804688-8.578125-1.769531-11.175781s-8.578125-1.804688-11.175781 1.769531l-64 88c-.0625.09375-.070313.214844-.144532.3125-.15625.257813-.300781.523437-.429687.796875-.1875.371094-.339844.757812-.457031 1.152344-.121094.300781-.222656.609375-.304688.921875-.039062.308593-.0625.617187-.070312.925781 0 .210938-.121094.386719-.121094.59375s.105469.382812.121094.59375c.007812.308594.03125.617188.070312.925781.082032.3125.183594.621094.304688.921875.117187.394532.269531.78125.457031 1.152344.128906.273438.273437.539062.429687.796875.074219.097656.082032.21875.144532.3125l64 88c2.597656 3.574219 7.601562 4.367187 11.175781 1.769531s4.367187-7.601562 1.769531-11.175781l-54.761718-75.296875h208.578124l-54.761718 75.296875c-2.597656 3.574219-1.804688 8.578125 1.769531 11.175781s8.578125 1.804688 11.175781-1.769531l64-88c.0625-.09375.070313-.214844.144532-.3125.15625-.257813.300781-.523437.429687-.796875.183594-.371094.335937-.757812.457031-1.152344.121094-.300781.222656-.609375.304688-.921875.039062-.308593.0625-.617187.070312-.925781 0-.203125.121094-.386719.121094-.59375s-.105469-.390625-.121094-.59375zm0 0"/></svg>