<svg height="480pt" viewBox="0 0 480 480" width="480pt" xmlns="http://www.w3.org/2000/svg"><path d="m240 0c-132.546875 0-240 107.453125-240 240s107.453125 240 240 240 240-107.453125 240-240c-.148438-132.484375-107.515625-239.851562-240-240zm0 464c-123.710938 0-224-100.289062-224-224s100.289062-224 224-224 224 100.289062 224 224c-.140625 123.652344-100.347656 223.859375-224 224zm0 0"/><path d="m240 192c-11.675781-.023438-21.664062 8.378906-23.644531 19.886719-1.976563 11.507812 4.632812 22.761719 15.644531 26.640625v105.472656c0 4.417969 3.582031 8 8 8s8-3.582031 8-8v-105.472656c11.011719-3.878906 17.621094-15.132813 15.644531-26.640625-1.980469-11.507813-11.96875-19.910157-23.644531-19.886719zm0 0"/><path d="m281.9375 170.742188c-3.125 3.125-3.125 8.191406 0 11.3125 18.746094 18.746093 18.746094 49.144531 0 67.890624-2.082031 2.007813-2.914062 4.980469-2.183594 7.777344.734375 2.796875 2.917969 4.984375 5.714844 5.714844s5.769531-.101562 7.777344-2.179688c24.996094-24.996093 24.996094-65.519531 0-90.515624-3.121094-3.121094-8.1875-3.121094-11.308594 0zm0 0"/><path d="m315.878906 136.800781c-3.121094 3.125-3.121094 8.1875 0 11.3125 37.488282 37.488281 37.488282 98.269531 0 135.757813-3.128906 3.125-3.128906 8.195312-.003906 11.324218 3.125 3.128907 8.195312 3.128907 11.324219.003907 43.746093-43.738281 43.746093-114.660157 0-158.398438-1.5-1.503906-3.535157-2.347656-5.660157-2.347656-2.121093 0-4.160156.84375-5.660156 2.347656zm0 0"/><path d="m197.65625 170.742188c-3.125-3.121094-8.1875-3.121094-11.3125 0-24.996094 24.996093-24.996094 65.519531 0 90.515624 2.007812 2.078126 4.984375 2.910157 7.78125 2.179688s4.980469-2.917969 5.710938-5.714844c.734374-2.796875-.101563-5.769531-2.179688-7.777344-18.75-18.746093-18.75-49.144531 0-67.890624 3.121094-3.121094 3.121094-8.1875 0-11.3125zm0 0"/><path d="m163.71875 136.800781c-3.121094-3.125-8.1875-3.125-11.3125 0-43.742188 43.738281-43.742188 114.660157 0 158.398438 3.140625 3.03125 8.128906 2.988281 11.214844-.097657 3.085937-3.085937 3.128906-8.074218.097656-11.214843-37.484375-37.488281-37.484375-98.269531 0-135.757813 1.507812-1.5 2.351562-3.539062 2.351562-5.664062s-.84375-4.164063-2.351562-5.664063zm0 0"/></svg>