<svg height="480pt" viewBox="0 0 480 480" width="480pt" xmlns="http://www.w3.org/2000/svg"><path d="m240 0c-132.546875 0-240 107.453125-240 240s107.453125 240 240 240 240-107.453125 240-240c-.148438-132.484375-107.515625-239.851562-240-240zm0 464c-123.710938 0-224-100.289062-224-224s100.289062-224 224-224 224 100.289062 224 224c-.140625 123.652344-100.347656 223.859375-224 224zm0 0"/><path d="m240 288c22.082031-.027344 39.972656-17.917969 40-40v-96c0-22.089844-17.910156-40-40-40s-40 17.910156-40 40v96c.027344 22.082031 17.917969 39.972656 40 40zm-24-136c0-13.253906 10.746094-24 24-24s24 10.746094 24 24v96c0 13.253906-10.746094 24-24 24s-24-10.746094-24-24zm0 0"/><path d="m320 224c-4.417969 0-8 3.582031-8 8v16c0 39.765625-32.234375 72-72 72s-72-32.234375-72-72v-16c0-4.417969-3.582031-8-8-8s-8 3.582031-8 8v16c.058594 45.46875 34.722656 83.421875 80 87.59375v32.40625h-24c-4.417969 0-8 3.582031-8 8s3.582031 8 8 8h64c4.417969 0 8-3.582031 8-8s-3.582031-8-8-8h-24v-32.40625c45.277344-4.171875 79.941406-42.125 80-87.59375v-16c0-4.417969-3.582031-8-8-8zm0 0"/></svg>