<svg height="480pt" viewBox="0 0 480 480" width="480pt" xmlns="http://www.w3.org/2000/svg"><path d="m240 0c-132.546875 0-240 107.453125-240 240s107.453125 240 240 240 240-107.453125 240-240c-.148438-132.484375-107.515625-239.851562-240-240zm0 464c-123.710938 0-224-100.289062-224-224s100.289062-224 224-224 224 100.289062 224 224c-.140625 123.652344-100.347656 223.859375-224 224zm0 0"/><path d="m356.71875 206.855469c.550781-2.050781.261719-4.234375-.796875-6.070313l-24-41.601562c-2.210937-3.824219-7.105469-5.136719-10.929687-2.925782l-26.082032 15.054688c-6.910156-5.582031-14.636718-10.066406-22.910156-13.304688v-30.007812c0-4.417969-3.582031-8-8-8h-48c-4.417969 0-8 3.582031-8 8v30.007812c-8.277344 3.246094-16.007812 7.742188-22.921875 13.335938l-26.078125-15.054688c-3.828125-2.210937-8.71875-.898437-10.929688 2.925782l-24 41.601562c-2.207031 3.824219-.894531 8.71875 2.929688 10.925782l26.03125 15.035156c-1.375 8.78125-1.375 17.726562 0 26.511718l-26.03125 15.03125c-3.824219 2.207032-5.136719 7.101563-2.929688 10.925782l24 41.601562c2.210938 3.828125 7.101563 5.136719 10.929688 2.929688l26.078125-15.050782c6.921875 5.566407 14.652344 10.039063 22.921875 13.265626v30.007812c0 4.417969 3.582031 8 8 8h48c4.417969 0 8-3.582031 8-8v-30.007812c8.273438-3.246094 16.003906-7.742188 22.921875-13.328126l26.078125 15.046876c3.828125 2.210937 8.71875.898437 10.929688-2.925782l24-41.601562c2.207031-3.824219.894531-8.71875-2.929688-10.925782l-26.03125-15.035156c1.375-8.78125 1.375-17.726562 0-26.511718l26.03125-15.03125c1.828125-1.054688 3.164062-2.789063 3.71875-4.824219zm-42.664062 8.855469c-3.023438 1.75-4.566407 5.253906-3.808594 8.664062 2.335937 10.285156 2.335937 20.964844 0 31.25-.757813 3.410156.785156 6.914062 3.808594 8.664062l24 13.855469-16 27.710938-24.046876-13.855469c-3.023437-1.746094-6.832031-1.328125-9.40625 1.03125-7.730468 7.15625-16.953124 12.503906-27 15.664062-3.335937 1.050782-5.601562 4.140626-5.601562 7.632813v27.671875h-32v-27.671875c0-3.492187-2.265625-6.582031-5.601562-7.632813-10.050782-3.167968-19.269532-8.53125-27-15.695312-2.574219-2.359375-6.382813-2.777344-9.40625-1.03125l-24.054688 13.886719-16-27.710938 24-13.855469c3.023438-1.75 4.566406-5.253906 3.804688-8.664062-2.335938-10.285156-2.335938-20.964844 0-31.25.761718-3.410156-.78125-6.914062-3.804688-8.664062l-24-13.855469 16-27.710938 24.054688 13.855469c3.023437 1.746094 6.832031 1.328125 9.40625-1.03125 7.734374-7.152344 16.957031-12.5 27-15.664062 3.335937-1.050782 5.601562-4.140626 5.601562-7.632813v-27.671875h32v27.671875c0 3.492187 2.265625 6.582031 5.601562 7.632813 10.046876 3.171874 19.269532 8.535156 27 15.695312 2.574219 2.359375 6.382813 2.777344 9.40625 1.03125l24.054688-13.886719 16 27.710938zm0 0"/><path d="m240 200c-22.089844 0-40 17.910156-40 40s17.910156 40 40 40 40-17.910156 40-40c-.027344-22.082031-17.917969-39.972656-40-40zm0 64c-13.253906 0-24-10.746094-24-24s10.746094-24 24-24 24 10.746094 24 24-10.746094 24-24 24zm0 0"/></svg>