<svg height="480pt" viewBox="0 0 480 480" width="480pt" xmlns="http://www.w3.org/2000/svg"><path d="m240 0c-132.546875 0-240 107.453125-240 240s107.453125 240 240 240 240-107.453125 240-240c-.148438-132.484375-107.515625-239.851562-240-240zm0 464c-123.710938 0-224-100.289062-224-224s100.289062-224 224-224 224 100.289062 224 224c-.140625 123.652344-100.347656 223.859375-224 224zm0 0"/><path d="m296 176h-16c-4.417969 0-8 3.582031-8 8v16c0 4.417969 3.582031 8 8 8v43.777344l-32 15.46875v-107.246094h9.046875c2.953125.003906 5.667969-1.621094 7.0625-4.222656 1.394531-2.601563 1.242187-5.761719-.398437-8.21875l-17.054688-25.597656c-1.484375-2.226563-3.980469-3.5625-6.65625-3.5625s-5.171875 1.335937-6.65625 3.5625l-17.054688 25.597656c-1.640624 2.457031-1.792968 5.617187-.398437 8.21875 1.394531 2.601562 4.109375 4.226562 7.0625 4.222656h9.046875v134.910156l-32-26.664062v-30.460938c6.273438-3.621094 9.328125-11.003906 7.453125-18-1.871094-6.992187-8.210937-11.859375-15.453125-11.859375s-13.582031 4.867188-15.453125 11.859375c-1.875 6.996094 1.179687 14.378906 7.453125 18v34.214844c-.003906 2.375 1.046875 4.628906 2.871094 6.152344l45.128906 37.601562v22.46875c-6.273438 3.621094-9.328125 11.003906-7.453125 18 1.871094 6.992188 8.210937 11.859375 15.453125 11.859375s13.582031-4.867187 15.453125-11.859375c1.875-6.996094-1.179687-14.378906-7.453125-18v-53.207031l43.488281-21.015625c2.757813-1.335938 4.511719-4.132812 4.511719-7.199219v-48.800781c4.417969 0 8-3.582031 8-8v-16c0-4.417969-3.582031-8-8-8zm0 0"/></svg>