<svg height="480pt" viewBox="0 0 480 480" width="480pt" xmlns="http://www.w3.org/2000/svg"><path d="m240 0c-132.546875 0-240 107.453125-240 240s107.453125 240 240 240 240-107.453125 240-240c-.148438-132.484375-107.515625-239.851562-240-240zm0 464c-123.710938 0-224-100.289062-224-224s100.289062-224 224-224 224 100.289062 224 224c-.140625 123.652344-100.347656 223.859375-224 224zm0 0"/><path d="m314.34375 221.65625c3.125 3.121094 8.1875 3.121094 11.3125 0l32-32c.746094-.746094 1.335938-1.632812 1.734375-2.609375.808594-1.957031.808594-4.152344 0-6.109375-.398437-.976562-.988281-1.863281-1.734375-2.609375l-32-32c-3.140625-3.03125-8.128906-2.988281-11.214844.097656-3.085937 3.085938-3.128906 8.074219-.097656 11.214844l18.34375 18.359375h-44.6875c-34.304688 0-51.121094 22.535156-64 46.496094-12.878906-24-29.695312-46.496094-64-46.496094h-32c-4.417969 0-8 3.582031-8 8s3.582031 8 8 8h32c29.703125 0 41.9375 21.871094 55.046875 48-13.109375 26.128906-25.34375 48-55.046875 48h-32c-4.417969 0-8 3.582031-8 8s3.582031 8 8 8h32c34.304688 0 51.121094-22.535156 64-46.496094 12.878906 23.960938 29.695312 46.496094 64 46.496094h44.6875l-18.34375 18.34375c-2.078125 2.007812-2.914062 4.984375-2.179688 7.78125.730469 2.796875 2.914063 4.980469 5.710938 5.710938 2.796875.734374 5.773438-.101563 7.78125-2.179688l32-32c.746094-.746094 1.335938-1.632812 1.734375-2.609375.808594-1.957031.808594-4.152344 0-6.109375-.398437-.976562-.988281-1.863281-1.734375-2.609375l-32-32c-3.140625-3.03125-8.128906-2.988281-11.214844.097656-3.085937 3.085938-3.128906 8.074219-.097656 11.214844l18.34375 18.359375h-44.6875c-29.703125 0-41.9375-21.871094-55.046875-48 13.109375-26.128906 25.34375-48 55.046875-48h44.6875l-18.34375 18.34375c-3.121094 3.125-3.121094 8.1875 0 11.3125zm0 0"/></svg>