<svg height="480pt" viewBox="0 0 480 480" width="480pt" xmlns="http://www.w3.org/2000/svg"><path d="m240 0c-132.546875 0-240 107.453125-240 240s107.453125 240 240 240 240-107.453125 240-240c-.148438-132.484375-107.515625-239.851562-240-240zm0 464c-123.710938 0-224-100.289062-224-224s100.289062-224 224-224 224 100.289062 224 224c-.140625 123.652344-100.347656 223.859375-224 224zm0 0"/><path d="m292 149.921875c-3.808594-2.050781-8.554688-.703125-10.71875 3.039063-2.164062 3.746093-.957031 8.53125 2.71875 10.808593 34.492188 19.914063 51.308594 60.511719 41 98.984375s-45.171875 65.222656-85 65.222656-74.691406-26.75-85-65.222656 6.507812-79.070312 41-98.984375c3.675781-2.277343 4.882812-7.0625 2.71875-10.808593-2.164062-3.742188-6.910156-5.089844-10.71875-3.039063-40.765625 23.535156-60.640625 71.515625-48.457031 116.980469 12.183593 45.46875 53.386719 77.085937 100.457031 77.085937s88.273438-31.617187 100.457031-77.085937c12.183594-45.464844-7.691406-93.445313-48.457031-116.980469zm0 0"/><path d="m240 200c4.417969 0 8-3.582031 8-8v-96c0-4.417969-3.582031-8-8-8s-8 3.582031-8 8v96c0 4.417969 3.582031 8 8 8zm0 0"/></svg>