<svg height="480pt" viewBox="0 0 480 480" width="480pt" xmlns="http://www.w3.org/2000/svg"><path d="m240 0c-132.546875 0-240 107.453125-240 240s107.453125 240 240 240 240-107.453125 240-240c-.148438-132.484375-107.515625-239.851562-240-240zm0 464c-123.710938 0-224-100.289062-224-224s100.289062-224 224-224 224 100.289062 224 224c-.140625 123.652344-100.347656 223.859375-224 224zm0 0"/><path d="m240 280c-13.253906 0-24 10.746094-24 24s10.746094 24 24 24 24-10.746094 24-24-10.746094-24-24-24zm0 32c-4.417969 0-8-3.582031-8-8s3.582031-8 8-8 8 3.582031 8 8-3.582031 8-8 8zm0 0"/><path d="m240 232c-16.984375-.050781-33.285156 6.703125-45.257812 18.753906-3.121094 3.125-3.121094 8.191406.003906 11.3125 3.128906 3.125 8.195312 3.125 11.316406-.003906 18.746094-18.742188 49.136719-18.742188 67.882812 0 3.136719 3.035156 8.128907 2.988281 11.214844-.097656 3.085938-3.085938 3.128906-8.074219.097656-11.210938-11.976562-12.046875-28.273437-18.796875-45.257812-18.753906zm0 0"/><path d="m240 184c-29.722656-.089844-58.246094 11.722656-79.199219 32.800781-3.03125 3.136719-2.988281 8.128907.097657 11.214844 3.085937 3.085937 8.074218 3.128906 11.214843.097656 37.488281-37.488281 98.269531-37.488281 135.757813 0 3.125 3.125 8.191406 3.128907 11.320312.007813 3.128906-3.125 3.132813-8.191406.007813-11.320313-20.953125-21.078125-49.476563-32.890625-79.199219-32.800781zm0 0"/><path d="m240 136c-42.457031-.117188-83.195312 16.757812-113.136719 46.863281-2.078125 2.007813-2.914062 4.984375-2.179687 7.78125.730468 2.796875 2.914062 4.980469 5.710937 5.714844 2.796875.730469 5.773438-.105469 7.78125-2.183594 56.234375-56.234375 147.414063-56.234375 203.648438 0 3.140625 3.03125 8.128906 2.988281 11.214843-.097656 3.085938-3.085937 3.128907-8.074219.097657-11.214844-29.941407-30.101562-70.679688-46.976562-113.136719-46.863281zm0 0"/></svg>