<?xml version="1.0" encoding="utf-8"?>
<!-- Generator: Adobe Illustrator 24.0.1, SVG Export Plug-In . SVG Version: 6.00 Build 0)  -->
<svg version="1.1" id="Calque_1" xmlns="http://www.w3.org/2000/svg" xmlns:xlink="http://www.w3.org/1999/xlink" x="0px" y="0px"
	 viewBox="0 0 512 512" style="enable-background:new 0 0 512 512;" xml:space="preserve">
<style type="text/css">
	.st0{fill:#D6C0B4;}
	.st1{fill:#F2E1D6;}
	.st2{fill:#F0C020;}
	.st3{fill:#FC5D3D;}
	.st4{fill:#F9E5AF;}
	.st5{fill:#FFFFFF;}
</style>
<path class="st0" d="M121.8,206.9h39.9v95h-39.9V206.9z"/>
<path class="st1" d="M326.1,238.9v-64.1H161.7v127h13.2c3.9,0,7.5,2.2,9.2,5.7l12,24c1.7,3.5,5.3,5.7,9.2,5.7h184.8v-98.4H326.1z"/>
<path class="st0" d="M326.1,174.9v64.1h64L326.1,174.9z"/>
<path class="st2" d="M268.4,51.5v55.4c0.1,9.2-7.3,16.8-16.5,16.9c-9.2,0.1-16.8-7.3-16.9-16.5c0-0.1,0-0.2,0-0.4V51.5
	c-0.1-9.2,7.3-16.8,16.5-16.9c9.2-0.1,16.8,7.3,16.9,16.5C268.4,51.3,268.4,51.4,268.4,51.5z"/>
<path class="st3" d="M235,63.8h33.4v30.8H235V63.8z"/>
<path class="st2" d="M404.8,337.3H205.3c-3.9,0-7.5-2.2-9.2-5.7l-12-24c-1.7-3.5-5.3-5.7-9.2-5.7h-67.7c-3.4,0-6.2,2.8-6.2,6.2
	c0,0,0,0,0,0v189c0,3.4,2.8,6.2,6.2,6.2c0,0,0,0,0,0h297.6c3.4,0,6.2-2.8,6.2-6.2c0,0,0,0,0,0V343.5
	C411,340.1,408.2,337.3,404.8,337.3C404.8,337.3,404.8,337.3,404.8,337.3z"/>
<path class="st3" d="M266.4,414.2c7.9-5.8,9.6-16.8,3.9-24.7c-5.8-7.9-16.8-9.6-24.7-3.9c-7.9,5.8-9.6,16.8-3.9,24.7
	c1.1,1.5,2.4,2.8,3.9,3.9c-13.4,4.5-22.4,17-22.5,31.2v12.9h65.7v-12.9C288.9,431.2,279.8,418.6,266.4,414.2z"/>
<path class="st4" d="M121.6,394.8c-2.8,0-5-2.2-5-5v-6c0-2.8,2.2-5,5-5s5,2.2,5,5v6C126.6,392.6,124.4,394.8,121.6,394.8z
	 M121.6,368.8c-2.8,0-5-2.2-5-5v-41.4c0-2.8,2.2-5,5-5H146c2.8,0,5,2.2,5,5s-2.2,5-5,5h-19.4v36.4
	C126.6,366.6,124.4,368.8,121.6,368.8z"/>
<path class="st4" d="M381.1,481.4h-19.3c-2.8,0-5-2.2-5-5s2.2-5,5-5h14.3v-27.7c0-2.8,2.2-5,5-5s5,2.2,5,5v32.7
	C386.1,479.2,383.9,481.4,381.1,481.4z M381.1,422.8c-2.8,0-5-2.2-5-5v-52c0-2.8,2.2-5,5-5s5,2.2,5,5v52
	C386.1,420.5,383.9,422.8,381.1,422.8z"/>
<path class="st5" d="M185.9,255.3c-2.8,0-5-2.2-5-5l0,0v-16.9c0-2.8,2.2-5,5-5s5,2.2,5,5v16.9C190.9,253.1,188.6,255.3,185.9,255.3z
	 M185.9,216.4c-2.8,0-5-2.2-5-5v-14.7c0-2.8,2.2-5,5-5h21.3c2.8,0,5,2.2,5,5s-2.2,5-5,5h-16.3v9.7
	C190.9,214.2,188.7,216.4,185.9,216.4L185.9,216.4z"/>
<circle cx="121.8" cy="254.7" r="5"/>
<circle cx="390.2" cy="284.7" r="5"/>
<path d="M213.2,251.7h72.2c2.8,0,5-2.2,5-5s-2.2-5-5-5h-72.2c-2.8,0-5,2.2-5,5S210.4,251.7,213.2,251.7z"/>
<path d="M338.6,271.6H213.2c-2.8,0-5,2.2-5,5s2.2,5,5,5h125.4c2.8,0,5-2.2,5-5S341.4,271.6,338.6,271.6z"/>
<path d="M338.6,298.6H213.2c-2.8,0-5,2.2-5,5s2.2,5,5,5h125.4c2.8,0,5-2.2,5-5S341.4,298.6,338.6,298.6z"/>
<circle cx="101" cy="441.5" r="5"/>
<path d="M404.8,332.3h-9.6v-27.6c0-2.8-2.2-5-5-5s-5,2.2-5,5v27.6H205.3c-2,0-3.8-1.2-4.7-3l-12-24c-0.6-1.3-1.5-2.5-2.4-3.5
	c-2.9-3.2-7-5-11.3-4.9h-8.2v-117h53.8c2.5,13.9,13.8,24.4,27.8,25.9c2.7,0.3,5.2-1.6,5.6-4.4c0.3-2.7-1.6-5.2-4.4-5.6
	c-0.1,0-0.1,0-0.2,0c-8.9-0.9-16.3-7.3-18.6-16h90.4v59.1c0,2.7,2.3,5,5,5h59v20.7c0,2.8,2.2,5,5,5s5-2.2,5-5v-25.7
	c0-1.3-0.5-2.6-1.5-3.5h0l-64-64c-1-0.9-2.2-1.4-3.5-1.5h-43.2c-0.6-4.5-2.1-8.8-4.3-12.7c-1.3-2.4-4.4-3.3-6.8-1.9
	c-2.4,1.3-3.3,4.4-1.9,6.8l0,0c1.4,2.5,2.4,5.1,2.9,7.9h-42.3c1.5-7.2,6.6-13.1,13.4-15.7c7.7-3,12.7-10.3,12.7-18.5V128
	c9.8-2.3,16.7-11.1,16.8-21.1V51.5c0-10.1-6.9-18.8-16.7-21.1V8.7c0-2.8-2.2-5-5-5s-5,2.2-5,5v21.6c-9.8,2.3-16.7,11.1-16.7,21.1
	v55.4c0,10,6.9,18.8,16.7,21.1v7.7c0,4.1-2.5,7.7-6.3,9.2c-10.7,4.1-18.4,13.7-20,25.1h-58.7c-2.8,0-5,2.2-5,5v27h-34.9
	c-2.8,0-5,2.2-5,5v27.8c0,2.8,2.2,5,5,5s5-2.2,5-5v-22.8h29.9v85h-29.9v-22.2c0-2.8-2.2-5-5-5s-5,2.2-5,5v22.2h-9.6
	c-6.2,0-11.2,5-11.2,11.2v113.4c0,2.8,2.2,5,5,5s5-2.2,5-5V308.1c0-0.7,0.5-1.2,1.2-1.2c0,0,0,0,0,0h67.7c2,0,3.8,1.1,4.7,2.9l12,24
	c2.6,5.2,7.9,8.5,13.7,8.5h199.5c0.6,0,1.2,0.5,1.2,1.1c0,0,0,0,0,0v153.6c0,0.7-0.5,1.2-1.2,1.2c0,0,0,0,0,0H107.2
	c-0.7,0-1.2-0.5-1.2-1.2c0,0,0,0,0,0v-35.6c0-2.8-2.2-5-5-5c-2.8,0-5,2.2-5,5v35.6c0,6.2,5,11.2,11.2,11.2h297.6
	c6.2,0,11.2-5,11.2-11.2V343.5C416,337.3,411,332.3,404.8,332.3L404.8,332.3z M331.1,233.9v-47l47,47H331.1z M240,68.8h23.4v20.8
	H240L240,68.8z M251.7,39.8c6.5,0,11.7,5.3,11.7,11.7v7.3H240v-7.3C240,45,245.2,39.8,251.7,39.8L251.7,39.8z M240,106.9v-7.3h23.4
	v7.3c0,6.5-5.3,11.7-11.7,11.7C245.2,118.6,240,113.3,240,106.9L240,106.9z"/>
<path d="M218.1,445.3v12.9c0,2.8,2.2,5,5,5h65.7c2.8,0,5-2.2,5-5v-12.9c0-13.6-7.3-26.1-19-32.8c7-10.4,4.2-24.5-6.2-31.5
	s-24.5-4.2-31.5,6.2c-5.1,7.6-5.1,17.6,0,25.3C225.4,419.2,218.1,431.8,218.1,445.3L218.1,445.3z M247.2,418.9
	c2.6-0.9,4-3.7,3.2-6.3c-0.3-1-1-1.8-1.8-2.5c-3.3-2.4-5.2-6.2-5.2-10.2c0-7,5.7-12.7,12.7-12.7c7,0,12.7,5.7,12.7,12.7
	c0,4.1-1.9,7.9-5.2,10.2c-2.2,1.6-2.7,4.8-1.1,7c0.6,0.8,1.5,1.5,2.5,1.8c11.4,3.8,19,14.4,19,26.4v7.9h-55.7v-7.9
	C228.1,433.3,235.8,422.7,247.2,418.9L247.2,418.9z"/>
<path d="M188.1,393c0-5.7,4.7-10.4,10.4-10.4c2.8,0,5-2.2,5-5s-2.2-5-5-5c-11.3,0-20.4,9.1-20.4,20.4v22.2h-4.8c-2.8,0-5,2.2-5,5
	s2.2,5,5,5h4.8v22.2c0,11.3,9.1,20.4,20.4,20.4c2.8,0,5-2.2,5-5s-2.2-5-5-5c-5.7,0-10.4-4.7-10.4-10.4V393z"/>
<path d="M323.9,447.4c0,5.7-4.7,10.4-10.4,10.4c-2.8,0-5,2.2-5,5s2.2,5,5,5c11.3,0,20.4-9.1,20.4-20.4v-22.2h4.8c2.8,0,5-2.2,5-5
	s-2.2-5-5-5h-4.8V393c0-11.3-9.1-20.4-20.4-20.4c-2.8,0-5,2.2-5,5s2.2,5,5,5c5.7,0,10.4,4.7,10.4,10.4V447.4z"/>
</svg>
