<svg height="480pt" viewBox="-96 0 480 480" width="480pt" xmlns="http://www.w3.org/2000/svg"><path d="m160 280c0-4.417969-3.582031-8-8-8s-8-3.582031-8-8 3.582031-8 8-8 8 3.582031 8 8 3.582031 8 8 8 8-3.582031 8-8c0-13.253906-10.746094-24-24-24s-24 10.746094-24 24 10.746094 24 24 24c4.417969 0 8-3.582031 8-8zm0 0"/><path d="m104 336c13.253906 0 24-10.746094 24-24 0-4.417969-3.582031-8-8-8s-8 3.582031-8 8-3.582031 8-8 8-8-3.582031-8-8 3.582031-8 8-8 8-3.582031 8-8-3.582031-8-8-8c-13.253906 0-24 10.746094-24 24s10.746094 24 24 24zm0 0"/><path d="m192 344c0-13.253906-10.746094-24-24-24s-24 10.746094-24 24c0 4.417969 3.582031 8 8 8s8-3.582031 8-8 3.582031-8 8-8 8 3.582031 8 8-3.582031 8-8 8-8 3.582031-8 8 3.582031 8 8 8c13.253906 0 24-10.746094 24-24zm0 0"/><path d="m208 384c4.417969 0 8 3.582031 8 8s-3.582031 8-8 8-8-3.582031-8-8-3.582031-8-8-8-8 3.582031-8 8c0 13.253906 10.746094 24 24 24s24-10.746094 24-24-10.746094-24-24-24c-4.417969 0-8 3.582031-8 8s3.582031 8 8 8zm0 0"/><path d="m136 216c0-4.417969-3.582031-8-8-8-34.183594 0-56-47.382812-56-80 .871094-17.300781 14.699219-31.128906 32-32 16.519531-1.027344 30.792969 11.433594 32 27.945312 0 4.417969 3.582031 8 8 8s8-3.582031 8-8c1.207031-16.511718 15.480469-28.972656 32-27.945312 17.300781.871094 31.128906 14.699219 32 32 0 32.617188-21.816406 80-56 80-4.417969 0-8 3.582031-8 8s3.582031 8 8 8c46.398438 0 72-56.761719 72-96-.3125-20.917969-13.925781-39.3125-33.839844-45.722656-19.917968-6.410156-41.703125.585937-54.160156 17.394531-12.457031-16.808594-34.242188-23.804687-54.160156-17.394531-19.914063 6.410156-33.527344 24.804687-33.839844 45.722656 0 39.238281 25.601562 96 72 96 4.417969 0 8-3.582031 8-8zm0 0"/><path d="m24 432c-13.253906 0-24 10.746094-24 24s10.746094 24 24 24h240c13.253906 0 24-10.746094 24-24s-10.746094-24-24-24v-104c0-28.625-24.894531-66.839844-44.734375-88 19.839844-21.160156 44.734375-59.375 44.734375-88v-104c13.253906 0 24-10.746094 24-24s-10.746094-24-24-24h-240c-13.253906 0-24 10.746094-24 24s10.746094 24 24 24v104c0 28.625 24.894531 66.839844 44.734375 88-19.839844 21.160156-44.734375 59.375-44.734375 88zm0-400c-4.417969 0-8-3.582031-8-8s3.582031-8 8-8h240c4.417969 0 8 3.582031 8 8s-3.582031 8-8 8zm16 296c0-25.28125 26.894531-64.640625 45.496094-82.175781 1.605468-1.511719 2.515625-3.621094 2.515625-5.824219s-.910157-4.3125-2.515625-5.824219c-18.601563-17.535156-45.496094-56.894531-45.496094-82.175781v-104h208v104c0 25.28125-26.894531 64.640625-45.496094 82.175781-1.605468 1.511719-2.515625 3.621094-2.515625 5.824219s.910157 4.3125 2.515625 5.824219c18.601563 17.535156 45.496094 56.894531 45.496094 82.175781v104h-81.472656c.949218-2.5625 1.445312-5.269531 1.472656-8 .042969-9.484375-5.53125-18.097656-14.199219-21.945312-8.667969-3.847657-18.792969-2.207032-25.800781 4.183593-2.789062-2.511719-6.132812-4.332031-9.761719-5.308593 4.066407-10.027344.925781-21.535157-7.675781-28.097657-8.597656-6.566406-20.527344-6.566406-29.125 0-8.601562 6.5625-11.742188 18.070313-7.675781 28.097657-6.484375 1.652343-11.957031 5.980468-15.066407 11.90625-3.105468 5.925781-3.550781 12.890624-1.222656 19.164062h-17.472656zm112 96c0 4.417969-3.582031 8-8 8s-8-3.582031-8-8 3.582031-8 8-8 8 3.582031 8 8zm-40-8c4.417969 0 8 3.582031 8 8s-3.582031 8-8 8-8-3.582031-8-8 3.582031-8 8-8zm-16-16c-4.417969 0-8-3.582031-8-8s3.582031-8 8-8 8 3.582031 8 8-3.582031 8-8 8zm-8 24c0 4.417969-3.582031 8-8 8s-8-3.582031-8-8 3.582031-8 8-8 8 3.582031 8 8zm168 24h8c4.417969 0 8 3.582031 8 8s-3.582031 8-8 8h-240c-4.417969 0-8-3.582031-8-8s3.582031-8 8-8zm0 0"/></svg>