<?xml version="1.0" encoding="utf-8"?>
<!-- Generator: Adobe Illustrator 23.0.4, SVG Export Plug-In . SVG Version: 6.00 Build 0)  -->
<svg version="1.1" id="Calque_1" xmlns="http://www.w3.org/2000/svg" xmlns:xlink="http://www.w3.org/1999/xlink" x="0px" y="0px"
	 viewBox="0 0 651.8 480" style="enable-background:new 0 0 651.8 480;" xml:space="preserve">
<style type="text/css">
	.st0{fill:#97999D;}
</style>
<g>
	<path class="st0" d="M239.8,480c-64.1,0-124.4-25-169.7-70.3S-0.2,304.1-0.2,240c0-64.1,25-124.4,70.3-169.7S175.7,0,239.8,0
		C292,0,341.7,16.5,383.4,47.7c40.3,30.2,70.7,73.1,85.6,121c1.6,5.1-1.3,10.4-6.3,12c-5.1,1.6-10.4-1.3-12-6.3
		c-13.7-44-41.7-83.5-78.8-111.3c-38.4-28.7-84-43.9-132.1-43.9c-59,0-114.4,23-156.1,64.7C42,125.6,19,181,19,240
		s23,114.4,64.7,156.1c41.7,41.7,97.2,64.7,156.1,64.7c48.2,0,94-15.2,132.4-44.1c37.2-27.9,65.1-67.6,78.7-111.8
		c1.6-5.1,6.9-7.9,12-6.4c5.1,1.6,7.9,6.9,6.4,12c-14.8,48-45.1,91.2-85.5,121.5C341.9,463.4,292.2,480,239.8,480z"/>
</g>
<path class="st0" d="M641.9,230.1H305.5h-5.5H151l85.5-102.6c3.3-4.2,2.7-10.3-1.4-13.8c-4.1-3.4-10.3-3-13.8,1.1l-99,118.9
	c-0.2,0.3-0.3,0.6-0.5,0.9c-0.3,0.4-0.6,0.8-0.8,1.2c-0.1,0.3-0.2,0.6-0.3,0.8c-0.2,0.5-0.3,1-0.3,1.5c-0.1,0.5-0.2,0.9-0.2,1.4
	c0,0.1-0.1,0.3-0.1,0.4c0,0.2,0.1,0.3,0.1,0.4c0,0.5,0.1,1,0.2,1.4c0.1,0.5,0.2,1,0.3,1.5c0.1,0.3,0.2,0.6,0.3,0.8
	c0.2,0.4,0.5,0.8,0.8,1.2c0.2,0.3,0.3,0.7,0.5,0.9l99,118.9c2.2,2.8,5.8,4.2,9.4,3.6c3.5-0.6,6.5-3,7.7-6.4c1.2-3.4,0.5-7.2-1.9-9.9
	L151,249.9h149h5.5h336.4c5.5,0,9.9-4.4,9.9-9.9C651.8,234.5,647.4,230.1,641.9,230.1z"/>
</svg>
