<svg id="Calque_1" data-name="Calque 1" xmlns="http://www.w3.org/2000/svg" viewBox="0 0 651.84 480"><defs><style>.cls-1{fill:#d9326f;}</style></defs><title>left arrow_hover</title><path class="cls-1" d="M239.79,480A240,240,0,0,1,70.08,70.29,240,240,0,0,1,383.39,47.68a242,242,0,0,1,85.61,121,9.6,9.6,0,0,1-18.34,5.7A222.61,222.61,0,0,0,371.89,63.06,220.81,220.81,0,0,0,19,240a220.81,220.81,0,0,0,353.2,176.71,222.6,222.6,0,0,0,78.7-111.78,9.6,9.6,0,0,1,18.36,5.64,242,242,0,0,1-85.53,121.5A237.94,237.94,0,0,1,239.79,480Z"/><path class="cls-1" d="M641.94,230.06H151.05l85.51-102.61a9.91,9.91,0,0,0-15.22-12.68l-99,118.85c-.24.29-.31.65-.52.95a10.2,10.2,0,0,0-.79,1.22c-.13.27-.21.55-.32.84a8.25,8.25,0,0,0-.34,1.47,8.72,8.72,0,0,0-.24,1.43c0,.15-.09.28-.09.43s.08.29.09.44a8.72,8.72,0,0,0,.24,1.43,8.25,8.25,0,0,0,.34,1.47c.11.29.19.57.32.84a10.2,10.2,0,0,0,.79,1.22c.21.3.28.65.52.95l99,118.85a9.91,9.91,0,1,0,15.22-12.68L151.05,249.87H641.94a9.91,9.91,0,0,0,0-19.81Z"/></svg>