<?xml version="1.0" encoding="utf-8"?>
<!-- Generator: Adobe Illustrator 23.0.4, SVG Export Plug-In . SVG Version: 6.00 Build 0)  -->
<svg version="1.1" id="Calque_1" xmlns="http://www.w3.org/2000/svg" xmlns:xlink="http://www.w3.org/1999/xlink" x="0px" y="0px"
	 viewBox="0 0 563.79 267.49" style="enable-background:new 0 0 563.79 267.49;" xml:space="preserve">
<style type="text/css">
	.st0{fill:#1D1D1B;}
	.st1{fill:#009EE2;}
	.st2{fill:#E5007E;}
	.st3{fill:#342A83;}
	.st4{fill:#FFEC00;}
	.st5{fill:#009642;}
</style>
<g>
	<path class="st0" d="M555.09,181.56h0.87c1.01,0,1.83-0.34,1.83-1.16c0-0.73-0.53-1.21-1.69-1.21c-0.48,0-0.82,0.05-1.01,0.1
		V181.56z M555.04,186.05h-1.83v-7.91c0.72-0.14,1.73-0.24,3.04-0.24c1.49,0,2.17,0.24,2.75,0.58c0.43,0.34,0.77,0.97,0.77,1.74
		c0,0.87-0.68,1.54-1.64,1.83v0.1c0.77,0.29,1.21,0.86,1.45,1.93c0.24,1.2,0.39,1.69,0.58,1.98h-1.98
		c-0.24-0.29-0.39-1.01-0.63-1.93c-0.15-0.87-0.63-1.26-1.64-1.26h-0.87V186.05z M550.17,181.9c0,3.52,2.6,6.32,6.17,6.32
		c3.47,0,6.03-2.8,6.03-6.27c0-3.52-2.56-6.36-6.08-6.36C552.77,175.58,550.17,178.43,550.17,181.9 M564.4,181.9
		c0,4.49-3.52,8.01-8.1,8.01c-4.54,0-8.15-3.52-8.15-8.01c0-4.39,3.62-7.91,8.15-7.91C560.88,173.99,564.4,177.51,564.4,181.9"/>
	<path class="st0" d="M43.96,171.56c10.78-0.89,19.01-7.23,19.01-12.23c0-3.67-1.78-5.56-5.45-5.56
		C50.74,153.77,46.52,160.89,43.96,171.56 M20.46,225.35c-2-1-3.89-1.56-5.67-1.56c-2.11,0-4,1.11-4,3.33c0,2.23,2,3.11,3.78,3.11
		C18.24,230.24,19.68,228.35,20.46,225.35 M30.8,231.47c-4.11,4.45-10,7.45-17.45,7.45C4.23,238.91,0,233.8,0,226.46
		c0-7.67,6.23-11.45,14.79-11.45c2.33,0,4.45,0.11,6.45,0.33c0-9.23,4.38-28.33,6.27-36.56c-4.89-2.45-8.89-6-8.89-8.45
		c0-1.23,0.56-3,1.56-3c2.89,0,6.12,2.34,9.78,3.23c5.56-16.34,15.12-27.69,27.8-27.69c9.12,0,17.57,3.11,17.57,14.79
		c0,8.23-5.9,22.79-33.02,23.46c-0.89,6.78-4.49,24.55-4.49,32.22c0,2.33-0.33,4.78-0.78,7c5.23,2.67,9.45,5.34,16.56,5.34
		c7.56,0,23.55-17.03,26.77-17.03c1.11,0,2.91,0.34,1.62,2.54c-4.86,8.34-18.94,26.16-33.95,26.16
		C41.69,237.36,36.02,234.58,30.8,231.47"/>
	<path class="st0" d="M84.06,207.01c6.23-4.12,11.45-6.11,11.45-10.67c0-1.67-1.11-2.78-3.45-2.78
		C87.62,193.55,85.17,200,84.06,207.01 M118.53,211.12c1.11,0,1.56,1.33,1.56,3.89c0,6.23-8.01,22.68-33.46,22.68
		c-10.01,0-19.68-5.23-19.68-17.35c0-21.24,14.01-36.69,29.46-36.69c8.34,0,12.9,4.45,12.9,10.67c0,13.12-14.23,14.9-26.02,20.35
		v2.78c0,6.12,6.56,7.45,10.68,7.45C108.63,224.91,115.97,211.12,118.53,211.12"/>
	<path class="st0" d="M139.44,203.78c2-2.22,4.45-5.34,4.45-7.67c0-1.78-1.11-3.45-4.34-3.45c-1.78,0-5.33,1.11-5.33,1.11
		C134.21,197.22,136.43,200.56,139.44,203.78 M143.77,208.34c4.22,4.45,8.45,9.01,8.45,14.01c0,9.9-8.23,15.57-22.57,15.57
		c-14.79,0-20.68-7.12-20.68-14.12c0-6.78,4.45-13.45,8.23-13.45c7,0,0.56,17.46,21.01,17.46c-3.67-11.34-17.45-14.79-17.45-27.46
		c0-11.01,9.45-17.24,19.24-17.24c9.78,0,14.68,4.23,14.68,10.12C154.67,201.34,149.77,206.34,143.77,208.34"/>
	<path class="st0" d="M193.14,170.1c4.45,1.45,9.34,1.89,13.01,1.89c3.56,0,6-1.12,6-3.67c0-3-1.78-4.34-5.45-4.34
		C201.48,163.98,196.92,166.31,193.14,170.1 M182.91,162.31c6.78-5.78,15.01-9.34,24.57-9.34c9.12,0,17.01,3,17.01,13.68
		c0,7.78-7.33,13.9-19.23,13.9c-5.12,0-11.01-1-17.46-3.56c-5.12,8.45-7.9,19.46-7.9,28.13c0,12.9,5.23,20.35,16.23,20.35
		c8.12,0,18.01-3.89,23.9-11.45c1.67-2.22,3.11-3.23,4-3.23c1.11,0,1.67,1.67,1.67,4.23c0,14.46-15.9,22.9-31.46,22.9
		c-20.01,0-31.8-10.79-31.8-28.57c0-14.01,5-29.35,14.01-40.47c-3.34-4-5.56-8.78-5.56-11.79c0-1.44,1.11-2.44,2.22-2.44
		C175.91,154.64,179.02,159.87,182.91,162.31"/>
	<path class="st0" d="M235.06,162.09c0.97-4,2.97-10.17,7.86-10.17c4.78,0,8.37,5.39,8.37,8.17c0,9.11-7.44,14.99-13.23,12.32
		C238.07,172.41,233.43,168.82,235.06,162.09 M222.39,216.57c0-13.23,4.56-34.8,12.67-34.8c4.67,0,6.56,8.12,6.56,10.67
		c-0.22,10.01-5.33,22.68-5.33,28.69c0,2.22,1.78,3.45,3.89,3.45c4.34,0,14.23-13.45,16.34-13.45c1.11,0,1.56,1.33,1.56,3.89
		c0,9.68-12.45,22.35-24.57,22.35C224.84,237.36,222.39,227.91,222.39,216.57"/>
	<path class="st0" d="M260.3,184.22c3.11-10.01,6.89-17.12,10.9-17.12c4.78,0,6.11,4.34,7.23,9.01l-4.56,8.01
		c5.11,0.11,8.56,0.22,11.01,0.22c1.11,0,1.22,0.44,1.22,1.78c0,1.45-1.45,7.67-3.11,7.67c-1.78,0-7.9-0.55-11.12-0.55
		c-1.44,8.56-2.33,18.9-2.33,23.68c0,4.67,0.78,7.68,2.56,7.68c2.67,0,12.12-5.56,15.68-10.23c1.67-2.22,3.12-3.22,4-3.22
		c1.11,0,1.56,1.33,1.56,3.89c0,9.68-15.79,22.35-27.9,22.35c-7.34,0-10.34-9.67-10.34-21.79c0-6.67,1-14.45,2.67-21.79h-5
		c-0.89,0-1.33-0.44-1.33-1.11c0-3.56,0.33-5.33,2.89-8.34C255.75,184.33,257.86,184.33,260.3,184.22"/>
	<path class="st0" d="M312.01,249.81c-10.56,2.11-16.79,1.55-16.79,4.22c0,3.23,4.56,4.89,7.34,4.89
		C306.45,258.93,309.56,255.26,312.01,249.81 M308.23,193.77c0,8.78-5.23,16.46-5.23,26.91c0,2.33,1.11,4,5,4
		c5.78,0,8.34-4.56,10.34-10.45c2.34-10.01,7.23-26.57,8.45-29.57c1-2.45,2.89-3.12,4.34-3.12c4.45,0,8.56,8.34,8.56,11.01
		c0,5.89-5,24.24-9.56,39.25c12.9-9.68,14.87-14.64,23.2-16.37c1.09-0.23,6.32,7.64,3.82,8.16c-7.04,1.47-29.93,15.63-32.71,24.2
		c-0.9,2.79-5.65,19.69-21.77,19.69c-9.56,0-17.68-6.45-17.68-14.79c0-9.56,13.68-10.23,30.57-14.23c0.78-3.11,1.56-6.34,2.11-9.56
		c-3.11,4.34-7.78,7.67-14.9,7.67c-10.01,0-16.57-4.11-16.57-13.23c0-3.78,1.11-6.67,3.56-11.34l3.22-26.35
		c2.67-2.12,7-2.67,9.34-2.67C307.56,182.99,308.23,188.11,308.23,193.77"/>
	<path class="st0" d="M364.6,225.68c-2.33-1.11-4.45-1.89-6.45-1.89c-2.11,0-4,1.11-4,3.33c0,2.23,2,3.12,3.78,3.12
		C359.82,230.24,362.05,228.47,364.6,225.68 M374.5,231.58l-0.45,0.34c-4,4.22-9.78,7-17.34,7c-9.12,0-13.34-5.11-13.34-12.45
		c0-7.67,6.23-11.45,14.79-11.45c5.11,0,9.23,0.67,12.67,1.56c3-5.23,5.45-10.23,7.45-15.01c-7.56,0.78-15.12,2-19.34,2
		c-0.89,0-1.45-0.44-1.45-1.11c0-5.67,11.34-10.45,24.9-12.45c2.45-7.78,4.11-14.9,6.22-21.57c-3.11-1-7.01-1.67-9.45-1.67
		c-9.89,0-20.9,5.45-24.79,5.45c-2.22,0-3.33-1-3.33-2.45c0-4.67,13.45-13.79,30.24-13.79c5.56,0,25.91,0.67,25.91,9.34
		c0,5.56-2.78,14.57-7.01,24.46c5.12,0,8.89-0.78,8.89,2.23c0,0.89-1,3.55-1.45,5.34c-0.78,2.89-1.78,4.11-3.89,4.11
		c-1.22,0-5.33-0.33-8.78-0.55c-3.78,7.45-8.01,14.67-12.23,20.68c4.22,2.22,8.23,4.11,14.23,4.11c7.56,0,14.79-14.9,18.01-14.9
		c1.11,0,1.67,1.67,1.67,4.23c0,8.9-10.23,22.35-25.24,22.35C385.17,237.36,379.5,234.58,374.5,231.58"/>
	<path class="st0" d="M425.87,210.74c11.06-3.69,14.5-10,14.36-14.36c-0.05-1.6-3.11-3.27-5.56-3.01
		C425.31,194.38,425.87,210.74,425.87,210.74 M462.92,207.88c1.15-0.2,1.88,0.97,2.39,3.37c1.25,5.85-3.72,22.77-30.04,27.42
		c-10.35,1.83-21.4-1.32-23.84-12.71c-4.27-19.95,6.96-38.61,22.94-41.44c8.62-1.52,14.23,1.82,15.48,7.67
		c2.64,12.33-10.33,23.84-22.59,25.94l0.49,2.12c1.23,5.74,8.28,5.8,12.53,5.05C455.46,222.64,460.28,208.35,462.92,207.88"/>
	<path class="st0" d="M486.58,223.13c0-11.67,3.44-16.9,3.44-23.46c0-2.33-1.11-4-5-4c-5.89,0-12.23,12.01-14.01,21.01v0.78
		c0,6,2.34,9.79,2.34,12.9c0,2.78-2,5-9.45,7.89c-0.89,0.33-1.78,0.56-2.56,0.56c-3.67,0-4.89-4.11-4.89-10.89
		c0-18.9,0.11-30.13,8.78-43.25c1.44-2.22,2.89-3.11,4.33-3.11c3.11,0,6.12,4.34,7.56,7.67c3-3.11,7.23-5.45,13.12-5.45
		c10.01,0,15.34,4.89,15.34,12.79c0,10.79-4.67,21.79-4.67,26.12c0,1.22,0.33,1.89,1.22,1.89c4.34,0,10.9-8.86,13.01-8.86
		c1.11,0,6.63-2.29,6.63,0.27c0,9.67-14.19,21.38-26.31,21.38C488.47,237.36,486.58,230.57,486.58,223.13"/>
	<path class="st0" d="M535.05,205.56c4.22,4.45,18.8,4.17,19.56,16.79c0.6,9.88-8.23,15.57-22.57,15.57
		c-14.79,0-20.68-7.12-20.68-14.12c0-6.78,5.58-9.94,9.36-9.94c-8.99,0-7.02,7.72,8.29,12.81c7.7,2.56,12.42-7.23,0.43-15.41
		c-7.75-5.29-10.36-7.29-10.36-16.43c0-11.01,8.58-12.64,13.55-12.87c9.78-0.45,11.75,5.35,11.75,11.24
		C544.38,201.31,535.05,205.56,535.05,205.56"/>
	<path class="st0" d="M511.32,218.9c5.04-6.89,27.07-23.2,22.03-28.76c0,0,6.1-4.24,6.36,0.26c0.26,4.51,2.65,8.49,0,10.34
		c-2.65,1.86-11.95,21.87-26.54,28.5C498.59,235.87,506.28,225.79,511.32,218.9"/>
	<polygon class="st1" points="281.89,0 255.57,27.09 281.89,54.18 281.89,128.23 229.25,128.23 334.52,128.23 281.89,128.23 
		281.89,54.18 308.2,27.09 	"/>
	<polygon class="st2" points="229.25,0 176.62,54.18 176.62,128.23 229.25,128.23 229.25,54.18 255.57,27.09 	"/>
	<polygon class="st3" points="255.57,27.09 229.25,54.18 229.25,128.22 281.89,128.22 281.89,54.18 	"/>
	<polygon class="st4" points="334.52,0 308.2,27.09 334.52,54.18 334.52,128.23 387.15,128.23 387.15,54.18 	"/>
	<polygon class="st5" points="308.2,27.09 281.89,54.18 281.89,128.22 334.52,128.22 334.52,54.18 	"/>
</g>
</svg>
