<?xml version="1.0" encoding="utf-8"?>
<!-- Generator: Adobe Illustrator 23.0.4, SVG Export Plug-In . SVG Version: 6.00 Build 0)  -->
<svg version="1.1" id="Capa_1" xmlns="http://www.w3.org/2000/svg" xmlns:xlink="http://www.w3.org/1999/xlink" x="0px" y="0px"
	 viewBox="0 0 512 370.3" style="enable-background:new 0 0 512 370.3;" xml:space="preserve">
<style type="text/css">
	.st0{fill:#D9326F;}
</style>
<g>
	<g>
		<path class="st0" d="M361.5,69.3H50.7l43.5-43.7c5.8-5.9,5.8-15.4,0-21.2c-5.9-5.8-15.4-5.8-21.2,0L4.4,73.3
			c-3,3-4.4,6.9-4.4,10.8c0,0.1,0,0.1,0,0.2c0,5.2,2.6,9.8,6.7,12.5L73,163.3c5.8,5.9,15.3,5.9,21.2,0c5.9-5.8,5.9-15.3,0-21.2
			L51.5,99.3h310c66.4,0,120.5,54.1,120.5,120.5s-54.1,120.5-120.5,120.5H15c-8.3,0-15,6.7-15,15s6.7,15,15,15h346.5
			c83,0,150.5-67.5,150.5-150.5S444.5,69.3,361.5,69.3z"/>
	</g>
</g>
</svg>
