<svg height="480pt" viewBox="0 0 480 480" width="480pt" xmlns="http://www.w3.org/2000/svg"><path d="m424 112h-368c-13.253906 0-24 10.746094-24 24v304c0 4.417969 3.582031 8 8 8h400c4.417969 0 8-3.582031 8-8v-304c0-13.253906-10.746094-24-24-24zm8 320h-52.6875l52.6875-52.6875zm-64-11.3125v-52.6875h52.6875zm64-68.6875h-72c-4.417969 0-8 3.582031-8 8v72h-304v-296c0-4.417969 3.582031-8 8-8h368c4.417969 0 8 3.582031 8 8zm0 0"/><path d="m328 256h-24v-40c0-4.417969-3.582031-8-8-8s-8 3.582031-8 8v40h-48v-56c0-4.417969-3.582031-8-8-8s-8 3.582031-8 8v64c0 4.417969 3.582031 8 8 8h56v56c0 4.417969 3.582031 8 8 8s8-3.582031 8-8v-56h24c4.417969 0 8-3.582031 8-8s-3.582031-8-8-8zm0 0"/><path d="m203.777344 192.945312c-2.605469-1.394531-5.761719-1.242187-8.21875.398438l-48 32c-3.675782 2.453125-4.667969 7.421875-2.214844 11.097656 2.453125 3.675782 7.421875 4.667969 11.097656 2.214844l35.558594-23.710938v113.054688c0 4.417969 3.582031 8 8 8s8-3.582031 8-8v-128c0-2.949219-1.621094-5.664062-4.222656-7.054688zm0 0"/><path d="m440 32h-48v-8c0-13.253906-10.746094-24-24-24s-24 10.746094-24 24v8h-80v-8c0-13.253906-10.746094-24-24-24s-24 10.746094-24 24v8h-80v-8c0-13.253906-10.746094-24-24-24s-24 10.746094-24 24v8h-48c-22.082031.027344-39.9726562 17.917969-40 40v368c.0273438 22.082031 17.917969 39.972656 40 40h400c22.082031-.027344 39.972656-17.917969 40-40v-368c-.027344-22.082031-17.917969-39.972656-40-40zm-80-8c0-4.417969 3.582031-8 8-8s8 3.582031 8 8v48c0 4.417969-3.582031 8-8 8s-8-3.582031-8-8zm-128 32v-32c0-4.417969 3.582031-8 8-8s8 3.582031 8 8v48c0 4.417969-3.582031 8-8 8s-8-3.582031-8-8zm-128-32c0-4.417969 3.582031-8 8-8s8 3.582031 8 8v48c0 4.417969-3.582031 8-8 8s-8-3.582031-8-8zm360 88v328c0 13.253906-10.746094 24-24 24h-400c-13.253906 0-24-10.746094-24-24v-368c0-13.253906 10.746094-24 24-24h48v24c0 13.253906 10.746094 24 24 24s24-10.746094 24-24v-24h80v24c0 13.253906 10.746094 24 24 24s24-10.746094 24-24v-24h80v24c0 13.253906 10.746094 24 24 24s24-10.746094 24-24v-24h48c13.253906 0 24 10.746094 24 24zm0 0"/></svg>